<svg xmlns="http://www.w3.org/2000/svg" width="106.765" height="175.01" viewBox="0 0 106.765 175.01">
  <g id="Group_34919" data-name="Group 34919" transform="translate(-334.744 -75.635)">
    <g id="Group_34915" data-name="Group 34915" transform="translate(368.697 75.635)">
      <path id="Path_91847" data-name="Path 91847" d="M412.062,144.707l-29.507,17.174-29.609-17.095,29.507-17.174,29.609,12.53Z" transform="translate(-339.25 8.453)" fill="#cad9ff"/>
      <path id="Path_91848" data-name="Path 91848" d="M412.062,142.964l-29.507,17.175-29.609-17.095,29.507-17.175Z" transform="translate(-339.25 5.632)" fill="#e8eefc"/>
      <path id="Path_91849" data-name="Path 91849" d="M364.815,99.711V217.657l20.478-11.823V87.888Z" transform="translate(-320.049 -55.812)" fill="#cad9ff"/>
      <path id="Path_91850" data-name="Path 91850" d="M349.052,186.909l38.776,22.424,4.122-2.216V120.524l-42.9-24.808Z" transform="translate(-345.55 -43.149)" fill="#778dfd"/>
      <path id="Path_91851" data-name="Path 91851" d="M347.714,187.573l42.9,24.808V121.188l-42.9-24.808Z" transform="translate(-347.714 -42.075)" fill="#8da3ff"/>
      <path id="Path_91852" data-name="Path 91852" d="M357.877,103.71v9.059l13.265,7.671V111.38Z" transform="translate(-331.274 -30.217)" fill="#fff"/>
      <path id="Path_91853" data-name="Path 91853" d="M369,111.976,358.315,105.8v2.771L369,114.748Z" transform="translate(-330.564 -26.842)" fill="#4f4284"/>
      <path id="Path_91854" data-name="Path 91854" d="M361.746,106.488l-12.694-7.566v7.553l12.694,7.566Z" transform="translate(-345.55 -37.962)" fill="#4f4284"/>
      <path id="Path_91855" data-name="Path 91855" d="M349.052,130.6l42.9,24.808,22.93-54.581-42.9-24.808Z" transform="translate(-345.55 -75.015)" fill="#778dfd"/>
      <path id="Path_91856" data-name="Path 91856" d="M347.714,130.216l42.9,24.808,22.93-54.581-42.9-24.808Z" transform="translate(-347.714 -75.635)" fill="#a6bbff"/>
      <path id="Path_91857" data-name="Path 91857" d="M359.976,76.637l-3.5-1,42.9,24.808,3.5,1Z" transform="translate(-333.544 -75.635)" fill="#8da3ff"/>
      <g id="Group_34914" data-name="Group 34914" transform="translate(3.958 4.774)">
        <path id="Path_91858" data-name="Path 91858" d="M402.023,96.325l-7.793-4.507L376.519,81.576l-7.12-4.117-3.808,9.064-9.471,22.546-4.168,9.921-2.725,6.487,3.76,2.174,33.979,19.65,18.172-43.256,2-4.761Z" transform="translate(-349.226 -77.459)" fill="#5f5599"/>
        <path id="Path_91859" data-name="Path 91859" d="M357.391,90.695l-4.33,10.449,23.182,13.406,4.33-10.448Z" transform="translate(-343.024 -56.046)" fill="#ffd95f"/>
        <path id="Path_91860" data-name="Path 91860" d="M359.486,85.781,355.155,96.23l23.182,13.406,4.33-10.448Z" transform="translate(-339.635 -63.994)" fill="#ffd95f"/>
        <path id="Path_91861" data-name="Path 91861" d="M361.474,80.938l-4.33,10.449,23.182,13.406,4.331-10.448Z" transform="translate(-336.419 -71.829)" fill="#ffd95f"/>
        <path id="Path_91862" data-name="Path 91862" d="M372.259,79.031l-10.928,4.947-9.472,22.546,38.11-17.25Z" transform="translate(-344.967 -74.914)" fill="#fff" opacity="0.5"/>
        <path id="Path_91863" data-name="Path 91863" d="M407.138,87.623l-5.115-2.958L351.951,107.33l-2.725,6.487,3.76,2.174,52.151-23.606Z" transform="translate(-349.226 -65.799)" fill="#fff" opacity="0.5"/>
      </g>
    </g>
    <g id="Group_34918" data-name="Group 34918" transform="translate(334.744 88.39)">
      <path id="Path_91864" data-name="Path 91864" d="M337.022,91.934c.306-.034-.387,12.636-1.657,17.78s-.39,7.133.864,8.529,10.788,8.256,10.788,8.256l3.45-3.141-5.586-12.191s4.256-15.628,3.822-16.06S337.022,91.934,337.022,91.934Z" transform="translate(-334.744 -62.022)" fill="#ffc8b5"/>
      <g id="Group_34916" data-name="Group 34916" transform="translate(3.486 60.085)">
        <path id="Path_91865" data-name="Path 91865" d="M339.757,124.6c-8.374-8.879-.4-18.259,3.636-21.141,2.128,2.633,14.817,7.835,14.892,8.154,1.531,6.526.128,13.353-1.8,19.667-1.2,3.937-2.243,10.584-5.042,21.364,1.3,5.361-.175,13.484-.717,19.552-.377,4.23-2.055,15.33-2.319,16.277.762-.233,2.034-1.366,3.759-1.961a8.038,8.038,0,0,1,4.594-.228c2.872,1.139,3.691,2.173,2.919,4.013-1.136,2.709-4.743,3.576-7.3,4.107-3.859.8-6.037,6.945-10.16,2.7-1.058-1.089-.126-3.955.238-5.463-.076-1.05.241-10.364-.945-17.466-1.429-8.55-2.173-18.139,2.832-23.149C338.72,136.727,338.922,128.978,339.757,124.6Z" transform="translate(-336.076 -103.46)" fill="#f8baa6"/>
        <path id="Path_91866" data-name="Path 91866" d="M339.252,141.11s2.411.867,3.963,1.359a8.557,8.557,0,0,0,8.133-2.068c1.107-1.073,1.9-2.429,1.513-3.194-.733-1.44-3.861-.717-3.861-.717s5.377-3.73,8.39-1.267c1.4,1.147,1.738,3.429-.6,5.859-1.4,1.45-5.5,4.031-9.034,5.927-2.309,1.236-6.05,3.688-8.612,1.215S339.252,141.11,339.252,141.11Z" transform="translate(-332.911 -53.436)" fill="#20baae"/>
      </g>
      <path id="Path_91867" data-name="Path 91867" d="M351.5,165.2s-3.633.044-5.7.086a8.527,8.527,0,0,1-5.272-1.558,58.629,58.629,0,0,1,.246-9.311,35,35,0,0,1,1.215-5.183s-3.492-9.79-3.859-14.9a75.464,75.464,0,0,1,0-9.848s-3.492-5.77-1.471-12.2,4.61-8.487,4.61-8.487l11.7,7.715s-.045,25.929.5,31.405S351.5,165.2,351.5,165.2Z" transform="translate(-332.662 -42.83)" fill="#3f3772"/>
      <g id="Group_34917" data-name="Group 34917" transform="translate(12.274 66.404)">
        <path id="Path_91868" data-name="Path 91868" d="M343.114,127.015c-8.374-8.879-.4-18.259,3.636-21.141,2.128,2.633,9.4,6.6,9.476,6.927,1.534,6.523,2.618,14.461.688,20.777-1.2,3.934-.215,9.081-3.013,19.861,1.3,5.361.723,15.1.181,21.172-.38,4.23-2.055,15.33-2.319,16.28.762-.236,2.034-1.366,3.759-1.963a8.011,8.011,0,0,1,4.594-.225c2.872,1.136,3.691,2.17,2.919,4.01-1.139,2.709-4.743,3.576-7.3,4.107-3.861.8-6.037,6.948-10.162,2.7-1.055-1.089-.126-3.955.238-5.461-.073-1.05.243-10.366-.945-17.468-1.427-8.55-2.17-18.138,2.835-23.149C342.078,139.141,342.279,131.392,343.114,127.015Z" transform="translate(-339.432 -105.874)" fill="#ffc8b5"/>
        <path id="Path_91869" data-name="Path 91869" d="M342.607,143.524s2.414.867,3.966,1.361a8.567,8.567,0,0,0,8.133-2.071c1.107-1.073,1.9-2.427,1.513-3.191-.733-1.442-3.861-.72-3.861-.72s5.374-3.73,8.387-1.264c1.4,1.144,1.741,3.427-.6,5.856-1.4,1.45-5.5,4.034-9.034,5.927-2.309,1.236-6.05,3.688-8.612,1.217S342.607,143.524,342.607,143.524Z" transform="translate(-336.268 -55.849)" fill="#20baae"/>
      </g>
      <path id="Path_91870" data-name="Path 91870" d="M340.788,89.079c3.733-1.338,8.28.791,8.466,4.623,2.055,3.487.037,8.6-3.175,10.937-3.736,2.715-9.508-.031-10.751-4.23C334.042,96.066,336.427,90.642,340.788,89.079Z" transform="translate(-334.361 -67.289)" fill="#e8eefc"/>
      <path id="Path_91871" data-name="Path 91871" d="M337.393,96.733a.9.9,0,0,1,.639-.639c4.408-1.215,5.432-3.6,6.2-7.584a.906.906,0,0,1,1.322-.537,27.723,27.723,0,0,0,7.377,3.209c-2.471,7.374,2.005,8.95,3.948,11.879.489.738-4.61,4.45-7.338,4.065a16.875,16.875,0,0,1-6.709-2.364C340.6,103.348,336.746,99.761,337.393,96.733Z" transform="translate(-330.576 -68.621)" fill="#ffc8b5"/>
      <path id="Path_91872" data-name="Path 91872" d="M339.808,90.066c.411-3.8,3.521-8.851,7.78-8.529,4.338.327,7.285,6.767,7.626,9.764.573,5.094.126,14.7-7.916,11.615C341.033,100.516,339.2,95.728,339.808,90.066Z" transform="translate(-326.732 -78.865)" fill="#ffc8b5"/>
      <path id="Path_91873" data-name="Path 91873" d="M345.755,86.309s-3.22-2.2-3.728.932a3.887,3.887,0,0,0,2.55,4.215Z" transform="translate(-323.054 -72.339)" fill="#ffc8b5"/>
      <path id="Path_91874" data-name="Path 91874" d="M359.758,108.533a36.236,36.236,0,0,1,3.673,15.259c-.128,7.953-4.094,18.322-4.293,25.261s-1.707,16.937-1.707,16.937a15.869,15.869,0,0,1-4.793,1.644,13.316,13.316,0,0,1-6.372-.859s-.814-7.906,1.283-13.793c-1.212-3.835-4.845-22.057-4.5-25.924-2.246-2.435-6.691-4.843-4.715-12.33S342,105.138,342,105.138Z" transform="translate(-329.73 -40.661)" fill="#4f4284"/>
      <path id="Path_91875" data-name="Path 91875" d="M337.3,108.985c-2.788-8.618-1.086-14.348,1.377-17.167,1.013-1.16,3.416-3.547,6.044-1.183-.853,3.927,5.921,5.183,10.835,5.183,3.717,2.775,7.055,4.715,9.178,8.471,2.251,3.976,3.327,8.016-1.471,10.913,1.065,3.154-.178,7.01-.016,12.8a30.67,30.67,0,0,0,1.78,7.9c-4.482,3.56-14.44,2.848-19.209-.044-3.725-2.257-6.586-5.084-6.4-7.809,1.236-2.649,3.924-2.961,3.788-6.256C343.033,117.626,338.575,112.935,337.3,108.985Z" transform="translate(-332.942 -65.753)" fill="#37d1c9"/>
      <path id="Path_91876" data-name="Path 91876" d="M375.4,94.392c-3.6,2.2-9.864,10.468-12.756,13.725-1.581-2.589-3.8-4.759-5.62-7.165a23.429,23.429,0,0,0-5.736-4.877c-2.209-1.432-9.853,2.88-7.264,7.594,2.359,4.29,4.613,5.393,8.372,8.212a41.867,41.867,0,0,0,9.209,5.555c2.06,1.039,2.6-.44,4.853-2.136,4.806-3.615,9.27-13.387,12.662-17.552C378.125,96.478,375.9,94.085,375.4,94.392Z" transform="translate(-320.587 -58.089)" fill="#ffc8b5"/>
      <path id="Path_91877" data-name="Path 91877" d="M349.012,93.66c5.72-1.861,10.749,5.058,11.947,9.937,1.8,1.366-3.681,9.379-6.194,9.356-4.989,2.241-10.029.092-12.505-5.078C339.852,102.848,343.936,95.309,349.012,93.66Z" transform="translate(-323.732 -59.732)" fill="#e8eefc"/>
      <path id="Path_91878" data-name="Path 91878" d="M352.793,97.264l1.6,1.916s.861,1.683-1.152,4.667a10.353,10.353,0,0,1-5.133,3.893l-1.513-1.12a16.574,16.574,0,0,0,4.662-4.084A9.749,9.749,0,0,0,352.793,97.264Z" transform="translate(-315.565 -53.399)" fill="#fff"/>
      <path id="Path_91879" data-name="Path 91879" d="M336.162,102.8a15.973,15.973,0,0,1,5.542-9.474,12.662,12.662,0,0,1,2.243-8.945c2.487-3.233,7.49-5.058,11.1-3,4.348-1.1,9.542,1.154,8.662,6.914a7.9,7.9,0,0,1-8.1,6.332c-.668,5.115,1.665,9.22-.029,14.767-1.38,4.521-5.678,9.725-15.471,10.646C338.2,114.27,335.359,106.629,336.162,102.8Z" transform="translate(-332.675 -80.507)" fill="#332f66"/>
      <path id="Path_91880" data-name="Path 91880" d="M351.538,91.71c-.393,3.39-4.974,3.872-4.974,3.872A20.411,20.411,0,0,1,343,90.207c-1.44,1.484-5.764.791-5.764.791s-1.359-3.809.56-6.165a9.936,9.936,0,0,1,6.267,2.78S350.438,89.074,351.538,91.71Z" transform="translate(-331.462 -73.509)" fill="#16a395"/>
      <path id="Path_91881" data-name="Path 91881" d="M350.732,89.822c0,2.068-2.188,6.788-4.584,4.644a8.287,8.287,0,0,1-2.759-4.251s-3.154,1.366-5.288-.073.194-7.963,2.992-5.688c2.694,2.186,3.016,3.249,3.016,3.249S350.732,86.772,350.732,89.822Z" transform="translate(-330.656 -74.896)" fill="#37d1c9"/>
      <path id="Path_91882" data-name="Path 91882" d="M339.46,86.7c-.4.984-.335,1.942.157,2.144s1.215-.429,1.618-1.414.335-1.942-.154-2.144S339.866,85.717,339.46,86.7Z" transform="translate(-327.539 -72.838)" fill="#fff"/>
      <path id="Path_91883" data-name="Path 91883" d="M354.648,103.807c.709-.665,3.259-6.466,6.429-9.649s4.238-4.113,5.691-4.233-3.084,5.262-3.084,5.262,3.084,4.44,2.466,6.364-7.5,5.623-7.5,5.623Z" transform="translate(-302.544 -65.275)" fill="#ffc8b5"/>
    </g>
  </g>
</svg>
