<svg xmlns="http://www.w3.org/2000/svg" xmlns:xlink="http://www.w3.org/1999/xlink" width="185.683" height="142.806" viewBox="0 0 185.683 142.806">
  <defs>
    <linearGradient id="linear-gradient" y1="0.23" x2="1" y2="0.23" gradientUnits="objectBoundingBox">
      <stop offset="0" stop-color="#325c92"/>
      <stop offset="0.747" stop-color="#325c92"/>
      <stop offset="0.838" stop-color="#5688c9"/>
      <stop offset="0.874" stop-color="#5787c5"/>
      <stop offset="0.897" stop-color="#4f83c5"/>
      <stop offset="0.929" stop-color="#4f82c4"/>
      <stop offset="1" stop-color="#325c92"/>
    </linearGradient>
    <linearGradient id="linear-gradient-2" x1="0.612" y1="-0.381" x2="0.441" y2="0.379" gradientUnits="objectBoundingBox">
      <stop offset="0" stop-color="#afb6e5"/>
      <stop offset="0.145" stop-color="#b5bce8"/>
      <stop offset="0.349" stop-color="#c7cdf0"/>
      <stop offset="0.581" stop-color="#e5e9ff"/>
      <stop offset="0.855" stop-color="#f4f6ff"/>
      <stop offset="1" stop-color="#fff"/>
    </linearGradient>
    <radialGradient id="radial-gradient" cx="0.5" cy="0.499" r="0.763" gradientTransform="translate(0.237 0) scale(0.527 1)" gradientUnits="objectBoundingBox">
      <stop offset="0" stop-color="#fff"/>
      <stop offset="1"/>
    </radialGradient>
    <linearGradient id="linear-gradient-3" x1="0.7" y1="0.175" x2="1.24" y2="1.171" gradientUnits="objectBoundingBox">
      <stop offset="0" stop-color="#bcc2eb"/>
      <stop offset="0.192" stop-color="#c6ccf0"/>
      <stop offset="0.277" stop-color="#d0d4f0"/>
      <stop offset="0.283" stop-color="#d1d5f0"/>
      <stop offset="0.361" stop-color="#bdc3e9"/>
      <stop offset="0.409" stop-color="#afb6e5"/>
      <stop offset="0.909" stop-color="#afb6e5"/>
      <stop offset="0.988" stop-color="#b9c0ea"/>
      <stop offset="1" stop-color="#bcc2eb"/>
    </linearGradient>
    <linearGradient id="linear-gradient-4" x1="0.488" y1="0.961" x2="1.516" y2="0.007" gradientUnits="objectBoundingBox">
      <stop offset="0" stop-color="#afb6e5"/>
      <stop offset="0.145" stop-color="#b5bce8"/>
      <stop offset="0.349" stop-color="#c7cdf0"/>
      <stop offset="0.581" stop-color="#e5e9ff"/>
      <stop offset="0.955" stop-color="#f4f4fb"/>
      <stop offset="1" stop-color="#f7f6fb"/>
    </linearGradient>
    <radialGradient id="radial-gradient-2" cx="0.5" cy="0.5" r="0.481" gradientTransform="translate(-0.081) scale(1.085 1)" xlink:href="#radial-gradient"/>
    <linearGradient id="linear-gradient-5" x1="-1.351" y1="14.592" x2="-2.469" y2="15.815" gradientUnits="objectBoundingBox">
      <stop offset="0.005" stop-color="#273b98"/>
      <stop offset="0.227" stop-color="#2e2ba2"/>
      <stop offset="0.399" stop-color="#361cac"/>
      <stop offset="0.768" stop-color="#440b88"/>
      <stop offset="1" stop-color="#4e0070"/>
    </linearGradient>
    <linearGradient id="linear-gradient-6" x1="1.047" y1="1.289" x2="-1.102" y2="-1.15" gradientUnits="objectBoundingBox">
      <stop offset="0" stop-color="#6cf"/>
      <stop offset="0.012" stop-color="#60cef6"/>
      <stop offset="0.072" stop-color="#49dad2"/>
      <stop offset="0.128" stop-color="#38e2b8"/>
      <stop offset="0.178" stop-color="#2ee7a8"/>
      <stop offset="0.217" stop-color="#2be9a3"/>
      <stop offset="0.224" stop-color="#31e99f"/>
      <stop offset="0.278" stop-color="#60ee86"/>
      <stop offset="0.33" stop-color="#84f272"/>
      <stop offset="0.378" stop-color="#9ef464"/>
      <stop offset="0.421" stop-color="#aef65b"/>
      <stop offset="0.455" stop-color="#b4f759"/>
      <stop offset="0.555" stop-color="#daed6f"/>
      <stop offset="0.662" stop-color="#ffe585"/>
      <stop offset="0.702" stop-color="#ffdc82"/>
      <stop offset="0.768" stop-color="#ffc47a"/>
      <stop offset="0.848" stop-color="#ff9e6e"/>
      <stop offset="1" stop-color="#ff4572"/>
    </linearGradient>
    <linearGradient id="linear-gradient-7" x1="3.221" y1="0.027" x2="-0.217" y2="0.646" xlink:href="#linear-gradient-6"/>
    <linearGradient id="linear-gradient-8" x1="3.169" y1="-0.294" x2="0.046" y2="0.661" gradientUnits="objectBoundingBox">
      <stop offset="0" stop-color="#6cf"/>
      <stop offset="0.012" stop-color="#60cef6"/>
      <stop offset="0.072" stop-color="#49dad2"/>
      <stop offset="0.128" stop-color="#38e2b8"/>
      <stop offset="0.178" stop-color="#2ee7a8"/>
      <stop offset="0.217" stop-color="#2be9a3"/>
      <stop offset="0.224" stop-color="#31e99f"/>
      <stop offset="0.278" stop-color="#60ee86"/>
      <stop offset="0.33" stop-color="#84f272"/>
      <stop offset="0.378" stop-color="#9ef464"/>
      <stop offset="0.421" stop-color="#aef65b"/>
      <stop offset="0.455" stop-color="#b4f759"/>
      <stop offset="0.555" stop-color="#daed6f"/>
      <stop offset="0.662" stop-color="#ffe585"/>
      <stop offset="0.691" stop-color="#ffdc82"/>
      <stop offset="0.74" stop-color="#ffc47a"/>
      <stop offset="0.799" stop-color="#ff9e6e"/>
      <stop offset="1" stop-color="#ff4572"/>
    </linearGradient>
    <linearGradient id="linear-gradient-9" x1="2.263" y1="1.33" x2="-0.74" y2="-0.044" xlink:href="#linear-gradient-6"/>
    <linearGradient id="linear-gradient-10" x1="0.737" y1="0.892" x2="-1.011" y2="-2.306" gradientUnits="objectBoundingBox">
      <stop offset="0" stop-color="#5fadfc"/>
      <stop offset="0.033" stop-color="#61b6fc"/>
      <stop offset="0.105" stop-color="#64c6fe"/>
      <stop offset="0.162" stop-color="#6cf"/>
      <stop offset="0.171" stop-color="#60cef6"/>
      <stop offset="0.215" stop-color="#49dad2"/>
      <stop offset="0.257" stop-color="#38e2b8"/>
      <stop offset="0.294" stop-color="#2ee7a8"/>
      <stop offset="0.323" stop-color="#2be9a3"/>
      <stop offset="0.327" stop-color="#31e99f"/>
      <stop offset="0.357" stop-color="#60ee86"/>
      <stop offset="0.386" stop-color="#84f272"/>
      <stop offset="0.412" stop-color="#9ef464"/>
      <stop offset="0.436" stop-color="#aef65b"/>
      <stop offset="0.455" stop-color="#b4f759"/>
      <stop offset="0.555" stop-color="#daed6f"/>
      <stop offset="0.662" stop-color="#ffe585"/>
      <stop offset="0.702" stop-color="#ffdc82"/>
      <stop offset="0.768" stop-color="#ffc47a"/>
      <stop offset="0.848" stop-color="#ff9e6e"/>
      <stop offset="1" stop-color="#ff4572"/>
    </linearGradient>
    <radialGradient id="radial-gradient-3" cx="0.912" cy="0.855" r="1.113" gradientTransform="translate(0.61) scale(0.595 1)" gradientUnits="objectBoundingBox">
      <stop offset="0" stop-color="#b4f759"/>
      <stop offset="0.002" stop-color="#b3f658"/>
      <stop offset="0.12" stop-color="#89bd44"/>
      <stop offset="0.241" stop-color="#658b32"/>
      <stop offset="0.363" stop-color="#466022"/>
      <stop offset="0.486" stop-color="#2c3d16"/>
      <stop offset="0.611" stop-color="#19220c"/>
      <stop offset="0.737" stop-color="#0b0f05"/>
      <stop offset="0.865" stop-color="#020301"/>
      <stop offset="1"/>
    </radialGradient>
    <radialGradient id="radial-gradient-4" cx="0.912" cy="0.855" r="1.099" gradientTransform="translate(0.59) scale(0.611 1)" xlink:href="#radial-gradient-3"/>
    <linearGradient id="linear-gradient-11" x1="-33.965" y1="0" x2="-33.265" y2="0.941" xlink:href="#linear-gradient-3"/>
    <linearGradient id="linear-gradient-12" x1="-32.222" y1="63.739" x2="-33.743" y2="65.341" xlink:href="#linear-gradient-4"/>
    <linearGradient id="linear-gradient-13" x1="16.728" y1="-30.669" x2="17.075" y2="-29.815" xlink:href="#linear-gradient-4"/>
    <linearGradient id="linear-gradient-14" x1="-37.34" y1="0" x2="-36.577" y2="0.98" xlink:href="#linear-gradient-3"/>
    <linearGradient id="linear-gradient-15" x1="-41.076" y1="0.69" x2="-39.138" y2="0.355" xlink:href="#linear-gradient-4"/>
    <radialGradient id="radial-gradient-5" cx="0.574" cy="0.327" r="0.424" gradientTransform="translate(-1.442) scale(1.514 1)" xlink:href="#radial-gradient"/>
  </defs>
  <g id="Group_35450" data-name="Group 35450" transform="translate(0 -0.001)">
    <g id="Group_33487" data-name="Group 33487" transform="translate(0 0.001)">
      <g id="Group_33460" data-name="Group 33460" transform="translate(71.37 37.454)">
        <g id="Group_33459" data-name="Group 33459" transform="translate(0 24.489)" opacity="0.5" style="mix-blend-mode: multiply;isolation: isolate">
          <path id="Path_87974" data-name="Path 87974" d="M473.684,297.8l-90.269-52.654c-3.394-1.913-2.968-5.342.951-7.659l5.268-3.263c3.92-2.317,9.848-2.645,13.243-.731l90.269,52.654c3.394,1.913,2.968,5.342-.951,7.659l-5.268,3.263C483.007,299.384,477.078,299.712,473.684,297.8Z" transform="translate(-381.124 -232.246)" fill="#afb6e5" opacity="0"/>
          <path id="Path_87975" data-name="Path 87975" d="M473.924,297.826l-90.018-52.513c-3.365-1.9-2.943-5.3.943-7.592l5.036-3.126c3.885-2.3,9.762-2.621,13.127-.725l90.018,52.513c3.365,1.9,2.943,5.295-.942,7.592l-5.036,3.126C483.166,299.4,477.289,299.722,473.924,297.826Z" transform="translate(-381.371 -232.434)" fill="#a7adda" opacity="0.024"/>
          <path id="Path_87976" data-name="Path 87976" d="M474.165,297.852,384.4,245.481c-3.335-1.88-2.917-5.248.934-7.525l4.8-2.989c3.851-2.276,9.676-2.6,13.011-.718l89.767,52.371c3.335,1.88,2.917,5.249-.934,7.525l-4.8,2.989C483.325,299.41,477.5,299.732,474.165,297.852Z" transform="translate(-381.619 -232.623)" fill="#9ea5cf" opacity="0.048"/>
          <path id="Path_87977" data-name="Path 87977" d="M474.406,297.879l-89.516-52.23c-3.305-1.863-2.891-5.2.926-7.458l4.572-2.852c3.817-2.256,9.59-2.575,12.9-.712l89.516,52.23c3.305,1.863,2.891,5.2-.926,7.458l-4.572,2.852C483.485,299.423,477.711,299.742,474.406,297.879Z" transform="translate(-381.866 -232.811)" fill="#969cc4" opacity="0.071"/>
          <path id="Path_87978" data-name="Path 87978" d="M474.647,297.905l-89.265-52.089c-3.276-1.846-2.865-5.155.917-7.391l4.34-2.715c3.782-2.236,9.5-2.552,12.78-.706l89.265,52.089c3.275,1.846,2.865,5.155-.918,7.391l-4.34,2.715C483.644,299.436,477.922,299.751,474.647,297.905Z" transform="translate(-382.113 -232.999)" fill="#8e93b9" opacity="0.095"/>
          <path id="Path_87979" data-name="Path 87979" d="M474.888,297.932l-89.014-51.947c-3.246-1.829-2.839-5.108.909-7.324l4.108-2.577c3.748-2.216,9.418-2.529,12.664-.7l89.014,51.947c3.246,1.829,2.839,5.108-.909,7.324l-4.108,2.578C483.8,299.449,478.133,299.762,474.888,297.932Z" transform="translate(-382.361 -233.187)" fill="#858bae" opacity="0.119"/>
          <path id="Path_87980" data-name="Path 87980" d="M475.128,297.959l-88.764-51.806c-3.216-1.813-2.813-5.062.9-7.257l3.876-2.441c3.714-2.2,9.332-2.506,12.548-.693l88.764,51.806c3.216,1.812,2.813,5.062-.9,7.257l-3.876,2.44C483.962,299.461,478.345,299.772,475.128,297.959Z" transform="translate(-382.608 -233.376)" fill="#7d82a4" opacity="0.143"/>
          <path id="Path_87981" data-name="Path 87981" d="M475.369,297.986l-88.513-51.665c-3.186-1.8-2.787-5.015.893-7.19l3.645-2.3c3.679-2.175,9.246-2.482,12.432-.686l88.513,51.665c3.186,1.8,2.787,5.015-.893,7.19l-3.645,2.3C484.122,299.475,478.556,299.782,475.369,297.986Z" transform="translate(-382.856 -233.564)" fill="#757999" opacity="0.167"/>
          <path id="Path_87982" data-name="Path 87982" d="M475.61,298.013l-88.262-51.524c-3.157-1.779-2.761-4.968.884-7.123l3.412-2.166c3.646-2.155,9.159-2.459,12.316-.68l88.262,51.524c3.156,1.779,2.761,4.968-.884,7.123l-3.413,2.166C484.281,299.487,478.767,299.792,475.61,298.013Z" transform="translate(-383.103 -233.752)" fill="#6c718e" opacity="0.19"/>
          <path id="Path_87983" data-name="Path 87983" d="M475.851,298.039,387.84,246.657c-3.127-1.762-2.735-4.921.876-7.056l3.18-2.029c3.611-2.135,9.073-2.436,12.2-.674l88.011,51.382c3.127,1.762,2.735,4.921-.876,7.056l-3.18,2.029C484.44,299.5,478.978,299.8,475.851,298.039Z" transform="translate(-383.35 -233.941)" fill="#646883" opacity="0.214"/>
          <path id="Path_87984" data-name="Path 87984" d="M476.091,298.066l-87.76-51.241c-3.1-1.746-2.709-4.875.868-6.989l2.948-1.892c3.576-2.114,8.987-2.413,12.084-.667l87.76,51.241c3.1,1.746,2.709,4.875-.868,6.989l-2.948,1.892C484.6,299.513,479.189,299.812,476.091,298.066Z" transform="translate(-383.598 -234.129)" fill="#5c5f78" opacity="0.238"/>
          <path id="Path_87985" data-name="Path 87985" d="M476.332,298.093l-87.509-51.1c-3.068-1.729-2.683-4.828.859-6.922l2.716-1.755c3.543-2.094,8.9-2.39,11.969-.661l87.509,51.1c3.068,1.729,2.683,4.828-.859,6.922l-2.716,1.755C484.758,299.526,479.4,299.822,476.332,298.093Z" transform="translate(-383.845 -234.317)" fill="#53576d" opacity="0.262"/>
          <path id="Path_87986" data-name="Path 87986" d="M476.573,298.119l-87.258-50.958c-3.038-1.712-2.657-4.781.851-6.855l2.484-1.618c3.508-2.074,8.815-2.367,11.853-.654l87.258,50.958c3.038,1.712,2.657,4.781-.851,6.855l-2.484,1.618C484.918,299.539,479.611,299.832,476.573,298.119Z" transform="translate(-384.092 -234.506)" fill="#4b4e62" opacity="0.286"/>
          <path id="Path_87987" data-name="Path 87987" d="M476.813,298.147,389.806,247.33c-3.008-1.7-2.631-4.735.843-6.788l2.253-1.481c3.474-2.053,8.729-2.343,11.737-.648l87.007,50.816c3.009,1.7,2.631,4.735-.842,6.788l-2.253,1.481C485.077,299.552,479.822,299.842,476.813,298.147Z" transform="translate(-384.34 -234.694)" fill="#434557" opacity="0.31"/>
          <path id="Path_87988" data-name="Path 87988" d="M477.055,298.173,390.3,247.5c-2.979-1.679-2.6-4.688.835-6.721l2.02-1.343c3.439-2.033,8.643-2.32,11.622-.642l86.756,50.675c2.979,1.679,2.605,4.688-.834,6.721l-2.021,1.343C485.236,299.565,480.033,299.852,477.055,298.173Z" transform="translate(-384.587 -234.882)" fill="#3a3d4c" opacity="0.333"/>
          <path id="Path_87989" data-name="Path 87989" d="M477.3,298.2,390.79,247.666c-2.949-1.662-2.579-4.641.826-6.654l1.789-1.207c3.405-2.013,8.557-2.3,11.505-.635L491.415,289.7c2.949,1.662,2.579,4.641-.826,6.654l-1.788,1.207C485.4,299.577,480.244,299.862,477.3,298.2Z" transform="translate(-384.835 -235.07)" fill="#323441" opacity="0.357"/>
          <path id="Path_87990" data-name="Path 87990" d="M477.536,298.226l-86.255-50.392c-2.919-1.645-2.553-4.594.818-6.587l1.556-1.069c3.371-1.993,8.47-2.274,11.39-.629L491.3,289.941c2.919,1.646,2.554,4.594-.818,6.587l-1.556,1.069C485.555,299.59,480.455,299.872,477.536,298.226Z" transform="translate(-385.082 -235.259)" fill="#2a2b37" opacity="0.381"/>
          <path id="Path_87991" data-name="Path 87991" d="M477.777,298.253l-86-50.251c-2.89-1.629-2.527-4.547.809-6.52l1.324-.932c3.337-1.972,8.384-2.251,11.274-.622l86,50.251c2.89,1.629,2.527,4.548-.809,6.52l-1.324.932C485.714,299.6,480.667,299.882,477.777,298.253Z" transform="translate(-385.329 -235.447)" fill="#21232c" opacity="0.405"/>
          <path id="Path_87992" data-name="Path 87992" d="M478.017,298.28,392.265,248.17c-2.86-1.612-2.5-4.5.8-6.453l1.092-.8c3.3-1.952,8.3-2.228,11.158-.616l85.753,50.11c2.86,1.612,2.5,4.5-.8,6.453l-1.092.795C485.873,299.616,480.878,299.892,478.017,298.28Z" transform="translate(-385.577 -235.636)" fill="#191a21" opacity="0.429"/>
          <path id="Path_87993" data-name="Path 87993" d="M478.259,298.307l-85.5-49.968c-2.831-1.6-2.476-4.454.792-6.386l.861-.658c3.268-1.932,8.212-2.2,11.042-.609l85.5,49.968c2.83,1.6,2.475,4.454-.793,6.386l-.861.658C486.033,299.629,481.088,299.9,478.259,298.307Z" transform="translate(-385.824 -235.824)" fill="#111116" opacity="0.452"/>
          <path id="Path_87994" data-name="Path 87994" d="M478.5,298.333l-85.252-49.827c-2.8-1.578-2.449-4.407.785-6.319l.629-.521c3.234-1.912,8.126-2.182,10.926-.6l85.251,49.827c2.8,1.578,2.45,4.407-.784,6.319l-.629.521C486.191,299.641,481.3,299.912,478.5,298.333Z" transform="translate(-386.071 -236.012)" fill="#08090b" opacity="0.476"/>
          <path id="Path_87995" data-name="Path 87995" d="M478.74,298.36l-85-49.685c-2.771-1.562-2.423-4.361.776-6.252l.4-.384c3.2-1.891,8.039-2.158,10.81-.6l85,49.685c2.771,1.561,2.423,4.361-.776,6.252l-.4.384C486.351,299.655,481.511,299.922,478.74,298.36Z" transform="translate(-386.319 -236.201)" opacity="0.5"/>
        </g>
        <path id="Path_87996" data-name="Path 87996" d="M492.209,241.127l-.643.009a4.556,4.556,0,0,0-1.357-1.12l-86.618-50.6c-2.962-1.67-8.137-1.384-11.557.638l-1.358.7a7,7,0,0,0-2.069,1.775l-.761.01v28.217h.021a3.471,3.471,0,0,0,1.979,2.617l86.618,50.6c2.963,1.669,8.137,1.384,11.557-.638l1.358-.7a5.289,5.289,0,0,0,2.771-3.291h.059Z" transform="translate(-384.374 -186.525)" fill="url(#linear-gradient)"/>
        <path id="Path_87997" data-name="Path 87997" d="M476.464,244.543l-86.618-50.6c-2.962-1.669-2.591-4.662.83-6.684l1.358-.7c3.42-2.022,8.595-2.308,11.557-.638l86.618,50.6c2.962,1.67,2.591,4.662-.83,6.684l-1.358.7C484.6,245.927,479.427,246.212,476.464,244.543Z" transform="translate(-384.374 -184.834)" fill="url(#linear-gradient-2)"/>
        <path id="Path_87998" data-name="Path 87998" d="M489.384,248.389l-1.358.7c-3.421,2.022-8.595,2.308-11.557.638l-86.618-50.6a3.525,3.525,0,0,1-1.965-2.5,3.236,3.236,0,0,0,1.965,3.277l86.618,50.6c2.963,1.669,8.137,1.384,11.557-.638l1.358-.7c2.048-1.211,2.994-2.768,2.795-4.182A5.189,5.189,0,0,1,489.384,248.389Z" transform="translate(-384.378 -190.538)" fill="url(#radial-gradient)" style="mix-blend-mode: color-dodge;isolation: isolate"/>
      </g>
      <g id="Group_33463" data-name="Group 33463" transform="translate(74.117 0)">
        <path id="Path_87999" data-name="Path 87999" d="M483.642,209.1,395.5,153.733c-2.2-1.269-3.978-4.672-3.978-7.6l-3.071,1.211c0-31.411,28.989-43.005,52.547-29.4l5,2.913c23.558,13.6,44.648,51.1,44.648,82.512h0c0,1.669-.578,2.824-1.481,3.275C488.49,206.978,484.588,209.641,483.642,209.1Z" transform="translate(-387.415 -112.321)" fill="url(#linear-gradient-3)"/>
        <path id="Path_88000" data-name="Path 88000" d="M481.592,210.57,390.42,157.933c-2.2-1.269-3.978-4.672-3.978-7.6h0c0-31.411,25.918-41.795,49.476-28.193l5,2.913c23.558,13.6,44.648,51.1,44.648,82.512h0C485.57,210.492,483.789,211.839,481.592,210.57Z" transform="translate(-386.442 -114.237)" fill="url(#linear-gradient-4)"/>
        <path id="Path_88001" data-name="Path 88001" d="M452.31,124.527l-5-2.912c-13.5-7.8-27.77-7.7-37.5-.292,9.7-6.864,23.6-6.761,36.768.84l5,2.913c23.558,13.6,44.648,51.1,44.648,82.512h0a4.156,4.156,0,0,1-.832,2.758c.949-.422,1.563-1.589,1.563-3.306h0C496.958,175.629,475.868,138.128,452.31,124.527Z" transform="translate(-397.739 -113.988)" fill="url(#radial-gradient-2)" style="mix-blend-mode: color-dodge;isolation: isolate"/>
        <path id="Path_88002" data-name="Path 88002" d="M398.595,158.442a5.6,5.6,0,0,1-2.551-4.618c1.416-26.036,20.844-36.1,44.6-22.379s43.186,46.21,44.6,73.881c.09,1.752-1.066,2.529-2.55,1.672Z" transform="translate(-391.082 -118.6)" fill="url(#linear-gradient-5)"/>
        <g id="Group_33461" data-name="Group 33461" transform="translate(11.329 14.64)">
          <path id="Path_88003" data-name="Path 88003" d="M505.362,194.412,517.9,191.2a89.369,89.369,0,0,0-17.671-23.543l-4.761,14.066A53,53,0,0,1,505.362,194.412Z" transform="translate(-450.482 -153.715)" fill="url(#linear-gradient-6)"/>
          <path id="Path_88004" data-name="Path 88004" d="M439.265,161.883a13.361,13.361,0,0,1,9.876-.9l-4.763-19.573c-6.908-1.606-13-.572-17.67,2.757Z" transform="translate(-417.239 -140.665)" fill="url(#linear-gradient-7)"/>
          <path id="Path_88005" data-name="Path 88005" d="M429.523,166.288l-12.5-17.644c-4.636,3.709-7.739,9.82-8.644,17.98l15.586,9C424.805,171.336,426.771,168.166,429.523,166.288Z" transform="translate(-408.375 -144.523)" fill="url(#linear-gradient-8)"/>
          <path id="Path_88006" data-name="Path 88006" d="M467.885,162.265a26.012,26.012,0,0,1,5.191,2.323,37.015,37.015,0,0,1,5.913,4.293l4.768-14.085a62.511,62.511,0,0,0-10.68-7.889,41.941,41.941,0,0,0-9.962-4.247Z" transform="translate(-434.84 -141.63)" fill="url(#linear-gradient-9)"/>
          <path id="Path_88007" data-name="Path 88007" d="M521.114,233.888l15.586,9a79.75,79.75,0,0,0-8.575-27.824l-12.5,3.2A50.105,50.105,0,0,1,521.114,233.888Z" transform="translate(-460.229 -176.635)" fill="url(#linear-gradient-10)"/>
        </g>
        <path id="Path_88008" data-name="Path 88008" d="M453.395,174.182a40.474,40.474,0,0,0-11.71-10.8,18.032,18.032,0,0,0-8.729-2.734c-4.734,0-7.948,3.077-9.049,8.662l-.888,4.511-21.429-12.372.237-2.136c1.714-15.443,10.994-25.037,24.222-25.037,5.974,0,12.343,1.927,18.926,5.728,8.529,4.925,16.833,12.871,23.658,22.492Z" transform="translate(-393.765 -122.938)" opacity="0.5" fill="url(#radial-gradient-3)" style="mix-blend-mode: screen;isolation: isolate"/>
        <path id="Path_88009" data-name="Path 88009" d="M468.858,163.726c-6.62-9.384-14.772-17.351-23.521-22.4-6.471-3.736-12.716-5.63-18.56-5.63-12.823,0-21.826,9.344-23.5,24.387l-.184,1.662,20.131,11.622.691-3.508c1.176-5.966,4.645-9.252,9.767-9.252a18.743,18.743,0,0,1,9.094,2.832,42.362,42.362,0,0,1,12.973,12.44Z" transform="translate(-394.494 -123.622)" opacity="0.7" fill="url(#radial-gradient-4)" style="mix-blend-mode: screen;isolation: isolate"/>
        <path id="Path_88010" data-name="Path 88010" d="M485.643,228.824c0,3.289-1.135,5.618-2.98,6.746-.056.034-1.419.991-1.476,1.023-1.919,1.074-.692-1.362-3.607-3.045-5.868-3.387-10.624-11.592-10.624-18.325,0-3.329-3.078-3.356-1.193-4.468.053-.031,1.786-1.046,1.84-1.075,1.914-1.037,4.531-.846,7.416.82C480.886,213.886,485.643,222.091,485.643,228.824Z" transform="translate(-424.497 -159.084)" fill="url(#linear-gradient-11)"/>
        <path id="Path_88011" data-name="Path 88011" d="M466.42,206.1l33.323-17.015-17.772,31.831Z" transform="translate(-425.11 -149.436)" fill="url(#linear-gradient-12)"/>
        <path id="Path_88012" data-name="Path 88012" d="M466.42,206.1l33.323-17.015L473.68,214.055Z" transform="translate(-425.11 -149.436)" fill="url(#linear-gradient-13)"/>
        <path id="Path_88013" data-name="Path 88013" d="M485.59,229.855c0,3.289-1.135,5.619-2.98,6.746a14.921,14.921,0,0,1-5.083-2.023c-5.868-3.388-10.624-11.592-10.624-18.325a19.321,19.321,0,0,1,.647-5.543c1.914-1.037,4.531-.846,7.416.82C480.834,214.918,485.59,223.122,485.59,229.855Z" transform="translate(-425.344 -159.582)" fill="url(#linear-gradient-14)"/>
        <g id="Group_33462" data-name="Group 33462" transform="translate(33.754 47.42)">
          <ellipse id="Ellipse_619" data-name="Ellipse 619" cx="8.647" cy="14.978" rx="8.647" ry="14.978" transform="translate(0 8.728) rotate(-30.311)" fill="url(#linear-gradient-15)"/>
          <ellipse id="Ellipse_620" data-name="Ellipse 620" cx="6.544" cy="11.335" rx="6.544" ry="11.335" transform="matrix(0.863, -0.505, 0.505, 0.863, 3.654, 10.812)" fill="#afb6e5"/>
          <path id="Path_88014" data-name="Path 88014" d="M473.957,237.224c-4.44-2.563-8.04-8.772-8.04-13.868a6.031,6.031,0,0,1,1.763-4.739c-1.461.827-2.366,2.616-2.366,5.169,0,5.1,3.6,11.3,8.04,13.868,2.542,1.467,4.8,1.417,6.278.155C478.177,238.632,476.172,238.5,473.957,237.224Z" transform="translate(-458.33 -211.134)" fill="#afb6e5" style="mix-blend-mode: multiply;isolation: isolate"/>
          <path id="Path_88015" data-name="Path 88015" d="M474.855,212.349c-2.8-1.615-5.3-1.793-7.192-.861,1.832-.693,4.152-.426,6.726,1.06,5.868,3.388,10.624,11.592,10.624,18.325,0,3.534-1.277,5.995-3.364,7.02,2.36-.875,3.83-3.429,3.83-7.22C485.479,223.941,480.722,215.737,474.855,212.349Z" transform="translate(-459.465 -207.414)" fill="url(#radial-gradient-5)" style="mix-blend-mode: color-dodge;isolation: isolate"/>
        </g>
      </g>
      <g id="Group_33469" data-name="Group 33469" transform="translate(86.331 67.03)">
        <path id="Path_88060" data-name="Path 88060" d="M436.984,266.557a1.451,1.451,0,0,1-.728-.21l-24.763-14.3a3.213,3.213,0,0,1-1.4-2.631v-5.774c0-1.064.644-1.548,1.242-1.548a1.454,1.454,0,0,1,.728.21l24.763,14.3a3.215,3.215,0,0,1,1.4,2.631v5.775C438.226,266.072,437.582,266.557,436.984,266.557Z" transform="translate(-410.089 -242.096)" fill="#c4c4c4" style="mix-blend-mode: multiply;isolation: isolate"/>
        <path id="Path_88061" data-name="Path 88061" d="M437.08,266.264l-23.764-13.72a2.573,2.573,0,0,1-1.075-2.054v-3.367c0-.791.481-1.155,1.075-.812l23.764,13.72a2.574,2.574,0,0,1,1.075,2.054v3.366C438.155,266.243,437.674,266.607,437.08,266.264Z" transform="translate(-411.129 -244.072)" fill="#84abde"/>
        <path id="Path_88062" data-name="Path 88062" d="M437.488,266l-23.764-13.72a2.575,2.575,0,0,1-1.075-2.054v-3.366a1.218,1.218,0,0,1,.163-.657c-.338.046-.571.382-.571.929V250.5a2.574,2.574,0,0,0,1.075,2.054l23.764,13.72a.621.621,0,0,0,.912-.155A.787.787,0,0,1,437.488,266Z" transform="translate(-411.129 -244.084)" fill="#273b98"/>
      </g>
      <g id="Group_33470" data-name="Group 33470" transform="translate(127.523 91.005)">
        <path id="Path_88063" data-name="Path 88063" d="M516.734,312.973a1.451,1.451,0,0,1-.728-.21l-24.763-14.3a3.214,3.214,0,0,1-1.4-2.631V290.06c0-1.064.644-1.548,1.242-1.548a1.454,1.454,0,0,1,.728.21l24.763,14.3a3.215,3.215,0,0,1,1.4,2.631v5.774C517.977,312.488,517.332,312.973,516.734,312.973Z" transform="translate(-489.839 -288.512)" fill="#b4bcc6" style="mix-blend-mode: multiply;isolation: isolate"/>
        <path id="Path_88064" data-name="Path 88064" d="M516.83,312.681l-23.764-13.72a2.574,2.574,0,0,1-1.075-2.054v-3.366c0-.792.481-1.155,1.075-.812l23.764,13.72A2.573,2.573,0,0,1,517.9,308.5v3.366C517.9,312.66,517.424,313.024,516.83,312.681Z" transform="translate(-490.879 -290.488)" fill="#84abde"/>
        <path id="Path_88065" data-name="Path 88065" d="M517.238,312.421,493.474,298.7a2.576,2.576,0,0,1-1.075-2.054v-3.366a1.22,1.22,0,0,1,.163-.658c-.338.047-.571.382-.571.929v3.366a2.575,2.575,0,0,0,1.075,2.054l23.764,13.72a.621.621,0,0,0,.912-.155A.787.787,0,0,1,517.238,312.421Z" transform="translate(-490.879 -290.5)" fill="#273b98"/>
      </g>
      <path id="Path_88066" data-name="Path 88066" d="M283.474,335.061l-.226-.132a.258.258,0,0,1,.23-.461l.676-.375a.258.258,0,1,1,.251.451Zm-1.435-.876a.26.26,0,0,1-.13-.035l-.893-.52a.259.259,0,1,1,.26-.447l.893.52a.258.258,0,0,1-.13.482Zm3.6-.361a.258.258,0,0,1-.126-.484l.9-.5a.258.258,0,1,1,.251.452l-.9.5A.261.261,0,0,1,285.634,333.823Zm-5.827-.939a.258.258,0,0,1-.13-.035l-.893-.52a.258.258,0,0,1,.26-.446l.893.52a.258.258,0,0,1-.13.481Zm-2.231-1.3a.253.253,0,0,1-.13-.035l-.893-.52a.258.258,0,1,1,.26-.446l.893.52a.258.258,0,0,1-.13.481Zm-2.232-1.3a.259.259,0,0,1-.13-.035l-.893-.519a.259.259,0,1,1,.26-.447l.893.52a.258.258,0,0,1-.13.482Zm-2.232-1.3a.253.253,0,0,1-.13-.035l-.892-.52a.258.258,0,1,1,.26-.446l.893.52a.258.258,0,0,1-.13.481Zm-2.231-1.3a.254.254,0,0,1-.13-.036l-.893-.52a.258.258,0,0,1,.26-.446l.893.52a.258.258,0,0,1-.13.481Zm-2.232-1.3a.264.264,0,0,1-.13-.035l-.893-.52a.259.259,0,0,1,.26-.447l.893.52a.258.258,0,0,1-.13.482Zm-2.231-1.3a.253.253,0,0,1-.13-.035l-.893-.52a.258.258,0,1,1,.26-.446l.893.52a.258.258,0,0,1-.13.481Zm-2.232-1.3a.254.254,0,0,1-.13-.036l-.893-.52a.258.258,0,0,1,.26-.446l.893.52a.258.258,0,0,1-.13.481Zm-2.232-1.3a.259.259,0,0,1-.13-.035l-.893-.52a.259.259,0,1,1,.26-.447l.893.52a.258.258,0,0,1-.13.481Zm-2.232-1.3a.253.253,0,0,1-.13-.035l-.893-.52a.258.258,0,1,1,.26-.446l.893.52a.258.258,0,0,1-.13.481Zm-2.232-1.3a.258.258,0,0,1-.13-.035l-.893-.52a.258.258,0,0,1,.26-.446l.893.52a.258.258,0,0,1-.13.481Zm-2.231-1.3a.258.258,0,0,1-.13-.035l-.893-.52a.259.259,0,1,1,.26-.447l.893.52a.258.258,0,0,1-.13.481Zm-2.232-1.3a.254.254,0,0,1-.13-.036l-.893-.52a.258.258,0,1,1,.26-.446l.893.52a.258.258,0,0,1-.13.481Zm-2.231-1.3a.258.258,0,0,1-.13-.035l-.893-.52a.259.259,0,0,1,.26-.447l.893.52a.258.258,0,0,1-.13.482Zm-2.232-1.3a.258.258,0,0,1-.13-.035l-.893-.52a.259.259,0,0,1,.26-.447l.893.52a.258.258,0,0,1-.13.481Zm-2.232-1.3a.255.255,0,0,1-.13-.036l-.893-.52a.258.258,0,0,1,.26-.446l.893.52a.258.258,0,0,1-.13.481Zm-2.232-1.3a.258.258,0,0,1-.13-.035l-.893-.52a.259.259,0,1,1,.26-.447l.893.52a.258.258,0,0,1-.13.481Zm-.619-1.3a.258.258,0,0,1-.13-.481l.892-.521a.258.258,0,1,1,.26.446l-.892.521A.253.253,0,0,1,243.479,310.793Zm2.231-1.3a.258.258,0,0,1-.13-.481l.893-.52a.258.258,0,0,1,.26.446l-.893.521A.258.258,0,0,1,245.71,309.491Zm2.231-1.3a.258.258,0,0,1-.13-.481l.892-.521a.258.258,0,1,1,.26.446l-.892.521A.256.256,0,0,1,247.941,308.191Zm2.231-1.3a.258.258,0,0,1-.13-.481l.892-.52a.258.258,0,1,1,.26.446l-.892.52A.254.254,0,0,1,250.172,306.89Zm2.231-1.3a.258.258,0,0,1-.13-.481l.893-.52a.258.258,0,0,1,.26.446l-.893.52A.253.253,0,0,1,252.4,305.588Zm2.231-1.3a.258.258,0,0,1-.13-.481l.892-.521a.258.258,0,0,1,.26.446l-.892.521A.26.26,0,0,1,254.634,304.288Zm2.231-1.3a.258.258,0,0,1-.13-.481l.892-.521a.258.258,0,1,1,.26.446l-.892.521A.253.253,0,0,1,256.865,302.986Zm2.23-1.3a.258.258,0,0,1-.13-.481l.893-.521a.258.258,0,0,1,.26.446l-.893.52A.254.254,0,0,1,259.1,301.686Zm2.231-1.3a.258.258,0,0,1-.13-.481l.892-.521a.258.258,0,1,1,.26.446l-.892.521A.254.254,0,0,1,261.327,300.385Zm2.231-1.3a.258.258,0,0,1-.13-.481l.893-.52a.258.258,0,0,1,.26.446l-.892.52A.253.253,0,0,1,263.557,299.084Zm2.231-1.3a.258.258,0,0,1-.13-.481l.893-.52a.258.258,0,0,1,.26.446l-.893.52A.253.253,0,0,1,265.788,297.783Zm2.231-1.3a.258.258,0,0,1-.13-.481l.892-.521a.258.258,0,1,1,.26.446l-.892.521A.255.255,0,0,1,268.02,296.482Zm2.231-1.3a.258.258,0,0,1-.13-.481l.893-.52a.258.258,0,1,1,.26.446l-.892.521A.258.258,0,0,1,270.25,295.181Zm2.231-1.3a.258.258,0,0,1-.131-.481l.893-.521a.258.258,0,0,1,.26.446l-.893.521A.253.253,0,0,1,272.482,293.88Zm2.231-1.3a.258.258,0,0,1-.13-.481l.892-.52a.258.258,0,1,1,.26.446l-.892.52A.259.259,0,0,1,274.712,292.579Zm49.131-.9a.258.258,0,0,1-.129-.482l.894-.517a.258.258,0,1,1,.258.447l-.894.517A.254.254,0,0,1,323.844,291.678Zm-1.341-.088a.254.254,0,0,1-.129-.035l-.894-.517a.258.258,0,1,1,.258-.447l.894.517a.258.258,0,0,1-.129.482Zm-45.559-.313a.258.258,0,0,1-.13-.481l.893-.52a.258.258,0,1,1,.26.446l-.892.52A.253.253,0,0,1,276.943,291.278Zm49.136-.892a.258.258,0,0,1-.129-.482l.894-.517a.258.258,0,1,1,.258.447l-.894.517A.254.254,0,0,1,326.08,290.386Zm-5.813-.088a.253.253,0,0,1-.129-.035l-.895-.518a.258.258,0,0,1,.258-.447l.895.518a.258.258,0,0,1-.129.482Zm-41.093-.321a.258.258,0,0,1-.13-.481l.893-.521a.258.258,0,0,1,.26.446l-.893.52A.254.254,0,0,1,279.174,289.977Zm49.141-.884a.258.258,0,0,1-.129-.482l.894-.517a.258.258,0,1,1,.258.447l-.894.517A.255.255,0,0,1,328.315,289.093ZM318.031,289a.259.259,0,0,1-.129-.035l-.895-.517a.258.258,0,0,1,.258-.447l.895.517a.258.258,0,0,1-.129.482Zm-36.626-.328a.258.258,0,0,1-.13-.481l.892-.521a.258.258,0,1,1,.26.446l-.892.521A.254.254,0,0,1,281.405,288.676Zm49.145-.876a.258.258,0,0,1-.129-.482l.895-.517a.258.258,0,0,1,.258.447l-.895.517A.259.259,0,0,1,330.551,287.8Zm-14.755-.088a.253.253,0,0,1-.129-.035l-.895-.518a.258.258,0,0,1,.258-.447l.895.517a.258.258,0,0,1-.129.482Zm-32.16-.336a.258.258,0,0,1-.13-.481l.893-.521a.258.258,0,0,1,.26.446l-.893.52A.254.254,0,0,1,283.636,287.375Zm49.151-.868a.258.258,0,0,1-.129-.482l.895-.517a.258.258,0,0,1,.258.447l-.895.517A.254.254,0,0,1,332.786,286.507Zm-19.226-.089a.254.254,0,0,1-.129-.035l-.895-.517a.258.258,0,0,1,.258-.447l.895.517a.258.258,0,0,1-.129.482Zm-27.694-.345a.258.258,0,0,1-.13-.481l.893-.52a.258.258,0,0,1,.26.446l-.893.52A.253.253,0,0,1,285.867,286.074Zm49.155-.859a.258.258,0,0,1-.129-.482l.895-.517a.258.258,0,0,1,.258.447l-.895.517A.254.254,0,0,1,335.022,285.214Zm-23.7-.089a.255.255,0,0,1-.129-.035l-.894-.517a.258.258,0,1,1,.258-.447l.894.517a.258.258,0,0,1-.129.481Zm-23.226-.352a.258.258,0,0,1-.13-.481l.892-.52a.258.258,0,1,1,.26.446l-.892.52A.253.253,0,0,1,288.1,284.773Zm49.159-.851a.258.258,0,0,1-.129-.481l.895-.518a.258.258,0,0,1,.258.447l-.895.518A.252.252,0,0,1,337.257,283.922Zm-28.168-.09a.254.254,0,0,1-.129-.035l-.894-.517a.258.258,0,1,1,.258-.447l.894.517a.258.258,0,0,1-.129.481Zm-18.76-.36a.258.258,0,0,1-.13-.481l.893-.52a.258.258,0,1,1,.26.446l-.892.521A.258.258,0,0,1,290.329,283.472Zm49.165-.843a.258.258,0,0,1-.129-.481l.894-.518a.258.258,0,1,1,.258.447l-.894.518A.255.255,0,0,1,339.494,282.629Zm-32.641-.09a.254.254,0,0,1-.129-.035l-.894-.517a.258.258,0,1,1,.258-.447l.894.517a.258.258,0,0,1-.129.481Zm-14.293-.368a.259.259,0,0,1-.13-.481l.893-.521a.258.258,0,1,1,.26.446l-.893.521A.253.253,0,0,1,292.56,282.172Zm49.17-.835a.258.258,0,0,1-.129-.481l.372-.215v-1.08a.258.258,0,0,1,.517,0v1.378l-.63.365A.254.254,0,0,1,341.729,281.336Zm-37.112-.09a.256.256,0,0,1-.13-.035l-.894-.518a.258.258,0,1,1,.259-.447l.894.518a.258.258,0,0,1-.13.481Zm-9.826-.376a.258.258,0,0,1-.131-.481l.892-.52a.258.258,0,1,1,.26.446l-.892.52A.253.253,0,0,1,294.791,280.87Zm7.591-.917a.254.254,0,0,1-.129-.035l-.895-.517a.258.258,0,0,1,.258-.447l.895.517a.258.258,0,0,1-.129.482Zm-5.36-.385a.258.258,0,0,1-.13-.481l.893-.52a.258.258,0,0,1,.26.446l-.892.52A.253.253,0,0,1,297.022,279.569Zm3.125-.908a.253.253,0,0,1-.129-.035l-.659-.381a.258.258,0,0,1-.237-.458l.237-.138.916.53a.258.258,0,0,1-.129.482Z" transform="translate(-242.947 -192.255)" fill="#747dc2"/>
      <path id="Path_88067" data-name="Path 88067" d="M407.142,346.36a.258.258,0,0,1-.128-.483l.9-.51a.258.258,0,0,1,.255.449l-.9.51A.258.258,0,0,1,407.142,346.36Zm-1.341-.731a.257.257,0,0,1-.13-.035l-.894-.518a.258.258,0,0,1,.259-.447l.894.518a.259.259,0,0,1-.13.482Zm3.587-.545a.258.258,0,0,1-.128-.482l.9-.511a.258.258,0,1,1,.255.449l-.9.511A.26.26,0,0,1,409.388,345.084Zm-5.821-.749a.257.257,0,0,1-.13-.035l-.894-.518a.259.259,0,0,1,.259-.447l.894.518a.258.258,0,0,1-.13.482Zm8.066-.527a.258.258,0,0,1-.128-.482l.9-.51a.258.258,0,0,1,.255.449l-.9.51A.254.254,0,0,1,411.633,343.808Zm-10.3-.768a.255.255,0,0,1-.129-.035l-.894-.518a.259.259,0,0,1,.259-.447l.894.518a.258.258,0,0,1-.13.482Zm12.547-.507a.258.258,0,0,1-.128-.483l.9-.51a.258.258,0,0,1,.255.449l-.9.51A.257.257,0,0,1,413.879,342.533Zm-51.454-.54a.259.259,0,0,1-.129-.482l.9-.516a.258.258,0,0,1,.258.448l-.9.516A.26.26,0,0,1,362.424,341.993Zm36.673-.247a.256.256,0,0,1-.13-.035l-.894-.518a.258.258,0,1,1,.259-.447l.894.518a.258.258,0,0,1-.13.481Zm17.027-.489a.258.258,0,0,1-.128-.483l.9-.51a.258.258,0,1,1,.255.449l-.9.51A.254.254,0,0,1,416.124,341.257Zm-51.462-.554a.259.259,0,0,1-.129-.482l.9-.516a.258.258,0,0,1,.258.448l-.9.516A.26.26,0,0,1,364.662,340.7Zm32.2-.252a.256.256,0,0,1-.13-.035l-.894-.518a.258.258,0,1,1,.259-.447l.894.518a.258.258,0,0,1-.13.481Zm21.508-.471a.258.258,0,0,1-.128-.482l.9-.51a.258.258,0,0,1,.255.449l-.9.51A.254.254,0,0,1,418.37,339.981Zm-51.47-.568a.259.259,0,0,1-.129-.482l.9-.515a.258.258,0,0,1,.258.448l-.9.515A.26.26,0,0,1,366.9,339.413Zm27.728-.256a.256.256,0,0,1-.13-.035l-.894-.518a.258.258,0,1,1,.259-.447l.894.518a.258.258,0,0,1-.13.481Zm25.987-.452a.258.258,0,0,1-.128-.482l.9-.51a.258.258,0,0,1,.255.449l-.9.51A.257.257,0,0,1,420.615,338.7Zm-51.478-.581a.259.259,0,0,1-.129-.482l.9-.516a.258.258,0,0,1,.258.448l-.9.516A.261.261,0,0,1,369.137,338.124Zm23.256-.261a.257.257,0,0,1-.13-.035l-.894-.518a.258.258,0,0,1,.259-.447l.894.518a.258.258,0,0,1-.13.482Zm30.467-.433a.258.258,0,0,1-.128-.483l.9-.51a.258.258,0,1,1,.255.449l-.9.51A.254.254,0,0,1,422.86,337.43Zm-51.486-.6a.258.258,0,0,1-.129-.482l.9-.516a.258.258,0,0,1,.258.448l-.9.516A.26.26,0,0,1,371.374,336.834Zm18.784-.265a.256.256,0,0,1-.13-.035l-.894-.518a.258.258,0,0,1,.259-.447l.894.518a.258.258,0,0,1-.13.482Zm34.948-.415a.258.258,0,0,1-.128-.483l.9-.51a.258.258,0,1,1,.255.449l-.9.51A.259.259,0,0,1,425.106,336.153Zm-51.494-.609a.258.258,0,0,1-.129-.482l.9-.516a.258.258,0,1,1,.258.448l-.9.516A.262.262,0,0,1,373.612,335.544Zm14.312-.27a.256.256,0,0,1-.13-.035l-.894-.517a.259.259,0,0,1,.259-.447l.894.518a.258.258,0,0,1-.13.482Zm39.428-.4a.258.258,0,0,1-.128-.482l.9-.51a.258.258,0,0,1,.255.449l-.9.51A.257.257,0,0,1,427.351,334.878Zm-51.5-.623a.258.258,0,0,1-.129-.482l.9-.516a.258.258,0,1,1,.258.448l-.9.516A.261.261,0,0,1,375.849,334.254Zm9.839-.275a.256.256,0,0,1-.13-.035l-.894-.518a.258.258,0,1,1,.259-.447l.894.517a.258.258,0,0,1-.13.482ZM429.6,333.6a.258.258,0,0,1-.128-.483l.9-.51a.258.258,0,1,1,.255.449l-.9.51A.254.254,0,0,1,429.6,333.6Zm-51.51-.638a.258.258,0,0,1-.129-.482l.9-.516a.258.258,0,1,1,.257.448l-.9.516A.258.258,0,0,1,378.087,332.964Zm5.367-.279a.252.252,0,0,1-.129-.035l-.894-.518a.258.258,0,1,1,.258-.447l.894.518a.258.258,0,0,1-.129.481Zm48.388-.358a.258.258,0,0,1-.128-.483l.9-.51a.258.258,0,1,1,.255.449l-.9.51A.255.255,0,0,1,431.842,332.327Zm-51.518-.651a.258.258,0,0,1-.129-.482l.824-.474.33.191a.258.258,0,1,1-.259.447l-.071-.041-.565.326A.26.26,0,0,1,380.324,331.675Zm53.763-.625a.258.258,0,0,1-.128-.482l.9-.511a.258.258,0,0,1,.255.449l-.9.511A.256.256,0,0,1,434.087,331.05Zm2.246-1.276a.258.258,0,0,1-.128-.482l.9-.51a.258.258,0,1,1,.255.449l-.9.51A.253.253,0,0,1,436.333,329.774Zm2.246-1.275a.258.258,0,0,1-.128-.483l.9-.51a.258.258,0,1,1,.255.449l-.9.51A.254.254,0,0,1,438.579,328.5Zm2.245-1.276a.258.258,0,0,1-.128-.483l.238-.135v-.459a.258.258,0,1,1,.517,0v.76l-.5.284A.257.257,0,0,1,440.823,327.223Zm.369-2.368a.258.258,0,0,1-.258-.258v-.49a.258.258,0,0,1,.517,0v.49A.258.258,0,0,1,441.192,324.855Z" transform="translate(-300.588 -214.592)" fill="#747dc2"/>
      <path id="Path_88191" data-name="Path 88191" d="M435.124,277.291c0,.559-.395.784-.882.5a1.943,1.943,0,0,1-.882-1.521c0-.559.395-.784.882-.5A1.943,1.943,0,0,1,435.124,277.291Z" transform="translate(-335.01 -191.288)" fill="#747dc2"/>
      <path id="Path_88192" data-name="Path 88192" d="M515.291,323.791c0,.559-.395.784-.882.5a1.943,1.943,0,0,1-.882-1.521c0-.559.4-.784.882-.5A1.943,1.943,0,0,1,515.291,323.791Z" transform="translate(-373.769 -213.77)" fill="#747dc2"/>
    </g>
    <g id="Group_35446" data-name="Group 35446" transform="translate(36.218 36.762)">
      <path id="Path_88277" data-name="Path 88277" d="M191.051,101.69s5.29-1.439,6.628,4.409c.974,4.271,2.553,11.687,3.211,12.188a13.3,13.3,0,0,1,3.666.5l-.553,5.6s-5.164.276-6.551-.445-6.936-19.866-6.936-19.866Z" transform="translate(-171.911 -89.026)" fill="#e89d05"/>
      <path id="Path_88278" data-name="Path 88278" d="M216.864,140.777s-.774,2.7-4.664,1.051c-2.147-.907-1.828-5.623-.011-6.653,3.242-1.846,4.562,1.033,4.562,1.033Z" transform="translate(-182.308 -106.03)" fill="#fdc10c"/>
      <path id="Path_88279" data-name="Path 88279" d="M232.546,136.194s.862-1.957,1.751-2.126a4.958,4.958,0,0,1,2.58.358,1.123,1.123,0,0,1,.438.788,4.985,4.985,0,0,1,2.437,1.243c1,1.362-.35,3.995-1.348,4.411a7.8,7.8,0,0,1-5.774-.823l-1.054-.815-.28-2.384Z" transform="translate(-192.909 -105.754)" fill="#f0c6b4"/>
      <path id="Path_88280" data-name="Path 88280" d="M217.9,137.1a38.623,38.623,0,0,0,6.992.679,4.038,4.038,0,0,0,.084,3.851,56.31,56.31,0,0,0-6.89.967C215.871,142.887,215.972,136.9,217.9,137.1Z" transform="translate(-185.26 -107.335)" fill="#f0c6b4"/>
      <path id="Path_88281" data-name="Path 88281" d="M169.307,95.407a9.879,9.879,0,0,1-1.383,5.014l2.58,2.356,2.413,1.418h2.773l1.975-1.67-1.779-5.462L172.668,94.6S169.307,94.693,169.307,95.407Z" transform="translate(-160.279 -85.453)" fill="#c7a495"/>
      <path id="Path_88282" data-name="Path 88282" d="M171.546,106.986s.819.938-.9,1.9c-2.269,1.461-7.206-3.256-7.206-3.256l-1.166,1.355-1,1.222-1.341,1.036-.875,1.012,6.235,25.08,6.25.819,9.03-6.568s1.509-14.454.977-17.6-5.178-6.359-5.178-6.359Z" transform="translate(-155.715 -91.136)" fill="#fdc10c"/>
      <path id="Path_88283" data-name="Path 88283" d="M192.509,262.535c1.666,2.332,6.971,3.253,7.037,4.965.025.375.291,1.733-.672,2.174-2.888.7-8.217-2.255-8.217-2.255s-4.993-.112-5.435-1.113,0-4.219,0-4.219S192.064,261.905,192.509,262.535Z" transform="translate(-169.083 -171.683)" fill="#081523"/>
      <path id="Path_88284" data-name="Path 88284" d="M193.649,175.757c.718,10.361-2.213,19.485-2.654,21.778-.963,8.137.3,17.885.224,20.031s-7.475,3.876-8.512.1c-.536-3.54-.518-14.156.813-19.264.522-2-1.7-18.127-1.7-18.127S193.443,173.684,193.649,175.757Z" transform="translate(-167.433 -127.036)" fill="#254a7a"/>
      <path id="Path_88285" data-name="Path 88285" d="M163.644,274.426c-.112,1.141,3.183,6.285,2.332,7.654-.77,1.236-4.489.753-6.005-.427s-2.689-5-3.039-6.376a9.772,9.772,0,0,1,0-3.354l6.656.444A8.215,8.215,0,0,1,163.644,274.426Z" transform="translate(-154.539 -176.76)" fill="#081523"/>
      <path id="Path_88286" data-name="Path 88286" d="M179.724,160.205s-8.575,6.436-11.761,6.271a9.122,9.122,0,0,1-6.33-3.386,32.467,32.467,0,0,0-2.57,5.515c-.588,2.108-.326,21.7-1.369,24.457s-1.551,3.326-2.052,5.437-.641,12.892-.3,16.257,5.837,4.538,7.794,2.167c-.221-8.768.052-17.514,1.617-20.448,2.2-4.114,5.536-19.52,5.756-20.125,4.468-2.308,9.415-7.542,9.415-8.393C179.92,166.861,179.833,167.6,179.724,160.205Z" transform="translate(-153.704 -119.236)" fill="#325c92"/>
      <path id="Path_88287" data-name="Path 88287" d="M180.629,97.793c7.717,2.889,10.588,11.092,10.588,11.092l-2.223,1.663s-3.271-9.208-11.029-10.588C177.971,99.375,179.963,97.961,180.629,97.793Z" transform="translate(-165.449 -87.1)" fill="#325c92"/>
      <path id="Path_88288" data-name="Path 88288" d="M179.948,144.646c2.822-7.479-.49-18.421-.49-18.421s8.715-3.564,12.8-7.927a69.116,69.116,0,0,1-.021,20.329l-1.467,4.31-6.3,2.441S179.181,147.122,179.948,144.646Z" transform="translate(-166.218 -97.658)" fill="#325c92"/>
      <path id="Path_88289" data-name="Path 88289" d="M163.207,108.425c7.714,2.885,10.6,12.037,10.6,12.037l-2.832,1.11a14.511,14.511,0,0,0-10.112-10.889C160.872,110.1,162.542,108.589,163.207,108.425Z" transform="translate(-156.644 -92.574)" fill="#325c92"/>
      <g id="Group_33574" data-name="Group 33574" transform="translate(25.145 30.787)">
        <path id="Path_88290" data-name="Path 88290" d="M214.331,139.737,204.79,156.95l-.792-.522,1.607-12.633,7.927-4.58Z" transform="translate(-203.998 -139.216)" fill="#e32b18"/>
        <path id="Path_88291" data-name="Path 88291" d="M213.564,152.927,205.63,157.5l1.611-12.633,7.93-4.58Z" transform="translate(-204.838 -139.769)" fill="#c12815"/>
      </g>
      <path id="Path_88292" data-name="Path 88292" d="M198.484,158.726a9.31,9.31,0,0,1,1.131-2.8,2.736,2.736,0,0,1,2.762-1.057l-.2,1.47,2.2-.224s1.751-1.163,2.2-.974c.34.144.448.623.41,1.033-.28,2.913-1.331,3.775-2.633,4.482a32.884,32.884,0,0,1-3.918,1.541Z" transform="translate(-176.014 -116.458)" fill="#f0c6b4"/>
      <path id="Path_88293" data-name="Path 88293" d="M184.784,161.692s3.837.97,5.994.557c2.167.413,2.343,3.106,1.81,3.494-3,1.222-9.362.945-9.362.945Z" transform="translate(-168.158 -120.002)" fill="#f0c6b4"/>
      <path id="Path_88294" data-name="Path 88294" d="M174.609,158.8s1.677-1.961,4.752.175c1.915,1.334,1.1,5.812-.833,6.607a3.861,3.861,0,0,1-5.038-1.485Z" transform="translate(-163.144 -118.089)" fill="#fdc10c"/>
      <path id="Path_88295" data-name="Path 88295" d="M155.51,115.166s-6.145,2-1.779,11.617c.749,2.437,3.057,12.535,4.219,13.617,2.143,2,5.62,2.44,7.1,2.661s2.294-5.843.368-6.288a12.382,12.382,0,0,0-2.885-.144,133.324,133.324,0,0,0-2.3-13.69C159.28,116.647,155.51,115.166,155.51,115.166Z" transform="translate(-152.164 -96.045)" fill="#e89d05"/>
      <path id="Path_88296" data-name="Path 88296" d="M180.177,79.54a6.956,6.956,0,0,1,2.153,7.125s-.862,6.659-1.446,7.3a3.935,3.935,0,0,1-2.108,1.029c-1.166.109-5.27-2.86-5.851-3.581a3.083,3.083,0,0,1-.333-2.108,3.571,3.571,0,0,1-2.111-2.59,10.715,10.715,0,0,1,0-2.822l1.5-3.273,3.179-1.971h2.594A14.253,14.253,0,0,1,180.177,79.54Z" transform="translate(-161.552 -77.24)" fill="#f0c6b4"/>
      <path id="Path_88297" data-name="Path 88297" d="M169.792,85.452s.441-1.992,1.519-.862c.518.55.309.872.7,1.509s1.348,1.019,1.593.756a9.486,9.486,0,0,0,.217-4c-.283-.924-1.876-1.652-.774-2.885s5.315,2.353,6.73.963c.973-1.054-1.421-7.6-8.47-3.277C167.372,80.1,169.792,85.452,169.792,85.452Z" transform="translate(-160.862 -75.981)" fill="#603913"/>
      <g id="Group_33575" data-name="Group 33575" transform="translate(8.139 0)">
        <path id="Path_88298" data-name="Path 88298" d="M181.97,82.735s-1.247,1.751-7.069,1.751a10.068,10.068,0,0,1-5.959-2.469c.059-2.539.756-5.266,4.874-6.085,2.062-.4,5.686-.28,6.828,1.8A11.737,11.737,0,0,1,181.97,82.735Z" transform="translate(-168.942 -75.75)" fill="#032f5b"/>
        <path id="Path_88299" data-name="Path 88299" d="M182.518,76.989c0,.231-.372.413-.833.413s-.833-.182-.833-.413.374-.409.833-.409S182.518,76.765,182.518,76.989Z" transform="translate(-175.074 -76.177)" fill="#1a578b"/>
        <path id="Path_88300" data-name="Path 88300" d="M197.572,92.451l-3.13-1.229s.609-.8,1.2-.676a2.974,2.974,0,0,1,1.547.613A2.327,2.327,0,0,1,197.572,92.451Z" transform="translate(-182.072 -83.362)" fill="#032f5b"/>
        <path id="Path_88301" data-name="Path 88301" d="M180.064,90.834s2.658,2.237,4.261,2.237c1-.031,1.358-2.36,3.662-2.938,2.612-.577,1.817,1.422,2.308,1.086.038-1.912-1.866-2.234-2.595-2.647-.539-.462-2.083-.361-2.083-.361A12.681,12.681,0,0,0,180.064,90.834Z" transform="translate(-174.669 -82.162)" fill="#1a578b"/>
      </g>
      <path id="Path_88318" data-name="Path 88318" d="M240.975,137.017c-.35,1.064-1.117,1.768-1.712,1.572s-.791-1.218-.438-2.283,1.113-1.768,1.709-1.572S241.325,135.953,240.975,137.017Z" transform="translate(-196.695 -106.104)" fill="#f0c6b4"/>
    </g>
  </g>
</svg>
