<svg xmlns="http://www.w3.org/2000/svg" width="186.921" height="112.193" viewBox="0 0 186.921 112.193">
  <path id="Icon_awesome-handshake" data-name="Icon awesome-handshake" d="M126.96,4.5H101.872a9.342,9.342,0,0,0-6.309,2.453L66.854,33.239c-.029.029-.058.088-.088.117a11.618,11.618,0,0,0-.613,16.356c3.709,4.06,11.507,5.14,16.385.789.029-.029.088-.029.117-.058L105.99,29.063a4.672,4.672,0,1,1,6.309,6.893l-7.623,6.98L147.2,77.458a21.041,21.041,0,0,1,2.307,2.249V23.192L133.561,7.245a9.279,9.279,0,0,0-6.6-2.745Zm31.923,18.751V88.644a9.336,9.336,0,0,0,9.346,9.346h18.692V23.251ZM172.9,88.644a4.673,4.673,0,1,1,4.673-4.673A4.687,4.687,0,0,1,172.9,88.644ZM0,97.961H18.692a9.336,9.336,0,0,0,9.346-9.346V23.251H0ZM14.019,79.3a4.673,4.673,0,1,1-4.673,4.673A4.687,4.687,0,0,1,14.019,79.3ZM141.33,84.73l-43.605-35.4-8.762,8.032A21.023,21.023,0,0,1,60.545,26.376L84.436,4.5H59.961a9.329,9.329,0,0,0-6.6,2.745L37.384,23.192V88.585h5.345l26.432,23.92a18.688,18.688,0,0,0,26.286-2.716l.058-.058,5.228,4.527a10.854,10.854,0,0,0,15.275-1.577l9.171-11.274,1.577,1.285a9.331,9.331,0,0,0,13.143-1.373l2.775-3.417A9.363,9.363,0,0,0,141.33,84.73Z" transform="translate(0 -4.5)" fill="#fff"/>
</svg>
