<svg xmlns="http://www.w3.org/2000/svg" width="50" height="50" viewBox="0 0 50 50">
  <path id="ic_picture_as_pdf_24px" d="M47,2H17a5.015,5.015,0,0,0-5,5V37a5.015,5.015,0,0,0,5,5H47a5.015,5.015,0,0,0,5-5V7A5.015,5.015,0,0,0,47,2ZM25.75,20.75A3.745,3.745,0,0,1,22,24.5H19.5v5H15.75v-15H22a3.745,3.745,0,0,1,3.75,3.75Zm12.5,5A3.745,3.745,0,0,1,34.5,29.5H28.25v-15H34.5a3.745,3.745,0,0,1,3.75,3.75Zm10-7.5H44.5v2.5h3.75V24.5H44.5v5H40.75v-15h7.5ZM19.5,20.75H22v-2.5H19.5ZM7,12H2V47a5.015,5.015,0,0,0,5,5H42V47H7ZM32,25.75h2.5v-7.5H32Z" transform="translate(-2 -2)" fill="#fff"/>
</svg>
