<svg xmlns="http://www.w3.org/2000/svg" width="170.584" height="114.992" viewBox="0 0 170.584 114.992">
  <path id="Icon_ionic-md-eye" data-name="Icon ionic-md-eye" d="M87.542,7.383A91.717,91.717,0,0,0,2.25,64.879a92.011,92.011,0,0,0,170.584,0A91.718,91.718,0,0,0,87.542,7.383Zm0,95.84c-21.323,0-38.762-17.249-38.762-38.343S66.219,26.535,87.542,26.535,126.3,43.784,126.3,64.879,108.865,103.222,87.542,103.222Zm0-61.342a23,23,0,1,0,23.265,23A23.207,23.207,0,0,0,87.542,41.88Z" transform="translate(-2.25 -7.383)" fill="#fff"/>
</svg>
