<svg xmlns="http://www.w3.org/2000/svg" width="331.5" height="110.811" viewBox="0 0 331.5 110.811">
  <g id="download-on-the-app-store" transform="translate(0 0)">
    <g id="Group_35550" data-name="Group 35550" transform="translate(0 0)">
      <g id="Group_35548" data-name="Group 35548">
        <path id="Path_93999" data-name="Path 93999" d="M305.1,0H26.413c-1.016,0-2.02,0-3.033.006-.848.006-1.689.022-2.546.035a36.608,36.608,0,0,0-5.551.49,18.464,18.464,0,0,0-5.266,1.737A17.834,17.834,0,0,0,5.534,5.533,17.337,17.337,0,0,0,2.27,10.023,18.287,18.287,0,0,0,.538,15.3a35.994,35.994,0,0,0-.5,5.546c-.026.849-.028,1.7-.042,2.551V87.425c.014.86.016,1.693.042,2.554a35.992,35.992,0,0,0,.5,5.546A18.249,18.249,0,0,0,2.27,100.8a17.2,17.2,0,0,0,3.264,4.472,17.382,17.382,0,0,0,4.484,3.265,18.563,18.563,0,0,0,5.266,1.747,37.272,37.272,0,0,0,5.551.49c.856.019,1.7.03,2.546.03,1.013.006,2.017.006,3.033.006H305.1c1,0,2.007,0,3-.006.844,0,1.71-.011,2.554-.03a36.785,36.785,0,0,0,5.54-.49,18.849,18.849,0,0,0,5.286-1.747,17.39,17.39,0,0,0,4.48-3.265,17.717,17.717,0,0,0,3.273-4.472,18.3,18.3,0,0,0,1.715-5.275,37.418,37.418,0,0,0,.514-5.546c.011-.86.011-1.694.011-2.554.022-1.006.022-2.007.022-3.03V26.418c0-1.014,0-2.021-.022-3.025,0-.849,0-1.7-.011-2.551a37.417,37.417,0,0,0-.514-5.546,18.333,18.333,0,0,0-1.715-5.273,17.913,17.913,0,0,0-7.753-7.756A18.748,18.748,0,0,0,316.2.53a36.135,36.135,0,0,0-5.54-.49c-.844-.014-1.71-.03-2.554-.035C307.109,0,306.1,0,305.1,0Z" transform="translate(0 0)" fill="#a6a6a6"/>
        <path id="Path_94000" data-name="Path 94000" d="M21.849,106.837c-.844,0-1.668-.011-2.505-.03a35.149,35.149,0,0,1-5.178-.452,16.3,16.3,0,0,1-4.59-1.518,14.975,14.975,0,0,1-3.87-2.816,14.74,14.74,0,0,1-2.827-3.869,15.851,15.851,0,0,1-1.5-4.591,34.388,34.388,0,0,1-.461-5.194c-.018-.584-.041-2.53-.041-2.53V21.844S.9,19.929.914,19.366a34.269,34.269,0,0,1,.459-5.186,15.944,15.944,0,0,1,1.506-4.6A14.886,14.886,0,0,1,5.69,5.7,15.418,15.418,0,0,1,9.575,2.87a16.131,16.131,0,0,1,4.58-1.507,34.866,34.866,0,0,1,5.2-.454l2.5-.034H306.545l2.53.035a34.31,34.31,0,0,1,5.148.45,16.451,16.451,0,0,1,4.629,1.518,15.5,15.5,0,0,1,6.69,6.7,15.965,15.965,0,0,1,1.483,4.568,36,36,0,0,1,.481,5.228c.008.785.008,1.627.008,2.466.022,1.039.022,2.028.022,3.025V82.846c0,1.006,0,1.988-.022,2.979,0,.9,0,1.726-.011,2.576a35.276,35.276,0,0,1-.473,5.135,15.9,15.9,0,0,1-1.5,4.626A15.182,15.182,0,0,1,322.72,102a15,15,0,0,1-3.877,2.833,16.239,16.239,0,0,1-4.621,1.523,34.746,34.746,0,0,1-5.178.452c-.811.019-1.661.03-2.486.03l-3,.006Z" transform="translate(1.545 1.549)"/>
      </g>
      <g id="_Group_" data-name="&lt;Group&gt;" transform="translate(27.624 24.158)">
        <g id="_Group_2" data-name="&lt;Group&gt;">
          <g id="_Group_3" data-name="&lt;Group&gt;">
            <path id="_Path_" data-name="&lt;Path&gt;" d="M50.964,31.5A13.709,13.709,0,0,1,57.492,20a14.033,14.033,0,0,0-11.056-5.977c-4.652-.488-9.162,2.784-11.532,2.784-2.416,0-6.066-2.735-10-2.654a14.725,14.725,0,0,0-12.391,7.557c-5.358,9.276-1.361,22.909,3.771,30.407,2.568,3.672,5.569,7.773,9.5,7.627,3.843-.159,5.278-2.45,9.916-2.45,4.6,0,5.942,2.45,9.948,2.358,4.123-.067,6.721-3.688,9.2-7.394a30.367,30.367,0,0,0,4.206-8.567A13.247,13.247,0,0,1,50.964,31.5Z" transform="translate(-9.972 0.578)" fill="#fff"/>
            <path id="_Path_2" data-name="&lt;Path&gt;" d="M27.785,18.39a13.5,13.5,0,0,0,3.087-9.67,13.733,13.733,0,0,0-8.886,4.6,12.844,12.844,0,0,0-3.168,9.312,11.355,11.355,0,0,0,8.967-4.24Z" transform="translate(5.64 -8.72)" fill="#fff"/>
          </g>
        </g>
        <g id="Group_35549" data-name="Group 35549" transform="translate(67.748 25.35)">
          <path id="Path_94001" data-name="Path 94001" d="M56.243,43.181H43.13l-3.149,9.3H34.427l12.42-34.4h5.77l12.42,34.4H59.389ZM44.488,38.89H54.882L49.758,23.8h-.143Z" transform="translate(-34.427 -17.504)" fill="#fff"/>
          <path id="Path_94002" data-name="Path 94002" d="M70.257,34.155c0,7.794-4.172,12.8-10.467,12.8A8.5,8.5,0,0,1,51.9,42.568H51.78V54.991H46.631V21.613h4.983v4.172h.095A8.9,8.9,0,0,1,59.7,21.351C66.061,21.351,70.257,26.383,70.257,34.155Zm-5.292,0c0-5.078-2.624-8.416-6.628-8.416-3.934,0-6.579,3.409-6.579,8.416,0,5.054,2.646,8.438,6.579,8.438,4,0,6.628-3.314,6.628-8.438Z" transform="translate(-12.823 -11.719)" fill="#fff"/>
          <path id="Path_94003" data-name="Path 94003" d="M80.222,34.155c0,7.794-4.172,12.8-10.467,12.8a8.5,8.5,0,0,1-7.891-4.388h-.119V54.991H56.6V21.613h4.983v4.172h.095a8.9,8.9,0,0,1,7.986-4.434C76.026,21.351,80.222,26.383,80.222,34.155Zm-5.292,0c0-5.078-2.624-8.416-6.628-8.416-3.934,0-6.579,3.409-6.579,8.416,0,5.054,2.646,8.438,6.579,8.438,4,0,6.628-3.314,6.628-8.438Z" transform="translate(4.817 -11.719)" fill="#fff"/>
          <path id="Path_94004" data-name="Path 94004" d="M75.078,43.261c.381,3.411,3.7,5.651,8.224,5.651,4.339,0,7.461-2.24,7.461-5.316,0-2.67-1.883-4.269-6.341-5.365l-4.458-1.074c-6.317-1.526-9.249-4.48-9.249-9.274,0-5.935,5.173-10.012,12.518-10.012,7.269,0,12.252,4.077,12.42,10.012h-5.2c-.311-3.433-3.149-5.505-7.3-5.505s-6.985,2.1-6.985,5.148c0,2.432,1.813,3.863,6.247,4.959l3.79.931c7.058,1.669,9.991,4.5,9.991,9.536,0,6.436-5.127,10.467-13.28,10.467-7.629,0-12.78-3.936-13.113-10.159Z" transform="translate(28.206 -17.871)" fill="#fff"/>
          <path id="Path_94005" data-name="Path 94005" d="M88.982,19.3v5.935h4.769v4.077H88.982V43.139c0,2.148.955,3.149,3.052,3.149a16.085,16.085,0,0,0,1.694-.119v4.053a14.138,14.138,0,0,1-2.86.238c-5.078,0-7.058-1.907-7.058-6.771V29.312H80.163V25.235h3.647V19.3Z" transform="translate(46.536 -15.342)" fill="#fff"/>
          <path id="Path_94006" data-name="Path 94006" d="M86.065,34.181c0-7.891,4.648-12.85,11.9-12.85,7.272,0,11.9,4.959,11.9,12.85,0,7.913-4.6,12.85-11.9,12.85S86.065,42.095,86.065,34.181Zm18.548,0c0-5.413-2.481-8.608-6.652-8.608s-6.65,3.219-6.65,8.608c0,5.435,2.478,8.606,6.65,8.606s6.652-3.171,6.652-8.606Z" transform="translate(56.984 -11.746)" fill="#fff"/>
          <path id="Path_94007" data-name="Path 94007" d="M96.186,21.613h4.91v4.269h.119a5.982,5.982,0,0,1,6.033-4.531,7.94,7.94,0,0,1,1.764.192v4.815a7.2,7.2,0,0,0-2.313-.311,5.188,5.188,0,0,0-5.365,5.77V46.694H96.186Z" transform="translate(74.901 -11.719)" fill="#fff"/>
          <path id="Path_94008" data-name="Path 94008" d="M123.842,39.354c-.693,4.553-5.127,7.678-10.8,7.678-7.3,0-11.825-4.889-11.825-12.731,0-7.867,4.553-12.969,11.609-12.969,6.939,0,11.3,4.767,11.3,12.371v1.764H106.414v.311a6.532,6.532,0,0,0,6.747,7.1,5.674,5.674,0,0,0,5.792-3.528Zm-17.4-7.486h12.539a6.032,6.032,0,0,0-6.152-6.366,6.349,6.349,0,0,0-6.387,6.366Z" transform="translate(83.807 -11.746)" fill="#fff"/>
        </g>
      </g>
    </g>
    <g id="_Group_4" data-name="&lt;Group&gt;" transform="translate(98.817 23.373)">
      <g id="Group_35551" data-name="Group 35551">
        <path id="Path_94009" data-name="Path 94009" d="M41.642,8.743a7.312,7.312,0,0,1,7.778,8.213c0,5.281-2.854,8.316-7.778,8.316H35.671V8.743Zm-3.4,14.192h3.117a5.2,5.2,0,0,0,5.451-5.945,5.211,5.211,0,0,0-5.451-5.911H38.238Z" transform="translate(-35.671 -7.929)" fill="#fff"/>
        <path id="Path_94010" data-name="Path 94010" d="M41.7,16.58a5.91,5.91,0,1,1,11.765,0,5.911,5.911,0,1,1-11.765,0Zm9.233,0c0-2.7-1.215-4.285-3.346-4.285s-3.344,1.581-3.344,4.285c0,2.726,1.2,4.295,3.344,4.295S50.932,19.3,50.932,16.58Z" transform="translate(-25.05 -5.479)" fill="#fff"/>
        <path id="Path_94011" data-name="Path 94011" d="M60.431,22.669H57.878L55.3,13.482H55.1l-2.567,9.187H50.008L46.569,10.195h2.5L51.3,19.713h.184l2.565-9.519h2.362l2.565,9.519h.195l2.224-9.519h2.462Z" transform="translate(-16.378 -5.325)" fill="#fff"/>
        <path id="Path_94012" data-name="Path 94012" d="M53.854,10.357h2.37v1.982h.184a3.734,3.734,0,0,1,3.723-2.222,4.057,4.057,0,0,1,4.318,4.64v8.075H61.986V15.374c0-2-.871-3-2.692-3a2.862,2.862,0,0,0-2.979,3.161v7.3H53.854Z" transform="translate(-3.483 -5.487)" fill="#fff"/>
        <path id="Path_94013" data-name="Path 94013" d="M59.094,8.437h2.462V25.781H59.094Z" transform="translate(5.793 -8.437)" fill="#fff"/>
        <path id="Path_94014" data-name="Path 94014" d="M61.236,16.58A5.91,5.91,0,1,1,73,16.58a5.911,5.911,0,1,1-11.767,0Zm9.233,0c0-2.7-1.215-4.285-3.346-4.285s-3.344,1.581-3.344,4.285c0,2.726,1.2,4.295,3.344,4.295S70.469,19.3,70.469,16.58Z" transform="translate(9.536 -5.479)" fill="#fff"/>
        <path id="Path_94015" data-name="Path 94015" d="M66.4,19.3c0-2.245,1.672-3.54,4.64-3.724l3.379-.195V14.3c0-1.318-.871-2.061-2.554-2.061-1.374,0-2.327.5-2.6,1.386H66.882c.252-2.143,2.267-3.517,5.1-3.517,3.127,0,4.891,1.557,4.891,4.192v8.523H74.5V21.07h-.195a4.2,4.2,0,0,1-3.747,1.959A3.768,3.768,0,0,1,66.4,19.3Zm8.019-1.066V17.186l-3.046.195c-1.718.115-2.5.7-2.5,1.8,0,1.123.974,1.776,2.313,1.776a2.941,2.941,0,0,0,3.23-2.727Z" transform="translate(18.729 -5.479)" fill="#fff"/>
        <path id="Path_94016" data-name="Path 94016" d="M71.348,19.538c0-3.942,2.026-6.439,5.178-6.439a4.111,4.111,0,0,1,3.825,2.188h.184V8.437H83V25.781H80.638V23.81h-.195a4.329,4.329,0,0,1-3.917,2.176C73.353,25.987,71.348,23.489,71.348,19.538Zm2.543,0c0,2.646,1.247,4.238,3.333,4.238s3.357-1.615,3.357-4.227-1.3-4.238-3.357-4.238-3.333,1.6-3.333,4.227Z" transform="translate(27.487 -8.437)" fill="#fff"/>
        <path id="Path_94017" data-name="Path 94017" d="M79.248,16.58a5.91,5.91,0,1,1,11.765,0,5.911,5.911,0,1,1-11.765,0Zm9.233,0c0-2.7-1.215-4.285-3.346-4.285s-3.344,1.581-3.344,4.285c0,2.726,1.2,4.295,3.344,4.295S88.481,19.3,88.481,16.58Z" transform="translate(41.422 -5.479)" fill="#fff"/>
        <path id="Path_94018" data-name="Path 94018" d="M84.669,10.357h2.37v1.982h.184a3.734,3.734,0,0,1,3.723-2.222,4.057,4.057,0,0,1,4.318,4.64v8.075H92.8V15.374c0-2-.871-3-2.692-3a2.862,2.862,0,0,0-2.979,3.161v7.3H84.67Z" transform="translate(51.069 -5.487)" fill="#fff"/>
        <path id="Path_94019" data-name="Path 94019" d="M96.356,9.074v3.163h2.7V14.31h-2.7v6.414c0,1.307.538,1.879,1.764,1.879a8.219,8.219,0,0,0,.939-.057V24.6a8.076,8.076,0,0,1-1.339.126c-2.738,0-3.828-.963-3.828-3.368V14.31h-1.98V12.236h1.98V9.074Z" transform="translate(63.888 -7.31)" fill="#fff"/>
        <path id="Path_94020" data-name="Path 94020" d="M95.7,8.437h2.44v6.874h.195a3.838,3.838,0,0,1,3.8-2.235,4.109,4.109,0,0,1,4.3,4.65v8.054h-2.464V18.334c0-1.992-.928-3-2.667-3A2.914,2.914,0,0,0,98.167,18.5v7.285H95.7Z" transform="translate(70.604 -8.437)" fill="#fff"/>
        <path id="Path_94021" data-name="Path 94021" d="M111.931,19.455a5.064,5.064,0,0,1-5.405,3.609,5.666,5.666,0,0,1-5.762-6.438,5.753,5.753,0,0,1,5.752-6.517c3.471,0,5.565,2.371,5.565,6.288v.859h-8.809v.138a3.3,3.3,0,0,0,3.322,3.574,2.99,2.99,0,0,0,2.968-1.512Zm-8.66-4.02h6.3A3.01,3.01,0,0,0,106.5,12.2a3.19,3.19,0,0,0-3.23,3.232Z" transform="translate(79.466 -5.479)" fill="#fff"/>
      </g>
    </g>
  </g>
</svg>
