<svg xmlns="http://www.w3.org/2000/svg" xmlns:xlink="http://www.w3.org/1999/xlink" width="107.717" height="182.232" viewBox="0 0 107.717 182.232">
  <defs>
    <linearGradient id="linear-gradient" x1="0.002" y1="0.5" x2="1.133" y2="0.5" gradientUnits="objectBoundingBox">
      <stop offset="0" stop-color="#b82cb4"/>
      <stop offset="0.055" stop-color="#dd49c1"/>
      <stop offset="0.071" stop-color="#e953c6"/>
      <stop offset="0.131" stop-color="#c436b8"/>
      <stop offset="0.288" stop-color="#b82cb4"/>
      <stop offset="0.672" stop-color="#d644bf"/>
      <stop offset="1" stop-color="#ec55c7"/>
    </linearGradient>
    <radialGradient id="radial-gradient" cx="0.844" cy="0.172" r="0.617" gradientTransform="translate(-0.254) scale(1.508 1)" gradientUnits="objectBoundingBox">
      <stop offset="0" stop-color="#551841"/>
      <stop offset="0.046" stop-color="#4a1438"/>
      <stop offset="0.183" stop-color="#2f0d24"/>
      <stop offset="0.332" stop-color="#1a0714"/>
      <stop offset="0.499" stop-color="#0b0308"/>
      <stop offset="0.696" stop-color="#020002"/>
      <stop offset="1"/>
    </radialGradient>
    <radialGradient id="radial-gradient-2" cx="0.306" cy="0.574" r="0.833" gradientTransform="translate(-0.105) scale(1.21 1)" gradientUnits="objectBoundingBox">
      <stop offset="0" stop-color="#bb6df3"/>
      <stop offset="1" stop-color="#fff"/>
    </radialGradient>
    <linearGradient id="linear-gradient-2" x1="0.103" y1="0.006" x2="0.928" y2="0.991" gradientUnits="objectBoundingBox">
      <stop offset="0" stop-color="#b0b7e6"/>
      <stop offset="0.192" stop-color="#b2b8e6"/>
      <stop offset="0.283" stop-color="#b3b9e6"/>
      <stop offset="0.409" stop-color="#afb6e5"/>
      <stop offset="0.909" stop-color="#afb6e5"/>
      <stop offset="1" stop-color="#b0b7e6"/>
    </linearGradient>
    <linearGradient id="linear-gradient-3" x1="0.102" y1="0.006" x2="0.929" y2="0.991" gradientUnits="objectBoundingBox">
      <stop offset="0" stop-color="#b2b9e6"/>
      <stop offset="0.192" stop-color="#b4bbe7"/>
      <stop offset="0.283" stop-color="#b7bde7"/>
      <stop offset="0.409" stop-color="#afb6e5"/>
      <stop offset="0.909" stop-color="#afb6e5"/>
      <stop offset="1" stop-color="#b2b9e6"/>
    </linearGradient>
    <linearGradient id="linear-gradient-4" x1="0.102" y1="0.006" x2="0.929" y2="0.991" gradientUnits="objectBoundingBox">
      <stop offset="0" stop-color="#b3bae7"/>
      <stop offset="0.192" stop-color="#b7bde9"/>
      <stop offset="0.283" stop-color="#bac0e9"/>
      <stop offset="0.409" stop-color="#afb6e5"/>
      <stop offset="0.909" stop-color="#afb6e5"/>
      <stop offset="1" stop-color="#b3bae7"/>
    </linearGradient>
    <linearGradient id="linear-gradient-5" x1="0.101" y1="0.006" x2="0.93" y2="0.991" gradientUnits="objectBoundingBox">
      <stop offset="0" stop-color="#b5bbe8"/>
      <stop offset="0.192" stop-color="#b9c0ea"/>
      <stop offset="0.283" stop-color="#bec4ea"/>
      <stop offset="0.409" stop-color="#afb6e5"/>
      <stop offset="0.909" stop-color="#afb6e5"/>
      <stop offset="1" stop-color="#b5bbe8"/>
    </linearGradient>
    <linearGradient id="linear-gradient-6" x1="0.1" y1="0.006" x2="0.931" y2="0.991" gradientUnits="objectBoundingBox">
      <stop offset="0" stop-color="#b6bde8"/>
      <stop offset="0.192" stop-color="#bcc2eb"/>
      <stop offset="0.283" stop-color="#c2c7eb"/>
      <stop offset="0.409" stop-color="#afb6e5"/>
      <stop offset="0.909" stop-color="#afb6e5"/>
      <stop offset="1" stop-color="#b6bde8"/>
    </linearGradient>
    <linearGradient id="linear-gradient-7" x1="0.1" y1="0.006" x2="0.931" y2="0.991" gradientUnits="objectBoundingBox">
      <stop offset="0" stop-color="#b8bee9"/>
      <stop offset="0.192" stop-color="#bec5ec"/>
      <stop offset="0.283" stop-color="#c6cbec"/>
      <stop offset="0.393" stop-color="#b2b9e6"/>
      <stop offset="0.409" stop-color="#afb6e5"/>
      <stop offset="0.909" stop-color="#afb6e5"/>
      <stop offset="1" stop-color="#b8bee9"/>
    </linearGradient>
    <linearGradient id="linear-gradient-8" x1="0.099" y1="0.005" x2="0.932" y2="0.991" gradientUnits="objectBoundingBox">
      <stop offset="0" stop-color="#b9bfea"/>
      <stop offset="0.192" stop-color="#c1c7ee"/>
      <stop offset="0.283" stop-color="#caceee"/>
      <stop offset="0.378" stop-color="#b6bce7"/>
      <stop offset="0.409" stop-color="#afb6e5"/>
      <stop offset="0.909" stop-color="#afb6e5"/>
      <stop offset="1" stop-color="#b9bfea"/>
    </linearGradient>
    <linearGradient id="linear-gradient-9" x1="0.098" y1="0.005" x2="0.933" y2="0.991" gradientUnits="objectBoundingBox">
      <stop offset="0" stop-color="#bac1ea"/>
      <stop offset="0.192" stop-color="#c4c9ef"/>
      <stop offset="0.283" stop-color="#cdd2ef"/>
      <stop offset="0.37" stop-color="#b9bfe8"/>
      <stop offset="0.409" stop-color="#afb6e5"/>
      <stop offset="0.909" stop-color="#afb6e5"/>
      <stop offset="0.999" stop-color="#b9c0e9"/>
      <stop offset="1" stop-color="#bac1ea"/>
    </linearGradient>
    <linearGradient id="linear-gradient-10" x1="0.098" y1="0.005" x2="0.934" y2="0.991" gradientUnits="objectBoundingBox">
      <stop offset="0" stop-color="#bcc2eb"/>
      <stop offset="0.192" stop-color="#c6ccf0"/>
      <stop offset="0.277" stop-color="#d0d4f0"/>
      <stop offset="0.283" stop-color="#d1d5f0"/>
      <stop offset="0.361" stop-color="#bdc3e9"/>
      <stop offset="0.409" stop-color="#afb6e5"/>
      <stop offset="0.909" stop-color="#afb6e5"/>
      <stop offset="0.988" stop-color="#b9c0ea"/>
      <stop offset="1" stop-color="#bcc2eb"/>
    </linearGradient>
    <linearGradient id="linear-gradient-11" x1="0.097" y1="0.005" x2="0.934" y2="0.992" gradientUnits="objectBoundingBox">
      <stop offset="0" stop-color="#bdc3ec"/>
      <stop offset="0.192" stop-color="#c9cef1"/>
      <stop offset="0.272" stop-color="#d3d7f1"/>
      <stop offset="0.283" stop-color="#d5d9f1"/>
      <stop offset="0.354" stop-color="#c1c6ea"/>
      <stop offset="0.409" stop-color="#afb6e5"/>
      <stop offset="0.909" stop-color="#afb6e5"/>
      <stop offset="0.984" stop-color="#b9c0ea"/>
      <stop offset="1" stop-color="#bdc3ec"/>
    </linearGradient>
    <linearGradient id="linear-gradient-12" x1="0.096" y1="0.005" x2="0.935" y2="0.992" gradientUnits="objectBoundingBox">
      <stop offset="0" stop-color="#bfc5ec"/>
      <stop offset="0.192" stop-color="#cbd1f3"/>
      <stop offset="0.263" stop-color="#d5d8f3"/>
      <stop offset="0.283" stop-color="#d9dcf3"/>
      <stop offset="0.348" stop-color="#c5caec"/>
      <stop offset="0.409" stop-color="#afb6e5"/>
      <stop offset="0.909" stop-color="#afb6e5"/>
      <stop offset="0.976" stop-color="#b9c0e9"/>
      <stop offset="1" stop-color="#bfc5ec"/>
    </linearGradient>
    <linearGradient id="linear-gradient-13" x1="0.096" y1="0.005" x2="0.936" y2="0.992" gradientUnits="objectBoundingBox">
      <stop offset="0" stop-color="#c0c6ed"/>
      <stop offset="0.192" stop-color="#ced3f4"/>
      <stop offset="0.259" stop-color="#d8dbf4"/>
      <stop offset="0.283" stop-color="#dde0f4"/>
      <stop offset="0.343" stop-color="#c9ceed"/>
      <stop offset="0.409" stop-color="#afb6e5"/>
      <stop offset="0.909" stop-color="#afb6e5"/>
      <stop offset="0.973" stop-color="#b9c0ea"/>
      <stop offset="1" stop-color="#c0c6ed"/>
    </linearGradient>
    <linearGradient id="linear-gradient-14" x1="0.095" y1="0.005" x2="0.936" y2="0.992" gradientUnits="objectBoundingBox">
      <stop offset="0" stop-color="#c2c7ee"/>
      <stop offset="0.192" stop-color="#d0d6f5"/>
      <stop offset="0.253" stop-color="#daddf5"/>
      <stop offset="0.283" stop-color="#e1e3f5"/>
      <stop offset="0.339" stop-color="#cdd1ee"/>
      <stop offset="0.409" stop-color="#afb6e5"/>
      <stop offset="0.909" stop-color="#afb6e5"/>
      <stop offset="0.968" stop-color="#b9bfea"/>
      <stop offset="1" stop-color="#c2c7ee"/>
    </linearGradient>
    <linearGradient id="linear-gradient-15" x1="0.094" y1="0.005" x2="0.937" y2="0.992" gradientUnits="objectBoundingBox">
      <stop offset="0" stop-color="#c3c9ee"/>
      <stop offset="0.192" stop-color="#d3d8f6"/>
      <stop offset="0.253" stop-color="#dde0f6"/>
      <stop offset="0.283" stop-color="#e4e7f6"/>
      <stop offset="0.336" stop-color="#d0d4ef"/>
      <stop offset="0.409" stop-color="#afb6e5"/>
      <stop offset="0.909" stop-color="#afb6e5"/>
      <stop offset="0.966" stop-color="#b9c0e9"/>
      <stop offset="1" stop-color="#c3c9ee"/>
    </linearGradient>
    <linearGradient id="linear-gradient-16" x1="0.094" y1="0.005" x2="0.938" y2="0.992" gradientUnits="objectBoundingBox">
      <stop offset="0" stop-color="#c4caef"/>
      <stop offset="0.192" stop-color="#d6daf8"/>
      <stop offset="0.25" stop-color="#e0e2f8"/>
      <stop offset="0.283" stop-color="#e8eaf8"/>
      <stop offset="0.333" stop-color="#d4d8f1"/>
      <stop offset="0.409" stop-color="#afb6e5"/>
      <stop offset="0.909" stop-color="#afb6e5"/>
      <stop offset="0.963" stop-color="#b9c0ea"/>
      <stop offset="1" stop-color="#c4caef"/>
    </linearGradient>
    <linearGradient id="linear-gradient-17" x1="0.093" y1="0.005" x2="0.939" y2="0.992" gradientUnits="objectBoundingBox">
      <stop offset="0" stop-color="#c6cbf0"/>
      <stop offset="0.192" stop-color="#d8ddf9"/>
      <stop offset="0.246" stop-color="#e2e5f9"/>
      <stop offset="0.283" stop-color="#eceef9"/>
      <stop offset="0.33" stop-color="#d8dbf2"/>
      <stop offset="0.409" stop-color="#afb6e5"/>
      <stop offset="0.909" stop-color="#afb6e5"/>
      <stop offset="0.96" stop-color="#b9bfea"/>
      <stop offset="1" stop-color="#c6cbf0"/>
    </linearGradient>
    <linearGradient id="linear-gradient-18" x1="0.092" y1="0.004" x2="0.939" y2="0.992" gradientUnits="objectBoundingBox">
      <stop offset="0" stop-color="#c7cdf0"/>
      <stop offset="0.192" stop-color="#dbdffa"/>
      <stop offset="0.244" stop-color="#e5e7fa"/>
      <stop offset="0.283" stop-color="#f0f1fa"/>
      <stop offset="0.327" stop-color="#dcdff3"/>
      <stop offset="0.409" stop-color="#afb6e5"/>
      <stop offset="0.909" stop-color="#afb6e5"/>
      <stop offset="0.958" stop-color="#b9c0e9"/>
      <stop offset="1" stop-color="#c7cdf0"/>
    </linearGradient>
    <linearGradient id="linear-gradient-19" x1="0.092" y1="0.004" x2="0.94" y2="0.992" gradientUnits="objectBoundingBox">
      <stop offset="0" stop-color="#c9cef1"/>
      <stop offset="0.192" stop-color="#dde2fb"/>
      <stop offset="0.24" stop-color="#e7eafb"/>
      <stop offset="0.283" stop-color="#f4f5fb"/>
      <stop offset="0.325" stop-color="#e0e3f4"/>
      <stop offset="0.409" stop-color="#afb6e5"/>
      <stop offset="0.909" stop-color="#afb6e5"/>
      <stop offset="0.955" stop-color="#b9c0ea"/>
      <stop offset="1" stop-color="#c9cef1"/>
    </linearGradient>
    <linearGradient id="linear-gradient-20" x1="0.091" y1="0.004" x2="0.941" y2="0.993" gradientUnits="objectBoundingBox">
      <stop offset="0" stop-color="#cacff2"/>
      <stop offset="0.192" stop-color="#e0e4fd"/>
      <stop offset="0.24" stop-color="#eaecfd"/>
      <stop offset="0.283" stop-color="#f7f8fd"/>
      <stop offset="0.324" stop-color="#e3e5f6"/>
      <stop offset="0.407" stop-color="#b0b7e5"/>
      <stop offset="0.409" stop-color="#afb6e5"/>
      <stop offset="0.909" stop-color="#afb6e5"/>
      <stop offset="0.954" stop-color="#b9c0ea"/>
      <stop offset="1" stop-color="#cacff2"/>
    </linearGradient>
    <linearGradient id="linear-gradient-21" x1="0.09" y1="0.004" x2="0.942" y2="0.993" gradientUnits="objectBoundingBox">
      <stop offset="0" stop-color="#ccd1f2"/>
      <stop offset="0.192" stop-color="#e2e7fe"/>
      <stop offset="0.237" stop-color="#eceffe"/>
      <stop offset="0.283" stop-color="#fbfcfe"/>
      <stop offset="0.322" stop-color="#e7e9f7"/>
      <stop offset="0.401" stop-color="#b4bbe6"/>
      <stop offset="0.409" stop-color="#afb6e5"/>
      <stop offset="0.909" stop-color="#afb6e5"/>
      <stop offset="0.951" stop-color="#b9c0e9"/>
      <stop offset="1" stop-color="#ccd1f2"/>
    </linearGradient>
    <linearGradient id="linear-gradient-22" x1="0.09" y1="0.004" x2="0.942" y2="0.993" gradientUnits="objectBoundingBox">
      <stop offset="0" stop-color="#cdd2f3"/>
      <stop offset="0.192" stop-color="#e5e9ff"/>
      <stop offset="0.236" stop-color="#eff1ff"/>
      <stop offset="0.283" stop-color="#fff"/>
      <stop offset="0.32" stop-color="#ebedf8"/>
      <stop offset="0.396" stop-color="#b8bee8"/>
      <stop offset="0.409" stop-color="#afb6e5"/>
      <stop offset="0.909" stop-color="#afb6e5"/>
      <stop offset="0.95" stop-color="#b9c0ea"/>
      <stop offset="1" stop-color="#cdd2f3"/>
    </linearGradient>
    <linearGradient id="linear-gradient-23" x1="-1.318" y1="0.768" x2="1.886" y2="0.295" gradientUnits="objectBoundingBox">
      <stop offset="0" stop-color="#afb6e5"/>
      <stop offset="0.145" stop-color="#b5bce8"/>
      <stop offset="0.349" stop-color="#c7cdf0"/>
      <stop offset="0.581" stop-color="#e5e9ff"/>
      <stop offset="0.855" stop-color="#f4f6ff"/>
      <stop offset="1" stop-color="#fff"/>
    </linearGradient>
    <linearGradient id="linear-gradient-24" x1="2.581" y1="0.815" x2="-3.49" y2="-0.104" xlink:href="#linear-gradient-23"/>
    <linearGradient id="linear-gradient-25" x1="1" y1="0.403" x2="0.5" y2="1" gradientUnits="objectBoundingBox">
      <stop offset="0" stop-color="#fec851"/>
      <stop offset="1" stop-color="#e5a026"/>
    </linearGradient>
    <linearGradient id="linear-gradient-26" x1="0.5" x2="0.5" y2="1" gradientUnits="objectBoundingBox">
      <stop offset="0" stop-color="#609fef"/>
      <stop offset="1" stop-color="#325c92"/>
    </linearGradient>
    <radialGradient id="radial-gradient-3" cx="0.868" cy="0.213" r="0.426" gradientTransform="translate(-0.245) scale(1.49 1)" gradientUnits="objectBoundingBox">
      <stop offset="0" stop-color="#69184e"/>
      <stop offset="0.113" stop-color="#4a1037"/>
      <stop offset="0.24" stop-color="#2f0a23"/>
      <stop offset="0.379" stop-color="#1a0613"/>
      <stop offset="0.534" stop-color="#0b0208"/>
      <stop offset="0.717" stop-color="#020001"/>
      <stop offset="1"/>
    </radialGradient>
    <radialGradient id="radial-gradient-4" cx="0.404" cy="0.375" r="0.66" gradientTransform="translate(0.183) scale(0.635 1)" gradientUnits="objectBoundingBox">
      <stop offset="0" stop-color="#8770b8"/>
      <stop offset="1" stop-color="#fff"/>
    </radialGradient>
    <linearGradient id="linear-gradient-27" x1="1.023" y1="0.5" x2="0.108" y2="0.5" gradientUnits="objectBoundingBox">
      <stop offset="0" stop-color="#325c92"/>
      <stop offset="0.426" stop-color="#325c92"/>
      <stop offset="0.561" stop-color="#4c7bb8"/>
      <stop offset="1" stop-color="#6089be"/>
    </linearGradient>
    <radialGradient id="radial-gradient-5" cx="0.37" cy="-0.065" r="1.252" gradientTransform="translate(0.179 -0.082) scale(0.517 1.025)" xlink:href="#radial-gradient-3"/>
    <radialGradient id="radial-gradient-6" cx="0.5" cy="0.5" r="0.053" gradientTransform="translate(19571.031 -4.182) scale(9.35 9.35)" gradientUnits="objectBoundingBox">
      <stop offset="0" stop-color="#ff63ce"/>
      <stop offset="0.015" stop-color="#f65fc7"/>
      <stop offset="0.132" stop-color="#bd4999"/>
      <stop offset="0.252" stop-color="#8b3670"/>
      <stop offset="0.373" stop-color="#60254d"/>
      <stop offset="0.494" stop-color="#3d1731"/>
      <stop offset="0.617" stop-color="#220d1b"/>
      <stop offset="0.741" stop-color="#0f050c"/>
      <stop offset="0.867" stop-color="#030103"/>
      <stop offset="1"/>
    </radialGradient>
    <radialGradient id="radial-gradient-7" cx="0.5" cy="0.58" r="0.448" gradientTransform="translate(-0.142) scale(1.285 1)" xlink:href="#radial-gradient-4"/>
    <linearGradient id="linear-gradient-28" x1="-0.212" y1="0.121" x2="1.352" y2="0.954" xlink:href="#linear-gradient-23"/>
    <radialGradient id="radial-gradient-8" cx="0.536" cy="0.411" r="0.427" gradientTransform="translate(-0.238) scale(1.477 1)" gradientUnits="objectBoundingBox">
      <stop offset="0" stop-color="#fff"/>
      <stop offset="1"/>
    </radialGradient>
  </defs>
  <g id="Group_36755" data-name="Group 36755" transform="translate(-488.052 -1344.575)">
    <g id="Group_35520" data-name="Group 35520" transform="translate(152.913 1275.539)">
      <g id="Group_35482" data-name="Group 35482" transform="translate(360.943 131.865)">
        <path id="Path_93211" data-name="Path 93211" d="M513.695,300.8l-2.292-1.167.067,3.945,2.28-1.4A.789.789,0,0,0,513.695,300.8Z" transform="translate(-432.292 -241.217)" fill="#2f4b94"/>
        <path id="Path_93212" data-name="Path 93212" d="M380.447,190.48c-4.487-2.59-11.738-2.6-16.2-.029-4.311,2.489-4.391,6.472-.34,9.075l16.541,53.421,53.955,30.338a4.14,4.14,0,0,0,6.215-3.582V230a10.506,10.506,0,0,0-5.274-9.111Z" transform="translate(-360.943 -188.529)" fill="url(#linear-gradient)"/>
        <path id="Path_93213" data-name="Path 93213" d="M408.423,257.231l-2.644-1.574a3.768,3.768,0,0,1-.573-.4V205.665l50.008,27.452a5.052,5.052,0,0,1,2.529,4.371v47.4Z" transform="translate(-381.933 -196.655)" fill="url(#radial-gradient)" style="mix-blend-mode: color-dodge;isolation: isolate"/>
        <path id="Path_93214" data-name="Path 93214" d="M380.447,190.48c-4.487-2.59-11.738-2.6-16.2-.029-4.311,2.489-4.391,6.472-.34,9.075l16.541,53.421,54.726,30.989a4.14,4.14,0,0,0,6.215-3.582v-49.7a10.507,10.507,0,0,0-5.274-9.111Z" transform="translate(-360.943 -188.529)" fill="#3966a1"/>
        <path id="Path_93215" data-name="Path 93215" d="M381.339,192.321c-4.487-2.591-11.738-2.6-16.2-.029-4.311,2.489-2.372,7.872,1.679,10.475l14.522,52.021L435.3,285.126a4.14,4.14,0,0,0,6.215-3.582v-49.7a10.507,10.507,0,0,0-5.274-9.111Z" transform="translate(-361.778 -189.402)" fill="#345f96"/>
        <path id="Path_93216" data-name="Path 93216" d="M381.373,192.321c-4.487-2.591-11.738-2.6-16.2-.029-4.311,2.489-2.264,7.438,1.788,10.042l14.413,52.455,53.955,30.338a4.14,4.14,0,0,0,6.215-3.582v-49.7a10.507,10.507,0,0,0-5.274-9.111Z" transform="translate(-361.003 -189.41)" fill="url(#radial-gradient-2)" style="mix-blend-mode: multiply;isolation: isolate"/>
        <g id="Group_35478" data-name="Group 35478" transform="translate(1.773 1.777)" opacity="0.3" style="mix-blend-mode: multiply;isolation: isolate">
          <path id="Path_93217" data-name="Path 93217" d="M438.132,285.61a3.277,3.277,0,0,1-1.663-.454l-53.527-30.1a.393.393,0,0,1-.187-.239l-14.363-52.269-.26-.168c-2.327-1.5-3.861-3.778-3.816-5.679a3.485,3.485,0,0,1,2-2.982,15.565,15.565,0,0,1,7.648-1.813,15.74,15.74,0,0,1,7.74,1.842l54.913,30.421a9.707,9.707,0,0,1,4.857,8.4v49.7a3.28,3.28,0,0,1-1.014,2.4A3.393,3.393,0,0,1,438.132,285.61Zm-54.66-31.158,53.388,30.019a2.567,2.567,0,0,0,3.05-.372,2.5,2.5,0,0,0,.77-1.826v-49.7a8.915,8.915,0,0,0-4.456-7.717L381.31,194.438a14.957,14.957,0,0,0-7.352-1.74A14.775,14.775,0,0,0,366.7,194.4a2.749,2.749,0,0,0-1.6,2.317c-.038,1.636,1.35,3.645,3.454,5l.388.249a.394.394,0,0,1,.167.227Z" transform="translate(-364.314 -191.909)" fill="#b086cc"/>
        </g>
        <g id="Group_35479" data-name="Group 35479" transform="translate(2.034 2.04)" style="mix-blend-mode: screen;isolation: isolate">
          <path id="Path_93218" data-name="Path 93218" d="M438.433,285.583a.131.131,0,0,1,0-.263,2.773,2.773,0,0,0,.741-.119.134.134,0,0,1,.164.088.131.131,0,0,1-.088.164,3,3,0,0,1-.812.131Zm-.78-.089a.177.177,0,0,1-.033,0,3.107,3.107,0,0,1-.76-.311.131.131,0,1,1,.13-.228,2.85,2.85,0,0,0,.7.284.131.131,0,0,1-.033.259Zm2.274-.36a.131.131,0,0,1-.069-.243,2.91,2.91,0,0,0,.47-.365c.037-.036.075-.074.11-.112a.131.131,0,0,1,.192.179q-.059.063-.121.123a3.169,3.169,0,0,1-.513.4A.129.129,0,0,1,439.926,285.134Zm-3.69-.324a.131.131,0,0,1-.065-.017l-.687-.386a.132.132,0,0,1,.129-.229l.687.387a.132.132,0,0,1-.065.246Zm-1.374-.773a.133.133,0,0,1-.064-.017l-.688-.387a.131.131,0,0,1,.128-.229l.688.386a.131.131,0,0,1-.064.246Zm6.124-.044a.122.122,0,0,1-.06-.015.13.13,0,0,1-.056-.176,2.746,2.746,0,0,0,.249-.708.132.132,0,0,1,.258.053,3.021,3.021,0,0,1-.274.775A.131.131,0,0,1,440.987,283.992Zm-7.5-.73a.133.133,0,0,1-.064-.017l-.688-.386a.131.131,0,1,1,.128-.229l.688.386a.131.131,0,0,1-.064.246Zm-1.375-.773a.13.13,0,0,1-.064-.017l-.687-.386a.131.131,0,0,1,.128-.229l.688.387a.13.13,0,0,1,.05.178A.132.132,0,0,1,432.112,282.49Zm9.2-.023a.132.132,0,0,1-.131-.131v-.789a.131.131,0,0,1,.263,0v.789A.132.132,0,0,1,441.31,282.466Zm-10.573-.75a.131.131,0,0,1-.065-.017l-.687-.386a.131.131,0,1,1,.129-.229l.687.386a.131.131,0,0,1-.065.246Zm-1.374-.773a.133.133,0,0,1-.064-.017l-.688-.386a.131.131,0,0,1,.128-.229l.688.386a.131.131,0,0,1-.064.246Zm11.947-.054a.132.132,0,0,1-.131-.131v-.789a.131.131,0,0,1,.263,0v.789A.132.132,0,0,1,441.31,280.889Zm-13.322-.719a.133.133,0,0,1-.064-.017l-.688-.386a.131.131,0,1,1,.128-.229l.688.386a.131.131,0,0,1-.064.246Zm-1.375-.773a.131.131,0,0,1-.065-.017l-.687-.386a.131.131,0,1,1,.128-.229l.688.387a.132.132,0,0,1-.064.246Zm14.7-.086a.132.132,0,0,1-.131-.131v-.789a.131.131,0,0,1,.263,0v.789A.132.132,0,0,1,441.31,279.312Zm-16.072-.687a.136.136,0,0,1-.065-.017l-.687-.387a.131.131,0,1,1,.129-.229l.687.386a.132.132,0,0,1-.065.246Zm-1.374-.773a.133.133,0,0,1-.064-.017l-.688-.386a.131.131,0,0,1,.128-.229l.688.386a.131.131,0,0,1-.064.246Zm17.447-.117a.132.132,0,0,1-.131-.131v-.789a.131.131,0,0,1,.263,0v.789A.132.132,0,0,1,441.31,277.734Zm-18.822-.656a.128.128,0,0,1-.064-.017l-.688-.386a.131.131,0,0,1,.128-.229l.688.387a.132.132,0,0,1-.064.246Zm-1.375-.773a.133.133,0,0,1-.064-.017l-.688-.387a.131.131,0,1,1,.128-.229l.688.386a.132.132,0,0,1-.064.246Zm20.2-.148a.132.132,0,0,1-.131-.131v-.789a.131.131,0,0,1,.263,0v.789A.132.132,0,0,1,441.31,276.157Zm-21.572-.625a.133.133,0,0,1-.064-.017l-.687-.387a.131.131,0,1,1,.128-.229l.687.386a.131.131,0,0,1-.064.246Zm-1.375-.773a.127.127,0,0,1-.064-.017l-.688-.386a.131.131,0,0,1,.129-.229l.687.386a.131.131,0,0,1-.064.246Zm22.947-.179a.132.132,0,0,1-.131-.131v-.789a.131.131,0,0,1,.263,0v.789A.132.132,0,0,1,441.31,274.58Zm-24.322-.594a.128.128,0,0,1-.064-.017l-.688-.386a.131.131,0,1,1,.128-.229l.688.387a.131.131,0,0,1-.064.246Zm-1.375-.773a.133.133,0,0,1-.064-.017l-.688-.387a.131.131,0,1,1,.128-.229l.688.386a.132.132,0,0,1-.064.246Zm25.7-.21a.132.132,0,0,1-.131-.131v-.789a.131.131,0,0,1,.263,0v.789A.132.132,0,0,1,441.31,273Zm-27.072-.563a.133.133,0,0,1-.064-.017l-.687-.386a.131.131,0,0,1,.128-.229l.687.386a.131.131,0,0,1-.064.246Zm-1.375-.773a.127.127,0,0,1-.064-.017l-.688-.386a.131.131,0,0,1,.129-.229l.687.387a.131.131,0,0,1-.064.246Zm28.447-.241a.132.132,0,0,1-.131-.131V270.5a.131.131,0,0,1,.263,0v.789A.132.132,0,0,1,441.31,271.425Zm-29.821-.532a.133.133,0,0,1-.064-.017l-.688-.387a.131.131,0,1,1,.128-.229l.688.386a.131.131,0,0,1-.064.246Zm-1.375-.773a.136.136,0,0,1-.065-.017l-.687-.386a.132.132,0,0,1,.129-.229l.687.387a.132.132,0,0,1-.065.246Zm31.2-.273a.132.132,0,0,1-.131-.131v-.789a.131.131,0,0,1,.263,0v.789A.132.132,0,0,1,441.31,269.847Zm-32.571-.5a.127.127,0,0,1-.064-.017l-.687-.386a.131.131,0,0,1,.128-.229l.687.387a.13.13,0,0,1,.051.178A.132.132,0,0,1,408.738,269.347Zm-1.375-.773a.128.128,0,0,1-.064-.017l-.688-.386a.131.131,0,0,1,.129-.229l.687.386a.131.131,0,0,1-.064.246Zm33.946-.3a.132.132,0,0,1-.131-.131v-.789a.131.131,0,1,1,.263,0v.789A.132.132,0,0,1,441.31,268.27Zm-35.321-.469a.133.133,0,0,1-.064-.017l-.688-.387a.131.131,0,0,1,.128-.229l.688.386a.131.131,0,0,1-.064.246Zm-1.375-.773a.131.131,0,0,1-.065-.017l-.687-.386a.132.132,0,0,1,.129-.229l.687.386a.132.132,0,0,1-.065.246Zm36.7-.335a.132.132,0,0,1-.131-.131v-.789a.131.131,0,1,1,.263,0v.789A.132.132,0,0,1,441.31,266.693Zm-38.071-.438a.127.127,0,0,1-.064-.017l-.687-.386a.131.131,0,0,1,.128-.229l.688.387a.131.131,0,0,1-.065.246Zm-1.375-.773a.133.133,0,0,1-.064-.017l-.687-.387a.131.131,0,1,1,.128-.229l.687.386a.131.131,0,0,1-.064.246Zm39.446-.366a.132.132,0,0,1-.131-.131V264.2a.131.131,0,1,1,.263,0v.789A.132.132,0,0,1,441.31,265.115Zm-40.821-.407a.133.133,0,0,1-.064-.017l-.688-.386a.131.131,0,0,1,.128-.229l.688.387a.131.131,0,0,1-.064.246Zm-1.374-.773a.127.127,0,0,1-.064-.017l-.688-.386a.131.131,0,0,1,.128-.229l.688.387a.131.131,0,0,1-.064.246Zm42.2-.4a.132.132,0,0,1-.131-.131v-.789a.131.131,0,1,1,.263,0v.789A.132.132,0,0,1,441.31,263.538Zm-43.571-.375a.128.128,0,0,1-.064-.017l-.687-.386a.131.131,0,1,1,.128-.229l.688.387a.132.132,0,0,1-.065.246Zm-1.375-.773a.133.133,0,0,1-.064-.017l-.687-.386a.131.131,0,1,1,.128-.229l.687.386a.131.131,0,0,1-.064.246Zm44.946-.428a.132.132,0,0,1-.131-.131v-.789a.131.131,0,1,1,.263,0v.789A.132.132,0,0,1,441.31,261.961Zm-46.321-.344a.133.133,0,0,1-.064-.017l-.688-.386a.131.131,0,0,1,.128-.229l.688.386a.131.131,0,0,1-.064.246Zm-1.374-.773a.128.128,0,0,1-.064-.017l-.688-.386a.131.131,0,0,1,.128-.229l.688.387a.131.131,0,0,1-.064.246Zm47.7-.46a.132.132,0,0,1-.131-.131v-.789a.131.131,0,0,1,.263,0v.789A.132.132,0,0,1,441.31,260.383Zm-49.07-.313a.131.131,0,0,1-.065-.017l-.687-.386a.131.131,0,1,1,.128-.229l.688.386a.132.132,0,0,1-.064.246Zm-1.375-.773a.133.133,0,0,1-.064-.017l-.687-.387a.131.131,0,1,1,.128-.229l.687.386a.131.131,0,0,1-.064.246Zm50.446-.491a.132.132,0,0,1-.131-.131v-.789a.131.131,0,0,1,.263,0v.789A.132.132,0,0,1,441.31,258.806Zm-51.821-.282a.127.127,0,0,1-.064-.017l-.688-.386a.131.131,0,0,1,.128-.229l.688.387a.131.131,0,0,1-.064.246Zm-1.374-.772a.128.128,0,0,1-.064-.017l-.688-.386a.131.131,0,0,1,.128-.229l.688.387a.131.131,0,0,1-.064.246Zm53.2-.523a.132.132,0,0,1-.131-.131v-.789a.131.131,0,1,1,.263,0v.789A.132.132,0,0,1,441.31,257.228Zm-54.57-.251a.136.136,0,0,1-.065-.017l-.687-.387a.131.131,0,1,1,.128-.229l.688.386a.132.132,0,0,1-.064.246Zm-1.375-.773a.133.133,0,0,1-.064-.017l-.687-.386a.131.131,0,0,1,.128-.229l.687.386a.131.131,0,0,1-.064.246Zm55.946-.553a.132.132,0,0,1-.131-.131v-.789a.131.131,0,1,1,.263,0v.789A.132.132,0,0,1,441.31,255.651Zm-57.32-.219a.131.131,0,0,1-.065-.017l-.619-.348a.131.131,0,0,1,.129-.229l.619.348a.131.131,0,0,1-.065.246Zm57.32-1.358a.132.132,0,0,1-.131-.131v-.789a.131.131,0,1,1,.263,0v.789A.132.132,0,0,1,441.31,254.074Zm0-1.577a.132.132,0,0,1-.131-.131v-.789a.131.131,0,1,1,.263,0v.789A.132.132,0,0,1,441.31,252.5Zm0-1.577a.132.132,0,0,1-.131-.131V250a.131.131,0,1,1,.263,0v.789A.132.132,0,0,1,441.31,250.919Zm0-1.577a.132.132,0,0,1-.131-.131v-.789a.131.131,0,1,1,.263,0v.789A.132.132,0,0,1,441.31,249.341Zm0-1.577a.132.132,0,0,1-.131-.131v-.789a.131.131,0,1,1,.263,0v.789A.132.132,0,0,1,441.31,247.764Zm0-1.577a.132.132,0,0,1-.131-.131v-.789a.131.131,0,1,1,.263,0v.789A.132.132,0,0,1,441.31,246.187Zm0-1.577a.132.132,0,0,1-.131-.131v-.789a.131.131,0,0,1,.263,0v.789A.132.132,0,0,1,441.31,244.609Zm0-1.577a.132.132,0,0,1-.131-.131v-.789a.131.131,0,0,1,.263,0v.789A.132.132,0,0,1,441.31,243.032Zm0-1.577a.132.132,0,0,1-.131-.131v-.789a.131.131,0,1,1,.263,0v.789A.132.132,0,0,1,441.31,241.455Zm0-1.577a.132.132,0,0,1-.131-.131v-.789a.131.131,0,1,1,.263,0v.789A.132.132,0,0,1,441.31,239.877Zm0-1.577a.132.132,0,0,1-.131-.131v-.789a.131.131,0,1,1,.263,0v.789A.132.132,0,0,1,441.31,238.3Zm0-1.577a.132.132,0,0,1-.131-.131V235.8a.131.131,0,1,1,.263,0v.789A.132.132,0,0,1,441.31,236.722Zm0-1.577a.132.132,0,0,1-.131-.131v-.789a.131.131,0,1,1,.263,0v.789A.132.132,0,0,1,441.31,235.145Zm0-1.577a.132.132,0,0,1-.131-.131l0-.786a.131.131,0,0,1,.129-.134.125.125,0,0,1,.134.129l0,.791A.132.132,0,0,1,441.31,233.568Zm-.049-1.575a.132.132,0,0,1-.131-.118c-.027-.258-.064-.517-.113-.769a.132.132,0,0,1,.259-.049c.049.259.088.525.116.791a.132.132,0,0,1-.118.144Zm-.295-1.547a.132.132,0,0,1-.127-.1c-.068-.246-.149-.494-.24-.738a.132.132,0,0,1,.247-.093c.094.252.177.507.248.761a.132.132,0,0,1-.092.161A.135.135,0,0,1,440.965,230.445Zm-.55-1.475a.131.131,0,0,1-.119-.075c-.108-.232-.23-.463-.361-.689a.131.131,0,0,1,.227-.131c.135.232.26.47.372.708a.132.132,0,0,1-.063.175A.138.138,0,0,1,440.415,228.97Zm-.79-1.363a.129.129,0,0,1-.108-.056c-.148-.211-.307-.419-.472-.618a.132.132,0,0,1,.2-.168c.17.205.333.419.485.635a.132.132,0,0,1-.033.184A.134.134,0,0,1,439.625,227.607Zm-1.008-1.21a.132.132,0,0,1-.094-.039c-.182-.185-.373-.363-.569-.529a.131.131,0,0,1,.17-.2c.2.172.4.355.586.545a.131.131,0,0,1-.093.224Zm-1.2-1.022a.132.132,0,0,1-.076-.024c-.211-.151-.43-.293-.651-.425a.131.131,0,0,1,.133-.226c.229.135.454.282.671.437a.131.131,0,0,1-.077.238Zm-1.349-.815a.127.127,0,0,1-.064-.017l-.69-.382a.132.132,0,0,1,.128-.23l.69.382a.131.131,0,0,1-.064.247Zm-1.38-.764a.127.127,0,0,1-.064-.017l-.69-.382a.132.132,0,0,1,.128-.23l.689.382a.131.131,0,0,1-.064.247Zm-1.38-.765a.126.126,0,0,1-.064-.016l-.69-.382a.132.132,0,0,1,.128-.23l.69.383a.131.131,0,0,1-.064.246Zm-1.38-.764a.126.126,0,0,1-.064-.016l-.69-.382a.131.131,0,0,1,.128-.23l.69.382a.131.131,0,0,1-.064.246Zm-1.38-.765a.132.132,0,0,1-.064-.016l-.69-.382a.131.131,0,0,1,.127-.23l.69.382a.131.131,0,0,1-.064.246Zm-1.38-.764a.132.132,0,0,1-.064-.016l-.69-.383a.131.131,0,0,1,.127-.23l.69.382a.131.131,0,0,1-.064.247Zm-1.38-.764a.132.132,0,0,1-.064-.016l-.69-.382a.131.131,0,0,1,.127-.23l.69.382a.131.131,0,0,1-.064.247Zm-1.38-.765a.132.132,0,0,1-.064-.016l-.69-.382a.131.131,0,0,1,.127-.23l.69.382a.131.131,0,0,1-.064.247Zm-1.38-.764a.132.132,0,0,1-.064-.016l-.69-.383a.132.132,0,0,1,.127-.23l.69.383a.131.131,0,0,1-.064.247Zm-1.38-.765a.127.127,0,0,1-.064-.017l-.69-.382a.132.132,0,0,1,.127-.23l.69.382a.131.131,0,0,1-.064.247Zm-1.38-.764a.127.127,0,0,1-.064-.017l-.69-.382a.132.132,0,0,1,.127-.23l.69.382a.131.131,0,0,1-.064.247Zm-1.38-.764a.127.127,0,0,1-.064-.017l-.69-.382a.132.132,0,1,1,.127-.23l.69.383a.132.132,0,0,1-.064.247Zm-1.38-.765a.126.126,0,0,1-.064-.016l-.69-.382a.132.132,0,0,1,.127-.23l.69.382a.131.131,0,0,1-.064.246Zm-1.38-.765a.126.126,0,0,1-.064-.016l-.69-.382a.131.131,0,1,1,.127-.23l.69.382a.131.131,0,0,1-.064.246Zm-1.38-.764a.132.132,0,0,1-.064-.016l-.69-.383a.131.131,0,1,1,.127-.23l.69.382a.132.132,0,0,1-.064.247Zm-1.38-.764a.132.132,0,0,1-.064-.016l-.69-.382a.131.131,0,1,1,.127-.23l.69.382a.132.132,0,0,1-.064.247Zm-1.38-.765a.132.132,0,0,1-.064-.016l-.69-.382a.131.131,0,1,1,.127-.23l.69.382a.132.132,0,0,1-.064.247Zm-1.38-.764a.127.127,0,0,1-.064-.017l-.69-.382a.131.131,0,1,1,.127-.23l.69.382a.132.132,0,0,1-.064.247Zm-1.38-.765a.126.126,0,0,1-.064-.017l-.69-.382a.132.132,0,0,1,.127-.23l.69.382a.132.132,0,0,1-.064.247Zm-1.38-.764a.132.132,0,0,1-.064-.016l-.69-.382a.132.132,0,0,1,.127-.23l.69.382a.132.132,0,0,1-.064.247Zm-1.38-.764a.132.132,0,0,1-.064-.016l-.69-.382a.131.131,0,1,1,.127-.23l.69.382a.132.132,0,0,1-.064.247Zm-1.38-.765a.135.135,0,0,1-.064-.016l-.689-.382a.131.131,0,1,1,.127-.23l.69.382a.131.131,0,0,1-.064.246Zm-1.38-.764a.135.135,0,0,1-.064-.016l-.69-.382a.132.132,0,0,1,.127-.23l.69.382a.132.132,0,0,1-.064.247Zm-1.38-.764a.135.135,0,0,1-.064-.016l-.69-.382a.132.132,0,1,1,.127-.23l.69.382a.132.132,0,0,1-.064.247Zm-1.38-.764a.134.134,0,0,1-.064-.016l-.69-.382a.131.131,0,1,1,.127-.23l.69.382a.132.132,0,0,1-.064.247Zm-1.38-.765a.133.133,0,0,1-.064-.016l-.689-.382a.131.131,0,1,1,.127-.23l.69.382a.131.131,0,0,1-.064.246Zm-1.38-.764a.132.132,0,0,1-.064-.016l-.689-.383a.131.131,0,0,1-.052-.178.133.133,0,0,1,.179-.052l.69.382a.132.132,0,0,1-.064.247Zm-1.38-.764a.138.138,0,0,1-.064-.016l-.69-.382a.132.132,0,1,1,.127-.23l.69.382a.132.132,0,0,1-.064.247Zm-1.38-.765a.132.132,0,0,1-.064-.016l-.69-.382a.132.132,0,0,1,.127-.23l.69.382a.132.132,0,0,1-.064.247Zm-29.993-.4a.134.134,0,0,1-.071-.02,5.381,5.381,0,0,1-.645-.486.132.132,0,0,1-.011-.186.131.131,0,0,1,.186-.012,4.978,4.978,0,0,0,.612.462.13.13,0,0,1,.039.181A.128.128,0,0,1,367.439,202.752Zm28.613-.36a.132.132,0,0,1-.064-.016l-.689-.382a.131.131,0,1,1,.127-.23l.69.382a.131.131,0,0,1-.064.246Zm-29.789-.68a.132.132,0,0,1-.1-.048A5.24,5.24,0,0,1,365.7,201a.132.132,0,1,1,.227-.134,4.916,4.916,0,0,0,.439.629.131.131,0,0,1-.018.185A.13.13,0,0,1,366.263,201.712Zm28.41-.084a.132.132,0,0,1-.064-.016l-.689-.382a.132.132,0,1,1,.127-.23l.69.382a.131.131,0,0,1-.064.246Zm-1.38-.764a.132.132,0,0,1-.064-.016l-.69-.383a.131.131,0,1,1,.127-.23l.69.382a.131.131,0,0,1-.064.247Zm-27.829-.5a.132.132,0,0,1-.122-.081,6.493,6.493,0,0,1-.256-.763.132.132,0,0,1,.093-.161.133.133,0,0,1,.16.093,6.161,6.161,0,0,0,.246.731.131.131,0,0,1-.072.171A.128.128,0,0,1,365.464,200.36Zm26.449-.261a.132.132,0,0,1-.064-.016l-.69-.382a.132.132,0,1,1,.127-.23l.69.382a.131.131,0,0,1-.064.247Zm-1.38-.764a.132.132,0,0,1-.064-.016l-.69-.382a.131.131,0,1,1,.127-.23l.69.382a.131.131,0,0,1-.064.247Zm-25.483-.494a.132.132,0,0,1-.13-.111c-.04-.256-.069-.524-.087-.8a.132.132,0,0,1,.122-.14.124.124,0,0,1,.139.123c.018.264.046.524.086.773a.132.132,0,0,1-.109.15Zm24.1-.271a.131.131,0,0,1-.064-.016l-.689-.382a.131.131,0,1,1,.127-.23l.689.382a.131.131,0,0,1-.064.246Zm-1.38-.764a.132.132,0,0,1-.064-.016l-.689-.382a.132.132,0,1,1,.127-.23l.689.382a.131.131,0,0,1-.064.247Zm-22.832-.538h0a.132.132,0,0,1-.131-.133l0-.188a2.933,2.933,0,0,1,.08-.624.134.134,0,0,1,.158-.1.132.132,0,0,1,.1.159,2.643,2.643,0,0,0-.073.567l0,.185A.131.131,0,0,1,364.942,197.268Zm21.452-.227a.138.138,0,0,1-.064-.016l-.69-.382a.132.132,0,0,1,.127-.23l.69.382a.131.131,0,0,1-.064.247Zm-1.38-.764a.132.132,0,0,1-.064-.016l-.69-.382a.132.132,0,1,1,.127-.23l.69.382a.131.131,0,0,1-.064.247Zm-19.7-.518a.129.129,0,0,1-.067-.018.131.131,0,0,1-.046-.18,3.254,3.254,0,0,1,.5-.646.132.132,0,0,1,.186.186,2.99,2.99,0,0,0-.464.593A.131.131,0,0,1,365.317,195.759Zm18.318-.246a.132.132,0,0,1-.064-.017l-.69-.382a.131.131,0,1,1,.127-.23l.69.382a.131.131,0,0,1-.064.247Zm-1.38-.765a.132.132,0,0,1-.064-.016l-.518-.287-.17-.1a.131.131,0,0,1,.126-.23c.058.032.117.065.174.1l.516.286a.131.131,0,0,1-.064.246Zm-15.844-.108a.131.131,0,0,1-.074-.24c.108-.073.221-.144.34-.212s.232-.131.352-.195a.132.132,0,0,1,.122.233c-.117.06-.231.124-.343.188s-.221.134-.324.2A.132.132,0,0,1,366.411,194.64Zm14.452-.63a.141.141,0,0,1-.056-.012c-.23-.107-.472-.209-.718-.3a.132.132,0,0,1,.095-.246c.251.1.5.2.735.311a.132.132,0,0,1-.055.251ZM367.8,193.9a.132.132,0,0,1-.053-.252c.238-.1.486-.2.74-.3a.131.131,0,0,1,.09.247c-.249.091-.493.189-.725.291A.138.138,0,0,1,367.8,193.9Zm11.592-.459a.132.132,0,0,1-.04-.006q-.368-.118-.751-.218a.132.132,0,0,1-.094-.16.13.13,0,0,1,.161-.094c.259.068.514.143.764.222a.132.132,0,0,1-.04.257Zm-10.112-.084a.131.131,0,0,1-.038-.257q.377-.113.768-.208a.13.13,0,0,1,.159.1.132.132,0,0,1-.1.159q-.385.094-.754.205A.141.141,0,0,1,369.281,193.356Zm8.587-.317a.12.12,0,0,1-.027,0q-.379-.08-.769-.141a.132.132,0,0,1-.109-.151.134.134,0,0,1,.15-.109c.264.042.526.09.782.144a.131.131,0,0,1-.027.26Zm-7.055-.056a.132.132,0,0,1-.025-.261c.258-.049.519-.093.784-.131a.134.134,0,0,1,.148.111.131.131,0,0,1-.111.149q-.391.056-.772.129Zm5.5-.193h-.015q-.386-.044-.779-.072a.132.132,0,0,1-.122-.14.134.134,0,0,1,.14-.122q.4.028.791.073a.131.131,0,0,1-.015.262Zm-3.936-.031a.131.131,0,0,1-.013-.262c.261-.025.525-.046.791-.06h.007a.132.132,0,0,1,.007.263q-.394.021-.78.059Zm2.362-.08h0c-.179,0-.359-.007-.539-.007l-.245,0h0a.131.131,0,0,1,0-.263l.248,0c.183,0,.365,0,.546.007a.131.131,0,0,1,0,.263Z" transform="translate(-364.811 -192.409)" fill="#8d8d8d"/>
        </g>
      </g>
      <g id="Group_35483" data-name="Group 35483" transform="translate(371.784 69.037)">
        <path id="Path_93225" data-name="Path 93225" d="M433.462,229.362l-41.812-24.14c-4.716-2.723-8.54-10.028-8.54-16.317V77.555c0-3.2-2.629-3.905-1.036-5.054.06-.044,6.38-2.877,6.45-2.9a6.165,6.165,0,0,1,5.774.337l41.812,24.14c4.716,2.723,8.54,10.028,8.54,16.316V221.741c0,3.341-1.079,5.723-2.8,6.814-.1.065-7.174,3.334-7.288,3.372C433.04,232.435,435.524,230.553,433.462,229.362Z" transform="translate(-381.562 -69.037)" fill="#afb6e5"/>
        <path id="Path_93226" data-name="Path 93226" d="M433.462,229.4l-41.812-24.14c-4.716-2.723-8.54-10.028-8.54-16.317V77.589c0-3.2-2.629-3.905-1.036-5.054.06-.044,6.277-2.839,6.347-2.866a6.164,6.164,0,0,1,5.774.337l41.812,24.14c4.716,2.723,8.54,10.028,8.54,16.317V221.813c0,3.341-1.079,5.724-2.8,6.814-.1.065-7.071,3.3-7.185,3.334C433.04,232.469,435.524,230.587,433.462,229.4Z" transform="translate(-381.562 -69.071)" fill="url(#linear-gradient-2)"/>
        <path id="Path_93227" data-name="Path 93227" d="M433.462,229.431l-41.812-24.14c-4.716-2.723-8.54-10.028-8.54-16.317V77.623c0-3.2-2.629-3.905-1.036-5.054.06-.044,6.174-2.8,6.244-2.828a6.165,6.165,0,0,1,5.774.337L435.9,94.219c4.716,2.723,8.54,10.028,8.54,16.317V221.886c0,3.341-1.079,5.723-2.8,6.814-.1.065-6.968,3.257-7.082,3.3C433.04,232.5,435.524,230.622,433.462,229.431Z" transform="translate(-381.562 -69.105)" fill="url(#linear-gradient-3)"/>
        <path id="Path_93228" data-name="Path 93228" d="M433.462,229.466l-41.812-24.14c-4.716-2.723-8.54-10.028-8.54-16.317V77.658c0-3.2-2.629-3.905-1.036-5.054.06-.044,6.071-2.763,6.141-2.789a6.165,6.165,0,0,1,5.774.337L435.8,94.292c4.716,2.723,8.54,10.028,8.54,16.316V221.959c0,3.341-1.079,5.723-2.8,6.814-.1.065-6.865,3.219-6.979,3.257C433.04,232.538,435.524,230.656,433.462,229.466Z" transform="translate(-381.562 -69.14)" fill="url(#linear-gradient-4)"/>
        <path id="Path_93229" data-name="Path 93229" d="M433.462,229.5,391.65,205.36c-4.716-2.723-8.54-10.028-8.54-16.317V77.692c0-3.2-2.629-3.905-1.036-5.054.06-.044,5.968-2.725,6.038-2.751a6.164,6.164,0,0,1,5.774.337L435.7,94.364c4.716,2.723,8.54,10.028,8.54,16.317V222.032c0,3.341-1.079,5.723-2.8,6.813-.1.065-6.762,3.181-6.876,3.219C433.04,232.572,435.524,230.691,433.462,229.5Z" transform="translate(-381.562 -69.174)" fill="url(#linear-gradient-5)"/>
        <path id="Path_93230" data-name="Path 93230" d="M433.462,229.535l-41.812-24.14c-4.716-2.723-8.54-10.028-8.54-16.317V77.727c0-3.2-2.629-3.905-1.036-5.054.06-.044,5.865-2.686,5.935-2.713a6.167,6.167,0,0,1,5.774.337L435.6,94.437c4.716,2.723,8.54,10.028,8.54,16.317V222.1c0,3.341-1.079,5.723-2.8,6.814-.1.065-6.659,3.143-6.773,3.181C433.04,232.607,435.524,230.725,433.462,229.535Z" transform="translate(-381.562 -69.209)" fill="url(#linear-gradient-6)"/>
        <path id="Path_93231" data-name="Path 93231" d="M433.462,229.569l-41.812-24.14c-4.716-2.723-8.54-10.028-8.54-16.317V77.761c0-3.2-2.629-3.905-1.036-5.054.06-.044,5.762-2.648,5.832-2.675a6.165,6.165,0,0,1,5.774.337l41.812,24.14c4.716,2.723,8.54,10.028,8.54,16.317V222.177c0,3.341-1.079,5.723-2.8,6.814-.1.064-6.556,3.1-6.67,3.143C433.04,232.641,435.524,230.76,433.462,229.569Z" transform="translate(-381.562 -69.243)" fill="url(#linear-gradient-7)"/>
        <path id="Path_93232" data-name="Path 93232" d="M433.462,229.6l-41.812-24.14c-4.716-2.723-8.54-10.028-8.54-16.317V77.8c0-3.2-2.629-3.905-1.036-5.054.06-.044,5.659-2.61,5.729-2.636a6.167,6.167,0,0,1,5.774.336l41.812,24.14c4.716,2.723,8.54,10.028,8.54,16.317V222.249c0,3.341-1.079,5.724-2.8,6.814-.1.065-6.453,3.066-6.567,3.1C433.04,232.676,435.524,230.794,433.462,229.6Z" transform="translate(-381.562 -69.278)" fill="url(#linear-gradient-8)"/>
        <path id="Path_93233" data-name="Path 93233" d="M433.462,229.638,391.65,205.5c-4.716-2.723-8.54-10.028-8.54-16.317V77.83c0-3.2-2.629-3.905-1.036-5.054.06-.044,5.556-2.572,5.625-2.6a6.167,6.167,0,0,1,5.774.337l41.812,24.14c4.716,2.723,8.539,10.028,8.539,16.317V222.322c0,3.341-1.079,5.723-2.8,6.814-.1.065-6.349,3.028-6.464,3.066C433.04,232.71,435.524,230.828,433.462,229.638Z" transform="translate(-381.562 -69.312)" fill="url(#linear-gradient-9)"/>
        <path id="Path_93234" data-name="Path 93234" d="M433.462,229.673l-41.812-24.14c-4.716-2.723-8.54-10.028-8.54-16.317V77.865c0-3.2-2.629-3.905-1.036-5.054.06-.044,5.453-2.534,5.522-2.56a6.165,6.165,0,0,1,5.774.337l41.812,24.14c4.716,2.723,8.539,10.028,8.539,16.317V222.4c0,3.341-1.079,5.723-2.8,6.814-.1.065-6.246,2.99-6.361,3.028C433.04,232.745,435.524,230.863,433.462,229.673Z" transform="translate(-381.562 -69.347)" fill="url(#linear-gradient-10)"/>
        <path id="Path_93235" data-name="Path 93235" d="M433.462,229.707l-41.812-24.14c-4.716-2.723-8.54-10.028-8.54-16.317V77.9c0-3.2-2.629-3.905-1.036-5.054.06-.044,5.35-2.5,5.419-2.522a6.167,6.167,0,0,1,5.774.336L435.08,94.8c4.716,2.723,8.539,10.028,8.539,16.317V222.468c0,3.341-1.079,5.723-2.8,6.813-.1.065-6.143,2.952-6.257,2.99C433.04,232.779,435.524,230.9,433.462,229.707Z" transform="translate(-381.562 -69.381)" fill="url(#linear-gradient-11)"/>
        <path id="Path_93236" data-name="Path 93236" d="M433.462,229.741,391.65,205.6c-4.716-2.723-8.54-10.028-8.54-16.317V77.934c0-3.2-2.629-3.905-1.036-5.054.06-.044,5.247-2.457,5.316-2.484a6.167,6.167,0,0,1,5.774.337l41.812,24.14c4.716,2.723,8.539,10.028,8.539,16.317V222.54c0,3.341-1.079,5.723-2.8,6.814-.1.065-6.04,2.913-6.154,2.952C433.04,232.814,435.524,230.932,433.462,229.741Z" transform="translate(-381.562 -69.416)" fill="url(#linear-gradient-12)"/>
        <path id="Path_93237" data-name="Path 93237" d="M433.462,229.776l-41.812-24.14c-4.716-2.723-8.54-10.028-8.54-16.317V77.968c0-3.2-2.629-3.905-1.036-5.054.06-.044,5.144-2.419,5.213-2.445a6.165,6.165,0,0,1,5.774.337l41.812,24.14c4.716,2.723,8.539,10.028,8.539,16.317V222.613c0,3.341-1.079,5.723-2.8,6.814-.1.064-5.937,2.875-6.051,2.913C433.04,232.848,435.524,230.966,433.462,229.776Z" transform="translate(-381.562 -69.45)" fill="url(#linear-gradient-13)"/>
        <path id="Path_93238" data-name="Path 93238" d="M433.462,229.81,391.65,205.67c-4.716-2.723-8.54-10.028-8.54-16.317V78c0-3.2-2.629-3.905-1.036-5.054.06-.044,5.041-2.381,5.11-2.407a6.167,6.167,0,0,1,5.774.336l41.812,24.14c4.716,2.723,8.539,10.028,8.539,16.317V222.685c0,3.341-1.079,5.724-2.8,6.814-.1.065-5.834,2.837-5.948,2.876C433.04,232.883,435.524,231,433.462,229.81Z" transform="translate(-381.562 -69.485)" fill="url(#linear-gradient-14)"/>
        <path id="Path_93239" data-name="Path 93239" d="M433.462,229.845,391.65,205.7c-4.716-2.723-8.54-10.028-8.54-16.317V78.037c0-3.2-2.629-3.905-1.036-5.054.06-.044,4.938-2.342,5.007-2.369a6.167,6.167,0,0,1,5.774.337l41.812,24.14c4.716,2.723,8.539,10.028,8.539,16.317V222.758c0,3.341-1.079,5.723-2.8,6.814-.1.065-5.731,2.8-5.845,2.837C433.04,232.917,435.524,231.035,433.462,229.845Z" transform="translate(-381.562 -69.519)" fill="url(#linear-gradient-15)"/>
        <path id="Path_93240" data-name="Path 93240" d="M433.462,229.879l-41.812-24.14c-4.716-2.723-8.54-10.028-8.54-16.317V78.072c0-3.2-2.629-3.905-1.036-5.054.06-.044,4.835-2.3,4.9-2.331a6.165,6.165,0,0,1,5.774.337l41.812,24.14c4.716,2.723,8.539,10.028,8.539,16.316V222.831c0,3.341-1.079,5.723-2.8,6.814-.1.065-5.628,2.76-5.742,2.8C433.04,232.951,435.524,231.07,433.462,229.879Z" transform="translate(-381.562 -69.553)" fill="url(#linear-gradient-16)"/>
        <path id="Path_93241" data-name="Path 93241" d="M433.462,229.914l-41.812-24.14c-4.716-2.723-8.54-10.028-8.54-16.317V78.106c0-3.2-2.629-3.905-1.036-5.054.06-.044,4.732-2.266,4.8-2.292a6.165,6.165,0,0,1,5.774.336l41.812,24.14c4.716,2.723,8.539,10.028,8.539,16.317V222.9c0,3.341-1.079,5.723-2.8,6.813-.1.065-5.524,2.723-5.639,2.761C433.04,232.986,435.524,231.1,433.462,229.914Z" transform="translate(-381.562 -69.588)" fill="url(#linear-gradient-17)"/>
        <path id="Path_93242" data-name="Path 93242" d="M433.462,229.948l-41.812-24.14c-4.716-2.723-8.54-10.028-8.54-16.317V78.14c0-3.2-2.629-3.905-1.036-5.054.06-.044,4.629-2.228,4.7-2.255a6.165,6.165,0,0,1,5.774.337l41.812,24.14c4.716,2.723,8.539,10.028,8.539,16.317V222.976c0,3.341-1.079,5.723-2.8,6.814-.1.065-5.421,2.684-5.536,2.723C433.04,233.02,435.524,231.138,433.462,229.948Z" transform="translate(-381.562 -69.622)" fill="url(#linear-gradient-18)"/>
        <path id="Path_93243" data-name="Path 93243" d="M433.462,229.983l-41.812-24.14c-4.716-2.723-8.54-10.028-8.54-16.317V78.175c0-3.2-2.629-3.905-1.036-5.054.06-.044,4.526-2.189,4.595-2.216a6.165,6.165,0,0,1,5.774.337l41.812,24.14c4.716,2.723,8.539,10.028,8.539,16.316V223.049c0,3.341-1.079,5.723-2.8,6.814-.1.065-5.318,2.646-5.432,2.684C433.04,233.055,435.524,231.173,433.462,229.983Z" transform="translate(-381.562 -69.657)" fill="url(#linear-gradient-19)"/>
        <path id="Path_93244" data-name="Path 93244" d="M433.462,230.017l-41.812-24.14c-4.716-2.723-8.54-10.028-8.54-16.317V78.209c0-3.2-2.629-3.905-1.036-5.054.06-.044,4.422-2.152,4.492-2.178a6.165,6.165,0,0,1,5.774.336l41.812,24.14c4.716,2.723,8.539,10.028,8.539,16.317V223.122c0,3.341-1.079,5.723-2.8,6.813-.1.065-5.215,2.608-5.329,2.646C433.04,233.089,435.524,231.207,433.462,230.017Z" transform="translate(-381.562 -69.691)" fill="url(#linear-gradient-20)"/>
        <path id="Path_93245" data-name="Path 93245" d="M433.462,230.051l-41.812-24.14c-4.716-2.723-8.54-10.028-8.54-16.317V78.244c0-3.2-2.629-3.905-1.036-5.054.06-.044,4.319-2.113,4.389-2.14a6.165,6.165,0,0,1,5.774.337l41.812,24.14c4.716,2.723,8.539,10.028,8.539,16.317v111.35c0,3.341-1.079,5.723-2.8,6.814-.1.065-5.112,2.57-5.226,2.608C433.04,233.124,435.524,231.242,433.462,230.051Z" transform="translate(-381.562 -69.726)" fill="url(#linear-gradient-21)"/>
        <path id="Path_93246" data-name="Path 93246" d="M433.462,230.086l-41.812-24.14c-4.716-2.723-8.54-10.028-8.54-16.317V78.278c0-3.2-2.629-3.905-1.036-5.054.06-.044,4.216-2.075,4.286-2.1a6.165,6.165,0,0,1,5.774.337L433.946,95.6c4.717,2.723,8.54,10.028,8.54,16.316V223.267c0,3.341-1.079,5.723-2.8,6.814-.1.064-5.009,2.531-5.123,2.57C433.04,233.158,435.524,231.276,433.462,230.086Z" transform="translate(-381.562 -69.76)" fill="url(#linear-gradient-22)"/>
      </g>
      <path id="Path_93247" data-name="Path 93247" d="M427.267,233.887l-41.812-24.14c-4.716-2.723-8.54-10.028-8.54-16.317V82.079c0-6.288,3.824-9.179,8.54-6.456l41.812,24.14c4.716,2.723,8.539,10.028,8.539,16.317V227.431C435.807,233.72,431.984,236.61,427.267,233.887Z" transform="translate(-7.574 -2.637)" fill="#fff"/>
      <path id="Path_93248" data-name="Path 93248" d="M431.42,234.829a6,6,0,0,1-2.967-.912l-41.813-24.14c-4.476-2.584-8.117-9.575-8.117-15.584V82.842c0-4.03,1.689-6.634,4.3-6.634a6.01,6.01,0,0,1,2.967.911l41.813,24.141c4.476,2.584,8.117,9.575,8.117,15.584V228.195C435.724,232.225,434.035,234.829,431.42,234.829Z" transform="translate(-8.337 -3.401)" fill="url(#linear-gradient-23)"/>
      <path id="Path_93249" data-name="Path 93249" d="M382.294,198.31V87.387c0-4.614,2.806-6.735,6.266-4.737l40.7,23.5c3.461,2,6.266,7.358,6.266,11.973V229.046c0,4.614-2.806,6.735-6.266,4.737l-40.7-23.5C385.1,208.285,382.294,202.925,382.294,198.31Z" transform="translate(-10.125 -6.099)" fill="#afb6e5"/>
      <path id="Path_93250" data-name="Path 93250" d="M389.782,84.93c-3.262-1.883-5.906-.375-5.906,3.367v112.17a13.013,13.013,0,0,0,5.906,10.187l39.761,22.956c3.261,1.883,5.906.375,5.906-3.367V118.072a13.015,13.015,0,0,0-5.906-10.187Z" transform="translate(-10.875 -7.152)" fill="#325c92"/>
      <path id="Path_93251" data-name="Path 93251" d="M383.876,134.3v70.875l51.572,21.4V144.807a17.289,17.289,0,0,0-1.534-1c-3.24-1.871-6.171-2.045-8.284-.817a16.912,16.912,0,0,0-5.228-5.037c-4.633-2.675-8.409-.695-8.672,4.394a26.6,26.6,0,0,0-7.925-7.424c-6.117-3.532-11.308-1.993-13.167,3.232a15.557,15.557,0,0,0-3.311-2.636A8.847,8.847,0,0,0,383.876,134.3Z" transform="translate(-10.875 -30.337)" fill="#6cf" opacity="0.5"/>
      <path id="Path_93252" data-name="Path 93252" d="M493.063,205.461h0c-1.2.692-2.172-.043-2.172-1.642v-9.062a5.2,5.2,0,0,1,2.172-4.15h0c1.2-.692,2.173.043,2.173,1.642v9.062A5.2,5.2,0,0,1,493.063,205.461Z" transform="translate(-61.622 -57.526)" fill="url(#linear-gradient-24)"/>
      <path id="Path_93255" data-name="Path 93255" d="M435.448,171.728a13.933,13.933,0,0,0-2.09-1.507,7.318,7.318,0,0,0-4.64-1.138,22.437,22.437,0,0,0-8.485-9.891c-4.425-2.555-8.206-1.587-9.74,1.979a12.615,12.615,0,0,0-3.795-3.585c-2.82-1.628-5.218-.966-6.146,1.364a21.531,21.531,0,0,0-6.815-6.674c-4.34-2.506-8.09-1.773-9.861,1.4v70.568l51.572,21.4Z" transform="translate(-10.875 -38.759)" fill="#cff" opacity="0.5"/>
      <path id="Path_93256" data-name="Path 93256" d="M435.448,183.31a18.347,18.347,0,0,0-4.546-3.855c-3.618-2.088-6.8-1.774-8.624.415a11.354,11.354,0,0,0-2.567-2.081c-2.832-1.635-5.238-.962-6.157,1.392a19.434,19.434,0,0,0-4.7-3.943c-5.035-2.907-9.273-1.453-10.552,3.12a13.157,13.157,0,0,0-2.828-2.256,7.1,7.1,0,0,0-3.293-1.042,19.384,19.384,0,0,0-7.151-8.083,11.222,11.222,0,0,0-1.154-.58v68.355a13.158,13.158,0,0,0,5.152,9.69l46.42,19.266Z" transform="translate(-10.875 -46.169)" fill="#e3ffff" opacity="0.5"/>
      <g id="Group_35494" data-name="Group 35494" transform="translate(360.967 130.458)">
        <g id="Group_35488" data-name="Group 35488" transform="translate(18.385 0)">
          <path id="Path_93257" data-name="Path 93257" d="M444.227,210.649l-42.044-24.274a3.085,3.085,0,0,0-2.356-.441l-1.33.556.2.178a4.608,4.608,0,0,0-.9,3.029V217.26c0,3.235,1.966,6.994,4.393,8.394l42.044,24.274a3.589,3.589,0,0,0,1.636.521l.223.154.467-.226c1.388-.686,2.066-1.675,2.066-3.769V219.043C448.62,215.808,446.653,212.05,444.227,210.649Z" transform="translate(-396.826 -185.852)" fill="#c1861f"/>
          <path id="Path_93258" data-name="Path 93258" d="M442.393,250.722l-42.044-24.274c-2.427-1.4-4.393-5.159-4.393-8.394V190.489c0-3.235,1.966-4.722,4.393-3.321l42.044,24.274c2.427,1.4,4.393,5.159,4.393,8.394V247.4C446.786,250.636,444.819,252.123,442.393,250.722Z" transform="translate(-395.956 -186.227)" fill="url(#linear-gradient-25)"/>
          <g id="Group_35485" data-name="Group 35485" transform="translate(3.699 7.71)">
            <path id="Path_93259" data-name="Path 93259" d="M411.658,211.413V209.2l-8.666-5v2.21Z" transform="translate(-402.991 -202.263)" fill="#fff"/>
            <path id="Path_93260" data-name="Path 93260" d="M411.658,206.928v-.12a4.014,4.014,0,0,0-1.821-3.142l-5.024-2.9c-1.006-.581-1.821-.116-1.821,1.038v.12Z" transform="translate(-402.991 -200.516)" fill="#fff"/>
            <path id="Path_93261" data-name="Path 93261" d="M402.991,209.408v.072a4.014,4.014,0,0,0,1.821,3.142l5.024,2.9c1.006.581,1.821.116,1.821-1.038v-.072Z" transform="translate(-402.991 -204.733)" fill="#fff"/>
          </g>
          <g id="Group_35486" data-name="Group 35486" transform="translate(23.398 19.661)" opacity="0.95">
            <path id="Path_93262" data-name="Path 93262" d="M440.717,227.845a2.175,2.175,0,0,1-.26-1.064v-2.706q0-.59.26-.763t.756.113a1.951,1.951,0,0,1,.756.76,2.173,2.173,0,0,1,.26,1.064v.532l-.653-.376v-.583a.708.708,0,0,0-.345-.667q-.345-.2-.345.269v2.814a.7.7,0,0,0,.345.66q.345.2.345-.262v-.77l.653.376v.712q0,.59-.26.764t-.756-.113A1.956,1.956,0,0,1,440.717,227.845Z" transform="translate(-440.457 -223.245)" fill="#1f2e3e"/>
            <path id="Path_93263" data-name="Path 93263" d="M445.109,225.291l1.022.59a2.039,2.039,0,0,1,.778.733,2,2,0,0,1,.245,1.015v.31q0,.785-.452.732v.014a1.271,1.271,0,0,1,.354.557,2.569,2.569,0,0,1,.1.772v.885q0,.216.013.356a1.4,1.4,0,0,0,.063.3l-.7-.405a1.813,1.813,0,0,1-.05-.259q-.013-.115-.013-.4v-.921a1.212,1.212,0,0,0-.1-.538.815.815,0,0,0-.335-.33l-.238-.138v2.159l-.69-.4Zm.941,2.7c.138.079.241.1.311.057s.1-.158.1-.351v-.389a1,1,0,0,0-.085-.444.648.648,0,0,0-.267-.277l-.313-.181v1.439Z" transform="translate(-442.663 -224.215)" fill="#1f2e3e"/>
            <path id="Path_93264" data-name="Path 93264" d="M449.916,228.066l1.881,1.086v.72l-1.191-.688v1.331l.947.547v.72l-.947-.547v1.547l1.191.688v.72l-1.881-1.086Z" transform="translate(-444.943 -225.531)" fill="#1f2e3e"/>
            <path id="Path_93265" data-name="Path 93265" d="M454.246,230.566l1.054.608a1.991,1.991,0,0,1,.771.762,2.189,2.189,0,0,1,.257,1.077v2.547q0,.612-.257.78t-.771-.129l-1.054-.608Zm1.041,4.919c.113.065.2.077.26.035s.091-.149.091-.322v-2.62a.89.89,0,0,0-.091-.426.676.676,0,0,0-.26-.266l-.351-.2v3.6Z" transform="translate(-446.996 -226.717)" fill="#1f2e3e"/>
            <path id="Path_93266" data-name="Path 93266" d="M459.088,233.362l.69.4V238.8l-.69-.4Z" transform="translate(-449.292 -228.043)" fill="#1f2e3e"/>
            <path id="Path_93267" data-name="Path 93267" d="M461.753,235.62l-.721-.416v-.72l2.133,1.231v.72l-.721-.416v4.318l-.69-.4Z" transform="translate(-450.214 -228.575)" fill="#1f2e3e"/>
            <path id="Path_93268" data-name="Path 93268" d="M467.805,243.484a2.174,2.174,0,0,1-.26-1.064v-2.706q0-.59.26-.763t.756.113a1.952,1.952,0,0,1,.756.76,2.179,2.179,0,0,1,.26,1.064v.533l-.652-.377v-.583a.709.709,0,0,0-.345-.667q-.345-.2-.345.269v2.814a.7.7,0,0,0,.345.66q.345.2.345-.262v-.77l.652.376v.712q0,.59-.26.764t-.756-.113A1.958,1.958,0,0,1,467.805,243.484Z" transform="translate(-453.302 -230.661)" fill="#1f2e3e"/>
            <path id="Path_93269" data-name="Path 93269" d="M472.566,241.515l.934.539.715,5.45-.69-.4-.126-1.073v.014l-.784-.453-.125.914-.64-.37Zm.752,3.8-.307-2.667-.013-.007-.3,2.316Z" transform="translate(-455.344 -231.909)" fill="#1f2e3e"/>
            <path id="Path_93270" data-name="Path 93270" d="M476.98,243.691l1.022.59a2.042,2.042,0,0,1,.778.733,2.007,2.007,0,0,1,.244,1.016v.309q0,.785-.452.732v.015a1.263,1.263,0,0,1,.354.557,2.55,2.55,0,0,1,.1.772v.885q0,.216.013.356a1.431,1.431,0,0,0,.063.3l-.7-.405a1.881,1.881,0,0,1-.05-.259c-.008-.077-.013-.209-.013-.4v-.921a1.218,1.218,0,0,0-.1-.538.816.816,0,0,0-.336-.331l-.238-.137v2.159l-.69-.4Zm.941,2.7q.207.12.31.057c.069-.042.1-.159.1-.351v-.389a1.01,1.01,0,0,0-.085-.445.647.647,0,0,0-.267-.276l-.313-.181v1.439Z" transform="translate(-457.776 -232.941)" fill="#1f2e3e"/>
            <path id="Path_93271" data-name="Path 93271" d="M481.787,246.467l1.054.608a2,2,0,0,1,.771.762,2.189,2.189,0,0,1,.257,1.077v2.547q0,.612-.257.78t-.771-.129l-1.054-.608Zm1.041,4.919q.169.1.26.035c.061-.042.091-.149.091-.322V248.48a.891.891,0,0,0-.091-.427.678.678,0,0,0-.26-.266l-.351-.2v3.6Z" transform="translate(-460.056 -234.257)" fill="#1f2e3e"/>
          </g>
          <g id="Group_35487" data-name="Group 35487" transform="translate(3.442 19.435)">
            <path id="Path_93272" data-name="Path 93272" d="M469.24,260.7a.84.84,0,0,1,.348.673v2.748c0,.267-.149.391-.348.278l-1.021-.581a.821.821,0,0,1-.347-.673V260.4c0-.261.156-.386.347-.278Zm0,3.224v-2.748l-1.021-.581v2.748Z" transform="translate(-433.501 -240.488)" fill="#1f2e3e"/>
            <path id="Path_93273" data-name="Path 93273" d="M474,263.408a.84.84,0,0,1,.347.673v2.748c0,.266-.149.391-.347.278l-1.021-.581a.821.821,0,0,1-.348-.673V263.1c0-.262.156-.387.348-.278Zm0,3.224v-2.748l-1.021-.58v2.748Z" transform="translate(-435.757 -241.771)" fill="#1f2e3e"/>
            <path id="Path_93274" data-name="Path 93274" d="M478.753,266.113a.84.84,0,0,1,.347.673v2.748c0,.266-.149.391-.347.278l-1.021-.581a.82.82,0,0,1-.348-.673V265.81c0-.261.156-.386.348-.278Zm0,3.224v-2.749l-1.021-.58v2.748Z" transform="translate(-438.012 -243.054)" fill="#1f2e3e"/>
            <path id="Path_93275" data-name="Path 93275" d="M483.509,268.818a.84.84,0,0,1,.348.673v2.749c0,.266-.149.39-.348.278l-1.021-.581a.821.821,0,0,1-.348-.673v-2.748c0-.261.157-.386.348-.278Zm0,3.224v-2.748l-1.021-.581v2.748Z" transform="translate(-440.267 -244.336)" fill="#1f2e3e"/>
            <path id="Path_93276" data-name="Path 93276" d="M447.4,248.22a.839.839,0,0,1,.348.673v2.748c0,.266-.149.391-.348.278l-1.021-.581a.821.821,0,0,1-.347-.673v-2.748c0-.261.156-.387.347-.278Zm0,3.224v-2.748l-1.021-.581v2.748Z" transform="translate(-423.145 -234.568)" fill="#1f2e3e"/>
            <path id="Path_93277" data-name="Path 93277" d="M452.157,250.925a.841.841,0,0,1,.347.673v2.749c0,.266-.149.39-.347.278l-1.021-.581a.82.82,0,0,1-.348-.673v-2.748c0-.261.156-.386.348-.278Zm0,3.224V251.4l-1.021-.581v2.748Z" transform="translate(-425.4 -235.851)" fill="#1f2e3e"/>
            <path id="Path_93278" data-name="Path 93278" d="M456.913,253.63a.841.841,0,0,1,.347.674v2.748c0,.266-.149.39-.347.278l-1.021-.58a.821.821,0,0,1-.348-.673v-2.748c0-.262.156-.387.348-.278Zm0,3.224v-2.748l-1.021-.581v2.749Z" transform="translate(-427.655 -237.134)" fill="#1f2e3e"/>
            <path id="Path_93279" data-name="Path 93279" d="M461.669,256.336a.842.842,0,0,1,.348.673v2.748c0,.266-.149.391-.348.278l-1.021-.581a.822.822,0,0,1-.348-.673v-2.748c0-.261.157-.386.348-.278Zm0,3.224v-2.748l-1.021-.58v2.748Z" transform="translate(-429.911 -238.417)" fill="#1f2e3e"/>
            <path id="Path_93280" data-name="Path 93280" d="M425.457,235.75a.841.841,0,0,1,.347.674v2.748c0,.266-.149.39-.347.278l-1.021-.58a.821.821,0,0,1-.348-.674v-2.748c0-.262.156-.387.348-.278Zm0,3.224v-2.748l-1.021-.581v2.748Z" transform="translate(-412.739 -228.655)" fill="#1f2e3e"/>
            <path id="Path_93281" data-name="Path 93281" d="M430.213,238.456a.84.84,0,0,1,.347.673v2.748c0,.266-.149.391-.347.278l-1.021-.581a.822.822,0,0,1-.348-.673v-2.748c0-.261.157-.387.348-.278Zm0,3.224v-2.748l-1.021-.58V241.1Z" transform="translate(-414.994 -229.938)" fill="#1f2e3e"/>
            <path id="Path_93282" data-name="Path 93282" d="M434.969,241.161a.841.841,0,0,1,.347.673v2.748c0,.266-.149.391-.347.278l-1.021-.581a.822.822,0,0,1-.348-.673v-2.748c0-.261.157-.386.348-.278Zm0,3.224v-2.748l-1.021-.581V243.8Z" transform="translate(-417.249 -231.221)" fill="#1f2e3e"/>
            <path id="Path_93283" data-name="Path 93283" d="M439.725,243.866a.841.841,0,0,1,.348.674v2.748c0,.266-.149.39-.348.278l-1.021-.58a.821.821,0,0,1-.347-.673v-2.748c0-.262.156-.387.347-.278Zm0,3.224v-2.748l-1.021-.581v2.748Z" transform="translate(-419.505 -232.504)" fill="#1f2e3e"/>
            <path id="Path_93284" data-name="Path 93284" d="M403.872,223.436a.841.841,0,0,1,.347.673v2.748c0,.266-.149.391-.347.278l-1.021-.581a.82.82,0,0,1-.348-.673v-2.748c0-.261.156-.386.348-.278Zm0,3.224v-2.748l-1.021-.581v2.748Z" transform="translate(-402.503 -222.816)" fill="#1f2e3e"/>
            <path id="Path_93285" data-name="Path 93285" d="M408.628,226.141a.84.84,0,0,1,.348.674v2.748c0,.266-.149.39-.348.278l-1.021-.58a.823.823,0,0,1-.348-.673v-2.749c0-.261.157-.386.348-.278Zm0,3.224v-2.748l-1.021-.581v2.748Z" transform="translate(-404.758 -224.099)" fill="#1f2e3e"/>
            <path id="Path_93286" data-name="Path 93286" d="M413.384,228.847a.839.839,0,0,1,.348.673v2.748c0,.266-.149.391-.348.278l-1.021-.581a.822.822,0,0,1-.348-.673v-2.748c0-.262.157-.387.348-.278Zm0,3.224v-2.748l-1.021-.58v2.748Z" transform="translate(-407.014 -225.382)" fill="#1f2e3e"/>
            <path id="Path_93287" data-name="Path 93287" d="M418.141,231.552a.841.841,0,0,1,.347.673v2.748c0,.266-.149.391-.347.278l-1.021-.581a.82.82,0,0,1-.348-.673v-2.748c0-.261.156-.386.348-.278Zm0,3.224v-2.748l-1.021-.581v2.748Z" transform="translate(-409.269 -226.664)" fill="#1f2e3e"/>
          </g>
          <path id="Path_93288" data-name="Path 93288" d="M415.275,249.586,403,242.5v-2.589L415.275,247Z" transform="translate(-399.299 -211.488)" fill="#4129ac"/>
          <path id="Path_93289" data-name="Path 93289" d="M439.071,263.325l-7.3-4.214v-2.589l7.3,4.214Z" transform="translate(-412.94 -219.364)" fill="#4129ac"/>
        </g>
        <path id="Path_93290" data-name="Path 93290" d="M365.052,204.219c-2.055-1.192-3.75-3.36-3.921-4.912v61.434c-.194,1.827,1.5,4.334,3.921,5.737v.043l55.041,30.989a4.139,4.139,0,0,0,6.214-3.582V244.233a10.507,10.507,0,0,0-5.278-9.114Z" transform="translate(-361.05 -192.233)" fill="#f36dd4"/>
        <path id="Path_93294" data-name="Path 93294" d="M365.052,204.219c-2.055-1.192-3.75-3.36-3.921-4.912v61.434c-.194,1.827,1.5,4.334,3.921,5.737v.043l55.041,30.989a4.139,4.139,0,0,0,6.214-3.582V244.233a10.507,10.507,0,0,0-5.278-9.114Z" transform="translate(-361.05 -192.233)" fill="#356098"/>
        <path id="Path_93295" data-name="Path 93295" d="M364.309,206.1c-2.055-1.191-3.126-2.72-3.3-4.272v61.434c-.194,1.827.876,3.694,3.3,5.1v.043l55.04,30.989a4.14,4.14,0,0,0,6.215-3.582V246.11A10.507,10.507,0,0,0,420.286,237Z" transform="translate(-360.99 -193.426)" fill="url(#linear-gradient-26)"/>
        <g id="Group_35489" data-name="Group 35489" transform="translate(0.832 12.275)" opacity="0.3" style="mix-blend-mode: multiply;isolation: isolate">
          <path id="Path_93296" data-name="Path 93296" d="M422.168,302.638a3.279,3.279,0,0,1-1.663-.454l-54.55-30.713-.508-.329a5.725,5.725,0,0,1-2.729-2.931.394.394,0,1,1,.748-.25,5,5,0,0,0,2.393,2.509l.5.327L420.9,301.5a2.568,2.568,0,0,0,3.05-.372,2.5,2.5,0,0,0,.77-1.826v-49.7a8.91,8.91,0,0,0-4.458-7.717l-55.994-30.909a10.707,10.707,0,0,1-1.554-1.086.394.394,0,1,1,.509-.6,9.909,9.909,0,0,0,1.432,1L420.645,241.2a9.7,9.7,0,0,1,4.86,8.4v49.7a3.285,3.285,0,0,1-1.013,2.395A3.391,3.391,0,0,1,422.168,302.638Z" transform="translate(-362.571 -209.198)" fill="#b086cc"/>
        </g>
        <g id="Group_35490" data-name="Group 35490" transform="translate(1.095 12.538)" style="mix-blend-mode: screen;isolation: isolate">
          <path id="Path_93297" data-name="Path 93297" d="M422.4,302.612q-.148,0-.295-.014a.132.132,0,0,1-.118-.144.129.129,0,0,1,.144-.118,2.746,2.746,0,0,0,.75-.03.131.131,0,0,1,.046.259A2.978,2.978,0,0,1,422.4,302.612Zm-1.046-.2a.14.14,0,0,1-.048-.009,3.249,3.249,0,0,1-.436-.211l-.28-.157a.131.131,0,0,1,.128-.229l.281.158a3.109,3.109,0,0,0,.4.2.131.131,0,0,1,.074.17A.13.13,0,0,1,421.359,302.414Zm2.3-.086a.131.131,0,0,1-.056-.25,2.868,2.868,0,0,0,.633-.406.132.132,0,1,1,.17.2,3.184,3.184,0,0,1-.691.443A.138.138,0,0,1,423.658,302.328Zm-3.686-.662a.131.131,0,0,1-.065-.017l-.688-.387a.132.132,0,0,1,.129-.229l.688.388a.131.131,0,0,1-.065.246Zm4.875-.346a.128.128,0,0,1-.074-.023.132.132,0,0,1-.035-.183,2.71,2.71,0,0,0,.333-.672.133.133,0,0,1,.167-.083.131.131,0,0,1,.083.166,3.019,3.019,0,0,1-.365.737A.132.132,0,0,1,424.846,301.32Zm-6.249-.427a.131.131,0,0,1-.065-.017l-.687-.387a.131.131,0,1,1,.129-.229l.687.387a.132.132,0,0,1-.065.246Zm-1.375-.774a.14.14,0,0,1-.065-.017l-.687-.388a.131.131,0,1,1,.129-.229l.687.387a.132.132,0,0,1-.065.246Zm8.121-.275h-.007a.132.132,0,0,1-.124-.139q0-.083,0-.166v-.616a.131.131,0,0,1,.263,0v.616c0,.06,0,.12,0,.18A.132.132,0,0,1,425.343,299.843Zm-9.5-.5a.13.13,0,0,1-.065-.017l-.687-.386a.132.132,0,1,1,.129-.229l.687.387a.131.131,0,0,1-.065.246Zm-1.374-.773a.131.131,0,0,1-.065-.017l-.687-.386a.131.131,0,0,1,.129-.229l.687.386a.131.131,0,0,1-.065.246Zm10.874-.3a.132.132,0,0,1-.131-.131v-.789a.131.131,0,0,1,.263,0v.789A.132.132,0,0,1,425.348,298.266ZM413.1,297.8a.136.136,0,0,1-.065-.017l-.687-.387a.131.131,0,1,1,.129-.229l.687.386a.132.132,0,0,1-.065.246Zm-1.374-.774a.131.131,0,0,1-.065-.017l-.687-.387a.132.132,0,1,1,.129-.229l.687.387a.131.131,0,0,1-.065.246Zm13.623-.334a.132.132,0,0,1-.131-.131v-.789a.131.131,0,0,1,.263,0v.789A.132.132,0,0,1,425.348,296.688Zm-15-.44a.131.131,0,0,1-.065-.017l-.687-.387a.132.132,0,0,1,.129-.229l.687.388a.132.132,0,0,1-.065.246Zm-1.374-.774a.136.136,0,0,1-.065-.017l-.688-.388a.131.131,0,0,1,.129-.229l.688.387a.131.131,0,0,1-.065.246Zm16.372-.364a.132.132,0,0,1-.131-.131v-.789a.131.131,0,0,1,.263,0v.789A.132.132,0,0,1,425.348,295.111ZM407.6,294.7a.131.131,0,0,1-.065-.017l-.687-.386a.132.132,0,0,1,.129-.229l.687.387a.131.131,0,0,1-.065.246Zm-1.375-.773a.131.131,0,0,1-.065-.017l-.687-.386a.131.131,0,1,1,.129-.229l.687.386a.131.131,0,0,1-.065.246Zm19.122-.393a.132.132,0,0,1-.131-.131v-.789a.131.131,0,0,1,.263,0v.789A.132.132,0,0,1,425.348,293.534Zm-20.5-.381a.136.136,0,0,1-.065-.017l-.687-.388a.132.132,0,0,1,.13-.229l.687.387a.131.131,0,0,1-.065.246Zm-1.374-.774a.131.131,0,0,1-.065-.017l-.687-.387a.132.132,0,1,1,.129-.229l.687.387a.131.131,0,0,1-.065.246Zm21.87-.423a.132.132,0,0,1-.131-.131v-.789a.131.131,0,0,1,.263,0v.789A.132.132,0,0,1,425.348,291.956Zm-23.244-.351a.131.131,0,0,1-.065-.017l-.688-.387a.132.132,0,0,1,.129-.229l.688.388a.132.132,0,0,1-.065.246Zm-1.375-.774a.137.137,0,0,1-.065-.017l-.687-.388a.131.131,0,1,1,.129-.229l.687.387a.132.132,0,0,1-.065.246Zm24.619-.453a.132.132,0,0,1-.131-.131v-.789a.131.131,0,0,1,.263,0v.789A.132.132,0,0,1,425.348,290.379Zm-25.994-.322a.127.127,0,0,1-.064-.017l-.688-.386a.131.131,0,0,1,.129-.229l.687.387a.131.131,0,0,1-.064.246Zm-1.374-.774a.131.131,0,0,1-.065-.017l-.687-.386a.132.132,0,0,1,.129-.229l.687.387a.131.131,0,0,1-.065.246Zm27.368-.482a.132.132,0,0,1-.131-.131v-.789a.131.131,0,0,1,.263,0v.789A.132.132,0,0,1,425.348,288.8Zm-28.743-.292a.136.136,0,0,1-.065-.017l-.687-.388a.131.131,0,1,1,.129-.229l.687.387a.132.132,0,0,1-.065.246Zm-1.375-.774a.136.136,0,0,1-.065-.017l-.687-.387a.132.132,0,1,1,.129-.229l.687.387a.132.132,0,0,1-.065.246Zm30.117-.512a.132.132,0,0,1-.131-.131V286.3a.131.131,0,0,1,.263,0v.789A.132.132,0,0,1,425.348,287.224Zm-31.492-.262a.131.131,0,0,1-.065-.017l-.687-.387a.132.132,0,0,1,.129-.229l.687.388a.131.131,0,0,1-.065.246Zm-1.374-.774a.133.133,0,0,1-.064-.017l-.688-.387a.131.131,0,1,1,.128-.229l.688.386a.131.131,0,0,1-.064.246Zm32.866-.541a.132.132,0,0,1-.131-.131v-.789a.131.131,0,0,1,.263,0v.789A.132.132,0,0,1,425.348,285.647Zm-34.24-.233a.136.136,0,0,1-.065-.017l-.687-.386a.131.131,0,1,1,.128-.229l.688.386a.132.132,0,0,1-.064.246Zm-1.375-.774a.128.128,0,0,1-.064-.017l-.687-.386a.131.131,0,1,1,.128-.229l.687.387a.131.131,0,0,1-.064.246Zm35.615-.57a.132.132,0,0,1-.131-.131v-.789a.131.131,0,0,1,.263,0v.789A.132.132,0,0,1,425.348,284.069Zm-36.99-.2a.136.136,0,0,1-.065-.017l-.688-.388a.131.131,0,0,1,.129-.229l.688.387a.131.131,0,0,1-.065.246Zm-1.374-.774a.136.136,0,0,1-.065-.017l-.687-.387a.132.132,0,0,1,.129-.229l.687.387a.132.132,0,0,1-.065.246Zm38.364-.6a.132.132,0,0,1-.131-.131v-.789a.131.131,0,1,1,.263,0v.789A.132.132,0,0,1,425.348,282.492Zm-39.739-.173a.134.134,0,0,1-.065-.017l-.687-.387a.132.132,0,1,1,.129-.229l.687.388a.132.132,0,0,1-.065.246Zm-1.374-.774a.137.137,0,0,1-.065-.017l-.687-.387a.131.131,0,1,1,.129-.229l.687.386a.132.132,0,0,1-.065.246Zm41.113-.63a.132.132,0,0,1-.131-.131v-.789a.131.131,0,1,1,.263,0v.789A.132.132,0,0,1,425.348,280.915Zm-42.488-.144a.136.136,0,0,1-.065-.017l-.687-.386a.132.132,0,0,1,.129-.229l.687.386a.131.131,0,0,1-.065.246ZM381.486,280a.131.131,0,0,1-.065-.017l-.688-.387a.132.132,0,1,1,.129-.229l.688.387a.131.131,0,0,1-.065.246Zm43.862-.659a.132.132,0,0,1-.131-.131v-.789a.131.131,0,1,1,.263,0v.789A.132.132,0,0,1,425.348,279.337Zm-45.237-.114a.136.136,0,0,1-.065-.017l-.687-.388a.131.131,0,1,1,.129-.229l.687.387a.132.132,0,0,1-.065.246Zm-1.374-.774a.137.137,0,0,1-.065-.017l-.687-.388a.131.131,0,0,1-.05-.179.133.133,0,0,1,.179-.05l.687.387a.131.131,0,0,1-.065.246Zm46.611-.689a.132.132,0,0,1-.131-.131v-.789a.131.131,0,1,1,.263,0v.789A.132.132,0,0,1,425.348,277.76Zm-47.986-.085a.131.131,0,0,1-.065-.017l-.687-.386a.132.132,0,0,1,.129-.229l.687.387a.131.131,0,0,1-.065.246Zm-1.374-.773a.131.131,0,0,1-.065-.017l-.687-.386a.131.131,0,1,1,.129-.229l.687.386a.132.132,0,0,1-.065.246Zm49.36-.719a.132.132,0,0,1-.131-.131v-.789a.131.131,0,1,1,.263,0v.789A.132.132,0,0,1,425.348,276.182Zm-50.735-.055a.136.136,0,0,1-.065-.017l-.687-.386a.132.132,0,1,1,.129-.229l.687.386a.132.132,0,0,1-.065.246Zm-1.374-.774a.13.13,0,0,1-.065-.017l-.687-.387a.132.132,0,0,1,.13-.229l.687.388a.131.131,0,0,1-.065.246Zm52.109-.748a.132.132,0,0,1-.131-.131v-.789a.131.131,0,1,1,.263,0v.789A.132.132,0,0,1,425.348,274.605Zm-53.483-.025a.137.137,0,0,1-.065-.017l-.688-.388a.131.131,0,1,1,.129-.229l.688.387a.132.132,0,0,1-.065.246Zm-1.374-.774a.136.136,0,0,1-.065-.017l-.688-.387a.131.131,0,1,1,.129-.229l.688.387a.132.132,0,0,1-.065.246Zm-1.375-.774a.128.128,0,0,1-.064-.017l-.687-.386a.131.131,0,1,1,.128-.229l.687.387a.13.13,0,0,1,.05.178A.131.131,0,0,1,369.115,273.031Zm56.233,0a.132.132,0,0,1-.131-.131v-.789a.131.131,0,1,1,.263,0v.789A.132.132,0,0,1,425.348,273.028Zm-57.607-.77a.128.128,0,0,1-.064-.017l-.688-.386a.131.131,0,0,1,.129-.229l.687.386a.131.131,0,0,1-.064.246Zm-1.374-.775a.133.133,0,0,1-.072-.021l-.467-.3c-.062-.036-.129-.076-.2-.116a.131.131,0,1,1,.137-.225l.2.117.474.307a.132.132,0,0,1-.072.242Zm58.981-.033a.132.132,0,0,1-.131-.131v-.789a.131.131,0,0,1,.263,0v.789A.132.132,0,0,1,425.348,271.45Zm-60.3-.831a.133.133,0,0,1-.079-.026,6.853,6.853,0,0,1-.615-.518.131.131,0,0,1,.181-.19,6.4,6.4,0,0,0,.591.5.132.132,0,0,1-.079.237Zm60.3-.746a.132.132,0,0,1-.131-.131v-.789a.131.131,0,0,1,.263,0v.789A.132.132,0,0,1,425.348,269.873Zm-61.431-.345a.131.131,0,0,1-.1-.051,4.146,4.146,0,0,1-.432-.689.132.132,0,1,1,.236-.116,3.82,3.82,0,0,0,.4.645.131.131,0,0,1-.024.184A.127.127,0,0,1,363.917,269.528Zm61.431-1.232a.132.132,0,0,1-.131-.131v-.789a.131.131,0,0,1,.263,0v.789A.132.132,0,0,1,425.348,268.3Zm0-1.577a.132.132,0,0,1-.131-.131V265.8a.131.131,0,0,1,.263,0v.789A.132.132,0,0,1,425.348,266.718Zm0-1.577a.132.132,0,0,1-.131-.131v-.789a.131.131,0,0,1,.263,0v.789A.132.132,0,0,1,425.348,265.141Zm0-1.577a.132.132,0,0,1-.131-.131v-.789a.131.131,0,1,1,.263,0v.789A.132.132,0,0,1,425.348,263.563Zm0-1.577a.132.132,0,0,1-.131-.131v-.789a.131.131,0,0,1,.263,0v.789A.132.132,0,0,1,425.348,261.986Zm0-1.577a.132.132,0,0,1-.131-.131v-.789a.131.131,0,0,1,.263,0v.789A.132.132,0,0,1,425.348,260.409Zm0-1.577a.132.132,0,0,1-.131-.131v-.789a.131.131,0,0,1,.263,0v.789A.132.132,0,0,1,425.348,258.831Zm0-1.577a.132.132,0,0,1-.131-.131v-.789a.131.131,0,0,1,.263,0v.789A.132.132,0,0,1,425.348,257.254Zm0-1.577a.132.132,0,0,1-.131-.131v-.789a.131.131,0,1,1,.263,0v.789A.132.132,0,0,1,425.348,255.677Zm0-1.577a.132.132,0,0,1-.131-.131v-.789a.131.131,0,0,1,.263,0v.789A.132.132,0,0,1,425.348,254.1Zm0-1.577a.132.132,0,0,1-.131-.131V251.6a.131.131,0,0,1,.263,0v.789A.132.132,0,0,1,425.348,252.522Zm0-1.577a.132.132,0,0,1-.131-.131v-.789a.131.131,0,0,1,.263,0v.789A.132.132,0,0,1,425.348,250.944Zm-.019-1.576a.132.132,0,0,1-.131-.123c-.017-.261-.045-.521-.084-.772a.131.131,0,1,1,.26-.04c.04.259.069.527.087.8a.131.131,0,0,1-.122.14Zm-.237-1.557a.132.132,0,0,1-.128-.1c-.059-.247-.131-.5-.213-.747a.131.131,0,0,1,.249-.083c.085.255.159.514.219.769a.131.131,0,0,1-.1.158A.124.124,0,0,1,425.092,247.811Zm-.5-1.495a.132.132,0,0,1-.121-.08c-.1-.237-.214-.473-.335-.7a.131.131,0,0,1,.232-.123c.125.235.241.478.344.721a.13.13,0,0,1-.069.172A.128.128,0,0,1,424.6,246.316Zm-.739-1.391a.13.13,0,0,1-.11-.06c-.138-.214-.289-.427-.449-.634a.132.132,0,0,1,.209-.161c.164.213.319.433.461.654a.131.131,0,0,1-.04.181A.123.123,0,0,1,423.857,244.925Zm-.963-1.247a.132.132,0,0,1-.1-.043c-.175-.191-.36-.376-.549-.55a.132.132,0,0,1,.178-.194c.2.179.385.37.565.566a.133.133,0,0,1-.008.186A.131.131,0,0,1,422.893,243.678Zm-1.16-1.066a.13.13,0,0,1-.081-.028c-.2-.157-.416-.308-.635-.448a.132.132,0,1,1,.143-.221c.224.144.444.3.653.462a.131.131,0,0,1-.08.235Zm-1.326-.853a.132.132,0,0,1-.064-.016l-.69-.381a.132.132,0,0,1,.128-.23l.69.381a.131.131,0,0,1-.064.247ZM419.027,241a.128.128,0,0,1-.064-.017l-.69-.381a.132.132,0,0,1,.127-.23l.69.381a.131.131,0,0,1-.064.247Zm-1.381-.762a.127.127,0,0,1-.064-.016l-.69-.381a.132.132,0,1,1,.127-.23l.69.382a.131.131,0,0,1-.064.246Zm-1.381-.762a.128.128,0,0,1-.064-.016l-.69-.381a.131.131,0,1,1,.127-.23l.69.381a.131.131,0,0,1-.064.247Zm-1.381-.762a.132.132,0,0,1-.064-.016l-.69-.381a.131.131,0,1,1,.127-.23l.69.381a.131.131,0,0,1-.064.247Zm-1.381-.762a.133.133,0,0,1-.064-.016l-.69-.381a.132.132,0,1,1,.127-.23l.69.381a.131.131,0,0,1-.064.247Zm-1.381-.762a.128.128,0,0,1-.064-.017l-.69-.381a.132.132,0,0,1,.127-.23l.69.381a.131.131,0,0,1-.064.247Zm-1.381-.762a.125.125,0,0,1-.064-.016l-.69-.381a.132.132,0,1,1,.127-.23l.69.382a.131.131,0,0,1,.052.179A.133.133,0,0,1,410.741,236.422Zm-1.381-.762a.133.133,0,0,1-.064-.016l-.69-.381a.131.131,0,1,1,.127-.23l.69.381a.131.131,0,0,1-.064.247Zm-1.381-.762a.132.132,0,0,1-.064-.016l-.69-.381a.131.131,0,1,1,.127-.23l.69.381a.131.131,0,0,1-.064.247Zm-1.381-.762a.134.134,0,0,1-.064-.016l-.69-.381a.132.132,0,0,1,.127-.23l.691.381a.132.132,0,0,1-.064.247Zm-1.381-.762a.128.128,0,0,1-.064-.017l-.69-.381a.132.132,0,0,1,.127-.23l.69.381a.132.132,0,0,1-.064.247Zm-1.381-.762a.126.126,0,0,1-.064-.016l-.69-.381a.132.132,0,1,1,.127-.23l.691.382a.131.131,0,0,1,.051.178A.132.132,0,0,1,403.837,232.611Zm-1.38-.762a.134.134,0,0,1-.064-.016l-.69-.381a.131.131,0,1,1,.127-.23l.691.381a.132.132,0,0,1-.064.247Zm-1.381-.762a.137.137,0,0,1-.064-.016l-.69-.381a.132.132,0,0,1-.052-.179.131.131,0,0,1,.179-.051l.691.381a.132.132,0,0,1-.064.247Zm-1.381-.762a.135.135,0,0,1-.064-.016l-.69-.382a.132.132,0,1,1,.127-.23l.691.382a.132.132,0,0,1-.064.247Zm-1.381-.762a.128.128,0,0,1-.064-.017l-.691-.381a.132.132,0,0,1,.127-.23l.691.381a.132.132,0,0,1-.064.247Zm-1.381-.762a.126.126,0,0,1-.064-.016l-.691-.381a.132.132,0,1,1,.127-.23l.691.382a.131.131,0,0,1-.064.246Zm-1.381-.762a.132.132,0,0,1-.064-.016l-.69-.381a.131.131,0,1,1,.127-.23l.69.381a.132.132,0,0,1-.064.247Zm-1.381-.762a.133.133,0,0,1-.064-.016l-.691-.381a.132.132,0,0,1-.052-.179.131.131,0,0,1,.179-.051l.691.381a.132.132,0,0,1-.064.247Zm-1.381-.762a.132.132,0,0,1-.064-.016l-.69-.382a.132.132,0,0,1,.127-.23l.69.382a.132.132,0,0,1-.064.247Zm-1.381-.762a.128.128,0,0,1-.064-.017l-.691-.381a.132.132,0,0,1,.127-.23l.691.381a.131.131,0,0,1-.064.247Zm-1.381-.762a.126.126,0,0,1-.064-.016l-.691-.381a.132.132,0,0,1,.127-.23l.691.382a.131.131,0,0,1-.064.246Zm-1.381-.762a.133.133,0,0,1-.064-.016l-.691-.381a.131.131,0,0,1,.127-.23l.691.381a.131.131,0,0,1-.064.247Zm-1.381-.762a.133.133,0,0,1-.064-.016l-.691-.381a.131.131,0,0,1,.128-.23l.69.381a.131.131,0,0,1-.064.247Zm-1.381-.762a.127.127,0,0,1-.064-.017l-.691-.381a.132.132,0,0,1,.128-.23l.69.382a.131.131,0,0,1-.064.247Zm-1.381-.763a.127.127,0,0,1-.064-.016l-.691-.381a.132.132,0,0,1,.128-.23l.69.381a.131.131,0,0,1-.064.246Zm-1.381-.762a.126.126,0,0,1-.064-.016l-.69-.382a.131.131,0,0,1,.128-.23l.69.381a.131.131,0,0,1-.064.247Zm-1.381-.762a.134.134,0,0,1-.064-.016l-.691-.381a.131.131,0,0,1,.128-.23l.69.381a.131.131,0,0,1-.064.247Zm-1.381-.762a.132.132,0,0,1-.064-.016l-.69-.381a.132.132,0,0,1,.128-.23l.69.381a.131.131,0,0,1-.064.247Zm-1.381-.762a.127.127,0,0,1-.064-.017l-.69-.381a.132.132,0,1,1,.127-.23l.69.382a.131.131,0,0,1-.064.247Zm-1.381-.762a.126.126,0,0,1-.064-.017l-.69-.381a.132.132,0,0,1,.127-.23l.69.381a.132.132,0,0,1-.064.247Zm-1.381-.762a.128.128,0,0,1-.064-.017l-.69-.381a.131.131,0,1,1,.127-.23l.69.381a.132.132,0,0,1-.064.247Zm-1.381-.762a.133.133,0,0,1-.064-.016l-.69-.381a.132.132,0,0,1-.052-.179.13.13,0,0,1,.179-.052l.69.381a.132.132,0,0,1-.064.247Zm-1.381-.762a.127.127,0,0,1-.064-.016l-.69-.381a.132.132,0,0,1,.127-.23l.69.382a.131.131,0,0,1-.064.246Zm-1.381-.762a.133.133,0,0,1-.064-.016l-.69-.381a.131.131,0,1,1,.127-.23l.69.381a.131.131,0,0,1-.064.247Zm-1.381-.762a.126.126,0,0,1-.064-.016l-.69-.381a.131.131,0,1,1,.127-.23l.69.381a.131.131,0,0,1-.064.246Zm-1.381-.762a.128.128,0,0,1-.064-.017l-.69-.381a.132.132,0,0,1-.052-.178.13.13,0,0,1,.179-.052l.69.381a.132.132,0,0,1-.064.247Zm-1.381-.762a.132.132,0,0,1-.064-.016l-.69-.381a.132.132,0,0,1,.127-.23l.69.381a.131.131,0,0,1-.064.247Zm-1.381-.762a.133.133,0,0,1-.064-.016l-.69-.381a.131.131,0,1,1,.127-.23l.69.381a.131.131,0,0,1-.064.247Zm-1.381-.762a.131.131,0,0,1-.064-.016l-.477-.264c-.073-.043-.144-.084-.213-.127a.131.131,0,1,1,.137-.225l.206.123.475.262a.132.132,0,0,1-.064.247Zm-1.344-.822a.13.13,0,0,1-.077-.025c-.219-.156-.431-.321-.63-.49a.131.131,0,0,1,.169-.2c.195.164.4.325.614.477a.131.131,0,0,1-.076.238Z" transform="translate(-363.071 -209.698)" fill="#949494"/>
        </g>
        <path id="Path_93298" data-name="Path 93298" d="M422.6,302.858a2.458,2.458,0,0,1-1.243-.341l-53.481-30.112-.6-.38c-1.721-1-2.595-2.232-2.462-3.477l.008-.083V213.02q.412.293.872.561l55.03,30.377a8.757,8.757,0,0,1,4.371,7.574v48.829a2.422,2.422,0,0,1-.754,1.789,2.549,2.549,0,0,1-1.743.708Z" transform="translate(-362.799 -198.735)" fill="url(#radial-gradient-3)" style="mix-blend-mode: color-dodge;isolation: isolate"/>
        <path id="Path_93299" data-name="Path 93299" d="M449.349,312.7h0a5.26,5.26,0,0,1,7.823-4.593l8.517,4.752a4.578,4.578,0,0,0,4.279.1l14.751-7.409v12.182a2.68,2.68,0,0,1-1.4,2.353l-13.5,7.358a4.578,4.578,0,0,1-4.323.033l-10.585-5.563A10.4,10.4,0,0,1,449.349,312.7Z" transform="translate(-402.89 -242.613)" fill="url(#radial-gradient-4)" style="mix-blend-mode: multiply;isolation: isolate"/>
        <path id="Path_93300" data-name="Path 93300" d="M449.349,310.222h0a5.26,5.26,0,0,1,7.823-4.593l8.517,4.752a4.58,4.58,0,0,0,4.279.1l14.751-7.409v12.182a2.68,2.68,0,0,1-1.4,2.353l-13.5,7.358A4.58,4.58,0,0,1,465.5,325l-10.585-5.563A10.405,10.405,0,0,1,449.349,310.222Z" transform="translate(-402.89 -241.437)" fill="url(#linear-gradient-27)"/>
        <path id="Path_93301" data-name="Path 93301" d="M469.076,327.71a3.22,3.22,0,0,1-1.384-.312l-10.584-5.073a7.946,7.946,0,0,1-4.706-7.105,3.529,3.529,0,0,1,3.661-3.341,3.883,3.883,0,0,1,1.775.43l8.517,4.334a6.716,6.716,0,0,0,5.778.119l12.428-5.693v8.738a.972.972,0,0,1-.56.861l-13.5,6.711A3.219,3.219,0,0,1,469.076,327.71Z" transform="translate(-404.337 -245.231)" fill="url(#radial-gradient-5)" style="mix-blend-mode: color-dodge;isolation: isolate"/>
        <g id="Group_35491" data-name="Group 35491" transform="translate(47.268 63.711)" opacity="0.3" style="mix-blend-mode: multiply;isolation: isolate">
          <path id="Path_93302" data-name="Path 93302" d="M468.358,326.587a3.919,3.919,0,0,1-1.747-.41l-10.585-5.293a9.079,9.079,0,0,1-5.139-8.1,4.377,4.377,0,0,1,4.457-4.262,4.554,4.554,0,0,1,2.155.543l8.518,4.522a5.747,5.747,0,0,0,5.049.109l13.878-6.63a.394.394,0,1,1,.34.711L471.4,314.4a6.543,6.543,0,0,1-5.757-.124l-8.518-4.521a3.769,3.769,0,0,0-1.785-.451,3.588,3.588,0,0,0-3.668,3.473,8.294,8.294,0,0,0,4.7,7.4l10.584,5.293a3.185,3.185,0,0,0,2.829-.021l14.8-7.684a.395.395,0,1,1,.363.7l-14.8,7.684A3.918,3.918,0,0,1,468.358,326.587Z" transform="translate(-450.888 -307.024)" fill="#b086cc"/>
        </g>
        <g id="Group_35492" data-name="Group 35492" transform="translate(47.531 64.388)" style="mix-blend-mode: screen;isolation: isolate">
          <path id="Path_93303" data-name="Path 93303" d="M468.919,326.919a.131.131,0,0,1-.012-.262,3.443,3.443,0,0,0,.742-.152.13.13,0,0,1,.166.084.132.132,0,0,1-.085.166,3.675,3.675,0,0,1-.8.165Zm-.787-.015h-.017a3.692,3.692,0,0,1-.793-.2.132.132,0,0,1,.091-.247,3.392,3.392,0,0,0,.736.182.131.131,0,0,1-.017.262Zm2.277-.465a.132.132,0,0,1-.06-.248l.7-.363a.131.131,0,1,1,.121.233l-.7.364A.134.134,0,0,1,470.409,326.44Zm-3.755-.058a.135.135,0,0,1-.059-.014l-.7-.353a.132.132,0,0,1-.059-.176.133.133,0,0,1,.177-.059l.705.353a.132.132,0,0,1-.059.249Zm5.155-.668a.132.132,0,0,1-.06-.248l.7-.363a.132.132,0,0,1,.121.233l-.7.363A.132.132,0,0,1,471.809,325.713Zm-6.566-.038a.134.134,0,0,1-.058-.014l-.706-.353a.131.131,0,0,1-.059-.176.133.133,0,0,1,.176-.059l.706.353a.132.132,0,0,1-.059.249Zm7.966-.688a.131.131,0,0,1-.061-.248l.7-.363a.132.132,0,0,1,.121.233l-.7.363A.125.125,0,0,1,473.21,324.987Zm-9.377-.017a.136.136,0,0,1-.059-.014l-.706-.353a.131.131,0,1,1,.117-.235l.706.353a.131.131,0,0,1-.058.249Zm-1.411-.706a.127.127,0,0,1-.058-.014l-.706-.353a.131.131,0,0,1,.117-.235l.705.353a.131.131,0,0,1-.058.249Zm12.188,0a.132.132,0,0,1-.061-.248l.7-.363a.132.132,0,0,1,.121.233l-.7.363A.126.126,0,0,1,474.61,324.261Zm-13.6-.7a.127.127,0,0,1-.058-.014l-.706-.353a.131.131,0,0,1,.117-.235l.706.353a.131.131,0,0,1-.059.249Zm15-.024a.131.131,0,0,1-.06-.248l.7-.363a.129.129,0,0,1,.177.056.131.131,0,0,1-.056.177l-.7.363A.126.126,0,0,1,476.01,323.535Zm-16.41-.681a.131.131,0,0,1-.059-.014l-.705-.352a.131.131,0,1,1,.117-.236l.706.353a.132.132,0,0,1-.058.249Zm17.81-.045a.131.131,0,0,1-.06-.248l.7-.363a.13.13,0,0,1,.177.056.132.132,0,0,1-.056.177l-.7.363A.126.126,0,0,1,477.411,322.809Zm-19.221-.661a.134.134,0,0,1-.058-.014l-.706-.353a.131.131,0,0,1-.059-.176.133.133,0,0,1,.176-.059l.705.353a.131.131,0,0,1-.058.249Zm20.621-.065a.131.131,0,0,1-.06-.248l.7-.363a.13.13,0,0,1,.177.056.132.132,0,0,1-.056.177l-.7.363A.132.132,0,0,1,478.811,322.082Zm-22.032-.64a.139.139,0,0,1-.059-.014l-.338-.17c-.125-.063-.247-.127-.368-.194a.131.131,0,0,1,.128-.23c.117.066.237.128.358.189l.339.169a.132.132,0,0,1-.059.249Zm23.432-.086a.131.131,0,0,1-.06-.248l.7-.363a.131.131,0,1,1,.121.233l-.7.363A.131.131,0,0,1,480.211,321.356ZM455.4,320.67a.126.126,0,0,1-.073-.023c-.222-.149-.44-.309-.645-.474a.132.132,0,0,1,.166-.2c.2.16.409.315.626.461a.131.131,0,0,1-.074.24Zm26.207-.04a.131.131,0,0,1-.06-.248l.7-.363a.131.131,0,0,1,.177.056.132.132,0,0,1-.056.177l-.7.363A.132.132,0,0,1,481.611,320.63Zm1.4-.726a.131.131,0,0,1-.06-.248l.7-.363a.131.131,0,0,1,.121.233l-.7.363A.125.125,0,0,1,483.011,319.9Zm-28.834-.221a.132.132,0,0,1-.091-.037c-.194-.186-.379-.381-.552-.579a.131.131,0,1,1,.2-.172c.168.193.348.382.536.562a.132.132,0,0,1-.091.227Zm-1.035-1.188a.131.131,0,0,1-.107-.055c-.157-.218-.305-.443-.44-.668a.131.131,0,1,1,.226-.135c.13.219.274.437.427.649a.132.132,0,0,1-.106.209Zm-.806-1.354a.132.132,0,0,1-.118-.075c-.113-.238-.218-.486-.31-.738a.131.131,0,1,1,.247-.09c.09.245.191.485.3.715a.131.131,0,0,1-.062.175A.128.128,0,0,1,452.337,317.14Zm-.541-1.479a.132.132,0,0,1-.127-.1c-.067-.255-.124-.518-.168-.782a.133.133,0,0,1,.109-.151.135.135,0,0,1,.151.108c.042.257.1.512.162.759a.132.132,0,0,1-.094.16A.152.152,0,0,1,451.8,315.661Zm16.944-.292h0a6.053,6.053,0,0,1-.8-.072.133.133,0,0,1-.109-.15.131.131,0,0,1,.151-.11,5.761,5.761,0,0,0,.767.069.131.131,0,0,1,0,.263Zm.788-.032a.132.132,0,0,1-.014-.262,5.908,5.908,0,0,0,.76-.131.132.132,0,0,1,.158.1.131.131,0,0,1-.1.159,6.237,6.237,0,0,1-.793.137Zm-2.342-.21a.158.158,0,0,1-.038,0,6.348,6.348,0,0,1-.756-.278.131.131,0,1,1,.107-.24,5.765,5.765,0,0,0,.724.265.131.131,0,0,1-.037.258Zm3.871-.158a.132.132,0,0,1-.047-.254q.207-.08.407-.175l.3-.145a.131.131,0,1,1,.113.237l-.3.145c-.139.066-.281.128-.425.183A.125.125,0,0,1,471.056,314.97Zm-5.314-.47a.135.135,0,0,1-.062-.015l-.7-.37a.131.131,0,0,1,.123-.232l.7.37a.132.132,0,0,1-.062.248Zm6.745-.194a.132.132,0,0,1-.057-.25l.712-.34a.131.131,0,0,1,.113.237l-.712.341A.133.133,0,0,1,472.487,314.306Zm-20.948-.2a.131.131,0,0,1-.131-.123c-.014-.2-.021-.4-.021-.595,0-.071,0-.14,0-.21a.127.127,0,0,1,.139-.124.132.132,0,0,1,.124.139c0,.064,0,.129,0,.2q0,.29.019.576a.131.131,0,0,1-.122.14Zm12.809-.348a.135.135,0,0,1-.061-.015l-.7-.37a.131.131,0,1,1,.123-.232l.7.37a.131.131,0,0,1-.061.248Zm9.562-.135a.132.132,0,0,1-.057-.25l.711-.34a.131.131,0,0,1,.113.237l-.711.34A.133.133,0,0,1,473.91,313.626Zm-10.955-.6a.133.133,0,0,1-.062-.016l-.7-.37a.131.131,0,1,1,.124-.232l.7.37a.132.132,0,0,1-.062.248Zm12.378-.075a.132.132,0,0,1-.057-.25l.712-.34a.131.131,0,1,1,.113.237l-.712.341A.133.133,0,0,1,475.333,312.946Zm-23.687-.4a.153.153,0,0,1-.034,0,.131.131,0,0,1-.093-.161,3.675,3.675,0,0,1,.294-.76.131.131,0,1,1,.233.121,3.49,3.49,0,0,0-.274.707A.131.131,0,0,1,451.646,312.543Zm9.916-.262a.128.128,0,0,1-.062-.015l-.7-.37a.131.131,0,1,1,.123-.232l.7.37a.131.131,0,0,1-.061.247Zm15.195-.016a.132.132,0,0,1-.057-.25l.712-.34a.131.131,0,0,1,.113.237l-.712.34A.133.133,0,0,1,476.757,312.265Zm1.423-.68a.131.131,0,0,1-.057-.25l.712-.34a.131.131,0,0,1,.113.237l-.712.34A.133.133,0,0,1,478.18,311.585Zm-18.011-.043a.135.135,0,0,1-.061-.015l-.7-.37a.132.132,0,0,1,.124-.232l.7.37a.131.131,0,0,1-.061.248Zm-7.8-.386a.128.128,0,0,1-.084-.031.131.131,0,0,1-.017-.185,4.1,4.1,0,0,1,.579-.57.131.131,0,1,1,.166.2,3.87,3.87,0,0,0-.543.534A.13.13,0,0,1,452.366,311.155Zm27.237-.25a.131.131,0,0,1-.057-.25l.712-.341a.131.131,0,1,1,.113.237l-.712.341A.133.133,0,0,1,479.6,310.905Zm-20.827-.1a.135.135,0,0,1-.061-.015l-.7-.37a.131.131,0,0,1,.123-.232l.7.37a.132.132,0,0,1-.062.248Zm22.251-.577a.131.131,0,0,1-.057-.25l.712-.34a.131.131,0,0,1,.113.237l-.712.34A.133.133,0,0,1,481.026,310.225Zm-27.443-.057a.132.132,0,0,1-.062-.248,4.6,4.6,0,0,1,.746-.317.132.132,0,1,1,.082.25,4.2,4.2,0,0,0-.7.3A.141.141,0,0,1,453.583,310.168Zm3.8-.1a.127.127,0,0,1-.056-.013,4.192,4.192,0,0,0-.717-.264.131.131,0,0,1,.068-.253,4.4,4.4,0,0,1,.762.28.131.131,0,0,1-.057.25Zm-2.3-.378a.131.131,0,0,1-.017-.262c.175-.022.357-.024.522-.033.1,0,.2,0,.292.011a.13.13,0,0,1,.121.14.128.128,0,0,1-.14.122q-.14-.01-.284-.009a3.749,3.749,0,0,0-.477.031Zm27.372-.143a.131.131,0,0,1-.057-.25l.712-.341a.132.132,0,0,1,.175.062.131.131,0,0,1-.062.175l-.712.341A.133.133,0,0,1,482.449,309.545Zm1.423-.68a.131.131,0,0,1-.057-.25l.609-.291a.131.131,0,1,1,.112.237l-.609.291A.133.133,0,0,1,483.873,308.865Z" transform="translate(-451.388 -308.311)" fill="#f36dd4"/>
        </g>
        <path id="Path_93304" data-name="Path 93304" d="M449.416,310.891h0a5.26,5.26,0,0,1,7.823-4.593l8.517,4.752a4.578,4.578,0,0,0,4.279.1l14.684-7.375v-.7l-14.751,7.409a4.577,4.577,0,0,1-4.279-.1l-8.517-4.752a5.26,5.26,0,0,0-7.823,4.593,10.38,10.38,0,0,0,.09,1.351C449.425,311.348,449.416,311.12,449.416,310.891Z" transform="translate(-402.89 -241.437)" fill="#163e72"/>
        <path id="Path_93305" data-name="Path 93305" d="M369.78,231.273c0,15.678-1.36,28.388-3.036,28.388s-3.036-12.71-3.036-28.388,1.359-28.389,3.036-28.389S369.78,215.594,369.78,231.273Z" transform="translate(-362.279 -193.929)" fill="url(#radial-gradient-6)" style="mix-blend-mode: screen;isolation: isolate"/>
        <g id="Group_35493" data-name="Group 35493" transform="translate(48.911 66.922)">
          <path id="Path_93306" data-name="Path 93306" d="M462.538,320.536c0,2.37-1.675,3.325-3.74,2.133a8.241,8.241,0,0,1-3.74-6.451c0-2.37,1.675-3.325,3.74-2.132A8.241,8.241,0,0,1,462.538,320.536Z" transform="translate(-454.508 -313.339)" fill="url(#radial-gradient-7)" style="mix-blend-mode: multiply;isolation: isolate"/>
          <path id="Path_93307" data-name="Path 93307" d="M462.036,319.179a2.282,2.282,0,0,1-.911,2.063c-.017.01-.738.492-.756.5-.587.328-.211-.416-1.1-.931a7.157,7.157,0,0,1-3.249-5.6c0-1.018-.941-1.026-.364-1.367l.866-.517a2.317,2.317,0,0,1,2.268.251A7.159,7.159,0,0,1,462.036,319.179Z" transform="translate(-454.702 -313.13)" fill="#afb6e5"/>
          <path id="Path_93308" data-name="Path 93308" d="M460.509,320.182c0,2.058-1.454,2.888-3.248,1.852a7.157,7.157,0,0,1-3.249-5.6c0-2.059,1.454-2.888,3.249-1.852A7.158,7.158,0,0,1,460.509,320.182Z" transform="translate(-454.012 -313.606)" fill="url(#linear-gradient-28)"/>
          <path id="Path_93309" data-name="Path 93309" d="M458.444,314.329a2.237,2.237,0,0,0-2.359-.184,2.569,2.569,0,0,1,1.891.384,7.159,7.159,0,0,1,3.248,5.6,2.284,2.284,0,0,1-.889,2.035c.819-.2,1.357-.99,1.357-2.236A7.158,7.158,0,0,0,458.444,314.329Z" transform="translate(-454.995 -313.49)" fill="url(#radial-gradient-8)" style="mix-blend-mode: color-dodge;isolation: isolate"/>
        </g>
      </g>
    </g>
    <g id="Group_35448" data-name="Group 35448" transform="translate(488.052 1418.034)">
      <g id="Group_34918" data-name="Group 34918" transform="translate(0 7.927)">
        <path id="Path_91864" data-name="Path 91864" d="M336.16,91.934a57.819,57.819,0,0,1-1.03,11.051c-.791,3.2-.242,4.434.537,5.3s6.7,5.132,6.7,5.132l2.144-1.952-3.472-7.577s2.646-9.713,2.375-9.982S336.16,91.934,336.16,91.934Z" transform="translate(-334.744 -73.343)" fill="#ffc8b5"/>
        <g id="Group_34916" data-name="Group 34916" transform="translate(2.167 37.344)">
          <path id="Path_91865" data-name="Path 91865" d="M338.364,116.6c-5.2-5.519-.247-11.348,2.26-13.14,1.323,1.637,9.209,4.87,9.256,5.068.952,4.056.08,8.3-1.119,12.224-.748,2.447-1.394,6.578-3.134,13.278.81,3.332-.109,8.381-.446,12.152-.234,2.629-1.277,9.528-1.442,10.117.473-.145,1.264-.849,2.336-1.219a5,5,0,0,1,2.855-.142c1.785.708,2.294,1.35,1.814,2.494-.706,1.684-2.948,2.222-4.539,2.553-2.4.5-3.752,4.316-6.314,1.676-.657-.677-.078-2.458.148-3.4a75.665,75.665,0,0,0-.587-10.855c-.888-5.314-1.35-11.273,1.76-14.388C337.719,124.136,337.845,119.32,338.364,116.6Z" transform="translate(-336.076 -103.46)" fill="#f8baa6"/>
          <path id="Path_91866" data-name="Path 91866" d="M338.79,138.564s1.5.539,2.463.844a5.318,5.318,0,0,0,5.055-1.285c.688-.667,1.183-1.51.94-1.985-.456-.895-2.4-.446-2.4-.446s3.342-2.318,5.215-.787c.869.713,1.08,2.131-.374,3.641a29.634,29.634,0,0,1-5.615,3.684c-1.435.768-3.76,2.292-5.353.755S338.79,138.564,338.79,138.564Z" transform="translate(-334.849 -84.072)" fill="#1f2e3e"/>
        </g>
        <path id="Path_91867" data-name="Path 91867" d="M345.645,141.963s-2.258.028-3.542.054a5.3,5.3,0,0,1-3.277-.968,36.447,36.447,0,0,1,.153-5.787,21.751,21.751,0,0,1,.755-3.221s-2.17-6.085-2.4-9.262a46.9,46.9,0,0,1,0-6.121,10.115,10.115,0,0,1-.914-7.585c1.256-4,2.865-5.275,2.865-5.275l7.271,4.795s-.028,16.115.312,19.519S345.645,141.963,345.645,141.963Z" transform="translate(-333.937 -65.905)" fill="#3f3772"/>
        <g id="Group_34917" data-name="Group 34917" transform="translate(7.628 41.272)">
          <path id="Path_91868" data-name="Path 91868" d="M341.721,119.014c-5.2-5.519-.249-11.348,2.26-13.14,1.323,1.637,5.843,4.1,5.89,4.305.953,4.055,1.627,8.988.428,12.913-.748,2.445-.133,5.644-1.873,12.344.809,3.332.449,9.388.112,13.159-.236,2.629-1.277,9.528-1.441,10.118.473-.146,1.264-.849,2.336-1.22a4.979,4.979,0,0,1,2.855-.14c1.785.706,2.294,1.349,1.814,2.493-.708,1.684-2.948,2.222-4.539,2.553-2.4.5-3.752,4.318-6.316,1.676-.656-.677-.078-2.458.148-3.394a75.2,75.2,0,0,0-.587-10.857c-.887-5.314-1.349-11.273,1.762-14.388C341.077,126.55,341.2,121.734,341.721,119.014Z" transform="translate(-339.432 -105.874)" fill="#ffc8b5"/>
          <path id="Path_91869" data-name="Path 91869" d="M342.146,140.977s1.5.539,2.465.846a5.325,5.325,0,0,0,5.055-1.287c.688-.667,1.183-1.508.94-1.983-.456-.9-2.4-.447-2.4-.447s3.34-2.318,5.213-.786c.87.711,1.082,2.13-.373,3.64a29.606,29.606,0,0,1-5.615,3.684c-1.435.768-3.76,2.292-5.353.757S342.146,140.977,342.146,140.977Z" transform="translate(-338.206 -86.486)" fill="#1f2e3e"/>
        </g>
        <path id="Path_91870" data-name="Path 91870" d="M338.59,88.927c2.32-.831,5.146.491,5.262,2.873,1.277,2.167.023,5.346-1.974,6.8-2.322,1.687-5.909-.02-6.682-2.629A5.94,5.94,0,0,1,338.59,88.927Z" transform="translate(-334.596 -75.384)" fill="#e8eefc"/>
        <path id="Path_91871" data-name="Path 91871" d="M337.365,93.372a.562.562,0,0,1,.4-.4c2.74-.755,3.376-2.236,3.851-4.713a.563.563,0,0,1,.822-.334,17.231,17.231,0,0,0,4.585,1.995c-1.536,4.583,1.246,5.563,2.454,7.383.3.459-2.865,2.766-4.56,2.527a10.488,10.488,0,0,1-4.17-1.469C339.358,97.484,336.963,95.255,337.365,93.372Z" transform="translate(-333.128 -75.9)" fill="#ffc8b5"/>
        <path id="Path_91872" data-name="Path 91872" d="M339.766,86.832c.255-2.359,2.188-5.5,4.835-5.3,2.7.2,4.528,4.206,4.739,6.069.356,3.166.078,9.136-4.92,7.219C340.527,93.327,339.385,90.351,339.766,86.832Z" transform="translate(-331.639 -79.871)" fill="#ffc8b5"/>
        <path id="Path_91873" data-name="Path 91873" d="M344.323,86.024s-2-1.37-2.317.579a2.416,2.416,0,0,0,1.585,2.619Z" transform="translate(-330.213 -77.341)" fill="#ffc8b5"/>
        <path id="Path_91874" data-name="Path 91874" d="M351.464,107.248a22.521,22.521,0,0,1,2.283,9.484c-.08,4.943-2.545,11.387-2.668,15.7s-1.061,10.527-1.061,10.527a9.863,9.863,0,0,1-2.979,1.022,8.276,8.276,0,0,1-3.96-.534,23.222,23.222,0,0,1,.8-8.573c-.753-2.384-3.012-13.709-2.8-16.112-1.4-1.513-4.159-3.01-2.93-7.663s2.278-5.961,2.278-5.961Z" transform="translate(-332.801 -65.064)" fill="#4f4284"/>
        <path id="Path_91875" data-name="Path 91875" d="M336.753,101.658c-1.733-5.356-.675-8.918.856-10.67.63-.721,2.123-2.2,3.757-.735-.53,2.44,3.68,3.221,6.734,3.221,2.31,1.725,4.385,2.93,5.7,5.265,1.4,2.471,2.068,4.982-.914,6.783.662,1.961-.111,4.357-.01,7.953a19.061,19.061,0,0,0,1.106,4.909c-2.785,2.213-8.975,1.77-11.939-.028-2.315-1.4-4.093-3.16-3.978-4.853.768-1.647,2.439-1.84,2.354-3.889C340.318,107.029,337.547,104.114,336.753,101.658Z" transform="translate(-334.045 -74.789)" fill="#5b83c3"/>
        <path id="Path_91876" data-name="Path 91876" d="M363.325,94.381c-2.237,1.365-6.131,6.506-7.928,8.53-.983-1.609-2.362-2.958-3.493-4.453a14.56,14.56,0,0,0-3.565-3.031c-1.373-.89-6.124,1.79-4.515,4.72,1.466,2.667,2.867,3.352,5.2,5.1a26.023,26.023,0,0,0,5.724,3.452c1.281.646,1.616-.273,3.016-1.328,2.987-2.247,5.761-8.32,7.87-10.909C365.019,95.678,363.637,94.191,363.325,94.381Z" transform="translate(-329.257 -71.819)" fill="#ffc8b5"/>
        <path id="Path_91877" data-name="Path 91877" d="M346.188,93.542c3.555-1.157,6.68,3.143,7.426,6.176,1.118.849-2.288,5.83-3.849,5.815-3.1,1.393-6.233.057-7.772-3.156C340.5,99.253,343.033,94.567,346.188,93.542Z" transform="translate(-330.476 -72.455)" fill="#e8eefc"/>
        <path id="Path_91878" data-name="Path 91878" d="M350.448,97.264l1,1.191s.535,1.046-.716,2.9a6.435,6.435,0,0,1-3.191,2.419l-.94-.7a10.3,10.3,0,0,0,2.9-2.538A6.06,6.06,0,0,0,350.448,97.264Z" transform="translate(-327.311 -70.001)" fill="#fff"/>
        <path id="Path_91879" data-name="Path 91879" d="M336.109,94.361a9.928,9.928,0,0,1,3.444-5.888,7.87,7.87,0,0,1,1.394-5.559c1.546-2.009,4.655-3.143,6.9-1.865,2.7-.687,5.93.718,5.384,4.3a4.913,4.913,0,0,1-5.032,3.936c-.415,3.179,1.035,5.73-.018,9.178-.857,2.81-3.529,6.044-9.616,6.617C337.375,101.492,335.61,96.743,336.109,94.361Z" transform="translate(-333.942 -80.507)" fill="#332f66"/>
        <path id="Path_91880" data-name="Path 91880" d="M345.949,89.107c-.244,2.107-3.091,2.406-3.091,2.406a12.686,12.686,0,0,1-2.213-3.34c-.895.923-3.583.491-3.583.491s-.844-2.367.348-3.832a6.175,6.175,0,0,1,3.9,1.728S345.266,87.469,345.949,89.107Z" transform="translate(-333.472 -77.795)" fill="#16a395"/>
        <path id="Path_91881" data-name="Path 91881" d="M345.637,87.609c0,1.285-1.36,4.219-2.849,2.886a5.151,5.151,0,0,1-1.715-2.642s-1.96.849-3.286-.046.12-4.949,1.86-3.535c1.674,1.359,1.874,2.019,1.874,2.019S345.637,85.714,345.637,87.609Z" transform="translate(-333.16 -78.332)" fill="#37d1c9"/>
        <path id="Path_91882" data-name="Path 91882" d="M339.361,86.15c-.251.612-.208,1.207.1,1.333s.755-.267,1.005-.879.208-1.207-.1-1.333S339.613,85.539,339.361,86.15Z" transform="translate(-331.951 -77.535)" fill="#fff"/>
        <path id="Path_91883" data-name="Path 91883" d="M354.648,98.552c.441-.413,2.026-4.019,4-6s2.634-2.556,3.537-2.631-1.917,3.27-1.917,3.27,1.917,2.759,1.533,3.955-4.661,3.495-4.661,3.495Z" transform="translate(-322.264 -74.603)" fill="#ffc8b5"/>
      </g>
    </g>
  </g>
</svg>
