<svg id="Group_36753" data-name="Group 36753" xmlns="http://www.w3.org/2000/svg" width="141.038" height="198.228" viewBox="0 0 141.038 198.228">
  <g id="Group_34337" data-name="Group 34337" transform="translate(29.088)">
    <g id="Group_34327" data-name="Group 34327" transform="translate(44.958 3.322)">
      <path id="Path_89786" data-name="Path 89786" d="M3670.9,2562.051l-5.754-3.322v-106.4l5.754,3.322Z" transform="translate(-3665.15 -2452.328)" fill="#edf5ff"/>
      <path id="Path_89787" data-name="Path 89787" d="M3697.2,2558.729l-5.754,3.322v-106.4l5.754-3.322Z" transform="translate(-3685.696 -2452.328)" fill="#b0d3ff"/>
    </g>
    <g id="Group_34335" data-name="Group 34335" transform="translate(0 10.711)">
      <g id="Group_34331" data-name="Group 34331">
        <path id="Path_89788" data-name="Path 89788" d="M3509.382,2586.75l-46.854,30.554-2.877-1.842V2514.814l49.731-28.712,2.877,1.843Z" transform="translate(-3459.651 -2486.102)" fill="#1f2e3e"/>
        <path id="Path_89789" data-name="Path 89789" d="M3522.532,2595.171l-49.731,28.712V2523.235l49.731-28.712Z" transform="translate(-3469.924 -2492.681)" fill="#445b74"/>
        <g id="Group_34330" data-name="Group 34330" transform="translate(8.858 16.476)">
          <g id="Group_34328" data-name="Group 34328" transform="translate(0 12.132)">
            <path id="Path_89790" data-name="Path 89790" d="M3516.9,2661.486l-16.756,9.674v-44.62l16.756-9.674Z" transform="translate(-3500.14 -2616.865)" fill="#1f2e3e"/>
            <path id="Path_89791" data-name="Path 89791" d="M3520.512,2669.258l-13.942,8.049v-41.462l13.942-8.05Z" transform="translate(-3505.163 -2625.405)" fill="#5f768f"/>
          </g>
          <g id="Group_34329" data-name="Group 34329" transform="translate(21.013)">
            <path id="Path_89792" data-name="Path 89792" d="M3612.944,2606.032l-16.756,9.674v-44.621l16.756-9.674Z" transform="translate(-3596.188 -2561.412)" fill="#1f2e3e"/>
            <path id="Path_89793" data-name="Path 89793" d="M3616.561,2613.8l-13.942,8.049v-41.462l13.942-8.05Z" transform="translate(-3601.211 -2569.951)" fill="#5f768f"/>
          </g>
        </g>
      </g>
      <g id="Group_34334" data-name="Group 34334" transform="translate(4.581 81.714)">
        <g id="Group_34333" data-name="Group 34333" transform="translate(0 0.218)">
          <path id="Path_89794" data-name="Path 89794" d="M3483.666,2861.525l.031-.06-1.4-.8a.715.715,0,0,0-.694.075,2.276,2.276,0,0,0-1.014,1.782.748.748,0,0,0,.289.667l.027.016,1.415.812.046-.07a.924.924,0,0,0,.41-.133,2.276,2.276,0,0,0,1.014-1.783A.921.921,0,0,0,3483.666,2861.525Z" transform="translate(-3480.592 -2860.606)" fill="#ff9f31"/>
          <g id="Group_34332" data-name="Group 34332" transform="translate(1.4 0.802)">
            <path id="Path_89795" data-name="Path 89795" d="M3486.993,2866.19a2.276,2.276,0,0,1,1.015-1.783c.558-.322,1.014-.047,1.014.612a2.276,2.276,0,0,1-1.014,1.783C3487.449,2867.124,3486.993,2866.849,3486.993,2866.19Z" transform="translate(-3486.993 -2864.273)" fill="#ff9f31"/>
          </g>
        </g>
        <ellipse id="Ellipse_697" data-name="Ellipse 697" cx="3.446" cy="3.446" rx="3.446" ry="3.446" transform="translate(1.24)" fill="#ffc265"/>
      </g>
    </g>
    <g id="Group_34336" data-name="Group 34336" transform="translate(100.442 35.356)">
      <path id="Path_89796" data-name="Path 89796" d="M3924.518,2708.476l-5.754-3.322v-106.4l5.754,3.322Z" transform="translate(-3918.764 -2598.752)" fill="#edf5ff"/>
      <path id="Path_89797" data-name="Path 89797" d="M3950.817,2705.154l-5.754,3.322v-106.4l5.754-3.322Z" transform="translate(-3939.31 -2598.752)" fill="#b0d3ff"/>
    </g>
    <path id="Path_89798" data-name="Path 89798" d="M3665.15,2458.082v-5.754l61.238,35.356v5.754Z" transform="translate(-3620.192 -2449.006)" fill="#edf5ff"/>
    <path id="Path_89799" data-name="Path 89799" d="M3732.142,2472.5l-5.754,3.322-61.238-35.356,5.754-3.322Z" transform="translate(-3620.192 -2437.144)" fill="#fff"/>
  </g>
  <g id="Group_34391" data-name="Group 34391" transform="translate(0 42.136)">
    <g id="Group_34390" data-name="Group 34390" transform="translate(0)">
      <g id="Group_34344" data-name="Group 34344" transform="translate(89.043)">
        <g id="Group_34339" data-name="Group 34339" transform="translate(0 26.166)">
          <g id="Group_34338" data-name="Group 34338" transform="translate(0 11.533)">
            <path id="Path_89800" data-name="Path 89800" d="M3742.293,2802.062l-1.49,2.238,1.449,1.16,1.989-2.753Z" transform="translate(-3739.249 -2802.062)" fill="#f7ba8b"/>
            <path id="Path_89801" data-name="Path 89801" d="M3737.24,2809.827s.958.145.985,1,.268,2.493-.585,2.8-.933.744-2.433.256-.716-2.016-.716-2.016-1.323.6-.553-.465S3734.693,2810.156,3737.24,2809.827Z" transform="translate(-3733.697 -2808.128)" fill="#f7ba8b"/>
            <path id="Path_89802" data-name="Path 89802" d="M3739.459,2820.831s-.368.012-.313-.263,1.3-1.062,1.558-1.172,1.9-1.294,1.825-.248S3739.459,2820.831,3739.459,2820.831Z" transform="translate(-3737.949 -2815.075)" fill="#f7ba8b"/>
          </g>
          <path id="Path_89803" data-name="Path 89803" d="M3750.308,2750.634l-6.036,11.343s.194,2.576,1.938.572c2.533-2.909,8-10.777,8-10.777S3753.281,2747.177,3750.308,2750.634Z" transform="translate(-3741.958 -2749.346)" fill="#f7ba8b"/>
        </g>
        <g id="Group_34341" data-name="Group 34341" transform="translate(2.045)">
          <g id="Group_34340" data-name="Group 34340">
            <path id="Path_89804" data-name="Path 89804" d="M3804.213,3028.552a2.539,2.539,0,0,0-3.508,1.121c-1.141,2.324-4.586,6.35-2.926,7.263s8.3-3.486,8.052-6.392S3804.213,3028.552,3804.213,3028.552Z" transform="translate(-3785.458 -2941.06)" fill="#061e38"/>
            <path id="Path_89805" data-name="Path 89805" d="M3754.164,3011.431s1.014,3.652-.883,3.735-9.244,1.121-10.115.332,3.2-4.192,7.014-4.939S3754.164,3011.431,3754.164,3011.431Z" transform="translate(-3743.046 -2927.093)" fill="#061e38"/>
            <path id="Path_89806" data-name="Path 89806" d="M3818.185,3013.977s.705,4.4-1.411,4.9-2.407-1.826-2.075-4.9S3818.185,3013.977,3818.185,3013.977Z" transform="translate(-3798.933 -2928.85)" fill="#f09c98"/>
            <path id="Path_89807" data-name="Path 89807" d="M3765.4,2817.874l-1.48,46.616s-2.241,3.32-4.98,0c-.664-6.558-2.365-37.14-2.365-37.14l-1.792-.158-3.636,13.764,3.02,19.478s-2.943,1.889-4.935.4c-1.024-4.9-5.066-20.946-5.066-20.946l2.422-24.031Z" transform="translate(-3743.919 -2775.135)" fill="#50515d"/>
            <path id="Path_89808" data-name="Path 89808" d="M3752.913,2700.857c.3-3.238,2.176-5.538,5.649-5.286a24.673,24.673,0,0,1,5.251.972,10.388,10.388,0,0,1,4.484,2.9,8.949,8.949,0,0,1,1,1.353,2.139,2.139,0,0,1,.67.806,16.7,16.7,0,0,1,1.6,6.539,2.774,2.774,0,0,1,.115.822c-.074,4.985.376,9.955.359,14.927-.013,3.733-2.9,5.49-6.362,6.026-3.493.542-10.38-2.747-11.568-4.3-1.048-1.367-.988-6.068-1.146-10.058A109.928,109.928,0,0,1,3752.913,2700.857Z" transform="translate(-3750.57 -2681.155)" fill="#91919e"/>
            <path id="Path_89809" data-name="Path 89809" d="M3754.492,2726.458c-1.048-1.367-.989-6.879-1.146-10.869-.061-1.533-.132-3.059-.19-4.582.16-.823.488-2.743.856-6.277.555-6.626,3.181-8.58,4.494-9.146.142,0,.282,0,.43.012a24.088,24.088,0,0,1,2.443.311l-1.33.305c-4.756,1.092-4.2,8.892-4.2,8.892l7.225,3.425s-.971-6.046,1.6-8.532a6.323,6.323,0,0,1,3.174-1.319,10.581,10.581,0,0,1,.815.793c.034.037.062.078.094.115-1.186.148-2.69.454-3.062,1.072-.732,1.217-1.739,3.059.06,11.047.533,2.366,6.434,4.173,6.434,4.173l.052,1.281c.092,2.253.181,4.506.173,6.758-.013,3.733-2.9,6.3-6.362,6.836C3762.567,2731.3,3755.679,2728.007,3754.492,2726.458Z" transform="translate(-3750.944 -2681.18)" fill="#b9bdc4"/>
            <path id="Path_89810" data-name="Path 89810" d="M3772.59,2698.965a10.235,10.235,0,0,0-4.007-2.415,24.66,24.66,0,0,0-5.251-.971c-.173-.013-.342-.017-.508-.017a8.548,8.548,0,0,0-3.8,5.459c-.991,4.159,1.283,4.738,2.069,5.11s5.791,3,6.37,2.863C3768.009,2708.868,3766.947,2700.423,3772.59,2698.965Z" transform="translate(-3755.34 -2681.162)" fill="#fff" opacity="0.2" style="mix-blend-mode: overlay;isolation: isolate"/>
            <path id="Path_89811" data-name="Path 89811" d="M3817.022,2813.808a3.966,3.966,0,0,0,1.529-1.274l1.468-46.238q.01-.177.011-.356c0-.007,0-.014,0-.022,0-.3,0-.6,0-.891,0-.108,0-.217,0-.325,0-.187,0-.375-.007-.562,0-.137-.005-.274-.008-.411,0-.157-.006-.313-.01-.47s-.008-.314-.012-.47q-.005-.2-.011-.4c-.006-.179-.011-.359-.017-.538l-.01-.306q-.012-.321-.023-.642c0-.045,0-.09-.005-.135-.114-3.027-.274-6.056-.257-9.09l-5.568-2.332s1.111,18.089.968,19.726C3814.938,2770.522,3816.632,2805.759,3817.022,2813.808Z" transform="translate(-3798.553 -2723.18)" fill="#1d1d1b" opacity="0.25" style="mix-blend-mode: overlay;isolation: isolate"/>
            <path id="Path_89812" data-name="Path 89812" d="M3781.009,2684.918a38.021,38.021,0,0,1,.808-4.52.978.978,0,0,1,1.2-.681,8.721,8.721,0,0,0,3.127.6,1,1,0,0,1,.991.99,6.364,6.364,0,0,0-.039,2.209,3.106,3.106,0,0,0,1.005,1.48c1.455,1.523-.383,1.877-1.25,2.378-1.92,1.109-4.621,1.3-5.775-.965A5.373,5.373,0,0,1,3781.009,2684.918Z" transform="translate(-3772.689 -2668.75)" fill="#f7ba8b"/>
            <path id="Path_89813" data-name="Path 89813" d="M3781.541,2685.715c.751.6,2.368,1.405,4.961.243.38-.17.736-.337,1.072-.5-.017-.053-.034-.108-.049-.166a6.354,6.354,0,0,1,.038-2.209,1,1,0,0,0-.99-.99,8.677,8.677,0,0,1-1.515-.141c-1.211.982-2.545,2.065-3.33,2.7C3781.656,2685.009,3781.592,2685.363,3781.541,2685.715Z" transform="translate(-3773.119 -2670.53)" fill="#1d1d1b" opacity="0.25" style="mix-blend-mode: overlay;isolation: isolate"/>
            <path id="Path_89814" data-name="Path 89814" d="M3764.9,2644.179c.661-4.039,5.271-4.566,8.27-2.539a5.317,5.317,0,0,1,2.152,3,4.306,4.306,0,0,1,.2.877,4.576,4.576,0,0,1-.093,1.386,3.407,3.407,0,0,1-.042.764,1.245,1.245,0,0,1-.107.953l-.81,1.477a1.153,1.153,0,0,1-.672.556,6.141,6.141,0,0,1-5.708,2.76C3763.619,2652.789,3764.363,2647.488,3764.9,2644.179Z" transform="translate(-3759.802 -2638.137)" fill="#f7ba8b"/>
            <path id="Path_89815" data-name="Path 89815" d="M3758.617,2633.457a5.913,5.913,0,0,1,5.676-3.592l.081,0a7.087,7.087,0,0,1,6.147,2.064,6.366,6.366,0,0,1,1.463,5.581,4.838,4.838,0,0,1-1.14,2.724,4.959,4.959,0,0,1-.44,1.009,8.848,8.848,0,0,1-1.041,1.4c-.107-.814-.31-1.616-.338-2.441a1.213,1.213,0,0,0-.123-.485.813.813,0,0,1,.148-.321c.045-.059.085-.122.127-.184.758-4.216-6.309-3.563-9.026-2.758a.767.767,0,0,1-.7-.1C3758.258,2636.266,3758.229,2634.482,3758.617,2633.457Z" transform="translate(-3755.037 -2629.744)" fill="#642500"/>
            <path id="Path_89816" data-name="Path 89816" d="M3798.231,2665.485a5.187,5.187,0,0,1,.983-1.735,1.418,1.418,0,0,1,2.052-.21,1.471,1.471,0,0,1,.009,2,7.222,7.222,0,0,1-1.416.913.756.756,0,0,1-.571.107C3798.693,2666.686,3797.992,2666.14,3798.231,2665.485Z" transform="translate(-3786.121 -2655.869)" fill="#f7ba8b"/>
          </g>
          <path id="Path_89817" data-name="Path 89817" d="M3809.522,2842.946s3.619-.332,4.708-1.209c0,3.141-.122,5.385-.85,5.789S3810.1,2846.965,3809.522,2842.946Z" transform="translate(-3794.979 -2795.358)" fill="#2382de"/>
          <path id="Path_89818" data-name="Path 89818" d="M3751.188,2839.716a6.431,6.431,0,0,0,2.939-2.938,22.7,22.7,0,0,1-2.5-1.449Z" transform="translate(-3749.407 -2790.351)" fill="#2382de"/>
          <path id="Path_89819" data-name="Path 89819" d="M3772.325,2827.95a23.563,23.563,0,0,1-8.989,2.288,16.774,16.774,0,0,1-10.053-2.942l-.206,2.047a18.448,18.448,0,0,0,9.572,2.729c.252,0,.507,0,.765-.016a25.111,25.111,0,0,0,8.847-2.068Z" transform="translate(-3750.882 -2784.077)" fill="#186dd7"/>
        </g>
        <g id="Group_34343" data-name="Group 34343" transform="translate(16.648 19.144)">
          <path id="Path_89820" data-name="Path 89820" d="M3814.229,2717.812s-1.376-1.423-3.3.253-1.444,4.465,1.637,8.379,5.26,7.749,5.768,7.874,1.659,1.1,3.714-1.257C3820.014,2728.977,3817.154,2722.084,3814.229,2717.812Z" transform="translate(-3809.793 -2717.248)" fill="#f7ba8b"/>
          <g id="Group_34342" data-name="Group 34342" transform="translate(1.948 26.357)">
            <path id="Path_89821" data-name="Path 89821" d="M3826.313,2837.723l-1.141,2.434,1.605.932,1.559-3.018Z" transform="translate(-3823.756 -2837.723)" fill="#f7ba8b"/>
            <path id="Path_89822" data-name="Path 89822" d="M3822.237,2845.569s.958.143.988,1,.274,2.492-.579,2.8-.931.746-2.433.262-.721-2.014-.721-2.014-1.321.6-.554-.463S3819.691,2845.9,3822.237,2845.569Z" transform="translate(-3818.7 -2843.853)" fill="#f7ba8b"/>
          </g>
          <path id="Path_89823" data-name="Path 89823" d="M3832.117,2782.16l-4.288,12.113s.573,2.519,2,.279c2.074-3.253,6.313-11.844,6.313-11.844S3834.544,2778.3,3832.117,2782.16Z" transform="translate(-3823.883 -2766.721)" fill="#f7ba8b"/>
        </g>
        <path id="Path_89824" data-name="Path 89824" d="M3808.116,2725.729q-.293-.54-.582-1.088c-2.312-4.413-1.512-7.522.682-8.818s3.285.355,3.285.355a18.835,18.835,0,0,1,3.491,6.34C3813.594,2725.423,3808.116,2725.729,3808.116,2725.729Z" transform="translate(-3790.292 -2696.603)" fill="#91919e"/>
        <path id="Path_89825" data-name="Path 89825" d="M3769.25,2863.69s-2.338,13.158-2.272,14.993c.056,1.556,2.73,15.591,3.543,19.827a7.263,7.263,0,0,0,1.465-.678l-3.02-19.478,3.637-13.764Z" transform="translate(-3759.696 -2812.508)" fill="#1d1d1b" opacity="0.25" style="mix-blend-mode: overlay;isolation: isolate"/>
      </g>
      <g id="Group_34351" data-name="Group 34351" transform="translate(1.411 4.757)">
        <g id="Group_34345" data-name="Group 34345" transform="translate(78.005 6.571)">
          <path id="Path_89826" data-name="Path 89826" d="M3721.219,2693.964l-21.1-12.185a1.321,1.321,0,0,0-1.355-.121l-6.761,4.116,6.217,8.1v3.142c0,1.206.854,9.262,1.9,9.865l5.457,3.15,10.2,13.29,6.79-4.128a1.334,1.334,0,0,0,.554-1.224v-20.716A4.212,4.212,0,0,0,3721.219,2693.964Z" transform="translate(-3691.493 -2681.522)" fill="#5786c4"/>
          <path id="Path_89827" data-name="Path 89827" d="M3792.823,2770.9l1.718,2.238,6.79-4.128a1.335,1.335,0,0,0,.554-1.224v-20.716a3.834,3.834,0,0,0-.507-1.78l-8.145,4.757Z" transform="translate(-3770.26 -2731.338)" fill="#72a3e2"/>
          <path id="Path_89828" data-name="Path 89828" d="M3714.593,2736.671c0,1.206-.854,1.7-1.9,1.1l-21.1-12.185a4.211,4.211,0,0,1-1.9-3.288v-20.716c0-1.206.854-1.7,1.9-1.1l21.1,12.185a4.211,4.211,0,0,1,1.9,3.288Z" transform="translate(-3689.691 -2696.133)" fill="#4173b4"/>
        </g>
        <g id="Group_34346" data-name="Group 34346" transform="translate(27.583 40.25)">
          <path id="Path_89829" data-name="Path 89829" d="M3463.259,2878.608l69.536-40.118-2.022-1.206-3.268-1.819-68.288,40.65Z" transform="translate(-3459.217 -2835.466)" fill="#f4b301"/>
          <path id="Path_89830" data-name="Path 89830" d="M3463.259,2878.608l69.536-40.118-2.022-1.206-3.268-1.819-68.288,40.65Z" transform="translate(-3459.217 -2835.466)" fill="#325c92"/>
          <path id="Path_89831" data-name="Path 89831" d="M3477.693,2894.459l69.535-40.146v-5.022l-69.535,40.146Z" transform="translate(-3473.651 -2846.266)" fill="#72a3e2"/>
        </g>
        <g id="Group_34347" data-name="Group 34347" transform="translate(54.848)">
          <path id="Path_89832" data-name="Path 89832" d="M3624.633,2784.194l-.162,1.045-17.867-10.318-11.378,6.569-8.721,5.035-2.658,1.535,2.643,1.526.015.009,19.8,11.439a5.894,5.894,0,0,0,5.315,0l17.441-10.07a1.868,1.868,0,0,0,1.1-1.529v-5.241Z" transform="translate(-3583.847 -2747.917)" fill="#72a3e2"/>
          <path id="Path_89833" data-name="Path 89833" d="M3611.307,2654.871l-5.467-3.177a1.834,1.834,0,0,0-1.926.152L3586.5,2661.9a5.9,5.9,0,0,0-2.658,4.6v25.121c.006,0,0,.007,0,.007l5.436-2.284.872-1.365,5.054-2.918,8.7-5.026,2.658-1.534v-16.219Z" transform="translate(-3583.847 -2651.487)" fill="#5786c4"/>
          <path id="Path_89834" data-name="Path 89834" d="M3590.313,2712.262l-5.779-3.34a5.334,5.334,0,0,0-.687,2.449v25.121c.006,0,0,.007,0,.007l5.436-2.284.872-1.365,5.02-2.9Z" transform="translate(-3583.847 -2696.357)" fill="#4173b4"/>
          <path id="Path_89835" data-name="Path 89835" d="M3586.5,2814.968l-2.658,1.534,2.643,1.526.015.009,19.8,11.439a5.446,5.446,0,0,0,2.678.633V2820.7l-16.177-9.371Z" transform="translate(-3583.847 -2776.359)" fill="#4173b4"/>
          <path id="Path_89836" data-name="Path 89836" d="M3628.764,2666.273l-17.409,10.051a5.9,5.9,0,0,0-2.658,4.6v19.688l11.363-6.56,8.7-5.025,2.658-1.534v-19.688C3631.421,2666.12,3630.225,2665.429,3628.764,2666.273Z" transform="translate(-3603.26 -2662.757)" fill="#72a3e2"/>
          <path id="Path_89837" data-name="Path 89837" d="M3648.475,2774.308l-14.365-8.293-.046-.025-2.612-1.509-2.658,1.534-17.441,10.07-2.658,1.534,16.725,9.665c.007,0,.3.163.3.163a5.9,5.9,0,0,0,5.316,0l17.441-10.069C3649.937,2776.533,3649.937,2775.152,3648.475,2774.308Z" transform="translate(-3603.26 -2739.76)" fill="#5786c4"/>
        </g>
        <g id="Group_34348" data-name="Group 34348" transform="translate(31.156 13.657)">
          <path id="Path_89838" data-name="Path 89838" d="M3516.336,2846.617l-.163,1.045-17.867-10.319-11.378,6.57-8.721,5.035-2.658,1.534,2.643,1.526.015.009,19.8,11.439a5.9,5.9,0,0,0,5.315,0l17.441-10.07a1.868,1.868,0,0,0,1.1-1.53v-5.24Z" transform="translate(-3475.549 -2810.339)" fill="#72a3e2"/>
          <path id="Path_89839" data-name="Path 89839" d="M3503.009,2717.294l-5.467-3.177a1.834,1.834,0,0,0-1.926.152l-17.409,10.051a5.9,5.9,0,0,0-2.658,4.6v25.122c.006,0,0,.007,0,.007l5.436-2.284.872-1.366,5.054-2.917,8.7-5.026,2.658-1.534v-16.219Z" transform="translate(-3475.549 -2713.91)" fill="#5786c4"/>
          <path id="Path_89840" data-name="Path 89840" d="M3482.015,2774.686l-5.779-3.341a5.34,5.34,0,0,0-.687,2.449v25.121c.006,0,0,.007,0,.007l5.436-2.284.872-1.365,5.02-2.9Z" transform="translate(-3475.549 -2758.779)" fill="#4173b4"/>
          <path id="Path_89841" data-name="Path 89841" d="M3478.207,2877.392l-2.658,1.535,2.643,1.526.015.009,19.8,11.438a5.443,5.443,0,0,0,2.677.633v-9.41l-16.176-9.371Z" transform="translate(-3475.549 -2838.783)" fill="#4173b4"/>
          <path id="Path_89842" data-name="Path 89842" d="M3520.466,2728.7l-17.409,10.051a5.9,5.9,0,0,0-2.658,4.6v19.688l11.362-6.56,8.7-5.026,2.658-1.534v-19.688C3523.124,2728.543,3521.927,2727.853,3520.466,2728.7Z" transform="translate(-3494.962 -2725.18)" fill="#72a3e2"/>
          <path id="Path_89843" data-name="Path 89843" d="M3540.177,2836.732l-14.364-8.293-.046-.025-2.612-1.509-2.657,1.534-17.441,10.069-2.658,1.535,16.725,9.665c.007,0,.3.164.3.164a5.9,5.9,0,0,0,5.315,0l17.441-10.07C3541.639,2838.957,3541.639,2837.576,3540.177,2836.732Z" transform="translate(-3494.962 -2802.184)" fill="#5786c4"/>
        </g>
        <g id="Group_34349" data-name="Group 34349" transform="translate(7.496 27.351)">
          <path id="Path_89844" data-name="Path 89844" d="M3408.188,2909.213l-.163,1.045-17.867-10.318-11.378,6.569-8.72,5.035-2.658,1.535,2.643,1.526.015.009,19.8,11.439a5.9,5.9,0,0,0,5.315,0l17.441-10.07a1.868,1.868,0,0,0,1.1-1.53v-5.241Z" transform="translate(-3367.402 -2872.936)" fill="#72a3e2"/>
          <path id="Path_89845" data-name="Path 89845" d="M3394.862,2779.89l-5.467-3.177a1.834,1.834,0,0,0-1.926.152l-17.409,10.052a5.9,5.9,0,0,0-2.658,4.6v25.122c.006,0,0,.007,0,.007l5.436-2.284.873-1.365,5.053-2.918,8.7-5.026,2.658-1.534V2787.3Z" transform="translate(-3367.402 -2776.506)" fill="#5786c4"/>
          <path id="Path_89846" data-name="Path 89846" d="M3373.868,2837.282l-5.779-3.341a5.337,5.337,0,0,0-.687,2.449v25.121c.006,0,0,.007,0,.007l5.436-2.284.873-1.365,5.02-2.9Z" transform="translate(-3367.402 -2821.375)" fill="#4173b4"/>
          <path id="Path_89847" data-name="Path 89847" d="M3370.06,2939.988l-2.658,1.535,2.643,1.526.015.009,19.8,11.439a5.446,5.446,0,0,0,2.678.633v-9.41l-16.177-9.371Z" transform="translate(-3367.402 -2901.379)" fill="#4173b4"/>
          <path id="Path_89848" data-name="Path 89848" d="M3412.318,2791.293l-17.409,10.051a5.9,5.9,0,0,0-2.658,4.6v19.688l11.362-6.56,8.7-5.026,2.658-1.534v-19.688C3414.976,2791.139,3413.78,2790.449,3412.318,2791.293Z" transform="translate(-3386.815 -2787.776)" fill="#72a3e2"/>
          <path id="Path_89849" data-name="Path 89849" d="M3432.03,2899.328l-14.365-8.293-.046-.025-2.612-1.509-2.657,1.534-17.441,10.07-2.658,1.534,16.725,9.665c.007,0,.3.163.3.163a5.9,5.9,0,0,0,5.315,0l17.441-10.069C3433.492,2901.553,3433.492,2900.172,3432.03,2899.328Z" transform="translate(-3386.815 -2864.78)" fill="#5786c4"/>
        </g>
        <g id="Group_34350" data-name="Group 34350" transform="translate(0 51.585)">
          <path id="Path_89850" data-name="Path 89850" d="M3364.668,2899.719l-21.105-12.185a1.322,1.322,0,0,0-1.354-.122l-6.761,4.116,6.218,8.1v3.142c0,1.206.854,9.261,1.9,9.864l5.457,3.15,10.2,13.29,6.79-4.128a1.335,1.335,0,0,0,.553-1.224v-20.716A4.212,4.212,0,0,0,3364.668,2899.719Z" transform="translate(-3334.942 -2887.277)" fill="#5786c4"/>
          <path id="Path_89851" data-name="Path 89851" d="M3436.272,2976.652l1.718,2.238,6.79-4.128a1.335,1.335,0,0,0,.554-1.224v-20.716a3.833,3.833,0,0,0-.507-1.78l-8.144,4.758Z" transform="translate(-3413.709 -2937.093)" fill="#72a3e2"/>
          <path id="Path_89852" data-name="Path 89852" d="M3358.042,2942.426c0,1.206-.854,1.7-1.9,1.1l-21.1-12.185a4.211,4.211,0,0,1-1.9-3.288v-20.716c0-1.206.854-1.7,1.9-1.1l21.1,12.185a4.211,4.211,0,0,1,1.9,3.288Z" transform="translate(-3333.14 -2901.887)" fill="#4173b4"/>
        </g>
      </g>
      <path id="Path_89853" data-name="Path 89853" d="M3822.237,2845.569s.958.143.988,1,.274,2.492-.579,2.8-.931.746-2.433.262-.721-2.014-.721-2.014-1.321.6-.554-.463S3819.691,2845.9,3822.237,2845.569Z" transform="translate(-3711.061 -2798.352)" fill="#f7ba8b"/>
      <g id="Group_34388" data-name="Group 34388" transform="translate(0 54.038)">
        <g id="Group_34384" data-name="Group 34384">
          <g id="Group_34382" data-name="Group 34382">
            <g id="Group_34352" data-name="Group 34352" transform="translate(0 81.059)" opacity="0.1" style="mix-blend-mode: multiply;isolation: isolate">
              <ellipse id="Ellipse_698" data-name="Ellipse 698" cx="15.38" cy="8.701" rx="15.38" ry="8.701" transform="matrix(0.993, -0.121, 0.121, 0.993, 0, 3.721)" fill="#186dd7"/>
            </g>
            <g id="Group_34381" data-name="Group 34381" transform="translate(1.786)">
              <g id="Group_34358" data-name="Group 34358" transform="translate(0 16.612)">
                <g id="Group_34353" data-name="Group 34353">
                  <path id="Path_89854" data-name="Path 89854" d="M3337.117,2954.121a3.533,3.533,0,0,1,3.171-1.437c2.555.153,3.947,3.815,2.8,8.684s-2.73,9.528-3.141,9.856-5.131,4.406-5.09-.412S3335.01,2957.689,3337.117,2954.121Z" transform="translate(-3334.854 -2952.676)" fill="#7f7f8e"/>
                </g>
                <g id="Group_34356" data-name="Group 34356" transform="translate(11.98 20.774)">
                  <g id="Group_34354" data-name="Group 34354" transform="translate(0 0.375)">
                    <path id="Path_89855" data-name="Path 89855" d="M3391.128,3049.345l1.708.855-.488,1.448-2.734-.955Z" transform="translate(-3389.615 -3049.345)" fill="#f09c98"/>
                  </g>
                  <g id="Group_34355" data-name="Group 34355" transform="translate(2.024)">
                    <path id="Path_89856" data-name="Path 89856" d="M3399.325,3048.772s.058-1.409,1.4-1.1,1.876.8,1.545,2.179-.844,2.464-2.085,2.059-1.52-.975-1.19-2.058Z" transform="translate(-3398.866 -3047.631)" fill="#f09c98"/>
                  </g>
                </g>
                <g id="Group_34357" data-name="Group 34357" transform="translate(0.203 15.523)">
                  <path id="Path_89857" data-name="Path 89857" d="M3339.2,3023.8l10.907,5.051s.92,1.325-1.232,2.9-12.969-3.383-12.969-3.383S3334.788,3022.584,3339.2,3023.8Z" transform="translate(-3335.782 -3023.632)" fill="#7f7f8e"/>
                </g>
              </g>
              <g id="Group_34380" data-name="Group 34380" transform="translate(0.571)">
                <path id="Path_89858" data-name="Path 89858" d="M3412.8,3285.693s-1.411,3.409.989,3.611c2.072.175,8.708-1.688,11.327-6.167.881-1.507-3.578-2.628-7.854-1S3412.8,3285.693,3412.8,3285.693Z" transform="translate(-3395.997 -3192.823)" fill="#061e38"/>
                <path id="Path_89859" data-name="Path 89859" d="M3350.5,3267.459s-1.411,3.409.989,3.612c2.072.175,8.708-1.688,11.327-6.167.88-1.507-3.579-2.628-7.854-1S3350.5,3267.459,3350.5,3267.459Z" transform="translate(-3347.329 -3178.578)" fill="#061e38"/>
                <g id="Group_34359" data-name="Group 34359" transform="translate(17.862 88.009)">
                  <path id="Path_89860" data-name="Path 89860" d="M3422.281,3280.684s1.3,4.265-1.777,4.146c-2.132,0-1.185-5.8-1.185-5.8Z" transform="translate(-3419.11 -3279.026)" fill="#f09c98"/>
                </g>
                <g id="Group_34360" data-name="Group 34360" transform="translate(3.895 84.69)">
                  <path id="Path_89861" data-name="Path 89861" d="M3358.438,3265.513s1.3,4.265-1.777,4.146c-2.132,0-1.185-5.8-1.185-5.8Z" transform="translate(-3355.266 -3263.855)" fill="#f09c98"/>
                </g>
                <g id="Group_34361" data-name="Group 34361" transform="translate(0.783 48.337)">
                  <path id="Path_89862" data-name="Path 89862" d="M3341.043,3097.689l1.586,20.779,1.139,20.083a3.071,3.071,0,0,0,4.976,0c0-5.687.135-20.969.135-20.969l.965-11.832,2.335,1.3,5.591,15.861.163,19.147a2.99,2.99,0,0,0,5.094,0c0-4.265.859-19.536.859-19.536l-4.458-20.566Z" transform="translate(-3341.043 -3097.689)" fill="#50515d"/>
                </g>
                <g id="Group_34362" data-name="Group 34362" transform="translate(0 16.518)">
                  <path id="Path_89863" data-name="Path 89863" d="M3338.246,2984.067s-1.066-11.354-.711-17.345c.274-4.625-.218-10.688,2.667-13.486.951-.922,3.285-1.461,6.215-.417,15.3,5.452,10.153,7.387,10.19,19.047.026,8.056.022,17.177.022,17.177S3345.236,2992,3338.246,2984.067Z" transform="translate(-3337.463 -2952.248)" fill="#a3a3ae"/>
                </g>
                <path id="Path_89864" data-name="Path 89864" d="M3356.629,2989.044s0-8.617-.02-16.5c-2.415-.442-6.312-1.532-6.361-3.972-.071-3.537-.846-11.98,3.228-12.728-.526-.3-1.118-.605-1.784-.917-1.41.761-4.473,3.4-3.578,11.765-2.876,0-5.394-1.581-6.037-3.012-.624-1.39.116-10.5,2.452-11.342a7.565,7.565,0,0,0-2.021-.042c-1.017.979-2.414,3.586-2.39,10.518,0,.839-1.6,1.64-2.5,2.024-.019.645-.042,1.276-.078,1.882-.355,5.991.711,17.346.711,17.346C3345.235,2992.006,3356.629,2989.044,3356.629,2989.044Z" transform="translate(-3337.463 -2935.732)" fill="#b9bdc4"/>
                <path id="Path_89865" data-name="Path 89865" d="M3408.991,3039.826a15.08,15.08,0,0,1-4.478-1.455c.493,6.524,1.294,16.917,1.431,17.572.2.96,5.186,15.982,5.376,21.065.163,4.328.31,16.188.35,19.615a5.18,5.18,0,0,0,.94-.908c0-4.265.859-19.536.859-19.536l-4.458-20.565C3409.011,3053.4,3409.011,3046.359,3408.991,3039.826Z" transform="translate(-3389.844 -3003.011)" fill="#1d1d1b" opacity="0.25" style="mix-blend-mode: overlay;isolation: isolate"/>
                <g id="Group_34379" data-name="Group 34379" transform="translate(4.331)">
                  <path id="Path_89866" data-name="Path 89866" d="M3373.116,2943.15a8.166,8.166,0,0,0,4.845.918c-.013-.018,0,.051-.058-.191.115-.523.017-1.793.144-2.314.034-.139.089-.578.186-.987a1.983,1.983,0,0,0,.8-1.187.587.587,0,0,0,.009-.177,7.192,7.192,0,0,0-.944-.362,1.489,1.489,0,0,0-.189.168.494.494,0,0,0-.329.016,1.418,1.418,0,0,0-.337.229.967.967,0,0,0-.423.077.6.6,0,0,0-.59-.166.694.694,0,0,0-.708.4c-.059-.179-.128-.355-.206-.53,0,0,0-.008,0-.012a.482.482,0,0,0-.121-.238c-.024-.047-.043-.094-.07-.141a.362.362,0,0,0-.153-.15c-.125.01-.248.023-.37.039a.4.4,0,0,0-.129.146.534.534,0,0,0-.253.251.527.527,0,0,0-.376-.2c-.01-.006-.018-.013-.028-.019l-.042-.021a4.757,4.757,0,0,0-1.131.45.624.624,0,0,0,.015.461c.057.141-.131-.22-.215-.339l-.049.033c-.248.635-.5,1.547-.781,2.37A3.592,3.592,0,0,0,3373.116,2943.15Z" transform="translate(-3368.475 -2924.995)" fill="#f2b285"/>
                  <g id="Group_34363" data-name="Group 34363" transform="translate(4.133 13.478)">
                    <path id="Path_89867" data-name="Path 89867" d="M3381.768,2938.645a1.473,1.473,0,0,0-.314.252.5.5,0,0,0-.329.016,1.415,1.415,0,0,0-.337.229.968.968,0,0,0-.423.077.6.6,0,0,0-.59-.166.692.692,0,0,0-.708.4c-.059-.179-.129-.355-.206-.53,0,0,0-.008,0-.012a.481.481,0,0,0-.122-.238c-.024-.047-.043-.094-.069-.141a.366.366,0,0,0-.651.035.538.538,0,0,0-.253.251.527.527,0,0,0-.376-.2c-.01-.006-.018-.013-.028-.019-.548-.295-1.435.21-1.159.891.048.118.089.237.124.354a34.666,34.666,0,0,0,5.207,1.828c.019-.079.037-.158.057-.237.034-.138.089-.578.186-.987a1.982,1.982,0,0,0,.8-1.187A.558.558,0,0,0,3381.768,2938.645Z" transform="translate(-3376.15 -2938.351)" fill="#e09669"/>
                  </g>
                  <g id="Group_34378" data-name="Group 34378">
                    <g id="Group_34364" data-name="Group 34364" transform="translate(0.443 0.324)">
                      <ellipse id="Ellipse_699" data-name="Ellipse 699" cx="6.249" cy="6.93" rx="6.249" ry="6.93" transform="translate(0 3.41) rotate(-15.834)" fill="#f2b285"/>
                    </g>
                    <g id="Group_34365" data-name="Group 34365" transform="translate(4.718 11.081)">
                      <path id="Path_89868" data-name="Path 89868" d="M3384.106,2928.39a1.672,1.672,0,0,0-.6-.7,1.825,1.825,0,0,0-1.11-.288.96.96,0,0,0-.636.364.957.957,0,0,0,.171,1.342,1.044,1.044,0,0,0,.13.079.927.927,0,0,0,.083.135,1.084,1.084,0,0,0-.032.4.913.913,0,0,0,.047.192c-.061.118-.127.233-.193.347a4.394,4.394,0,0,1-.434.612c-.049.008-.1.014-.147.018a2.537,2.537,0,0,1-.355-.057c-.088-.028-.174-.06-.26-.093a.962.962,0,0,0-.19-.715.957.957,0,0,0-1.342-.175,1.125,1.125,0,0,0-.364.623,2.026,2.026,0,0,0,.152,1.345,2.2,2.2,0,0,0,1.087,1.074,2.72,2.72,0,0,0,2.875-.7,2.462,2.462,0,0,0,.181-.18.849.849,0,0,0,.176-.373,7.707,7.707,0,0,0,.674-1.187,2.234,2.234,0,0,0,.221-1.263A1.6,1.6,0,0,0,3384.106,2928.39Z" transform="translate(-3378.823 -2927.396)" fill="#e09669"/>
                    </g>
                    <g id="Group_34366" data-name="Group 34366" transform="translate(10.508 8.537)">
                      <path id="Path_89869" data-name="Path 89869" d="M3406.678,2915.9a.347.347,0,0,0-.482-.063.352.352,0,0,0-.062.482,1.629,1.629,0,0,1,.227.664,1.367,1.367,0,0,1,.007.316.586.586,0,0,1-.025.125l-.005.018a.086.086,0,0,0-.04-.009c-.054-.03-.031-.008-.082-.044a.54.54,0,0,1-.149-.164.682.682,0,0,1-.06-.55.346.346,0,0,0-.292-.389.352.352,0,0,0-.389.292,1.335,1.335,0,0,0,.2,1.066.954.954,0,0,0,1.05.442c.426-.146.5-.618.485-1.008A2.364,2.364,0,0,0,3406.678,2915.9Zm-.353,1.549.011,0C3406.3,2917.542,3406.328,2917.448,3406.325,2917.449Z" transform="translate(-3405.286 -2915.768)" fill="#e09669"/>
                    </g>
                    <g id="Group_34367" data-name="Group 34367" transform="translate(10.315 3.914)">
                      <path id="Path_89870" data-name="Path 89870" d="M3407.329,2895.372a7.191,7.191,0,0,0-.6-.737,1.942,1.942,0,0,0-.111.24,19.874,19.874,0,0,1-1.777,1.895l-.082.058a.335.335,0,0,0-.1.11l-.114.1a.347.347,0,0,0-.085.444.341.341,0,0,0,.427.146l.118-.058-.132.128a.355.355,0,0,0-.063.482.35.35,0,0,0,.482.063,4.685,4.685,0,0,0,1.356-1.492A4.323,4.323,0,0,0,3407.329,2895.372Z" transform="translate(-3404.407 -2894.635)" fill="#e09669"/>
                    </g>
                    <g id="Group_34368" data-name="Group 34368" transform="translate(0.319)">
                      <path id="Path_89871" data-name="Path 89871" d="M3371.889,2878.177a1.57,1.57,0,0,0-.677-.711c-.96-.853-2.577-1.106-3.336.115a3.461,3.461,0,0,0-2.14-.091,1.292,1.292,0,0,0-.658-.214,1.569,1.569,0,0,0-1.354.826c-.094.037-.191.073-.283.11a1.5,1.5,0,0,0-1.832.229,3.266,3.266,0,0,0-.585.963,4.712,4.712,0,0,0-1.942,1.957.957.957,0,0,0-.344.564,1.6,1.6,0,0,0,.2,1.036l.072.15c0,.07-.009.14-.007.211a5.443,5.443,0,0,0,.08,1.939,1.4,1.4,0,0,0,.13,1.466,4.752,4.752,0,0,0,.651.856,13.7,13.7,0,0,0,.85,1.624,3.009,3.009,0,0,0,.067.665,1.747,1.747,0,0,0,1.228,1.274c.947,1.415,2.446,2.209,3.878,1.537a1.177,1.177,0,0,0,1.494-1.368,2.68,2.68,0,0,0,.627-1.351,1.119,1.119,0,0,0-.261-1.78,1.58,1.58,0,0,1-.828-1.71,1.338,1.338,0,0,1,.051-.255,1.9,1.9,0,0,1,.03-.568.79.79,0,0,1,.752-.606.828.828,0,0,1,.469.088c.285.036.513.409.676.806.067.234.141.467.227.7a.791.791,0,0,0,1.521-.431,5.066,5.066,0,0,0-.616-1.586c-.078-.222-.162-.442-.229-.667a9.494,9.494,0,0,0-.354-1.251,5.687,5.687,0,0,0,2.145-2.2,2.24,2.24,0,0,0,.418-1.283A1.678,1.678,0,0,0,3371.889,2878.177Z" transform="translate(-3358.714 -2876.745)" fill="#201000"/>
                    </g>
                    <g id="Group_34369" data-name="Group 34369" transform="translate(0 0.316)">
                      <path id="Path_89872" data-name="Path 89872" d="M3369.142,2878.309a2.089,2.089,0,0,0-.87-.113,2.956,2.956,0,0,0-.646.139c-.191.054-.376.127-.564.189a2.588,2.588,0,0,1-.309.044,2.254,2.254,0,0,1-.241-.037,4.345,4.345,0,0,0-1.074-.264,3.327,3.327,0,0,0-1.481.255,1.155,1.155,0,0,0-.28,0,1.215,1.215,0,0,0-.879.607,3.637,3.637,0,0,1-.463.2l-.036.007a1.481,1.481,0,0,0-.672-.129,1.119,1.119,0,0,0-.769.042,1.314,1.314,0,0,0-.624.62q-.1.185-.2.368c-.142.132-.276.274-.408.41q-.271.28-.531.57c-.071.079-.141.16-.208.242a6.189,6.189,0,0,0-.693.389,2.211,2.211,0,0,0-.9,1.375,2.636,2.636,0,0,0,.2,1.511c.129.313.306.6.42.921.013.072.022.144.03.216a1.14,1.14,0,0,0-.5,1.1,1.252,1.252,0,0,0,.508.812c.009.051.018.1.03.152a3.693,3.693,0,0,0,.374,1.01,6.726,6.726,0,0,0,.616.92c.252.314.513.62.775.927a.931.931,0,0,0-.046.5,1.991,1.991,0,0,0,.308.758.858.858,0,0,0,.087.109,1.792,1.792,0,0,0,1.382.644,2.871,2.871,0,0,0,1.018.725,2.2,2.2,0,0,0,1.643,0,1.19,1.19,0,0,0,.444-.337,1.249,1.249,0,0,0,.143-.01,1.3,1.3,0,0,0,.834-.478,1.275,1.275,0,0,0,.252-.927c0-.029-.011-.057-.018-.084a1.379,1.379,0,0,0,.22-.739,1.252,1.252,0,0,0,.039-.505,2.079,2.079,0,0,0-.5-1.208,4.052,4.052,0,0,0-.387-.4.974.974,0,0,0-.006-.3l-.005-.03c0-.018.007-.037.01-.055l.014-.123a.949.949,0,0,0-.041-.5c0-.026-.01-.052-.017-.077l.051-.086a1.252,1.252,0,0,0,.09-.651c0-.06,0-.119,0-.179a.988.988,0,0,0,.13-.148,1.409,1.409,0,0,0,.256-.9,1.377,1.377,0,0,0,.059-.207l.01-.022.013-.017c.1-.041.192-.071.288-.107a1.867,1.867,0,0,0,.818-.6,1.293,1.293,0,0,0,.26-.719,1.664,1.664,0,0,0,.244-.283,3.135,3.135,0,0,0,.341-.667c.037-.1.073-.2.116-.3a1.561,1.561,0,0,1,.151-.114c.441-.23.907-.4,1.33-.673a2.355,2.355,0,0,0,1.077-1.726A1.946,1.946,0,0,0,3369.142,2878.309Zm-7.87,6.96-.018.052-.026-.024.046-.034Z" transform="translate(-3357.257 -2878.192)" fill="#391e07"/>
                    </g>
                    <g id="Group_34370" data-name="Group 34370" transform="translate(3.077 7.319)">
                      <path id="Path_89873" data-name="Path 89873" d="M3373.748,2912.9a2.042,2.042,0,0,1-.084-.191q-.013-.079-.02-.16c.006-.061.015-.122.026-.183s.041-.1.064-.152a1.819,1.819,0,0,1,.117-.147,1.166,1.166,0,1,0-1.845-1.427,3.017,3.017,0,0,0-.681,2.136,2.561,2.561,0,0,0,.249.984,8.607,8.607,0,0,0,.523.86c.024.049.047.1.067.148,0,.016,0,.031,0,.047s0,.06,0,.089a1.146,1.146,0,0,0,.229.627,1.166,1.166,0,0,0,1.636.213,1.151,1.151,0,0,0,.443-.759,2.4,2.4,0,0,0-.251-1.3C3374.085,2913.413,3373.911,2913.163,3373.748,2912.9Z" transform="translate(-3371.322 -2910.201)" fill="#201000"/>
                    </g>
                    <g id="Group_34371" data-name="Group 34371" transform="translate(3.196 2.241)">
                      <path id="Path_89874" data-name="Path 89874" d="M3378.163,2888.006a1.177,1.177,0,0,0-.443-.775l-.257-.151a1.162,1.162,0,0,0-.6-.083,10.825,10.825,0,0,0-2.8.424c-.943.26-2.07.714-2.186,1.842a1.228,1.228,0,0,0,.23.876,1.188,1.188,0,0,0,.759.443,1.223,1.223,0,0,0,1.261-.737,5.2,5.2,0,0,1,.69-.233,9.813,9.813,0,0,1,2.342-.3,1.162,1.162,0,0,0,.775-.443A1.183,1.183,0,0,0,3378.163,2888.006Z" transform="translate(-3371.864 -2886.988)" fill="#201000"/>
                    </g>
                    <g id="Group_34372" data-name="Group 34372" transform="translate(10.314 1.189)">
                      <path id="Path_89875" data-name="Path 89875" d="M3406.215,2882.784a.688.688,0,0,0-1.365.174c.027.122.053.246.069.37.007.057.011.113.016.17,0,.021,0,.041-.005.061s-.006.041-.01.061-.011.027-.017.041l-.024.031-.009.007c-.037.025-.216.128-.041.036a.7.7,0,0,0-.37.9.7.7,0,0,0,.9.369,1.665,1.665,0,0,0,.907-1.118A2.54,2.54,0,0,0,3406.215,2882.784Z" transform="translate(-3404.403 -2882.18)" fill="#201000"/>
                    </g>
                    <g id="Group_34375" data-name="Group 34375" transform="translate(2.095 0.836)">
                      <g id="Group_34373" data-name="Group 34373" transform="translate(2.123 8.548)">
                        <path id="Path_89876" data-name="Path 89876" d="M3376.536,2919.637Z" transform="translate(-3376.536 -2919.637)" fill="#391e07"/>
                      </g>
                      <g id="Group_34374" data-name="Group 34374">
                        <path id="Path_89877" data-name="Path 89877" d="M3376.152,2880.994a.7.7,0,0,0-.9-.369.7.7,0,0,0-.369.9,1.853,1.853,0,0,1,.083.175c0,.01.014.031.024.054,0,.005,0,.021.01.047s.012.063.016.1.008.094.014.142c0,.021,0,.041,0,.062,0,.048-.012.1-.021.144l-.011.048,0,.014c-.022.05-.04.1-.063.151l-.013.028c-.028.04-.055.08-.086.118,0,.006-.03.038-.054.067l-.019.017-.051.043c-.04.033-.083.061-.124.092l-.017.01c-.029.015-.058.028-.087.041.074-.15.146-.3.216-.455a.694.694,0,0,0-.364-.9.748.748,0,0,0-.273-.049.7.7,0,0,0-.751.111.593.593,0,0,0-.063-.056.664.664,0,0,0-.127-.077.691.691,0,0,0-1.372-.041l-.007.018c-.015.04-.032.08-.051.119l-.01.021c-.028.04-.056.08-.087.118s-.053.057-.079.086l-.026.023c-.072.062-.17.107-.239.171l-.032.016q-.059.029-.12.055c-.055.023-.111.044-.168.063l-.07.021a5.445,5.445,0,0,1-.758.1,6.009,6.009,0,0,0-1.609.14,2.039,2.039,0,0,0-1.062.872,5.372,5.372,0,0,0-.579,1.483.687.687,0,0,0,.136.517.674.674,0,0,0,.885.172,1.163,1.163,0,0,0,.172.336.623.623,0,0,0,.1.1.7.7,0,0,0,.225.787.743.743,0,0,0,.283.123,2.492,2.492,0,0,0-.4.394,3.083,3.083,0,0,0-.624,1.43,7.307,7.307,0,0,0,.708,3.507c.05.144.1.289.14.434l.032.109c.02.087.039.16.054.234a4.411,4.411,0,0,1,.073.472c.007.074.011.149.015.224,0,.017,0,.029,0,.038,0,.039,0,.077-.007.115a.688.688,0,0,0,1.362.195c.008-.135.01-.268.005-.4a.626.626,0,0,0,.1.088.7.7,0,0,0,.965-.123,2.582,2.582,0,0,0,.434-1.708,6.107,6.107,0,0,0-.439-1.653c-.051-.14-.1-.28-.147-.422-.019-.058-.036-.118-.054-.176-.006-.025-.012-.05-.018-.075a2.937,2.937,0,0,1-.062-.385,1.25,1.25,0,0,0,0-.157c0-.013,0-.027,0-.041a2.622,2.622,0,0,1,.043-.292l0-.013.005-.017c.018-.052.038-.1.061-.153l.016-.033a1.063,1.063,0,0,0,.086-.124l.022-.025c.042-.032.082-.065.125-.095a.685.685,0,0,0-.739-1.148c0-.022,0-.043-.008-.066a.7.7,0,0,0-.77-.595l-.067.016a3.3,3.3,0,0,1,.5-.2l.138-.031q.136-.028.274-.049c.19-.03.381-.051.572-.074a3.65,3.65,0,0,0,2.416-1.019.565.565,0,0,0,.135-.292,1.255,1.255,0,0,0,.66-.417.8.8,0,0,0,.531,0A2.3,2.3,0,0,0,3376.152,2880.994Zm-6.522,9.163c.089.285.2.563.3.845.043.124.082.248.121.372l0,.012c0,.013.007.027.01.041.014.06.026.12.037.181a2.9,2.9,0,0,1,.042.367c0,.017,0,.034,0,.052,0,.058-.007.116-.015.174s-.02.112-.03.169c-.005.016-.01.033-.017.049-.02.053-.044.1-.067.153-.011.016-.021.033-.033.049a.743.743,0,0,0-.061.1c-.039-.211-.09-.423-.15-.636-.147-.521-.351-1.022-.525-1.534q-.06-.176-.114-.353l-.032-.109c-.007-.023-.01-.1-.006-.021s-.005-.022-.011-.048-.018-.073-.026-.11a4.207,4.207,0,0,1-.1-.779c0-.03-.026-.132,0-.048l.007.026a.186.186,0,0,1-.005-.046c0-.059.007-.118.013-.176a2.748,2.748,0,0,1,.054-.308c.017-.05.033-.1.052-.145a2.961,2.961,0,0,0,.137-.287l.022-.035c.032-.046.066-.092.1-.136s.062-.066.091-.1l.032-.029c.042-.036.086-.069.131-.1l.029-.019.084-.039a2.569,2.569,0,0,0-.254.748A3.616,3.616,0,0,0,3369.63,2890.157Zm2.534-7-.013.013-.026.026c-.045.042-.09.083-.137.122a3.106,3.106,0,0,1-.254.195c-.029.02-.119.1-.154.1q.133-.076.035-.022l-.082.042a3.5,3.5,0,0,1-.377.149l-.026.008-.035.008c-.063.014-.126.027-.189.038-.205.035-.412.056-.619.071a2.367,2.367,0,0,0-1.543-.136l.027-.023a1.212,1.212,0,0,0,.106-.069c.029-.013.171-.051.118-.046.035-.006.07-.013.105-.018.5-.071,1.009,0,1.51-.062a3.408,3.408,0,0,0,1.534-.538,2.235,2.235,0,0,0,.208-.159c.013.014.026.028.041.042C3372.32,2882.985,3372.242,2883.07,3372.164,2883.157Zm2.849-1.319c-.011-.042-.018-.068-.021-.08A.156.156,0,0,1,3375.013,2881.838Z" transform="translate(-3366.833 -2880.567)" fill="#391e07"/>
                      </g>
                    </g>
                    <g id="Group_34376" data-name="Group 34376" transform="translate(1.774 5.561)">
                      <path id="Path_89878" data-name="Path 89878" d="M3373.825,2902.3a.482.482,0,0,0-.628-.044c-.693.479-1.38.954-2.078,1.4q-1.878.717-3.812,1.272c-.531.152-.987.273-1.519.406a.491.491,0,0,0-.414.535.525.525,0,0,0,.106.236.519.519,0,0,0,.119.217.409.409,0,0,0-.011.192.483.483,0,0,0,.535.414l.2-.046a.463.463,0,0,0,.508.32c1.027-.271,2.1-.186,3.138-.382a3.779,3.779,0,0,0,2.4-1.312.492.492,0,0,0-.224-.751,9.276,9.276,0,0,0,1.184-1.031.415.415,0,0,0,.1-.317q.231-.232.441-.483A.478.478,0,0,0,3373.825,2902.3Z" transform="translate(-3365.367 -2902.165)" fill="#201000"/>
                    </g>
                    <g id="Group_34377" data-name="Group 34377" transform="translate(1.174 4.555)">
                      <path id="Path_89879" data-name="Path 89879" d="M3372.1,2897.6a.409.409,0,0,0-.53.213c-.029.074-.054.148-.077.224a.491.491,0,0,0-.151.255,2.815,2.815,0,0,1-.087.283c-1.581,1.895-4,2.782-6.357,3.308a8.856,8.856,0,0,1-1,.194l-.088.007c-.01,0-.088,0-.086,0a1.24,1.24,0,0,1-.173-.016.424.424,0,0,1-.277-.132.4.4,0,0,0-.494.639,1.188,1.188,0,0,0,.153.112.427.427,0,0,0-.109.241.488.488,0,0,0,.406.541c.455.069.911.135,1.366.208l.133.022s.078.019.085.019l.1.036.021.008.025.018.024.016.021.023c.049.052.1.105.151.153a.854.854,0,0,0,.3.183,1.422,1.422,0,0,0,.661.036.6.6,0,0,0,.117.045c-.043-.012.037.035.02.018a.606.606,0,0,0,.059.05.628.628,0,0,1,.112.188,4.072,4.072,0,0,1,.172.569q.165.643.284,1.3a.413.413,0,0,0,.452.35.408.408,0,0,0,.35-.452q-.03-.157-.061-.315a.424.424,0,0,0,.015-.161,6.086,6.086,0,0,0-.483-1.844,10.894,10.894,0,0,0,1.062-.362.5.5,0,0,0,.295-.459,2.905,2.905,0,0,0,.656-.416c.389-.327.734-.711,1.091-1.072l1.256-1.27a.342.342,0,0,0,.079-.132,2.091,2.091,0,0,0,.228-.367c.267-.546.281-1.17.5-1.731A.411.411,0,0,0,3372.1,2897.6Z" transform="translate(-3362.624 -2897.566)" fill="#391e07"/>
                    </g>
                  </g>
                  <path id="Path_89880" data-name="Path 89880" d="M3377.712,2949.916l-.207-.023a2.068,2.068,0,0,1-.508.043,9.573,9.573,0,0,1-2.045-.371,19.7,19.7,0,0,1-1.921-.754,2.752,2.752,0,0,1-.369-.261l-.1-.045a1.769,1.769,0,0,1-.239-.125c-.042-.026-.081-.055-.12-.085l-.24-.18c-.111.355-.226.722-.346,1.073a3.591,3.591,0,0,0,1.5,1.469,8.166,8.166,0,0,0,4.845.918c-.013-.018,0,.051-.058-.191a9.978,9.978,0,0,0,.072-1.451C3377.888,2949.928,3377.8,2949.925,3377.712,2949.916Z" transform="translate(-3368.475 -2932.501)" fill="#f2b285"/>
                </g>
              </g>
            </g>
            <path id="Path_89881" data-name="Path 89881" d="M3346.56,2966.443c1.51-3.9,3.222-1.8,5.32-.731s5.152.914,5.355,4.188.128,8.2.308,10.892c.128,1.924.265,6.442.135,9.743a3.954,3.954,0,0,1-4.552,3.752l-3.8-1.6a3.955,3.955,0,0,1-3.351-3.77C3345.747,2982.5,3345.408,2969.416,3346.56,2966.443Z" transform="translate(-3341.577 -2945.053)" fill="#fff" opacity="0.2" style="mix-blend-mode: overlay;isolation: isolate"/>
          </g>
          <g id="Group_34383" data-name="Group 34383" transform="translate(8.382 54.64)" opacity="0.25" style="mix-blend-mode: overlay;isolation: isolate">
            <path id="Path_89882" data-name="Path 89882" d="M3365.321,3161.059l.167,1.271a3.588,3.588,0,0,0,1.977-1.271c0-5.686.135-20.969.135-20.969l.965-11.832-3.558-1.758Z" transform="translate(-3365.007 -3126.501)" fill="#1d1d1b"/>
          </g>
        </g>
        <g id="Group_34387" data-name="Group 34387" transform="translate(15.79 19.856)">
          <path id="Path_89883" data-name="Path 89883" d="M3402.735,2977.783a2.264,2.264,0,0,1,2.83-1.748c2.448.425,3.518,3.343,3.042,8.894s-.253,10.483-.6,10.907-1.119,5.7-3.7,1.053C3403.837,2991.806,3402.574,2983.578,3402.735,2977.783Z" transform="translate(-3401.878 -2974.125)" fill="#f7ba8b"/>
          <g id="Group_34386" data-name="Group 34386" transform="translate(3.014 14.036)">
            <g id="Group_34385" data-name="Group 34385" transform="translate(12.077)">
              <path id="Path_89884" data-name="Path 89884" d="M3467.847,3044.993l2.53-.939,1.066,1.742-3.129,1.312Z" transform="translate(-3467.847 -3041.343)" fill="#f7ba8b"/>
              <path id="Path_89885" data-name="Path 89885" d="M3477.981,3036.245a2.3,2.3,0,0,0,2.286.446c1.5-.4,3.437-1.155,3.493-2.129s.773-1.271-.9-2.47a1.992,1.992,0,0,0-2.857.485s.308-1.574-1.112-.3S3477.141,3033.629,3477.981,3036.245Z" transform="translate(-3475.407 -3031.661)" fill="#f7ba8b"/>
            </g>
            <path id="Path_89886" data-name="Path 89886" d="M3413.308,3049.481l12.655-3.241s2.7.834.392,2.087c-3.354,1.82-12.273,5.351-12.273,5.351S3411.451,3050.732,3413.308,3049.481Z" transform="translate(-3412.645 -3043.05)" fill="#f7ba8b"/>
            <path id="Path_89887" data-name="Path 89887" d="M3452.013,3039.876c.038-.646.365-.994.092-1.5a5.38,5.38,0,0,1-1.468,1.933,2.955,2.955,0,0,1-1.125.468,20.776,20.776,0,0,1-3.072.206c-.716,0-6.325,2.974-7.68,3.789-.478.287-1.174.734-1.875,1.193,2.836-1.175,6.511-2.751,8.407-3.78l1.185-.5a2.451,2.451,0,0,0,2.043.25C3450.022,3041.529,3451.957,3040.849,3452.013,3039.876Z" transform="translate(-3431.581 -3036.903)" fill="#1d1d1b" opacity="0.25" style="mix-blend-mode: overlay;isolation: isolate"/>
          </g>
          <path id="Path_89888" data-name="Path 89888" d="M3406.251,2986.277c.045-.456.088-.914.128-1.374.476-5.551-1.377-8.443-3.825-8.868a2.264,2.264,0,0,0-2.83,1.748,24.115,24.115,0,0,0-.836,8.047C3401.206,2988.26,3406.251,2986.277,3406.251,2986.277Z" transform="translate(-3398.867 -2974.125)" fill="#a3a3ae"/>
          <path id="Path_89889" data-name="Path 89889" d="M3408.507,2967.5c1.264.951,3.271,2.743,3.737,4.821.694,3.087,0,9.528,0,9.528s-.807,5.87-.113,6.172c.428.186,2.643-.759,4.205-1.657l-3.6.923c.058-1.713.077-4.392.272-7.377.48-.142.776-.257.776-.257q.067-.684.128-1.374c.323-3.773-.43-6.316-1.713-7.693A8.953,8.953,0,0,0,3408.507,2967.5Z" transform="translate(-3406.398 -2967.504)" fill="#1d1d1b" opacity="0.25" style="mix-blend-mode: overlay;isolation: isolate"/>
        </g>
        <path id="Path_89890" data-name="Path 89890" d="M3407.614,2979.831a4.835,4.835,0,0,0-1.707,3.875c-.015,2.677.186,4.385.706,1.939s1.376-4.568,1.349-5.03S3408.609,2979.544,3407.614,2979.831Z" transform="translate(-3388.576 -2957.221)" fill="#fff" opacity="0.2" style="mix-blend-mode: overlay;isolation: isolate"/>
      </g>
      <g id="Group_34389" data-name="Group 34389" transform="translate(84.012 78.759)" opacity="0.1" style="mix-blend-mode: multiply;isolation: isolate">
        <ellipse id="Ellipse_700" data-name="Ellipse 700" cx="15.38" cy="8.701" rx="15.38" ry="8.701" transform="matrix(0.993, -0.121, 0.121, 0.993, 0, 3.721)" fill="#186dd7"/>
      </g>
    </g>
  </g>
</svg>
