<svg xmlns="http://www.w3.org/2000/svg" xmlns:xlink="http://www.w3.org/1999/xlink" width="501.628" height="306.179" viewBox="0 0 501.628 306.179">
  <defs>
    <filter id="Path_87717" x="0" y="0" width="501.628" height="306.179" filterUnits="userSpaceOnUse">
      <feOffset dx="36.595" dy="36.595" input="SourceAlpha"/>
      <feGaussianBlur stdDeviation="18.298" result="blur"/>
      <feFlood flood-opacity="0.302"/>
      <feComposite operator="in" in2="blur"/>
      <feComposite in="SourceGraphic"/>
    </filter>
  </defs>
  <g id="Component_4_1" data-name="Component 4 – 1" transform="translate(0.855 6.068)">
    <path id="Rectangle_8552" data-name="Rectangle 8552" d="M0,0H0A25.493,25.493,0,0,1,25.493,25.493V73.236A25.493,25.493,0,0,1,0,98.729H0a0,0,0,0,1,0,0V0A0,0,0,0,1,0,0Z" transform="translate(393.797 61.062)" fill="#fea702"/>
    <rect id="Rectangle_8553" data-name="Rectangle 8553" width="220.634" height="309.526" rx="37" transform="matrix(-0.001, 1, -1, -0.001, 309.683, 0.22)" fill="#325c92"/>
    <g transform="matrix(1, 0, 0, 1, -0.86, -6.07)" filter="url(#Path_87717)">
      <path id="Path_87717-2" data-name="Path 87717" d="M149.3,747.262a32.163,32.163,0,0,1,32.18-32.14l328.975.167a30.614,30.614,0,0,1,30.592,30.635l-.1,135a30.614,30.614,0,0,1-30.636,30.592l-330.87-.168A30.256,30.256,0,0,1,149.2,881.07Z" transform="translate(-130.9 -696.82)" fill="#fff"/>
    </g>
    <path id="Path_87719" data-name="Path 87719" d="M144.405,886.473H122.729L111.89,905.245l10.838,18.772h21.677l10.838-18.772Z" transform="translate(272.977 -794.819)" fill="#fea702"/>
    <g id="Group_36038" data-name="Group 36038" transform="translate(-94.041 18.909)">
      <path id="Path_94847" data-name="Path 94847" d="M156.973,115.122c-1.637.025-6.551-2.01-9.38-3.772a5.675,5.675,0,0,1-2.01-1.75,11.35,11.35,0,0,1,.93-4.926l.348-3.2.112-1.042h7.308l-.161,2.109-.2,2.532s1.353,2.319,5.832,5.435C161.08,111.425,161.192,115.122,156.973,115.122Z" transform="translate(1.103 21.107)"/>
      <path id="Path_94848" data-name="Path 94848" d="M158.145,92.133l-.462,4.234a11.412,11.412,0,0,0-.923,4.926c.712,1.713,9.141,5.569,11.392,5.523,4.214,0,4.1-3.695,2.77-4.619-4.475-3.113-5.83-5.426-5.83-5.426l.365-4.637Z" transform="translate(3.811 19.096)"/>
      <g id="Group_36024" data-name="Group 36024" transform="translate(157.586 67.322)">
        <path id="Path_94849" data-name="Path 94849" d="M164.962,56.789,166.9,75.613c.1,3.723.236,7.541.332,11.117.022.964.045,1.917.063,2.84.01.555.019,1.1.027,1.631.015,1.012.017,1.984.019,2.913v0a38.423,38.423,0,0,1-.642,8.459c-.612,2.291-9.809,2.281-10.152-1.061-.134-2.129-.268-4.259-.373-6.348-.043-.873-.086-1.739-.118-2.593-.024-.647-.047-1.289-.066-1.919q-.035-1.282-.042-2.517a46.589,46.589,0,0,1,.938-10.861,66.882,66.882,0,0,1-2.527-17.7Z" transform="translate(-154.357 -56.789)" fill="#1e2e4d"/>
      </g>
      <path id="Path_94850" data-name="Path 94850" d="M167.828,60.988c-.513,3.591-3.177,5.411-6.573,6.559l-2.895,19.741c-.281,3.786-.55,7.683-.819,11.323-.086.99-.159,1.955-.232,2.9-.048.562-.1,1.112-.147,1.661-.086,1.026-.2,2.016-.281,2.957-.207,1.918-.427,3.64-.683,5.093a19.046,19.046,0,0,1-.856,3.434,2.084,2.084,0,0,1-1.564,1.026,11.174,11.174,0,0,1-5.533-.355,7.193,7.193,0,0,1-1.612-.7,2.594,2.594,0,0,1-1.491-2.113c.086-2.174.171-4.349.281-6.487.05-.892.1-1.771.159-2.639.037-.66.086-1.319.134-1.954q.093-1.319.22-2.565a47.442,47.442,0,0,1,2.077-10.933c-1.087-6.352-.586-13.181-.012-19a22.208,22.208,0,0,1-.463-11.605l.293-.073,3.309-.83,16.174-4.056.318-.086C167.767,55.148,167.669,57.69,167.828,60.988Z" transform="translate(0.996 9.443)" fill="#29406a"/>
      <path id="Path_94851" data-name="Path 94851" d="M177.006,53.037a1.824,1.824,0,0,1-1.929.486c-4.155-1.4-8.2-1.3-11.318-3.883a11.51,11.51,0,0,1-3.257-4.707c-1.417-5.095-1.83-8.029-2.984-15.251-1.442-8.409,6.867-8.607,9.357-.989.957,3.05,1.3,8.953,1.863,14.6,3.841,2.3,4.4,3.267,9.408,5.947A4.449,4.449,0,0,1,177.006,53.037Z" transform="translate(3.954 2.388)" fill="#516a96"/>
      <path id="Path_94852" data-name="Path 94852" d="M175.863,51.049a1.824,1.824,0,0,1-1.929.486c-4.155-1.4-8.2-1.3-11.318-3.883q.073-8.087-.544-16.157c.774,2.49,1.706-1.79,2.49.683.247.8,1.41,13.727,1.574,14.634C168.443,47.066,174.264,49.095,175.863,51.049Z" transform="translate(5.098 4.376)" fill="#1d1d1b" opacity="0.3"/>
      <path id="Path_94853" data-name="Path 94853" d="M172.452,45.264l1.8-1.109a19.1,19.1,0,0,1,2.984.222c1.656,1.169,3.118,2.554,2.446,4.811,0,0-1.889,1.232-2.124,1.358-.617.33-4.327-.6-4.972-2.071C172.579,48.252,172.452,45.264,172.452,45.264Z" transform="translate(7.613 7.472)" fill="#ffbb7d"/>
      <g id="Group_36025" data-name="Group 36025" transform="translate(145.616 25.655)">
        <path id="Path_94854" data-name="Path 94854" d="M168.463,50.315c-.034.594-.066,1.154-.1,1.691-.007.173-.016.338-.032.494-.181,2.63-.338,4.451-.371,4.815a.519.519,0,0,0-.007.066,1.164,1.164,0,0,1-.009.132.3.3,0,0,1-.009.123.4.4,0,0,1-.016.1c0,.032-.009.075-.009.116a3.665,3.665,0,0,1-.363,1.113,3.573,3.573,0,0,1-.363.593,6.909,6.909,0,0,1-1.409,1.41c-3.273,2.539-9.506,4-13.711,4.073a13.527,13.527,0,0,1-2.25-.116,6.455,6.455,0,0,1-2-.5c-1.122-.717-1.138-2.1-1.419-4.337-.025-.173-.041-.322-.057-.453-.107-1-.206-1.97-.306-2.909-.066-.627-.123-1.245-.189-1.839-.083-.9-.174-1.773-.247-2.614q-.3-3.363-.487-6.117c-.025-.363-.05-.725-.075-1.08-.272-4.147-.345-7.189-.313-9.218.009-.288.017-.56.025-.807v-.016c.009-.544.05-.99.082-1.353a24.777,24.777,0,0,1,3-2.893,61.239,61.239,0,0,1,6.357-4.567,45.225,45.225,0,0,1,5.96-2.267,12.673,12.673,0,0,1,4.666-.668C169.271,23.811,169.007,40.48,168.463,50.315Z" transform="translate(-144.721 -23.248)" fill="#29406a"/>
      </g>
      <path id="Path_94855" data-name="Path 94855" d="M168.364,49.7c-.007.173-.016.338-.032.494-.19,3.256-.338,4.543-.371,4.815a.519.519,0,0,0-.007.066,1.164,1.164,0,0,1-.009.132c-.009.057-.016.132-.025.222,0,.032-.009.075-.009.116-.082.882-.263,2.745-.3,3.091v.017a.076.076,0,0,0-.009.032c-.61,0-1.211-.007-1.821-.025a44.328,44.328,0,0,1-5.186-.4,27.65,27.65,0,0,1-6.233-1.6c-1.327-.519-3.784-1.113-4,.932a6.947,6.947,0,0,0,.9,3.66c.263.528.544,1.022.807,1.485a12.271,12.271,0,0,0,1.2,1.887,10.206,10.206,0,0,0-1.534,5.409,90,90,0,0,0,.5,18.771,10.183,10.183,0,0,1,.132,2.062,9.051,9.051,0,0,1-.848,2.868c-1.9,4.666-3.709,9.513-3.644,14.535.025,1.771.272,3.528.429,5.292.107,1.22.189,2.44.214,3.661q.026.84,0,1.681a50.593,50.593,0,0,1-.873,8.846,5.513,5.513,0,0,1-1.938-1.689,10.887,10.887,0,0,1,.9-4.749l.338-3.083a3.67,3.67,0,0,1-.85-.676c-.075-.082-.148-.165-.214-.247a1.847,1.847,0,0,1-.4-1.147c.041-1.063.089-2.134.132-3.19s.091-2.118.148-3.165c.05-.873.091-1.732.157-2.589.009-.091.009-.173.016-.263.034-.553.075-1.1.116-1.648.058-.858.133-1.7.215-2.507a46.324,46.324,0,0,1,2.036-10.708c-.066-.371-.123-.75-.173-1.129-.091-.6-.157-1.212-.222-1.814-.067-.718-.124-1.435-.158-2.16a89.8,89.8,0,0,1,.537-13.5c-.041-.14-.091-.3-.132-.471a45,45,0,0,1-.85-5.639,22.434,22.434,0,0,1,.528-5.251c-1.122-.717-1.138-2.1-1.419-4.337-.025-.173-.041-.322-.057-.453-.107-1-.206-1.97-.306-2.909-.066-.627-.123-1.245-.189-1.839-.083-.9-.174-1.773-.247-2.614q-.3-3.363-.487-6.117c-.025-.363-.05-.725-.075-1.08-.272-4.147-.345-7.189-.313-9.218.009-.288.017-.56.025-.807a25.119,25.119,0,0,0,1.344,5.672c1.83-1.006,5.144-1.426,6.983-2.424a44.026,44.026,0,0,0,5.829,9.407,10.816,10.816,0,0,0,4.27,2.572C164.786,48.335,166.749,49.333,168.364,49.7Z" transform="translate(0.894 4.708)" fill="#1d1d1b" opacity="0.3"/>
      <path id="Path_94856" data-name="Path 94856" d="M144.379,39.694c2.144,6.729,3.691,8.749,6.416,13.287.357.461.7.794,1.029,1.2l5.286-5.635c-2.012-5.229-2.676-10.605-4.384-13.25C148.3,28.614,141.368,30.238,144.379,39.694Z" transform="translate(0.633 4.342)" fill="#516a96"/>
      <g id="Group_36034" data-name="Group 36034" transform="translate(141.03 52.412)">
        <g id="Group_36026" data-name="Group 36026" transform="translate(46.761 11.761)">
          <path id="Path_94857" data-name="Path 94857" d="M208.814,68.744v26.92H196.56V68.744a4.985,4.985,0,0,0-.4-2.242,4.96,4.96,0,0,0-2.14.783l-6.173,3.562-1.914,1.1-1.14.66-.1-.179L182.534,68.7l-3.723-6.457-.14-.245,1.13-.651,1.9-1.1L187.9,56.67c5.032-2.9,10.282-3.205,14.412-.82S208.814,62.939,208.814,68.744Z" transform="translate(-178.671 -54.255)" fill="#dadada"/>
          <path id="Path_94858" data-name="Path 94858" d="M205.3,88.275a3.032,3.032,0,0,1-1.791,2.5,9.54,9.54,0,0,1-6.033.894,7.921,7.921,0,0,1-2.61-.894,2.631,2.631,0,0,1,0-4.987,7.75,7.75,0,0,1,2.5-.867,9.447,9.447,0,0,1,6.146.867A3.019,3.019,0,0,1,205.3,88.275Z" transform="translate(-175.18 -46.865)" fill="#dadada"/>
        </g>
        <rect id="Rectangle_8680" data-name="Rectangle 8680" width="1.885" height="6.59" transform="matrix(0.542, -0.841, 0.841, 0.542, 29.727, 4.663)" fill="#e0592e"/>
        <rect id="Rectangle_8681" data-name="Rectangle 8681" width="7.353" height="1.885" transform="matrix(0.843, -0.538, 0.538, 0.843, 38.003, 6.646)" fill="#e0592e"/>
        <g id="Group_36027" data-name="Group 36027" transform="translate(36.919 14.914)">
          <path id="Path_94859" data-name="Path 94859" d="M189.573,73.05a8.378,8.378,0,0,1-.687,3.526,4.623,4.623,0,0,1-1.867,2.111l-1.9,1.1-.01-.009-.622-1.076-4.741-8.219-1.565-2.7-.725-1.263-1.075-1.857-.97-1.7-.283-.491-.358-.6-.152-.265-.5-.867-.489-.848-.17-.3-.142-.235-.179-.321-.047-.076-.282-.481v-.01l.329-.188.273-.16.848-.491.15-.084.3-.17c1.574-.914,3.752-.781,6.155.6a14.061,14.061,0,0,1,2.262,1.65,20.086,20.086,0,0,1,4.646,6.277,19.165,19.165,0,0,1,1.5,4.326A14.025,14.025,0,0,1,189.573,73.05Z" transform="translate(-170.251 -56.792)" fill="#ededed"/>
          <path id="Path_94860" data-name="Path 94860" d="M188.158,73.938c0,2.78-.97,4.732-2.554,5.628a4.628,4.628,0,0,1-3.252.489,8.5,8.5,0,0,1-2.893-1.093,16.937,16.937,0,0,1-5.344-5.194A20.5,20.5,0,0,1,172.39,70.7a18.157,18.157,0,0,1-1.414-4.393c-.029-.16-.057-.321-.076-.481a12.018,12.018,0,0,1-.142-1.611c-.01-.1-.01-.217-.01-.321a9.584,9.584,0,0,1,.2-2.017,1.636,1.636,0,0,1,.047-.216c.019-.086.047-.18.066-.265,0-.01,0-.01.009-.019a3.926,3.926,0,0,1,.152-.471,6.23,6.23,0,0,1,.282-.67,4.556,4.556,0,0,1,.717-1.075,2.676,2.676,0,0,1,.32-.339.655.655,0,0,1,.084-.076,4.033,4.033,0,0,1,.68-.481,1.944,1.944,0,0,1,.339-.179,1.6,1.6,0,0,1,.263-.113,4.353,4.353,0,0,1,1.376-.273,1.173,1.173,0,0,1,.255-.019,7.849,7.849,0,0,1,3.921,1.188,14.128,14.128,0,0,1,2.262,1.649,20.085,20.085,0,0,1,4.647,6.269,19.525,19.525,0,0,1,1.488,4.336A13.874,13.874,0,0,1,188.158,73.938Z" transform="translate(-170.749 -56.577)" fill="#9d9d9c"/>
        </g>
        <g id="Group_36028" data-name="Group 36028" transform="translate(21.253 17.433)">
          <path id="Path_94861" data-name="Path 94861" d="M189.419,73.464a7.52,7.52,0,0,1-.612,3.167,6.844,6.844,0,0,1-1.216,1.583,3.718,3.718,0,0,1-.471.322l-2.159,1.244-11.254,6.495-1.9,1.1-.632.359-.1.066v-.01l-3.242-5.6-1.574-2.733-2.9-5.014-3.365-5.825v-.01l.462-.263,1.913-1.1,3.865-2.234.282-.16,1.528-.877,2.121-1.235,1.724-.99.641-.366.452-.265.094-.056.764-.434,1.753-1.019.358-.2c.01-.01.02-.019.029-.019l.076-.047a1.541,1.541,0,0,1,.255-.123.941.941,0,0,1,.263-.123,4.3,4.3,0,0,1,1.763-.273h.029a6.8,6.8,0,0,1,2.827.858,3.921,3.921,0,0,1,.4.207,12.731,12.731,0,0,1,1.762,1.244,18.191,18.191,0,0,1,4.524,6,16.811,16.811,0,0,1,1.358,4.185A11.994,11.994,0,0,1,189.419,73.464Z" transform="translate(-157.691 -58.82)" fill="#c6c6c6"/>
          <path id="Path_94862" data-name="Path 94862" d="M158.138,71.875c0-5,3.508-7.021,7.836-4.524a17.323,17.323,0,0,1,7.835,13.572c0,5-3.508,7.021-7.835,4.523A17.317,17.317,0,0,1,158.138,71.875Z" transform="translate(-158.138 -57.013)" fill="#9d9d9c"/>
        </g>
        <g id="Group_36029" data-name="Group 36029" transform="translate(29.785 15.283)">
          <rect id="Rectangle_8682" data-name="Rectangle 8682" width="15.386" height="4.914" transform="translate(0 4.442)" fill="#706f6f"/>
          <path id="Path_94863" data-name="Path 94863" d="M178.139,62.346c3,1.734,3,4.547,0,6.281a12.019,12.019,0,0,1-10.88,0c-3-1.734-3-4.547,0-6.281A12.026,12.026,0,0,1,178.139,62.346Z" transform="translate(-165.006 -56.131)" fill="#706f6f"/>
          <path id="Path_94864" data-name="Path 94864" d="M178.139,58.39c3,1.735,3,4.547,0,6.282a12.026,12.026,0,0,1-10.88,0c-3-1.735-3-4.547,0-6.282A12.026,12.026,0,0,1,178.139,58.39Z" transform="translate(-165.006 -57.089)" fill="#dadada"/>
        </g>
        <g id="Group_36030" data-name="Group 36030" transform="translate(18.371 25.794)">
          <path id="Path_94865" data-name="Path 94865" d="M174.634,81.814a8.9,8.9,0,0,1-.415,2.829,6.662,6.662,0,0,1-.263.688,4.606,4.606,0,0,1-1.867,2.121l-1.753,1.009c-.056.027-.113.066-.16.084l-1.083-1.876-2.008-3.478-.01-.019-2.4-4.147-3.7-6.419-.009-.019-2.131-3.7-.962-1.658,1.913-1.1a4.727,4.727,0,0,1,3.092-.518,8.641,8.641,0,0,1,3.063,1.13,18.464,18.464,0,0,1,6.8,7.682A17.21,17.21,0,0,1,174.634,81.814Z" transform="translate(-155.322 -65.551)" fill="#dadada"/>
          <path id="Path_94866" data-name="Path 94866" d="M173.226,82.7a9.178,9.178,0,0,1-.348,2.611,1.7,1.7,0,0,1-.066.216,4.967,4.967,0,0,1-1.98,2.716c-.056.027-.113.066-.16.084-1.574.914-3.752.783-6.154-.6a14.2,14.2,0,0,1-2.272-1.658,19.476,19.476,0,0,1-3.214-3.76,20.05,20.05,0,0,1-2.913-6.854,13.843,13.843,0,0,1-.3-2.808c0-2.772.97-4.723,2.544-5.628a4.737,4.737,0,0,1,3.092-.518.449.449,0,0,1,.1.009,8.947,8.947,0,0,1,2.96,1.113,18.4,18.4,0,0,1,6.787,7.691A16.978,16.978,0,0,1,173.226,82.7Z" transform="translate(-155.818 -65.336)" fill="#9d9d9c"/>
        </g>
        <g id="Group_36031" data-name="Group 36031" transform="translate(33.037 14.596)">
          <rect id="Rectangle_8683" data-name="Rectangle 8683" width="8.882" height="2.837" transform="translate(0 2.564)" fill="#706f6f"/>
          <path id="Path_94867" data-name="Path 94867" d="M175.206,59.572c1.734,1,1.734,2.625,0,3.625a6.934,6.934,0,0,1-6.281,0c-1.734-1-1.734-2.624,0-3.625A6.935,6.935,0,0,1,175.206,59.572Z" transform="translate(-167.624 -55.983)" fill="#706f6f"/>
          <path id="Path_94868" data-name="Path 94868" d="M175.206,57.287c1.734,1,1.734,2.625,0,3.626a6.942,6.942,0,0,1-6.281,0c-1.734-1-1.734-2.625,0-3.626A6.942,6.942,0,0,1,175.206,57.287Z" transform="translate(-167.624 -56.536)" fill="#dadada"/>
        </g>
        <g id="Group_36032" data-name="Group 36032" transform="translate(34.875 6.513)">
          <rect id="Rectangle_8684" data-name="Rectangle 8684" width="5.206" height="9.06" transform="translate(0 1.503)" fill="#706f6f"/>
          <ellipse id="Ellipse_724" data-name="Ellipse 724" cx="2.603" cy="1.503" rx="2.603" ry="1.503" transform="translate(0 9.059)" fill="#706f6f"/>
          <path id="Path_94869" data-name="Path 94869" d="M173.548,50.47a1.122,1.122,0,0,1,0,2.126,4.066,4.066,0,0,1-3.682,0,1.122,1.122,0,0,1,0-2.126A4.074,4.074,0,0,1,173.548,50.47Z" transform="translate(-169.104 -50.03)" fill="#dadada"/>
        </g>
        <path id="Path_94870" data-name="Path 94870" d="M172.77,57.628a13.676,13.676,0,0,1-6.246-1.4c-2.137-1.126-3.354-2.769-3.426-4.63s1.012-3.594,3.055-4.882a14.242,14.242,0,0,1,7.4-1.932,13.65,13.65,0,0,1,6.244,1.4c2.138,1.126,3.354,2.769,3.427,4.629s-1.012,3.6-3.053,4.883A14.248,14.248,0,0,1,172.77,57.628Zm.786-10.014a11.362,11.362,0,0,0-5.895,1.5c-1.137.717-1.77,1.584-1.738,2.38s.729,1.612,1.918,2.239A10.816,10.816,0,0,0,172.77,54.8a11.37,11.37,0,0,0,5.9-1.5c1.134-.717,1.768-1.584,1.737-2.38s-.732-1.612-1.918-2.239A10.824,10.824,0,0,0,173.556,47.614Z" transform="translate(-135.684 -44.787)" fill="#e0592e"/>
        <g id="Group_36033" data-name="Group 36033" transform="translate(0 32.554)">
          <path id="Path_94871" data-name="Path 94871" d="M171.164,81.818l-2.5,1.442-2.837,1.65-3.883,2.244c-4.619,2.657-8.662,9.67-8.662,15v26.929H141.03V102.149c0-9.737,6.353-20.746,14.788-25.61L159.7,74.3l2.762-1.593,2.574-1.488.009.019,3.7,6.419,2.4,4.147Z" transform="translate(-141.03 -70.938)" fill="#dadada"/>
          <path id="Path_94872" data-name="Path 94872" d="M159.345,74.077c0-2.755,1.934-3.872,4.321-2.494a9.549,9.549,0,0,1,4.321,7.483c0,2.754-1.935,3.871-4.321,2.493A9.545,9.545,0,0,1,159.345,74.077Z" transform="translate(-136.593 -70.992)" fill="#dadada"/>
          <path id="Path_94873" data-name="Path 94873" d="M153.262,118.481a3.048,3.048,0,0,1-1.79,2.488,8.276,8.276,0,0,1-3.337.99,9.342,9.342,0,0,1-5.307-.99,2.63,2.63,0,0,1,0-4.985,9.288,9.288,0,0,1,5.316-.981,8.2,8.2,0,0,1,3.328.981A3.047,3.047,0,0,1,153.262,118.481Z" transform="translate(-141.028 -60.341)" fill="#dadada"/>
        </g>
        <path id="Path_94874" data-name="Path 94874" d="M153.262,118.481a3.048,3.048,0,0,1-1.79,2.488,8.276,8.276,0,0,1-3.337.99,9.342,9.342,0,0,1-5.307-.99,2.63,2.63,0,0,1,0-4.985,9.288,9.288,0,0,1,5.316-.981,8.2,8.2,0,0,1,3.328.981A3.047,3.047,0,0,1,153.262,118.481Z" transform="translate(-141.028 -27.787)" fill="#dadada"/>
        <path id="Path_94875" data-name="Path 94875" d="M208.706,97.577a7.921,7.921,0,0,1-2.61-.894,3.032,3.032,0,0,1-1.791-2.5h-.01V67.264a4.985,4.985,0,0,0-.4-2.242,4.96,4.96,0,0,0-2.14.783l-6.173,3.562a14.025,14.025,0,0,1,.3,2.819,8.378,8.378,0,0,1-.687,3.526,4.623,4.623,0,0,1-1.867,2.111l-1.9,1.1-.01-.009a4.628,4.628,0,0,1-3.252.489L176.914,85.9a6.662,6.662,0,0,1-.263.688,4.606,4.606,0,0,1-1.867,2.121l-1.753,1.009c-.056.027-.113.066-.16.084-1.574.914-3.752.783-6.154-.6a14.2,14.2,0,0,1-2.272-1.658l-3.883,2.244c-4.619,2.657-8.662,9.67-8.662,15v26.929h-.019a3.048,3.048,0,0,1-1.79,2.488,8.276,8.276,0,0,1-3.337.99l.009-3.478v-3.478l.039-19.963a25.071,25.071,0,0,1,12.6-23.441l1.829-1.046,2.724-1.547.424-.245,2.988-1.706,2.093-1.2.9-.509,3.139-1.79,1.461-.839.461-.265,4.506-2.564,6.127-3.5,4.213-2.4.8-.453,1.113-.631,1.9-1.093,7.126-4.062a4.667,4.667,0,0,1,6.975,3.978l.4,25.873.057,3.355Z" transform="translate(-139.645 -41.014)" fill="#1d1d1b" opacity="0.1"/>
      </g>
      <path id="Path_94876" data-name="Path 94876" d="M165.569,48.845c2.337,1.853.913,6.013-1.07,6.014l-11.471-2.77a4.431,4.431,0,0,1-4.09-4.5s2.466-3.722,4.4-3.543Z" transform="translate(1.913 7.445)" fill="#516a96"/>
      <path id="Path_94877" data-name="Path 94877" d="M161.6,53l1.917,3.122a14.17,14.17,0,0,0,5.6.568l.36-.568a3.363,3.363,0,0,1-1.716-1.845,1.516,1.516,0,0,1,.506-1.487,9.208,9.208,0,0,0,1.919.63l-1.04-1.8c-1.316-1.993-3.558-2.565-6.137-2.622A3,3,0,0,0,161.6,53Z" transform="translate(4.918 8.646)" fill="#ffbb7d"/>
      <path id="Path_94878" data-name="Path 94878" d="M172.776,45.016c.783-.584,1.089-.9,1.632-.861.886.057,2.293-.065,2.972.506a6.121,6.121,0,0,1,1.458,2.579c-.846-.565-2.328-2.245-2.759-1.5-.234.4.933,2.044.752,2.47-.263.617-1.283.15-1.8-.722C174,45.759,173.269,47.086,172.776,45.016Z" transform="translate(7.691 7.472)" fill="#ffbb7d"/>
      <path id="Path_94879" data-name="Path 94879" d="M165.46,36.78c-2.7,1.55-3.389,2.918-8.377,4.534-1.524-8.244-5.895-10.511-9.851-10.667a61.37,61.37,0,0,1,6.355-4.568,45.591,45.591,0,0,1,5.962-2.267c.626.108,1.137.215,1.409.272C164.742,24.109,166.564,32.6,165.46,36.78Z" transform="translate(1.503 2.544)" fill="#516a96"/>
      <g id="Group_36037" data-name="Group 36037" transform="translate(154.48 13.313)">
        <g id="Group_36035" data-name="Group 36035" transform="translate(0 0.852)">
          <path id="Path_94880" data-name="Path 94880" d="M165.2,23.086a18.188,18.188,0,0,1-2.45,6.3,4.708,4.708,0,0,1-1.386,1.7,1.566,1.566,0,0,1-.314.168,2.186,2.186,0,0,1-1.962-.112l-.02-.006-.006.016c-.132.321-.517,1.147-.611,1.39a1.5,1.5,0,0,1-.5.523,1.263,1.263,0,0,1-.34.153c-1.337.4-3.427-.981-4.593-2.144a2.79,2.79,0,0,1-1.1-2.569c.093-.365,1.039-3.031,1.085-3.4.215-1.711-.252-.518-.215-3.846a7.658,7.658,0,0,1,1.271-4.374c.955-1.207,1.645-2.246,3.029-2.617a7.336,7.336,0,0,1,6.02.935,5.765,5.765,0,0,1,1.868,2.467A9.63,9.63,0,0,1,165.2,23.086Z" transform="translate(-151.857 -13.998)" fill="#ffbb7d"/>
          <path id="Path_94881" data-name="Path 94881" d="M158.579,28.706c-.124.314-.522,1.159-.617,1.406a1.434,1.434,0,0,1-.839.676,3.279,3.279,0,0,1-.371-.153,5.173,5.173,0,0,1-2.506-6.61,6.907,6.907,0,0,0,3.15,4.035C157.813,28.3,158.15,28.474,158.579,28.706Z" transform="translate(-151.371 -11.569)" fill="#1d1d1b" opacity="0.15"/>
        </g>
        <path id="Path_94882" data-name="Path 94882" d="M154.541,19.275a10.711,10.711,0,0,0,2.246,5.628,4.525,4.525,0,0,0,2.5,1.794c1.478.307,2.906-.57,4.383-.892a40.5,40.5,0,0,0,1-4.4c.271-1.578.411-3.326-.458-4.665-.014-.016-.031-.046-.04-.056s-.024-.017-.032-.032a2.275,2.275,0,0,0-.22-.273Q159.2,17.714,154.541,19.275Z" transform="translate(-151.206 -12.57)" opacity="0.1"/>
        <g id="Group_36036" data-name="Group 36036" transform="translate(1.196)">
          <path id="Path_94883" data-name="Path 94883" d="M152.85,18.367a7.881,7.881,0,0,0-.03.814c.015.022.025.04.04.063v0c.045.075.089.15.134.219a9.308,9.308,0,0,0,.561.794,7.763,7.763,0,0,0,.988,1.029c.119.1.24.2.366.289a.444.444,0,0,0,.062.048,1.735,1.735,0,0,0,.163.116,1.078,1.078,0,0,0,.143.093c.01.011.015.017.026.019a3.141,3.141,0,0,0,.365.217q.175.1.35.19h.006a.044.044,0,0,0,.031.019,1.29,1.29,0,0,0,.186.091c.065.032.123.057.193.084a.3.3,0,0,0,.1.04.09.09,0,0,0,.032.014,1.41,1.41,0,0,0,.2.08c.07.027.139.048.21.076l.129.041h0c.168.055.345.107.524.152l.1.024.332.073.039,0c.766-.41,1.508-.778,2.23-1.092a15.815,15.815,0,0,1,4.35-1.3.107.107,0,0,0,.04,0c.222-.024.439-.042.653-.048l-.016-1.842-.011-1.263a2.491,2.491,0,0,0-.821-1.842,7.878,7.878,0,0,0-9.439-1.232A5.064,5.064,0,0,0,152.85,18.367Z" transform="translate(-152.82 -13.313)" fill="#29406a"/>
          <path id="Path_94884" data-name="Path 94884" d="M154.819,20.578s3.04,2.326,4.541,3.649a2.3,2.3,0,0,0,2.685.389c.052-.035.1-.07.163-.1a9.019,9.019,0,0,1,2.61-1.01c.029-.009.056-.012.084-.021a8.422,8.422,0,0,1,2.143-.221,3.587,3.587,0,0,1,1.563.361c.1.051.173-.1.106-.18-.5-.591-1.928-2.056-2.375-2.6a13.475,13.475,0,0,0-1.444-1.6C161.893,17.109,156.562,20.884,154.819,20.578Z" transform="translate(-152.335 -12.035)" fill="#516a96"/>
        </g>
      </g>
    </g>
  </g>
</svg>
