<svg xmlns="http://www.w3.org/2000/svg" xmlns:xlink="http://www.w3.org/1999/xlink" width="501.628" height="306.179" viewBox="0 0 501.628 306.179">
  <defs>
    <filter id="Path_87717" x="0" y="0" width="501.628" height="306.179" filterUnits="userSpaceOnUse">
      <feOffset dx="36.595" dy="36.595" input="SourceAlpha"/>
      <feGaussianBlur stdDeviation="18.298" result="blur"/>
      <feFlood flood-opacity="0.302"/>
      <feComposite operator="in" in2="blur"/>
      <feComposite in="SourceGraphic"/>
    </filter>
  </defs>
  <g id="Component_5_1" data-name="Component 5 – 1" transform="translate(0.855 6.068)">
    <path id="Rectangle_8552" data-name="Rectangle 8552" d="M0,0H0A25.493,25.493,0,0,1,25.493,25.493V73.236A25.493,25.493,0,0,1,0,98.729H0a0,0,0,0,1,0,0V0A0,0,0,0,1,0,0Z" transform="translate(393.797 61.062)" fill="#fea702"/>
    <rect id="Rectangle_8553" data-name="Rectangle 8553" width="220.634" height="309.526" rx="37" transform="matrix(-0.001, 1, -1, -0.001, 309.683, 0.22)" fill="#325c92"/>
    <g transform="matrix(1, 0, 0, 1, -0.86, -6.07)" filter="url(#Path_87717)">
      <path id="Path_87717-2" data-name="Path 87717" d="M149.3,747.262a32.163,32.163,0,0,1,32.18-32.14l328.975.167a30.614,30.614,0,0,1,30.592,30.635l-.1,135a30.614,30.614,0,0,1-30.636,30.592l-330.87-.168A30.256,30.256,0,0,1,149.2,881.07Z" transform="translate(-130.9 -696.82)" fill="#fff"/>
    </g>
    <path id="Path_87719" data-name="Path 87719" d="M144.405,886.473H122.729L111.89,905.245l10.838,18.772h21.677l10.838-18.772Z" transform="translate(272.977 -794.819)" fill="#fea702"/>
    <g id="Group_36188" data-name="Group 36188" transform="translate(-315.041 -73.582)">
      <g id="Group_36179" data-name="Group 36179" transform="translate(380.621 96.922)">
        <g id="Group_36148" data-name="Group 36148" transform="translate(13.448 9.369)">
          <g id="Group_36140" data-name="Group 36140" transform="translate(0.781 73.205)">
            <path id="Path_95255" data-name="Path 95255" d="M388.906,219.666a1.593,1.593,0,0,1-.518-.45,1.431,1.431,0,0,1-.163-.392.852.852,0,0,1-.008-.121V167.438h4.711v51.153l0,.087v.026a.242.242,0,0,1,0,.06.179.179,0,0,1,0,.062.923.923,0,0,1-.137.354l0,0a1.445,1.445,0,0,1-.458.43c-.025.018-.052.035-.08.051a2.714,2.714,0,0,1-.417.192,3.848,3.848,0,0,1-1.587.2,3.566,3.566,0,0,1-.915-.2A2.528,2.528,0,0,1,388.906,219.666Z" transform="translate(-388.217 -166.078)" fill="#c6c6c6"/>
            <path id="Path_95256" data-name="Path 95256" d="M392.238,166.694a1.015,1.015,0,0,1,0,1.923,3.684,3.684,0,0,1-3.332,0,1.016,1.016,0,0,1,0-1.923A3.684,3.684,0,0,1,392.238,166.694Z" transform="translate(-388.217 -166.296)" fill="#9d9d9c"/>
          </g>
          <g id="Group_36141" data-name="Group 36141" transform="translate(0.038 72.944)">
            <path id="Path_95257" data-name="Path 95257" d="M388.5,169.4a2.092,2.092,0,0,1-.683-.594,1.165,1.165,0,0,1-.226-.674v-.555h5.038l.176,0h.99v.553a1.541,1.541,0,0,1-.907,1.268,3.6,3.6,0,0,1-.645.286,5.1,5.1,0,0,1-1.957.224,4.85,4.85,0,0,1-1.133-.219A3.45,3.45,0,0,1,388.5,169.4Z" transform="translate(-387.593 -165.79)" fill="#ededed"/>
            <path id="Path_95258" data-name="Path 95258" d="M388.5,169.135a1.531,1.531,0,0,1-.907-1.268,1.174,1.174,0,0,1,.3-.771,2.14,2.14,0,0,1,.6-.494,4.275,4.275,0,0,1,1.807-.512,5.143,5.143,0,0,1,.888.011,4.606,4.606,0,0,1,1.137.245c.039.014.077.027.114.044a2.931,2.931,0,0,1,.37.173c.024.011.049.025.071.038a2.449,2.449,0,0,1,.415.3.4.4,0,0,1,.042.037c.015.015.032.033.049.048l0,0a.881.881,0,0,1,.084.093,1.511,1.511,0,0,1,.111.145,1.173,1.173,0,0,1,.144.293.71.71,0,0,1,.033.112.136.136,0,0,1,.006.029.96.96,0,0,1,.019.208.428.428,0,0,1,0,.1.357.357,0,0,1-.008.073,1.1,1.1,0,0,1-.114.334.288.288,0,0,1-.027.058,1.987,1.987,0,0,1-.753.706,3.518,3.518,0,0,1-.645.286,5.059,5.059,0,0,1-1.954.225,4.939,4.939,0,0,1-1.133-.221A3.611,3.611,0,0,1,388.5,169.135Z" transform="translate(-387.593 -166.076)" fill="#9d9d9c"/>
          </g>
          <g id="Group_36142" data-name="Group 36142" transform="translate(0.343 68.308)">
            <path id="Path_95259" data-name="Path 95259" d="M388.667,169.348a1.886,1.886,0,0,1-.614-.532,1.768,1.768,0,0,1-.193-.465,1.2,1.2,0,0,1-.011-.143v-4.672h0l1.631,0h.8l1.46,0h1.7v2.341l0,.619v1.579l0,.1v.032a.337.337,0,0,1,0,.07.254.254,0,0,1-.007.074,1.069,1.069,0,0,1-.162.419l0,.006a1.712,1.712,0,0,1-.544.509.917.917,0,0,1-.1.06,3.219,3.219,0,0,1-.493.229,4.6,4.6,0,0,1-1.882.231,4.274,4.274,0,0,1-1.084-.231A3.043,3.043,0,0,1,388.667,169.348Z" transform="translate(-387.849 -161.924)" fill="#c6c6c6"/>
            <path id="Path_95260" data-name="Path 95260" d="M392.617,162.653a1.2,1.2,0,0,1,0,2.281,4.365,4.365,0,0,1-3.949,0,1.2,1.2,0,0,1,0-2.281A4.365,4.365,0,0,1,392.617,162.653Z" transform="translate(-387.849 -162.181)" fill="#9d9d9c"/>
          </g>
          <g id="Group_36143" data-name="Group 36143" transform="translate(3.366 71.516)">
            <rect id="Rectangle_8705" data-name="Rectangle 8705" width="3.878" height="1.239" transform="matrix(0.5, -0.866, 0.866, 0.5, 0.402, 3.449)" fill="#706f6f"/>
            <path id="Path_95261" data-name="Path 95261" d="M391.76,168.23c-.757.437-1.371.083-1.371-.792a3.03,3.03,0,0,1,1.371-2.375c.758-.437,1.371-.083,1.371.792A3.026,3.026,0,0,1,391.76,168.23Z" transform="translate(-390.389 -164.877)" fill="#706f6f"/>
            <path id="Path_95262" data-name="Path 95262" d="M392.662,168.75c-.758.438-1.371.083-1.371-.792a3.028,3.028,0,0,1,1.371-2.375c.757-.437,1.37-.083,1.37.792A3.028,3.028,0,0,1,392.662,168.75Z" transform="translate(-390.217 -164.778)" fill="#dadada"/>
          </g>
          <g id="Group_36144" data-name="Group 36144" transform="translate(0 67.523)">
            <path id="Path_95263" data-name="Path 95263" d="M388.47,164.849a2.26,2.26,0,0,1-.565-.446,1.593,1.593,0,0,1-.117-.145,1.161,1.161,0,0,1-.227-.674v-.511a.283.283,0,0,1,0-.045h1.564l1.208,0h3.432v.556a1.189,1.189,0,0,1-.276.74,2.149,2.149,0,0,1-.633.526,4.642,4.642,0,0,1-2.533.515A4.323,4.323,0,0,1,388.47,164.849Z" transform="translate(-387.561 -161.236)" fill="#dadada"/>
            <path id="Path_95264" data-name="Path 95264" d="M388.469,164.58a2.339,2.339,0,0,1-.525-.4.424.424,0,0,1-.039-.042,1.247,1.247,0,0,1-.343-.775.283.283,0,0,1,0-.045,1.54,1.54,0,0,1,.907-1.268,3.64,3.64,0,0,1,.649-.287,4.891,4.891,0,0,1,1.226-.227,5.068,5.068,0,0,1,1.863.227,3.587,3.587,0,0,1,.651.288,1.542,1.542,0,0,1,.908,1.265,1.2,1.2,0,0,1-.277.74.164.164,0,0,1-.014.021,2.284,2.284,0,0,1-.617.506,4.641,4.641,0,0,1-2.534.512A4.272,4.272,0,0,1,388.469,164.58Z" transform="translate(-387.561 -161.522)" fill="#9d9d9c"/>
          </g>
          <g id="Group_36145" data-name="Group 36145" transform="translate(4.96 72.849)">
            <rect id="Rectangle_8706" data-name="Rectangle 8706" width="2.239" height="0.715" transform="translate(0.231 1.992) rotate(-59.999)" fill="#706f6f"/>
            <path id="Path_95265" data-name="Path 95265" d="M392.52,167.933c-.438.252-.792.048-.792-.457a1.746,1.746,0,0,1,.792-1.371c.437-.252.792-.048.792.457A1.751,1.751,0,0,1,392.52,167.933Z" transform="translate(-391.728 -165.996)" fill="#706f6f"/>
            <path id="Path_95266" data-name="Path 95266" d="M393.039,168.234c-.437.252-.792.048-.792-.457a1.749,1.749,0,0,1,.792-1.371c.437-.252.792-.048.792.457A1.751,1.751,0,0,1,393.039,168.234Z" transform="translate(-391.629 -165.939)" fill="#dadada"/>
          </g>
          <g id="Group_36146" data-name="Group 36146" transform="translate(5.924 73.64)">
            <rect id="Rectangle_8707" data-name="Rectangle 8707" width="1.312" height="2.283" transform="matrix(0.5, -0.866, 0.866, 0.5, 0.137, 1.167)" fill="#706f6f"/>
            <path id="Path_95267" data-name="Path 95267" d="M393,167.8c-.256.148-.464.027-.464-.268a1.025,1.025,0,0,1,.464-.8c.257-.149.464-.029.464.268A1.026,1.026,0,0,1,393,167.8Z" transform="translate(-392.538 -166.661)" fill="#706f6f"/>
            <path id="Path_95268" data-name="Path 95268" d="M394.664,168.755c-.257.148-.464.027-.464-.268a1.022,1.022,0,0,1,.464-.8c.256-.148.464-.029.464.268A1.027,1.027,0,0,1,394.664,168.755Z" transform="translate(-392.222 -166.479)" fill="#dadada"/>
          </g>
          <g id="Group_36147" data-name="Group 36147" transform="translate(0.781)">
            <path id="Path_95269" data-name="Path 95269" d="M388.906,174.907a1.606,1.606,0,0,1-.518-.449,1.476,1.476,0,0,1-.163-.393.824.824,0,0,1-.008-.12V104.794h0l1.375,0h3.334v69.04l0,.087v.026a.251.251,0,0,1,0,.061.173.173,0,0,1,0,.061.916.916,0,0,1-.137.354l0,.006a1.443,1.443,0,0,1-.458.429.7.7,0,0,1-.08.051,2.837,2.837,0,0,1-.417.193,3.868,3.868,0,0,1-1.587.194,3.565,3.565,0,0,1-.915-.194A2.636,2.636,0,0,1,388.906,174.907Z" transform="translate(-388.217 -104.793)" fill="#c6c6c6"/>
          </g>
        </g>
        <g id="Group_36157" data-name="Group 36157">
          <g id="Group_36149" data-name="Group 36149" transform="translate(0.781 74.564)">
            <path id="Path_95270" data-name="Path 95270" d="M377.608,212.936a1.606,1.606,0,0,1-.518-.45,1.455,1.455,0,0,1-.162-.392.839.839,0,0,1-.01-.121V160.709h2.047l1.232,0h1.432v49.3l0,.521v1.445a.315.315,0,0,1,0,.06.209.209,0,0,1-.006.062.9.9,0,0,1-.137.354l0,.006a1.444,1.444,0,0,1-.458.429.789.789,0,0,1-.081.051,2.787,2.787,0,0,1-.417.193,3.862,3.862,0,0,1-1.585.194,3.616,3.616,0,0,1-.915-.194A2.654,2.654,0,0,1,377.608,212.936Z" transform="translate(-376.919 -159.349)" fill="#c6c6c6"/>
            <ellipse id="Ellipse_741" data-name="Ellipse 741" cx="2.356" cy="1.36" rx="2.356" ry="1.36" transform="translate(0)" fill="#9d9d9c"/>
          </g>
          <g id="Group_36150" data-name="Group 36150" transform="translate(0.038 74.303)">
            <path id="Path_95271" data-name="Path 95271" d="M377.2,162.674a2.1,2.1,0,0,1-.683-.594,1.172,1.172,0,0,1-.225-.674v-.555h5.038l.177,0h.99v.553a1.537,1.537,0,0,1-.907,1.268,3.484,3.484,0,0,1-.645.286,5.065,5.065,0,0,1-1.956.224,4.9,4.9,0,0,1-1.133-.218A3.58,3.58,0,0,1,377.2,162.674Z" transform="translate(-376.295 -159.06)" fill="#ededed"/>
            <path id="Path_95272" data-name="Path 95272" d="M377.2,162.4a1.53,1.53,0,0,1-.906-1.266,1.167,1.167,0,0,1,.3-.772,2.162,2.162,0,0,1,.6-.494,4.28,4.28,0,0,1,1.808-.512,5.266,5.266,0,0,1,.888.011,4.6,4.6,0,0,1,1.137.245c.038.014.077.029.114.044a3,3,0,0,1,.37.173c.024.011.048.025.07.038a2.4,2.4,0,0,1,.415.3.415.415,0,0,1,.042.038c.017.014.033.032.049.048l0,0a.878.878,0,0,1,.083.093,1.349,1.349,0,0,1,.111.146,1.108,1.108,0,0,1,.144.292.636.636,0,0,1,.034.112c0,.01,0,.02.006.029a1.05,1.05,0,0,1,.019.208.507.507,0,0,1,0,.1.683.683,0,0,1-.008.073,1.128,1.128,0,0,1-.114.334.336.336,0,0,1-.029.058,1.983,1.983,0,0,1-.752.706,3.523,3.523,0,0,1-.645.286,5.06,5.06,0,0,1-1.954.225,4.95,4.95,0,0,1-1.134-.221A3.566,3.566,0,0,1,377.2,162.4Z" transform="translate(-376.294 -159.346)" fill="#9d9d9c"/>
          </g>
          <g id="Group_36151" data-name="Group 36151" transform="translate(0.344 69.666)">
            <path id="Path_95273" data-name="Path 95273" d="M377.369,162.62a1.909,1.909,0,0,1-.613-.533,1.7,1.7,0,0,1-.193-.465.83.83,0,0,1-.011-.143v-4.458l0-.183,0-.031h0l1.631,0h3.953v3.808l0,.221v.645a.338.338,0,0,1-.006.07.217.217,0,0,1-.006.074,1.089,1.089,0,0,1-.162.419l0,.006a1.739,1.739,0,0,1-.544.509c-.03.021-.062.04-.1.061a3.348,3.348,0,0,1-.494.227,4.6,4.6,0,0,1-1.881.231,4.213,4.213,0,0,1-1.084-.231A3.159,3.159,0,0,1,377.369,162.62Z" transform="translate(-376.552 -155.194)" fill="#c6c6c6"/>
            <path id="Path_95274" data-name="Path 95274" d="M381.32,155.924a1.2,1.2,0,0,1,0,2.281,4.367,4.367,0,0,1-3.951,0,1.2,1.2,0,0,1,0-2.281A4.367,4.367,0,0,1,381.32,155.924Z" transform="translate(-376.552 -155.451)" fill="#9d9d9c"/>
          </g>
          <g id="Group_36152" data-name="Group 36152" transform="translate(3.367 72.875)">
            <rect id="Rectangle_8708" data-name="Rectangle 8708" width="3.878" height="1.239" transform="matrix(0.5, -0.866, 0.866, 0.5, 0.402, 3.45)" fill="#706f6f"/>
            <path id="Path_95275" data-name="Path 95275" d="M380.463,161.5c-.757.438-1.371.083-1.371-.792a3.031,3.031,0,0,1,1.371-2.375c.757-.437,1.371-.083,1.371.792A3.03,3.03,0,0,1,380.463,161.5Z" transform="translate(-379.092 -158.147)" fill="#706f6f"/>
            <path id="Path_95276" data-name="Path 95276" d="M381.364,162.02c-.757.438-1.371.083-1.371-.792a3.033,3.033,0,0,1,1.371-2.375c.757-.437,1.371-.082,1.371.792A3.03,3.03,0,0,1,381.364,162.02Z" transform="translate(-378.921 -158.048)" fill="#dadada"/>
          </g>
          <g id="Group_36153" data-name="Group 36153" transform="translate(0 68.882)">
            <path id="Path_95277" data-name="Path 95277" d="M377.174,158.118a2.211,2.211,0,0,1-.565-.446,1.763,1.763,0,0,1-.117-.144,1.166,1.166,0,0,1-.229-.675v-.509c0-.017,0-.033,0-.046h6.2v.557a1.191,1.191,0,0,1-.277.74,2.179,2.179,0,0,1-.632.526,4.667,4.667,0,0,1-2.534.515A4.329,4.329,0,0,1,377.174,158.118Z" transform="translate(-376.263 -154.506)" fill="#dadada"/>
            <path id="Path_95278" data-name="Path 95278" d="M377.172,157.85a2.287,2.287,0,0,1-.526-.4.325.325,0,0,1-.039-.042,1.257,1.257,0,0,1-.343-.774c0-.017,0-.033,0-.046a1.54,1.54,0,0,1,.908-1.268,3.692,3.692,0,0,1,.649-.287,4.937,4.937,0,0,1,1.226-.227,5.047,5.047,0,0,1,1.863.229,3.462,3.462,0,0,1,.651.288,1.536,1.536,0,0,1,.907,1.264,1.191,1.191,0,0,1-.276.74.106.106,0,0,1-.015.021,2.254,2.254,0,0,1-.615.506,4.643,4.643,0,0,1-2.534.512A4.272,4.272,0,0,1,377.172,157.85Z" transform="translate(-376.263 -154.792)" fill="#9d9d9c"/>
          </g>
          <g id="Group_36154" data-name="Group 36154" transform="translate(4.96 74.209)">
            <rect id="Rectangle_8709" data-name="Rectangle 8709" width="2.239" height="0.715" transform="matrix(0.5, -0.866, 0.866, 0.5, 0.232, 1.991)" fill="#706f6f"/>
            <path id="Path_95279" data-name="Path 95279" d="M381.222,161.2c-.437.252-.792.049-.792-.456a1.749,1.749,0,0,1,.792-1.371c.437-.252.792-.048.792.457A1.749,1.749,0,0,1,381.222,161.2Z" transform="translate(-380.43 -159.267)" fill="#706f6f"/>
            <path id="Path_95280" data-name="Path 95280" d="M381.742,161.5c-.437.252-.792.048-.792-.457a1.751,1.751,0,0,1,.792-1.371c.438-.252.792-.048.792.457A1.748,1.748,0,0,1,381.742,161.5Z" transform="translate(-380.331 -159.21)" fill="#dadada"/>
          </g>
          <g id="Group_36155" data-name="Group 36155" transform="translate(5.925 74.999)">
            <rect id="Rectangle_8710" data-name="Rectangle 8710" width="1.312" height="2.283" transform="matrix(0.5, -0.866, 0.866, 0.5, 0.136, 1.168)" fill="#706f6f"/>
            <path id="Path_95281" data-name="Path 95281" d="M381.705,161.066c-.256.148-.464.027-.464-.268a1.025,1.025,0,0,1,.464-.8c.256-.149.464-.029.464.268A1.027,1.027,0,0,1,381.705,161.066Z" transform="translate(-381.241 -159.931)" fill="#706f6f"/>
            <path id="Path_95282" data-name="Path 95282" d="M383.366,162.025c-.256.148-.464.029-.464-.268a1.027,1.027,0,0,1,.464-.8c.257-.148.464-.027.464.268A1.022,1.022,0,0,1,383.366,162.025Z" transform="translate(-380.925 -159.749)" fill="#dadada"/>
          </g>
          <g id="Group_36156" data-name="Group 36156" transform="translate(0.781)">
            <path id="Path_95283" data-name="Path 95283" d="M377.608,168.177a1.6,1.6,0,0,1-.518-.449,1.5,1.5,0,0,1-.162-.393.835.835,0,0,1-.01-.12V98.064h4.711v67.185l0,.521v1.446a.323.323,0,0,1,0,.06.218.218,0,0,1-.006.062.906.906,0,0,1-.137.354l0,0a1.46,1.46,0,0,1-.458.43.782.782,0,0,1-.081.05,2.566,2.566,0,0,1-.417.193,3.883,3.883,0,0,1-1.585.2,3.568,3.568,0,0,1-.915-.2A2.547,2.547,0,0,1,377.608,168.177Z" transform="translate(-376.919 -96.704)" fill="#c6c6c6"/>
            <ellipse id="Ellipse_742" data-name="Ellipse 742" cx="2.356" cy="1.36" rx="2.356" ry="1.36" transform="translate(0)" fill="#9d9d9c"/>
          </g>
        </g>
        <path id="Path_95284" data-name="Path 95284" d="M394.664,168.755c-.257.148-.464.027-.464-.268a1.022,1.022,0,0,1,.464-.8c.256-.148.464-.029.464.268A1.027,1.027,0,0,1,394.664,168.755Z" transform="translate(-372.85 -83.469)" fill="#706f6f"/>
        <g id="Group_36158" data-name="Group 36158" transform="translate(15.876 68.8)">
          <path id="Path_95285" data-name="Path 95285" d="M406.363,228.326h-4.68V175.655c0-5.411-3.958-12.266-8.643-14.97l-3.307-1.909,2.34-4.053,3.307,1.91c6.158,3.554,10.983,11.91,10.983,19.022Z" transform="translate(-389.576 -154.723)" fill="#b2b2b2"/>
          <path id="Path_95286" data-name="Path 95286" d="M403.768,215.894a1,1,0,0,1,0,1.9,3.673,3.673,0,0,1-3.313,0,1,1,0,0,1,0-1.9A3.681,3.681,0,0,1,403.768,215.894Z" transform="translate(-387.666 -143.159)" fill="#b2b2b2"/>
          <path id="Path_95287" data-name="Path 95287" d="M392.905,155.9c0-1.055-.736-1.481-1.647-.951a3.677,3.677,0,0,0-1.657,2.869c0,1.056.734,1.481,1.647.951A3.676,3.676,0,0,0,392.905,155.9Z" transform="translate(-389.601 -154.723)" fill="#b2b2b2"/>
        </g>
        <g id="Group_36178" data-name="Group 36178" transform="translate(13.448 9.369)">
          <g id="Group_36167" data-name="Group 36167">
            <g id="Group_36159" data-name="Group 36159" transform="translate(0.781 17.53)">
              <path id="Path_95288" data-name="Path 95288" d="M392.238,119.919a1.015,1.015,0,0,1,0,1.923,3.684,3.684,0,0,1-3.332,0,1.016,1.016,0,0,1,0-1.923A3.684,3.684,0,0,1,392.238,119.919Z" transform="translate(-388.217 -119.521)" fill="#9d9d9c"/>
            </g>
            <g id="Group_36160" data-name="Group 36160" transform="translate(0.038 17.268)">
              <path id="Path_95289" data-name="Path 95289" d="M388.5,122.629a2.1,2.1,0,0,1-.683-.6,1.159,1.159,0,0,1-.226-.672v-.555H392l.493,0h.143l.176,0h.99v.553a1.543,1.543,0,0,1-.907,1.268,3.69,3.69,0,0,1-.645.286,5.071,5.071,0,0,1-1.957.223,4.85,4.85,0,0,1-1.133-.218A3.45,3.45,0,0,1,388.5,122.629Z" transform="translate(-387.593 -119.014)" fill="#ededed"/>
              <path id="Path_95290" data-name="Path 95290" d="M388.5,122.359a1.53,1.53,0,0,1-.907-1.266,1.17,1.17,0,0,1,.3-.771,2.14,2.14,0,0,1,.6-.494,4.275,4.275,0,0,1,1.807-.512,5.026,5.026,0,0,1,.888.011,4.552,4.552,0,0,1,1.137.245,1.187,1.187,0,0,1,.114.044,2.923,2.923,0,0,1,.37.171c.024.012.049.025.071.039a2.383,2.383,0,0,1,.415.3.416.416,0,0,1,.042.038c.015.014.032.033.049.048l0,0a1,1,0,0,1,.084.092,1.682,1.682,0,0,1,.111.146,1.146,1.146,0,0,1,.144.292.724.724,0,0,1,.033.113.126.126,0,0,1,.006.027.978.978,0,0,1,.019.209.431.431,0,0,1,0,.1.336.336,0,0,1-.008.071,1.1,1.1,0,0,1-.114.336.252.252,0,0,1-.027.057,1.989,1.989,0,0,1-.753.707,3.6,3.6,0,0,1-.645.286,5.059,5.059,0,0,1-1.954.224,4.876,4.876,0,0,1-1.133-.221A3.453,3.453,0,0,1,388.5,122.359Z" transform="translate(-387.593 -119.301)" fill="#9d9d9c"/>
            </g>
            <g id="Group_36161" data-name="Group 36161" transform="translate(0.343 12.632)">
              <path id="Path_95291" data-name="Path 95291" d="M388.667,122.573a1.888,1.888,0,0,1-.614-.533,1.724,1.724,0,0,1-.193-.464,1.2,1.2,0,0,1-.011-.144v-4.671h0l1.631,0h.8l1.46,0h1.7V119.1l0,.619V121.3l0,.1v.031a.349.349,0,0,1,0,.071.246.246,0,0,1-.007.073,1.056,1.056,0,0,1-.162.419l0,.007a1.7,1.7,0,0,1-.544.508.759.759,0,0,1-.1.061,3.107,3.107,0,0,1-.493.227,4.585,4.585,0,0,1-1.882.232,4.275,4.275,0,0,1-1.084-.232A2.94,2.94,0,0,1,388.667,122.573Z" transform="translate(-387.849 -115.148)" fill="#c6c6c6"/>
              <ellipse id="Ellipse_743" data-name="Ellipse 743" cx="2.793" cy="1.613" rx="2.793" ry="1.613" transform="translate(0.001)" fill="#9d9d9c"/>
            </g>
            <g id="Group_36162" data-name="Group 36162" transform="translate(3.366 15.84)">
              <rect id="Rectangle_8711" data-name="Rectangle 8711" width="3.878" height="1.239" transform="matrix(0.5, -0.866, 0.866, 0.5, 0.402, 3.45)" fill="#706f6f"/>
              <path id="Path_95292" data-name="Path 95292" d="M391.76,121.455c-.757.437-1.371.082-1.371-.792a3.034,3.034,0,0,1,1.371-2.376c.758-.437,1.371-.082,1.371.792A3.03,3.03,0,0,1,391.76,121.455Z" transform="translate(-390.389 -118.101)" fill="#706f6f"/>
              <path id="Path_95293" data-name="Path 95293" d="M392.662,121.975c-.758.437-1.371.083-1.371-.792a3.027,3.027,0,0,1,1.371-2.375c.757-.437,1.37-.083,1.37.792A3.03,3.03,0,0,1,392.662,121.975Z" transform="translate(-390.217 -118.002)" fill="#dadada"/>
            </g>
            <g id="Group_36163" data-name="Group 36163" transform="translate(0 11.848)">
              <path id="Path_95294" data-name="Path 95294" d="M388.47,118.074a2.262,2.262,0,0,1-.565-.448,1.581,1.581,0,0,1-.117-.144,1.164,1.164,0,0,1-.227-.675V116.3a.279.279,0,0,1,0-.045h1.564l1.208,0h3.432v.556a1.189,1.189,0,0,1-.276.74,2.167,2.167,0,0,1-.633.526,4.663,4.663,0,0,1-2.533.515A4.356,4.356,0,0,1,388.47,118.074Z" transform="translate(-387.561 -114.461)" fill="#dadada"/>
              <path id="Path_95295" data-name="Path 95295" d="M388.469,117.8a2.308,2.308,0,0,1-.525-.406.261.261,0,0,1-.039-.042,1.244,1.244,0,0,1-.343-.774.279.279,0,0,1,0-.045,1.54,1.54,0,0,1,.907-1.268,3.557,3.557,0,0,1,.649-.287,4.893,4.893,0,0,1,1.226-.227,5.043,5.043,0,0,1,1.863.227,3.507,3.507,0,0,1,.651.288,1.541,1.541,0,0,1,.908,1.265,1.2,1.2,0,0,1-.277.739.084.084,0,0,1-.014.021,2.24,2.24,0,0,1-.617.506,4.631,4.631,0,0,1-2.534.513A4.305,4.305,0,0,1,388.469,117.8Z" transform="translate(-387.561 -114.747)" fill="#9d9d9c"/>
            </g>
            <g id="Group_36164" data-name="Group 36164" transform="translate(4.96 17.174)">
              <rect id="Rectangle_8712" data-name="Rectangle 8712" width="2.239" height="0.715" transform="translate(0.231 1.992) rotate(-59.999)" fill="#706f6f"/>
              <path id="Path_95296" data-name="Path 95296" d="M392.52,121.158c-.438.252-.792.048-.792-.457a1.744,1.744,0,0,1,.792-1.371c.437-.252.792-.048.792.457A1.751,1.751,0,0,1,392.52,121.158Z" transform="translate(-391.728 -119.221)" fill="#706f6f"/>
              <path id="Path_95297" data-name="Path 95297" d="M393.039,121.457c-.437.252-.792.048-.792-.457a1.747,1.747,0,0,1,.792-1.37c.437-.254.792-.049.792.457A1.749,1.749,0,0,1,393.039,121.457Z" transform="translate(-391.629 -119.164)" fill="#dadada"/>
            </g>
            <g id="Group_36165" data-name="Group 36165" transform="translate(5.924 17.965)">
              <rect id="Rectangle_8713" data-name="Rectangle 8713" width="1.312" height="2.283" transform="matrix(0.5, -0.866, 0.866, 0.5, 0.137, 1.167)" fill="#706f6f"/>
              <path id="Path_95298" data-name="Path 95298" d="M393,121.02c-.256.149-.464.029-.464-.268a1.029,1.029,0,0,1,.464-.8c.257-.148.464-.027.464.268A1.022,1.022,0,0,1,393,121.02Z" transform="translate(-392.538 -119.886)" fill="#706f6f"/>
              <path id="Path_95299" data-name="Path 95299" d="M394.664,121.98c-.257.148-.464.027-.464-.268a1.022,1.022,0,0,1,.464-.8c.256-.149.464-.029.464.267A1.029,1.029,0,0,1,394.664,121.98Z" transform="translate(-392.222 -119.703)" fill="#dadada"/>
            </g>
            <g id="Group_36166" data-name="Group 36166" transform="translate(0.781)">
              <path id="Path_95300" data-name="Path 95300" d="M392.928,116.825V104.793h-4.711v13.476a.851.851,0,0,0,.008.121,1.432,1.432,0,0,0,.163.392,1.593,1.593,0,0,0,.518.45,2.53,2.53,0,0,0,.414.19,3.567,3.567,0,0,0,.915.2,3.848,3.848,0,0,0,1.587-.2,2.714,2.714,0,0,0,.417-.192.911.911,0,0,0,.08-.051,1.445,1.445,0,0,0,.458-.43l0,0a.923.923,0,0,0,.137-.354.18.18,0,0,0,0-.062.242.242,0,0,0,0-.06v-.026l0-.087v-1.332Z" transform="translate(-388.217 -104.793)" fill="#c6c6c6"/>
            </g>
          </g>
          <g id="Group_36177" data-name="Group 36177" transform="translate(6.667 16.751)">
            <rect id="Rectangle_8714" data-name="Rectangle 8714" width="2.407" height="12.388" transform="matrix(0.866, -0.5, 0.5, 0.866, 1.281, 1.6)" fill="#963c1f"/>
            <path id="Path_95301" data-name="Path 95301" d="M395.064,122a9.688,9.688,0,0,0,4.384,7.593c2.421,1.4,4.384.265,4.384-2.531a9.688,9.688,0,0,0-4.384-7.593C397.027,118.067,395.064,119.2,395.064,122Z" transform="translate(-392.8 -118.867)" fill="#963c1f"/>
            <g id="Group_36176" data-name="Group 36176" transform="translate(0 1.307)">
              <path id="Path_95302" data-name="Path 95302" d="M401.93,128.157c0,2.8-1.963,3.929-4.384,2.531a9.688,9.688,0,0,1-4.384-7.593c0-2.8,1.963-3.929,4.384-2.532A9.686,9.686,0,0,1,401.93,128.157Z" transform="translate(-393.162 -119.964)" fill="#f66232"/>
              <path id="Path_95303" data-name="Path 95303" d="M401.213,127.672c0,2.4-1.685,3.374-3.766,2.175a8.327,8.327,0,0,1-3.766-6.523c0-2.4,1.687-3.376,3.766-2.175A8.322,8.322,0,0,1,401.213,127.672Z" transform="translate(-393.063 -119.837)" fill="#ededed"/>
              <g id="Group_36169" data-name="Group 36169" transform="translate(1.824 1.748)">
                <g id="Group_36168" data-name="Group 36168">
                  <path id="Path_95304" data-name="Path 95304" d="M399.733,125.889l-4.979-2.875v-1.478l4.979,2.875Z" transform="translate(-394.683 -121.413)" fill="#fff"/>
                  <path id="Path_95305" data-name="Path 95305" d="M399.816,126.032l-5.122-2.957v-1.643l5.122,2.957Zm-4.979-3.039,4.836,2.792v-1.314l-4.836-2.792Z" transform="translate(-394.694 -121.433)" fill="#575756"/>
                </g>
                <path id="Path_95306" data-name="Path 95306" d="M395.456,123.182l-.538-.31V121.8l.537.31Z" transform="translate(-394.651 -121.362)" fill="#dadada"/>
                <path id="Path_95307" data-name="Path 95307" d="M396.024,123.51l-.538-.31v-1.068l.538.31Z" transform="translate(-394.543 -121.3)" fill="#dadada"/>
                <path id="Path_95308" data-name="Path 95308" d="M396.592,123.838l-.538-.31V122.46l.538.31Z" transform="translate(-394.435 -121.238)" fill="#dadada"/>
                <path id="Path_95309" data-name="Path 95309" d="M397.161,124.166l-.537-.31v-1.068l.537.31Z" transform="translate(-394.327 -121.175)" fill="#dadada"/>
                <path id="Path_95310" data-name="Path 95310" d="M397.729,124.494l-.538-.31v-1.068l.538.31Z" transform="translate(-394.219 -121.113)" fill="#dadada"/>
                <path id="Path_95311" data-name="Path 95311" d="M398.3,124.823l-.538-.31v-1.068l.538.31Z" transform="translate(-394.111 -121.05)" fill="#dadada"/>
                <path id="Path_95312" data-name="Path 95312" d="M398.866,125.151l-.538-.31v-1.068l.538.31Z" transform="translate(-394.002 -120.988)" fill="#dadada"/>
              </g>
              <g id="Group_36174" data-name="Group 36174" transform="translate(4.766 6.196)">
                <path id="Path_95313" data-name="Path 95313" d="M399.3,127.169c0,.682-.479.958-1.069.618a2.365,2.365,0,0,1-1.07-1.853c0-.682.479-.958,1.07-.618A2.367,2.367,0,0,1,399.3,127.169Z" transform="translate(-397.166 -125.17)" fill="#fff"/>
                <g id="Group_36173" data-name="Group 36173" transform="translate(0.085 0.172)">
                  <g id="Group_36171" data-name="Group 36171">
                    <g id="Group_36170" data-name="Group 36170">
                      <path id="Path_95314" data-name="Path 95314" d="M398.071,127.651a.082.082,0,0,1-.037-.063V125.4c0-.023.017-.032.037-.021a.084.084,0,0,1,.036.063v2.191C398.107,127.653,398.09,127.661,398.071,127.651Z" transform="translate(-397.085 -125.304)" fill="#3c3c3b"/>
                      <path id="Path_95315" data-name="Path 95315" d="M399.171,127.014l-1.9-1.1a.082.082,0,0,1-.036-.063c0-.023.017-.032.036-.02l1.9,1.1a.079.079,0,0,1,.036.063C399.207,127.017,399.191,127.026,399.171,127.014Z" transform="translate(-397.237 -125.216)" fill="#3c3c3b"/>
                      <path id="Path_95316" data-name="Path 95316" d="M398.848,127.728a.08.08,0,0,1-.025-.027l-1.343-2.325c-.013-.024-.013-.051,0-.06s.038.006.051.03l1.343,2.325c.014.025.014.051,0,.06A.03.03,0,0,1,398.848,127.728Z" transform="translate(-397.193 -125.314)" fill="#3c3c3b"/>
                      <path id="Path_95317" data-name="Path 95317" d="M397.507,126.829a.083.083,0,0,1-.026-.027c-.013-.025-.013-.051,0-.06l1.343-.775c.014-.007.037.006.051.03s.014.051,0,.06l-1.343.775A.027.027,0,0,1,397.507,126.829Z" transform="translate(-397.193 -125.19)" fill="#3c3c3b"/>
                    </g>
                    <path id="Path_95318" data-name="Path 95318" d="M398.975,126.946c0,.5-.351.7-.784.453a1.735,1.735,0,0,1-.786-1.36c0-.5.351-.7.786-.453A1.737,1.737,0,0,1,398.975,126.946Z" transform="translate(-397.205 -125.283)" fill="#fff"/>
                  </g>
                  <g id="Group_36172" data-name="Group 36172" transform="translate(0.741 0.893)">
                    <path id="Path_95319" data-name="Path 95319" d="M398.221,126.7c-.118.006-.267-.13-.332-.3s-.02-.32.1-.327.267.13.332.3S398.34,126.69,398.221,126.7Z" transform="translate(-397.859 -126.065)" fill="#d94919"/>
                    <path id="Path_95320" data-name="Path 95320" d="M398.892,126.312l-.824-.126.125.335Z" transform="translate(-397.819 -126.042)" fill="#d94919"/>
                  </g>
                </g>
              </g>
              <g id="Group_36175" data-name="Group 36175" transform="translate(1.789 4.22)">
                <path id="Path_95321" data-name="Path 95321" d="M397.4,125.374l-2.737-1.58v-.284l2.737,1.58Z" transform="translate(-394.665 -123.51)" fill="#878787"/>
                <path id="Path_95322" data-name="Path 95322" d="M397.142,125.739l-2.477-1.43v-.284l2.477,1.43Z" transform="translate(-394.665 -123.412)" fill="#878787"/>
                <path id="Path_95323" data-name="Path 95323" d="M396.632,125.961l-1.967-1.136v-.284l1.967,1.136Z" transform="translate(-394.665 -123.313)" fill="#878787"/>
                <path id="Path_95324" data-name="Path 95324" d="M396.961,126.666l-2.3-1.326v-.284l2.3,1.326Z" transform="translate(-394.665 -123.215)" fill="#878787"/>
              </g>
              <path id="Path_95325" data-name="Path 95325" d="M397.814,128.09c0,.176-.123.248-.275.16l-1.12-.646a.611.611,0,0,1-.276-.477h0c0-.176.124-.248.276-.159l1.12.646a.61.61,0,0,1,.275.477Z" transform="translate(-392.595 -118.639)" fill="#c6c6c6"/>
            </g>
          </g>
        </g>
        <path id="Path_95326" data-name="Path 95326" d="M392.238,104.05a1.015,1.015,0,0,1,0,1.923,3.684,3.684,0,0,1-3.332,0,1.016,1.016,0,0,1,0-1.923A3.684,3.684,0,0,1,392.238,104.05Z" transform="translate(-373.988 -95.641)" fill="#9d9d9c"/>
      </g>
      <g id="Group_36187" data-name="Group 36187" transform="translate(353.357 129.321)">
        <path id="Path_95327" data-name="Path 95327" d="M368.563,129.809c.124-.05,4.45-2.277,4.45-2.277,2.282-1.675,6.38-.982,7.537,1.051.454.8.1,2.119-1.628,2.442l-3.7.967Z" transform="translate(-350.464 -123.675)" fill="#516a96"/>
        <g id="Group_36186" data-name="Group 36186" transform="translate(0 0)">
          <path id="Path_95328" data-name="Path 95328" d="M392.147,136.589a2.175,2.175,0,0,1-2.439-1.012,3.29,3.29,0,0,1-.171-2.755,7.057,7.057,0,0,1,1.551-2.371c1.8-1.96,4.084-3.526,5.425-5.823.137-.234.326-.511.6-.484.33.032.55.7.507,1.026-.174,1.306-2.217,3.465-2.081,3.489.667.324.457.6.581,1.065.32.024.794.737.6,1.027.4.225.356.82.359.969.014.642.22.857.029,1.469s-1.016,1.209-1.533,1.793c-.252.286-.733.342-.874-.012a13.848,13.848,0,0,0-1.771,1.188A3.135,3.135,0,0,1,392.147,136.589Z" transform="translate(-346.515 -124.142)" fill="#ffbb7d"/>
          <g id="Group_36182" data-name="Group 36182" transform="translate(1.28 58.436)">
            <g id="Group_36180" data-name="Group 36180">
              <path id="Path_95329" data-name="Path 95329" d="M357.423,173.261a2.647,2.647,0,0,1,2.513,1.069,3.136,3.136,0,0,1,.428,2.656,3.663,3.663,0,0,0-.1,1.494c.14.6.732,1.307.523,1.889a.678.678,0,0,1-1.251.1,5.066,5.066,0,0,1-.809-1.853c-.22-.469-.807-.765-1.046-1.225a3.1,3.1,0,0,1-.2-1.941Z" transform="translate(-353.867 -173.236)" fill="#ffd2a1"/>
              <path id="Path_95330" data-name="Path 95330" d="M354.956,180.487c-.4.847-.235,1.714.4,1.747-.146.567.471,1.438,1.151.986.171.593,1.244.151,1.585-.393.524-.836.584-.877.738-1.125a7.34,7.34,0,0,0,.7-1.745,5.119,5.119,0,0,0,.237-1.908c-.127-1.716,0-3.439-1.07-4.785a2.8,2.8,0,0,0-2.484.927,3.375,3.375,0,0,0-.875,2.5,4.182,4.182,0,0,1-.612,2.227C354.082,180.109,354.65,180.722,354.956,180.487Z" transform="translate(-354.432 -173.235)" fill="#ffd2a1"/>
            </g>
            <g id="Group_36181" data-name="Group 36181">
              <path id="Path_95331" data-name="Path 95331" d="M357.423,173.261a2.647,2.647,0,0,1,2.513,1.069,3.136,3.136,0,0,1,.428,2.656,3.663,3.663,0,0,0-.1,1.494c.14.6.732,1.307.523,1.889a.678.678,0,0,1-1.251.1,5.066,5.066,0,0,1-.809-1.853c-.22-.469-.807-.765-1.046-1.225a3.1,3.1,0,0,1-.2-1.941Z" transform="translate(-353.867 -173.236)" fill="#ffcea1"/>
              <path id="Path_95332" data-name="Path 95332" d="M354.956,180.487c-.4.847-.235,1.714.4,1.747-.146.567.471,1.438,1.151.986.171.593,1.244.151,1.585-.393.524-.836.584-.877.738-1.125a7.34,7.34,0,0,0,.7-1.745,5.119,5.119,0,0,0,.237-1.908c-.127-1.716,0-3.439-1.07-4.785a2.8,2.8,0,0,0-2.484.927,3.375,3.375,0,0,0-.875,2.5,4.182,4.182,0,0,1-.612,2.227C354.082,180.109,354.65,180.722,354.956,180.487Z" transform="translate(-354.432 -173.235)" fill="#ffbb7d"/>
            </g>
          </g>
          <g id="Group_36183" data-name="Group 36183" transform="translate(0 19.933)">
            <path id="Path_95333" data-name="Path 95333" d="M353.645,158.644a10.817,10.817,0,0,0-.287,2.625c.065,4.167.851,9.608,1.713,18.128.532,2.5,5.532,2.434,5.719.071.707-9-.321,4.134,1.369-17.534l.893-5.751.349-2.265.13-.83.369-2.4.793-5.1c1.019-5.594-6.732-6.7-7.856-.581l-1.043,4.447-.517,2.221-.168.722-.517,2.195Z" transform="translate(-353.357 -140.888)" fill="#516a96"/>
          </g>
          <path id="Path_95334" data-name="Path 95334" d="M367.435,216.533c-1.075.646-2.091,1.236-3.061,1.756a35.408,35.408,0,0,1-5.4,2.427c-2.854.878-4.333.207-4.6-1.156a14.416,14.416,0,0,1,.474-5.638l.243-1.526.5-3.132,6.239-.4h.069l-.1.612v.035l-.382,2.4-.081.5.486.035,2.126.138,1.33-.138a2.582,2.582,0,0,1,2.31.889A2.362,2.362,0,0,1,367.435,216.533Z" transform="translate(-353.184 -108.022)" fill="#1d1d1b"/>
          <path id="Path_95335" data-name="Path 95335" d="M381.511,224.009a45.75,45.75,0,0,1-8.458,4.183,6.732,6.732,0,0,1-2.844.346,1.875,1.875,0,0,1-1.745-1.513,14.2,14.2,0,0,1,.475-5.64v-4.275l2.958-.346,3.652-.439-.1,2.773-.034.774,2.611.174,1.34-.139a2.583,2.583,0,0,1,2.3.9A2.35,2.35,0,0,1,381.511,224.009Z" transform="translate(-350.504 -106.601)" fill="#1d1d1b"/>
          <path id="Path_95336" data-name="Path 95336" d="M379.288,200.889c0,.115-.012.334-.036.636-.207,3.79-1.432,20.938-1.5,23.722a3.255,3.255,0,0,1-1.294,2.231,7.664,7.664,0,0,1-3.964,1.63,5.259,5.259,0,0,1-2.541-.277,2.839,2.839,0,0,1-1.838-2.611c.82-17.68-.312-6.6.532-24.474l-1.791-9.383-1.213-6.4-2.508-13.138-.1-.531,2.392.207h.012l.393.035,1.352.1,5.939.508,1.294.115,1.2.1.417.033.693.058.07.775.057.508.024.346.035.334.035.348.035.334.035.346.058.67,2.195,22.984A5.906,5.906,0,0,1,379.288,200.889Z" transform="translate(-351.517 -114.98)" fill="#29406a"/>
          <path id="Path_95337" data-name="Path 95337" d="M371.028,173.941l-.126.994-1.468,11.509h-.012l-.82,6.436-.763,5.986c-.682,3.49-1.953,11.763-4.333,18.187a3.99,3.99,0,0,1-1.7,2.127,2.289,2.289,0,0,1-.312.207c-1.918,1.168-4.691,1.549-6.32.486-.959-.612-1.525-1.757-1.271-3.535.5-2.335,2.923-16.073,3.952-20.881l.579-11.693a3.586,3.586,0,0,1-.07-.486,24.158,24.158,0,0,1-.323-2.8v-.127c-.012-.265-.024-.532-.035-.8,0-.174-.012-.336-.012-.5a30.148,30.148,0,0,1,.093-3.259c.011-.174.023-.346.045-.52.035-.451.081-.889.139-1.328a22.4,22.4,0,0,1,.982-4.38v-.011l1.733.646.336.127,1.848.682,4.229,1.571,1.526.567Z" transform="translate(-353.265 -115.499)" fill="#29406a"/>
          <path id="Path_95338" data-name="Path 95338" d="M377.644,174.489a6.141,6.141,0,0,1-3.524,1.168,25.366,25.366,0,0,1-10.064-1.8c-3.016-1.156-5.407-2.727-5.836-4.264.024-.508-.023-1.016-.035-1.583a10.011,10.011,0,0,1,.046-1.144c3,4.09,11.1,6.6,16.385,5.974a7.8,7.8,0,0,0,3.016-.878c0,.012.011.185.011.451C377.667,173,377.679,174.015,377.644,174.489Z" transform="translate(-352.438 -116.013)" fill="#29406a"/>
          <path id="Path_95339" data-name="Path 95339" d="M384.136,145.053c-.452,2.083-.833,4.106-1.178,6.059-.155.893-.3,1.774-.44,2.631-.143.917-.286,1.8-.417,2.678-.25,1.678-.464,3.285-.678,4.821-.928,6.8-1.654,12.236-3.464,15.95a1.676,1.676,0,0,1-.214.321c-.559.762-1.785,1.166-3.368,1.274-4.928.333-13.283-2.19-16.092-5.678-.667-.833-.607-2.833-.512-3.761,0-13.426-1-26.555,2.559-28.3.452-.1,1.238-.226,2.107-.357,1.857-.3,4.047-.631,4.047-.631a58.351,58.351,0,0,1,7.308,1.226,44.53,44.53,0,0,0,4.749,1.726A43.427,43.427,0,0,1,384.136,145.053Z" transform="translate(-352.542 -121.114)" fill="#29406a"/>
          <g id="Group_36184" data-name="Group 36184" transform="translate(25.537 8.788)">
            <path id="Path_95340" data-name="Path 95340" d="M396,140.68c-.474,2.15-1.2,4.854-2.276,8.193-.393,1.2-1.63,1.549-2.761,2.115-4.322,2.16-7.846,4.127-11.521,5.049-5.335,1.339-6.575-8.629-.971-10.26,1.19-.463,2.161-.821,3-1.111a43.376,43.376,0,0,1,5.154-1.421c1.48-3.478,3.929-8.272,5.119-11.139,1.387-1.352,4.922-.184,5.107,1.838A25.663,25.663,0,0,1,396,140.68Z" transform="translate(-374.812 -131.524)" fill="#516a96"/>
          </g>
          <path id="Path_95341" data-name="Path 95341" d="M366.378,212.761a2.362,2.362,0,0,1-.15,3.2c-1.075.646-2.091,1.236-3.061,1.756a22.564,22.564,0,0,1-2.554-5.847l2.126.138,1.33-.138A2.582,2.582,0,0,1,366.378,212.761Z" transform="translate(-351.977 -107.452)" fill="#1d1d1b" opacity="0.3"/>
          <path id="Path_95342" data-name="Path 95342" d="M373.469,223.878a25.576,25.576,0,0,1-.417,3.964,55.835,55.835,0,0,0-1.271,7.811,1.875,1.875,0,0,1-1.745-1.513,14.2,14.2,0,0,1,.475-5.64v-.936a2.839,2.839,0,0,1-1.838-2.611c.82-17.68-.312-6.6.532-24.474l-1.791-9.383-.763,5.986c-.682,3.49-1.953,11.763-4.333,18.187a3.99,3.99,0,0,1-1.7,2.127v-.081q.018-1.059.07-2.115v-.035c.011-.2.023-.4.035-.612.208-3.144.658-6.275.878-9.417.693-9.73.786-15.739-1.41-25.7-.035-.162-.069-.324-.1-.5a3.985,3.985,0,0,0,.162.393c1.306,3.085,3.547,4.98,5.951,5.361a5.488,5.488,0,0,0,2.033-.035h.012a6.169,6.169,0,0,0,1.849-.7c-.867,5.385,1.121,9.059,2.138,12.8a9.817,9.817,0,0,1,.532,3.686c-.127,1.1-1.526,7.661-.59,12.087A46.363,46.363,0,0,1,373.469,223.878Z" transform="translate(-352.076 -113.715)" fill="#1d1d1b" opacity="0.3"/>
          <path id="Path_95343" data-name="Path 95343" d="M364.7,168.262a24.472,24.472,0,0,0,1.531,9.044,14.894,14.894,0,0,0-4.605-2.152c3.055-8.324.94-17.792,3.578-26.257A166.915,166.915,0,0,0,364.7,168.262Z" transform="translate(-351.783 -119.431)" fill="#1d1d1b" opacity="0.3"/>
          <path id="Path_95344" data-name="Path 95344" d="M378.065,143.006c-2.63.964-4.273,4.214-4.511,8.165l-13.331-2.3c-.333-2.8.452-6.523,1.738-8.189,1.857-.3,4.047-.631,4.047-.631a58.351,58.351,0,0,1,7.308,1.226A44.534,44.534,0,0,0,378.065,143.006Z" transform="translate(-352.065 -121.114)" fill="#516a96"/>
          <g id="Group_36185" data-name="Group 36185" transform="translate(11.918 2.262)">
            <path id="Path_95345" data-name="Path 95345" d="M366.565,134.874a18.768,18.768,0,0,0,.362,3.216,6.291,6.291,0,0,0,1.414,2.873,4.785,4.785,0,0,0,3.22,1.5,4.371,4.371,0,0,0,1.134-.075,2.636,2.636,0,0,0,1.051-.421,2.892,2.892,0,0,0,.946-1.47v0c.044-.127.083-.254.12-.381a26.534,26.534,0,0,0,.793-9.073,5.479,5.479,0,0,0-.207-1.34,3.646,3.646,0,0,0-3.053-2.276,7.165,7.165,0,0,0-3.883.811,3.44,3.44,0,0,0-.931.587c-.252.243-.433.55-.667.814C366.578,129.953,366.478,133.254,366.565,134.874Z" transform="translate(-362.768 -125.787)" fill="#ffbb7d"/>
            <path id="Path_95346" data-name="Path 95346" d="M370.564,138.342c0,.651.014,1.3.031,1.952a1.047,1.047,0,0,0,.065.412.549.549,0,0,0,.133.179,4.371,4.371,0,0,0,1.134-.075,2.636,2.636,0,0,0,1.051-.421,2.892,2.892,0,0,0,.946-1.47v0c-1.252,1.208-2.054.179-2.347-3.258C371.364,137.267,370.566,136.719,370.564,138.342Z" transform="translate(-362.001 -124.212)" fill="#1d1d1b" opacity="0.1"/>
            <rect id="Rectangle_8715" data-name="Rectangle 8715" width="7.546" height="9.766" transform="translate(2.031 8.53)" fill="#ffbb7d"/>
            <path id="Path_95347" data-name="Path 95347" d="M366.167,139.99c-1.477.853-1.477,2.237,0,3.089a5.908,5.908,0,0,0,5.349,0c1.478-.852,1.478-2.235,0-3.089A5.915,5.915,0,0,0,366.167,139.99Z" transform="translate(-363.049 -123.509)" fill="#ffbb7d"/>
            <path id="Path_95348" data-name="Path 95348" d="M374.648,131.965a3.847,3.847,0,0,0-1.729,3.133c-.118,1.278.073,2.571-.042,3.851a4.137,4.137,0,0,1-1.721,3.284,4.969,4.969,0,0,1-2.616.489c-1.177-.015-2.734-.082-3.182-1.17-5.926-14.417,3.184-15.389,4.255-15.482,3.778-.327,6.67,2.279,6.6,5.011C376.2,131.611,375.03,131.743,374.648,131.965Z" transform="translate(-363.37 -126.042)" fill="#1d1d1b"/>
            <path id="Path_95349" data-name="Path 95349" d="M371.289,133.208a1.023,1.023,0,0,1,.844.756,4.068,4.068,0,0,1,.136,1.418,3.724,3.724,0,0,1-.333,1.764.7.7,0,0,1-.35.343.671.671,0,0,1-.7-.229,1.481,1.481,0,0,1-.275-.683,9.547,9.547,0,0,1-.189-2.1,1.8,1.8,0,0,1,.16-.82A.814.814,0,0,1,371.289,133.208Z" transform="translate(-362.029 -124.678)" fill="#ffbb7d"/>
          </g>
          <path id="Path_95350" data-name="Path 95350" d="M379.727,149.643c-.155.893-.3,1.774-.44,2.631-.143.917-.286,1.8-.417,2.678-.25,1.678-.464,3.285-.678,4.821-3.357-.214-4-4.083-3.333-12Z" transform="translate(-349.311 -119.645)" fill="#516a96"/>
        </g>
        <path id="Path_95351" data-name="Path 95351" d="M375.26,126.562c-.869-1.407-3.158-1.922-4.905-1.685-3.252.442-5.707,1.628-6.551,4.86a9.8,9.8,0,0,0-.433,2.8c-.017.619,1.4,1.091,2,1.193,7.953,1.345,11.01-2.3,10.934-2.791A15.891,15.891,0,0,0,375.26,126.562Z" transform="translate(-351.452 -124.012)" fill="#29406a"/>
        <path id="Path_95352" data-name="Path 95352" d="M371.623,132.481l6.717-1.926-3.771-1.493C374.5,130.272,372.96,131.7,371.623,132.481Z" transform="translate(-349.881 -123.205)" fill="#516a96"/>
      </g>
    </g>
  </g>
</svg>
