<svg xmlns="http://www.w3.org/2000/svg" xmlns:xlink="http://www.w3.org/1999/xlink" width="501.628" height="306.179" viewBox="0 0 501.628 306.179">
  <defs>
    <filter id="Path_87717" x="0" y="0" width="501.628" height="306.179" filterUnits="userSpaceOnUse">
      <feOffset dx="36.595" dy="36.595" input="SourceAlpha"/>
      <feGaussianBlur stdDeviation="18.298" result="blur"/>
      <feFlood flood-opacity="0.302"/>
      <feComposite operator="in" in2="blur"/>
      <feComposite in="SourceGraphic"/>
    </filter>
  </defs>
  <g id="Component_3_1" data-name="Component 3 – 1" transform="translate(0.855 6.068)">
    <path id="Rectangle_8552" data-name="Rectangle 8552" d="M0,0H0A25.493,25.493,0,0,1,25.493,25.493V73.236A25.493,25.493,0,0,1,0,98.729H0a0,0,0,0,1,0,0V0A0,0,0,0,1,0,0Z" transform="translate(393.797 61.062)" fill="#fea702"/>
    <rect id="Rectangle_8553" data-name="Rectangle 8553" width="220.634" height="309.526" rx="37" transform="matrix(-0.001, 1, -1, -0.001, 309.683, 0.22)" fill="#325c92"/>
    <g transform="matrix(1, 0, 0, 1, -0.86, -6.07)" filter="url(#Path_87717)">
      <path id="Path_87717-2" data-name="Path 87717" d="M149.3,747.262a32.163,32.163,0,0,1,32.18-32.14l328.975.167a30.614,30.614,0,0,1,30.592,30.635l-.1,135a30.614,30.614,0,0,1-30.636,30.592l-330.87-.168A30.256,30.256,0,0,1,149.2,881.07Z" transform="translate(-130.9 -696.82)" fill="#fff"/>
    </g>
    <path id="Path_87719" data-name="Path 87719" d="M144.405,886.473H122.729L111.89,905.245l10.838,18.772h21.677l10.838-18.772Z" transform="translate(272.977 -794.819)" fill="#fea702"/>
    <g id="Group_36750" data-name="Group 36750" transform="translate(-279.311 -296.953)">
      <g id="Group_36442" data-name="Group 36442" transform="translate(328.761 369.693)">
        <g id="Group_36440" data-name="Group 36440" style="mix-blend-mode: multiply;isolation: isolate">
          <path id="Path_96486" data-name="Path 96486" d="M441.777,384.37l-42.709-23.724-70.307,39.747,42.708,25.05Z" transform="translate(-328.761 -360.646)" fill="#fff"/>
          <path id="Path_96487" data-name="Path 96487" d="M441.588,384.347l-42.561-23.641-70.161,39.663,42.561,24.966Z" transform="translate(-328.719 -360.622)" fill="#fdfdfd"/>
          <path id="Path_96488" data-name="Path 96488" d="M441.4,384.324l-42.413-23.558-70.015,39.58,42.413,24.881Z" transform="translate(-328.676 -360.597)" fill="#fcfcfc"/>
          <path id="Path_96489" data-name="Path 96489" d="M441.209,384.3l-42.265-23.475-69.868,39.5,42.265,24.8Z" transform="translate(-328.634 -360.573)" fill="#fafafa"/>
          <path id="Path_96490" data-name="Path 96490" d="M441.019,384.277,398.9,360.885,329.18,400.3,371.3,425.01Z" transform="translate(-328.592 -360.549)" fill="#f9f9f9"/>
          <path id="Path_96491" data-name="Path 96491" d="M440.829,384.254,398.86,360.945l-69.575,39.33L371.254,424.9Z" transform="translate(-328.549 -360.525)" fill="#f7f7f7"/>
          <path id="Path_96492" data-name="Path 96492" d="M440.64,384.23,398.819,361,329.39,400.251l41.821,24.543Z" transform="translate(-328.507 -360.501)" fill="#f6f6f6"/>
          <path id="Path_96493" data-name="Path 96493" d="M440.45,384.207l-41.673-23.143-69.283,39.164,41.673,24.458Z" transform="translate(-328.465 -360.477)" fill="#f4f4f4"/>
          <path id="Path_96494" data-name="Path 96494" d="M440.261,384.184l-41.525-23.06L329.6,400.2l41.525,24.374Z" transform="translate(-328.422 -360.453)" fill="#f3f3f3"/>
          <path id="Path_96495" data-name="Path 96495" d="M440.071,384.161l-41.378-22.977-68.99,39,41.378,24.289Z" transform="translate(-328.38 -360.428)" fill="#f1f1f1"/>
          <path id="Path_96496" data-name="Path 96496" d="M439.882,384.137l-41.23-22.894-68.843,38.914,41.23,24.2Z" transform="translate(-328.338 -360.404)" fill="#f0f0f0"/>
          <path id="Path_96497" data-name="Path 96497" d="M439.692,384.114,398.611,361.3l-68.7,38.831L371,424.254Z" transform="translate(-328.295 -360.38)" fill="#eee"/>
          <path id="Path_96498" data-name="Path 96498" d="M439.5,384.091l-40.934-22.728-68.55,38.747,40.934,24.036Z" transform="translate(-328.253 -360.356)" fill="#ededed"/>
          <path id="Path_96499" data-name="Path 96499" d="M439.313,384.067l-40.786-22.645-68.4,38.664,40.786,23.951Z" transform="translate(-328.21 -360.332)" fill="#ebebeb"/>
          <path id="Path_96500" data-name="Path 96500" d="M439.124,384.044l-40.638-22.562-68.258,38.581,40.638,23.867Z" transform="translate(-328.168 -360.308)" fill="#eaeaea"/>
          <path id="Path_96501" data-name="Path 96501" d="M438.934,384.021l-40.49-22.479-68.111,38.5,40.49,23.782Z" transform="translate(-328.126 -360.283)" fill="#e8e8e8"/>
          <path id="Path_96502" data-name="Path 96502" d="M438.745,384,398.4,361.6l-67.964,38.414,40.342,23.7Z" transform="translate(-328.083 -360.259)" fill="#e7e7e7"/>
          <path id="Path_96503" data-name="Path 96503" d="M438.555,383.974l-40.194-22.313-67.818,38.331,40.194,23.613Z" transform="translate(-328.041 -360.235)" fill="#e5e5e5"/>
          <path id="Path_96504" data-name="Path 96504" d="M438.366,383.951l-40.047-22.23-67.672,38.247L370.694,423.5Z" transform="translate(-327.999 -360.211)" fill="#e4e4e4"/>
          <path id="Path_96505" data-name="Path 96505" d="M438.176,383.928l-39.9-22.147-67.525,38.164,39.9,23.444Z" transform="translate(-327.956 -360.187)" fill="#e2e2e2"/>
          <path id="Path_96506" data-name="Path 96506" d="M437.987,383.9l-39.751-22.064-67.379,38.081,39.751,23.359Z" transform="translate(-327.914 -360.163)" fill="#e1e1e1"/>
          <path id="Path_96507" data-name="Path 96507" d="M437.8,383.881l-39.6-21.98-67.233,38,39.6,23.275Z" transform="translate(-327.872 -360.138)" fill="#dfdfdf"/>
          <path id="Path_96508" data-name="Path 96508" d="M437.608,383.858l-39.455-21.9-67.086,37.914,39.455,23.19Z" transform="translate(-327.829 -360.114)" fill="#dedede"/>
          <path id="Path_96509" data-name="Path 96509" d="M437.418,383.835,398.111,362.02l-66.94,37.831,39.307,23.106Z" transform="translate(-327.787 -360.09)" fill="#dcdcdc"/>
          <path id="Path_96510" data-name="Path 96510" d="M437.229,383.811,398.069,362.08l-66.793,37.748,39.159,23.021Z" transform="translate(-327.744 -360.066)" fill="#dbdbdb"/>
          <path id="Path_96511" data-name="Path 96511" d="M437.039,383.788,398.028,362.14,331.381,399.8l39.011,22.937Z" transform="translate(-327.702 -360.042)" fill="#d9d9d9"/>
          <path id="Path_96512" data-name="Path 96512" d="M436.85,383.765,397.986,362.2l-66.5,37.581,38.864,22.852Z" transform="translate(-327.66 -360.018)" fill="#d8d8d8"/>
          <path id="Path_96513" data-name="Path 96513" d="M436.66,383.741l-38.716-21.482-66.354,37.5,38.716,22.767Z" transform="translate(-327.617 -359.993)" fill="#d6d6d6"/>
          <path id="Path_96514" data-name="Path 96514" d="M436.47,383.718l-38.568-21.4L331.7,399.734l38.568,22.683Z" transform="translate(-327.575 -359.969)" fill="#d5d5d5"/>
          <path id="Path_96515" data-name="Path 96515" d="M436.281,383.695l-38.42-21.316L331.8,399.71l38.42,22.6Z" transform="translate(-327.533 -359.945)" fill="#d3d3d3"/>
          <path id="Path_96516" data-name="Path 96516" d="M436.091,383.672,397.82,362.438,331.9,399.687,370.177,422.2Z" transform="translate(-327.49 -359.921)" fill="#d2d2d2"/>
          <path id="Path_96517" data-name="Path 96517" d="M435.9,383.648,397.778,362.5,332.01,399.663l38.124,22.429Z" transform="translate(-327.448 -359.897)" fill="#d0d0d0"/>
          <path id="Path_96518" data-name="Path 96518" d="M435.712,383.625l-37.976-21.067-65.622,37.081,37.976,22.345Z" transform="translate(-327.405 -359.873)" fill="#cfcfcf"/>
          <path id="Path_96519" data-name="Path 96519" d="M435.523,383.6l-37.828-20.984-65.476,37,37.828,22.26Z" transform="translate(-327.363 -359.849)" fill="#cdcdcd"/>
          <path id="Path_96520" data-name="Path 96520" d="M435.333,383.578l-37.68-20.9-65.329,36.915L370,421.768Z" transform="translate(-327.321 -359.824)" fill="#ccc"/>
          <path id="Path_96521" data-name="Path 96521" d="M435.144,383.555l-37.533-20.818-65.183,36.832,37.533,22.091Z" transform="translate(-327.278 -359.8)" fill="#cacaca"/>
          <path id="Path_96522" data-name="Path 96522" d="M434.954,383.532,397.57,362.8l-65.036,36.748,37.385,22.007Z" transform="translate(-327.236 -359.776)" fill="#c9c9c9"/>
          <path id="Path_96523" data-name="Path 96523" d="M434.765,383.509l-37.237-20.652-64.89,36.665,37.237,21.922Z" transform="translate(-327.194 -359.752)" fill="#c7c7c7"/>
          <path id="Path_96524" data-name="Path 96524" d="M434.575,383.485l-37.089-20.569L332.743,399.5l37.089,21.838Z" transform="translate(-327.151 -359.728)" fill="#c6c6c6"/>
          <path id="Path_96525" data-name="Path 96525" d="M434.386,383.462l-36.941-20.486-64.6,36.5,36.941,21.753Z" transform="translate(-327.109 -359.704)" fill="#c4c4c4"/>
          <path id="Path_96526" data-name="Path 96526" d="M434.2,383.439l-36.793-20.4-64.451,36.415,36.793,21.668Z" transform="translate(-327.067 -359.679)" fill="#c3c3c3"/>
          <path id="Path_96527" data-name="Path 96527" d="M434.007,383.416,397.361,363.1l-64.3,36.332L369.7,421.012Z" transform="translate(-327.024 -359.655)" fill="#c1c1c1"/>
          <path id="Path_96528" data-name="Path 96528" d="M433.817,383.392l-36.5-20.237L333.162,399.4l36.5,21.5Z" transform="translate(-326.982 -359.631)" fill="silver"/>
          <path id="Path_96529" data-name="Path 96529" d="M433.628,383.369l-36.349-20.154-64.011,36.166L369.616,420.8Z" transform="translate(-326.939 -359.607)" fill="#bebebe"/>
          <path id="Path_96530" data-name="Path 96530" d="M433.438,383.346l-36.2-20.071-63.865,36.082,36.2,21.33Z" transform="translate(-326.897 -359.583)" fill="#bdbdbd"/>
          <path id="Path_96531" data-name="Path 96531" d="M433.249,383.322l-36.054-19.987-63.718,36,36.054,21.246Z" transform="translate(-326.855 -359.559)" fill="#bbb"/>
          <path id="Path_96532" data-name="Path 96532" d="M433.059,383.3l-35.906-19.9L333.581,399.31l35.906,21.161Z" transform="translate(-326.812 -359.534)" fill="#bababa"/>
          <path id="Path_96533" data-name="Path 96533" d="M432.869,383.276l-35.758-19.821-63.426,35.832,35.758,21.076Z" transform="translate(-326.77 -359.51)" fill="#b8b8b8"/>
          <path id="Path_96534" data-name="Path 96534" d="M432.68,383.252l-35.61-19.738-63.279,35.749,35.61,20.992Z" transform="translate(-326.728 -359.486)" fill="#b7b7b7"/>
          <path id="Path_96535" data-name="Path 96535" d="M432.491,383.229l-35.462-19.655L333.9,399.24l35.462,20.907Z" transform="translate(-326.685 -359.462)" fill="#b5b5b5"/>
          <path id="Path_96536" data-name="Path 96536" d="M432.3,383.206l-35.314-19.572L334,399.216l35.314,20.823Z" transform="translate(-326.643 -359.438)" fill="#b4b4b4"/>
          <path id="Path_96537" data-name="Path 96537" d="M432.111,383.183l-35.166-19.489-62.84,35.5,35.166,20.738Z" transform="translate(-326.601 -359.414)" fill="#b2b2b2"/>
          <path id="Path_96538" data-name="Path 96538" d="M431.922,383.159,396.9,363.753,334.21,399.169l35.018,20.654Z" transform="translate(-326.558 -359.39)" fill="#b1b1b1"/>
          <path id="Path_96539" data-name="Path 96539" d="M431.732,383.136l-34.87-19.323-62.547,35.333,34.871,20.569Z" transform="translate(-326.516 -359.365)" fill="#afafaf"/>
          <path id="Path_96540" data-name="Path 96540" d="M431.543,383.113l-34.723-19.24-62.4,35.25,34.723,20.485Z" transform="translate(-326.473 -359.341)" fill="#aeaeae"/>
          <path id="Path_96541" data-name="Path 96541" d="M431.353,383.09l-34.575-19.157L334.525,399.1,369.1,419.5Z" transform="translate(-326.431 -359.317)" fill="#acacac"/>
          <path id="Path_96542" data-name="Path 96542" d="M431.164,383.066l-34.427-19.074-62.108,35.083,34.427,20.316Z" transform="translate(-326.389 -359.293)" fill="#ababab"/>
          <path id="Path_96543" data-name="Path 96543" d="M430.974,383.043,396.7,364.052l-61.961,35,34.279,20.231Z" transform="translate(-326.346 -359.269)" fill="#a9a9a9"/>
          <path id="Path_96544" data-name="Path 96544" d="M430.785,383.02l-34.131-18.908-61.815,34.916,34.131,20.147Z" transform="translate(-326.304 -359.245)" fill="#a8a8a8"/>
          <path id="Path_96545" data-name="Path 96545" d="M430.6,383l-33.983-18.825L334.944,399l33.983,20.062Z" transform="translate(-326.262 -359.22)" fill="#a6a6a6"/>
          <path id="Path_96546" data-name="Path 96546" d="M430.406,382.973,396.57,364.231l-61.522,34.75,33.835,19.977Z" transform="translate(-326.219 -359.196)" fill="#a5a5a5"/>
          <path id="Path_96547" data-name="Path 96547" d="M430.216,382.95l-33.687-18.659-61.375,34.667,33.688,19.893Z" transform="translate(-326.177 -359.172)" fill="#a3a3a3"/>
          <path id="Path_96548" data-name="Path 96548" d="M430.027,382.926l-33.54-18.576-61.229,34.583,33.54,19.808Z" transform="translate(-326.134 -359.148)" fill="#a2a2a2"/>
          <path id="Path_96549" data-name="Path 96549" d="M429.837,382.9,396.445,364.41l-61.083,34.5,33.392,19.724Z" transform="translate(-326.092 -359.124)" fill="#a0a0a0"/>
          <path id="Path_96550" data-name="Path 96550" d="M429.648,382.88,396.4,364.47l-60.936,34.417,33.244,19.639Z" transform="translate(-326.05 -359.1)" fill="#9f9f9f"/>
          <path id="Path_96551" data-name="Path 96551" d="M429.458,382.857l-33.1-18.327-60.79,34.333,33.1,19.555Z" transform="translate(-326.007 -359.075)" fill="#9d9d9d"/>
          <path id="Path_96552" data-name="Path 96552" d="M429.269,382.833,396.32,364.59l-60.643,34.25,32.948,19.47Z" transform="translate(-325.965 -359.051)" fill="#9c9c9c"/>
          <path id="Path_96553" data-name="Path 96553" d="M429.079,382.81l-32.8-18.161-60.5,34.167,32.8,19.386Z" transform="translate(-325.923 -359.027)" fill="#9a9a9a"/>
          <path id="Path_96554" data-name="Path 96554" d="M428.89,382.787l-32.652-18.078-60.351,34.083,32.652,19.3Z" transform="translate(-325.88 -359.003)" fill="#999"/>
          <path id="Path_96555" data-name="Path 96555" d="M428.7,382.764l-32.5-17.995-60.2,34,32.5,19.217Z" transform="translate(-325.838 -358.979)" fill="#979797"/>
          <path id="Path_96556" data-name="Path 96556" d="M428.51,382.74l-32.357-17.912L336.1,398.746l32.357,19.132Z" transform="translate(-325.796 -358.955)" fill="#969696"/>
          <path id="Path_96557" data-name="Path 96557" d="M428.321,382.717l-32.209-17.829L336.2,398.722,368.41,417.77Z" transform="translate(-325.753 -358.931)" fill="#949494"/>
          <path id="Path_96558" data-name="Path 96558" d="M428.132,382.694l-32.061-17.745L336.306,398.7l32.061,18.963Z" transform="translate(-325.711 -358.906)" fill="#939393"/>
          <path id="Path_96559" data-name="Path 96559" d="M427.942,382.67l-31.913-17.662-59.619,33.667,31.913,18.878Z" transform="translate(-325.668 -358.882)" fill="#919191"/>
          <path id="Path_96560" data-name="Path 96560" d="M427.753,382.647l-31.765-17.579-59.472,33.584,31.765,18.794Z" transform="translate(-325.626 -358.858)" fill="#909090"/>
          <path id="Path_96561" data-name="Path 96561" d="M427.563,382.624l-31.617-17.5-59.326,33.5,31.617,18.709Z" transform="translate(-325.584 -358.834)" fill="#8e8e8e"/>
          <path id="Path_96562" data-name="Path 96562" d="M427.373,382.6,395.9,365.187,336.725,398.6l31.469,18.625Z" transform="translate(-325.541 -358.81)" fill="#8d8d8d"/>
          <path id="Path_96563" data-name="Path 96563" d="M427.184,382.577l-31.321-17.33L336.83,398.581l31.321,18.54Z" transform="translate(-325.499 -358.785)" fill="#8b8b8b"/>
          <path id="Path_96564" data-name="Path 96564" d="M426.994,382.554l-31.173-17.247-58.886,33.251,31.173,18.456Z" transform="translate(-325.457 -358.761)" fill="#8a8a8a"/>
          <path id="Path_96565" data-name="Path 96565" d="M426.8,382.531l-31.026-17.164-58.74,33.167L368.065,416.9Z" transform="translate(-325.414 -358.737)" fill="#888"/>
          <path id="Path_96566" data-name="Path 96566" d="M426.615,382.507l-30.878-17.081L337.144,398.51,368.022,416.8Z" transform="translate(-325.372 -358.713)" fill="#878787"/>
          <path id="Path_96567" data-name="Path 96567" d="M426.426,382.484l-30.73-17-58.447,33,30.73,18.2Z" transform="translate(-325.329 -358.689)" fill="#858585"/>
          <path id="Path_96568" data-name="Path 96568" d="M426.236,382.461l-30.582-16.915-58.3,32.918,30.582,18.117Z" transform="translate(-325.287 -358.665)" fill="#848484"/>
          <path id="Path_96569" data-name="Path 96569" d="M426.047,382.437l-30.434-16.832L337.458,398.44l30.434,18.033Z" transform="translate(-325.245 -358.641)" fill="#828282"/>
          <path id="Path_96570" data-name="Path 96570" d="M425.857,382.414l-30.286-16.749-58.008,32.751,30.286,17.948Z" transform="translate(-325.202 -358.616)" fill="#818181"/>
          <path id="Path_96571" data-name="Path 96571" d="M425.668,382.391l-30.138-16.666-57.861,32.668,30.138,17.864Z" transform="translate(-325.16 -358.592)" fill="#7f7f7f"/>
          <path id="Path_96572" data-name="Path 96572" d="M425.478,382.368l-29.99-16.583-57.715,32.584,29.99,17.779Z" transform="translate(-325.118 -358.568)" fill="#7e7e7e"/>
          <path id="Path_96573" data-name="Path 96573" d="M425.289,382.344l-29.843-16.5-57.568,32.5L367.72,416.04Z" transform="translate(-325.075 -358.544)" fill="#7c7c7c"/>
          <path id="Path_96574" data-name="Path 96574" d="M425.1,382.321,395.4,365.9l-57.422,32.418,29.695,17.61Z" transform="translate(-325.033 -358.52)" fill="#7b7b7b"/>
          <path id="Path_96575" data-name="Path 96575" d="M424.91,382.3l-29.547-16.334L338.087,398.3l29.547,17.526Z" transform="translate(-324.991 -358.496)" fill="#797979"/>
          <path id="Path_96576" data-name="Path 96576" d="M424.72,382.274l-29.4-16.251-57.129,32.251,29.4,17.441Z" transform="translate(-324.948 -358.471)" fill="#787878"/>
          <path id="Path_96577" data-name="Path 96577" d="M424.531,382.251,395.28,366.083,338.3,398.251l29.251,17.357Z" transform="translate(-324.906 -358.447)" fill="#767676"/>
          <path id="Path_96578" data-name="Path 96578" d="M424.341,382.228l-29.1-16.085L338.4,398.228,367.5,415.5Z" transform="translate(-324.863 -358.423)" fill="#757575"/>
          <path id="Path_96579" data-name="Path 96579" d="M424.152,382.2l-28.955-16-56.69,32,28.955,17.188Z" transform="translate(-324.821 -358.399)" fill="#737373"/>
          <path id="Path_96580" data-name="Path 96580" d="M423.962,382.181l-28.807-15.919-56.544,31.918,28.807,17.1Z" transform="translate(-324.779 -358.375)" fill="#727272"/>
          <path id="Path_96581" data-name="Path 96581" d="M423.773,382.158l-28.659-15.836-56.4,31.835,28.66,17.018Z" transform="translate(-324.736 -358.351)" fill="#707070"/>
          <path id="Path_96582" data-name="Path 96582" d="M423.583,382.135l-28.512-15.753-56.251,31.752,28.512,16.934Z" transform="translate(-324.694 -358.327)" fill="#6f6f6f"/>
          <path id="Path_96583" data-name="Path 96583" d="M423.394,382.111l-28.364-15.67-56.1,31.668,28.364,16.849Z" transform="translate(-324.652 -358.302)" fill="#6d6d6d"/>
          <path id="Path_96584" data-name="Path 96584" d="M423.2,382.088,394.988,366.5,339.03,398.087l28.216,16.765Z" transform="translate(-324.609 -358.278)" fill="#6c6c6c"/>
          <path id="Path_96585" data-name="Path 96585" d="M423.014,382.065l-28.068-15.5-55.811,31.5,28.068,16.68Z" transform="translate(-324.567 -358.254)" fill="#6a6a6a"/>
          <path id="Path_96586" data-name="Path 96586" d="M422.825,382.042l-27.92-15.42L339.24,398.04l27.92,16.6Z" transform="translate(-324.524 -358.23)" fill="#696969"/>
          <path id="Path_96587" data-name="Path 96587" d="M422.635,382.018l-27.772-15.337-55.519,31.335,27.772,16.511Z" transform="translate(-324.482 -358.206)" fill="#676767"/>
          <path id="Path_96588" data-name="Path 96588" d="M422.446,382l-27.624-15.254-55.372,31.252,27.624,16.427Z" transform="translate(-324.44 -358.182)" fill="#666"/>
          <path id="Path_96589" data-name="Path 96589" d="M422.256,381.972,394.78,366.8l-55.226,31.169,27.477,16.342Z" transform="translate(-324.397 -358.157)" fill="#646464"/>
          <path id="Path_96590" data-name="Path 96590" d="M422.067,381.948,394.738,366.86l-55.079,31.085L366.987,414.2Z" transform="translate(-324.355 -358.133)" fill="#636363"/>
          <path id="Path_96591" data-name="Path 96591" d="M421.877,381.925,394.7,366.92l-54.933,31,27.181,16.173Z" transform="translate(-324.313 -358.109)" fill="#616161"/>
          <path id="Path_96592" data-name="Path 96592" d="M421.688,381.9,394.655,366.98,339.869,397.9,366.9,413.987Z" transform="translate(-324.27 -358.085)" fill="#606060"/>
          <path id="Path_96593" data-name="Path 96593" d="M421.5,381.879l-26.885-14.839-54.64,30.836,26.885,16Z" transform="translate(-324.228 -358.061)" fill="#5e5e5e"/>
          <path id="Path_96594" data-name="Path 96594" d="M421.309,381.855,394.572,367.1l-54.494,30.752,26.737,15.919Z" transform="translate(-324.186 -358.037)" fill="#5d5d5d"/>
          <path id="Path_96595" data-name="Path 96595" d="M421.119,381.832,394.53,367.159l-54.347,30.669,26.589,15.835Z" transform="translate(-324.143 -358.012)" fill="#5b5b5b"/>
          <path id="Path_96596" data-name="Path 96596" d="M420.93,381.809l-26.441-14.59-54.2,30.586,26.441,15.75Z" transform="translate(-324.101 -357.988)" fill="#5a5a5a"/>
          <path id="Path_96597" data-name="Path 96597" d="M420.74,381.785l-26.293-14.507-54.054,30.5,26.293,15.666Z" transform="translate(-324.058 -357.964)" fill="#585858"/>
          <path id="Path_96598" data-name="Path 96598" d="M420.551,381.762l-26.145-14.424L340.5,397.757l26.146,15.581Z" transform="translate(-324.016 -357.94)" fill="#575757"/>
          <path id="Path_96599" data-name="Path 96599" d="M420.361,381.739l-26-14.341L340.6,397.734l26,15.5Z" transform="translate(-323.974 -357.916)" fill="#555"/>
          <path id="Path_96600" data-name="Path 96600" d="M420.172,381.716l-25.85-14.258L340.707,397.71l25.85,15.412Z" transform="translate(-323.931 -357.892)" fill="#545454"/>
          <path id="Path_96601" data-name="Path 96601" d="M419.982,381.692l-25.7-14.175-53.469,30.169,25.7,15.328Z" transform="translate(-323.889 -357.867)" fill="#525252"/>
          <path id="Path_96602" data-name="Path 96602" d="M419.793,381.669l-25.554-14.092-53.322,30.086,25.554,15.243Z" transform="translate(-323.847 -357.843)" fill="#515151"/>
          <path id="Path_96603" data-name="Path 96603" d="M419.6,381.646,394.2,367.637l-53.176,30L366.427,412.8Z" transform="translate(-323.804 -357.819)" fill="#4f4f4f"/>
          <path id="Path_96604" data-name="Path 96604" d="M419.413,381.622,394.155,367.7l-53.029,29.919,25.258,15.074Z" transform="translate(-323.762 -357.795)" fill="#4e4e4e"/>
          <path id="Path_96605" data-name="Path 96605" d="M419.224,381.6l-25.11-13.843-52.883,29.836,25.11,14.989Z" transform="translate(-323.72 -357.771)" fill="#4c4c4c"/>
          <path id="Path_96606" data-name="Path 96606" d="M419.035,381.576l-24.962-13.76-52.737,29.753,24.962,14.9Z" transform="translate(-323.677 -357.747)" fill="#4b4b4b"/>
          <path id="Path_96607" data-name="Path 96607" d="M418.845,381.553l-24.815-13.677-52.59,29.67,24.815,14.82Z" transform="translate(-323.635 -357.723)" fill="#494949"/>
          <path id="Path_96608" data-name="Path 96608" d="M418.656,381.529l-24.667-13.594-52.444,29.586,24.667,14.736Z" transform="translate(-323.592 -357.698)" fill="#484848"/>
          <path id="Path_96609" data-name="Path 96609" d="M418.466,381.506,393.947,368l-52.3,29.5,24.519,14.651Z" transform="translate(-323.55 -357.674)" fill="#464646"/>
          <path id="Path_96610" data-name="Path 96610" d="M418.276,381.483l-24.371-13.427-52.151,29.42,24.371,14.567Z" transform="translate(-323.508 -357.65)" fill="#454545"/>
          <path id="Path_96611" data-name="Path 96611" d="M418.087,381.459l-24.223-13.345-52,29.337,24.223,14.482Z" transform="translate(-323.465 -357.626)" fill="#434343"/>
          <path id="Path_96612" data-name="Path 96612" d="M417.9,381.436l-24.075-13.261-51.858,29.253,24.075,14.4Z" transform="translate(-323.423 -357.602)" fill="#424242"/>
          <path id="Path_96613" data-name="Path 96613" d="M417.708,381.413l-23.927-13.178L342.069,397.4,366,411.718Z" transform="translate(-323.381 -357.578)" fill="#404040"/>
          <path id="Path_96614" data-name="Path 96614" d="M417.518,381.389l-23.779-13.1-51.565,29.087,23.779,14.228Z" transform="translate(-323.338 -357.553)" fill="#3f3f3f"/>
          <path id="Path_96615" data-name="Path 96615" d="M417.329,381.366,393.7,368.354l-51.419,29L365.91,411.5Z" transform="translate(-323.296 -357.529)" fill="#3d3d3d"/>
          <path id="Path_96616" data-name="Path 96616" d="M417.139,381.343l-23.483-12.929-51.272,28.92,23.483,14.059Z" transform="translate(-323.254 -357.505)" fill="#3c3c3c"/>
          <path id="Path_96617" data-name="Path 96617" d="M416.95,381.32l-23.336-12.846L342.488,397.31l23.336,13.975Z" transform="translate(-323.211 -357.481)" fill="#3a3a3a"/>
          <path id="Path_96618" data-name="Path 96618" d="M416.76,381.3l-23.188-12.763-50.979,28.754,23.188,13.89Z" transform="translate(-323.169 -357.457)" fill="#393939"/>
          <path id="Path_96619" data-name="Path 96619" d="M416.571,381.273l-23.04-12.68L342.7,397.263l23.04,13.806Z" transform="translate(-323.126 -357.433)" fill="#373737"/>
          <path id="Path_96620" data-name="Path 96620" d="M416.381,381.25l-22.892-12.6L342.8,397.24l22.892,13.721Z" transform="translate(-323.084 -357.408)" fill="#363636"/>
          <path id="Path_96621" data-name="Path 96621" d="M416.192,381.227l-22.744-12.514-50.54,28.5,22.744,13.637Z" transform="translate(-323.042 -357.384)" fill="#343434"/>
          <path id="Path_96622" data-name="Path 96622" d="M416,381.2l-22.6-12.431-50.394,28.421,22.6,13.552Z" transform="translate(-322.999 -357.36)" fill="#333"/>
          <path id="Path_96623" data-name="Path 96623" d="M415.813,381.18l-22.448-12.348-50.247,28.337,22.448,13.467Z" transform="translate(-322.957 -357.336)" fill="#313131"/>
          <path id="Path_96624" data-name="Path 96624" d="M415.623,381.157l-22.3-12.265-50.1,28.254,22.3,13.383Z" transform="translate(-322.915 -357.312)" fill="#303030"/>
          <path id="Path_96625" data-name="Path 96625" d="M415.434,381.133l-22.153-12.182-49.954,28.171,22.153,13.3Z" transform="translate(-322.872 -357.288)" fill="#2e2e2e"/>
          <path id="Path_96626" data-name="Path 96626" d="M415.244,381.11l-22-12.1L343.431,397.1l22,13.214Z" transform="translate(-322.83 -357.264)" fill="#2d2d2d"/>
          <path id="Path_96627" data-name="Path 96627" d="M415.054,381.087,393.2,369.071l-49.662,28L365.393,410.2Z" transform="translate(-322.787 -357.239)" fill="#2b2b2b"/>
          <path id="Path_96628" data-name="Path 96628" d="M414.865,381.064l-21.709-11.933-49.515,27.921L365.35,410.1Z" transform="translate(-322.745 -357.215)" fill="#2a2a2a"/>
          <path id="Path_96629" data-name="Path 96629" d="M414.676,381.04l-21.561-11.85-49.369,27.837,21.561,12.96Z" transform="translate(-322.703 -357.191)" fill="#282828"/>
          <path id="Path_96630" data-name="Path 96630" d="M414.486,381.017,393.073,369.25,343.85,397l21.413,12.876Z" transform="translate(-322.66 -357.167)" fill="#272727"/>
          <path id="Path_96631" data-name="Path 96631" d="M414.3,380.994,393.031,369.31l-49.076,27.671,21.265,12.791Z" transform="translate(-322.618 -357.143)" fill="#252525"/>
          <path id="Path_96632" data-name="Path 96632" d="M414.107,380.97l-21.117-11.6-48.93,27.588,21.117,12.706Z" transform="translate(-322.576 -357.119)" fill="#242424"/>
          <path id="Path_96633" data-name="Path 96633" d="M413.917,380.947,392.948,369.43l-48.783,27.5,20.969,12.622Z" transform="translate(-322.533 -357.094)" fill="#222"/>
          <path id="Path_96634" data-name="Path 96634" d="M413.728,380.924l-20.822-11.435L344.27,396.91l20.822,12.537Z" transform="translate(-322.491 -357.07)" fill="#212121"/>
          <path id="Path_96635" data-name="Path 96635" d="M413.538,380.9l-20.674-11.351-48.49,27.338,20.674,12.453Z" transform="translate(-322.449 -357.046)" fill="#1f1f1f"/>
          <path id="Path_96636" data-name="Path 96636" d="M413.349,380.877l-20.526-11.268-48.344,27.255,20.526,12.368Z" transform="translate(-322.406 -357.022)" fill="#1e1e1e"/>
          <path id="Path_96637" data-name="Path 96637" d="M413.159,380.854l-20.378-11.185-48.2,27.171,20.378,12.284Z" transform="translate(-322.364 -356.998)" fill="#1c1c1c"/>
        </g>
        <g id="Group_36441" data-name="Group 36441" transform="translate(11.541 0.679)">
          <path id="Path_96638" data-name="Path 96638" d="M336.98,394.572l61.408-33.443,31.373,17.844-61.408,34.66Z" transform="translate(-336.98 -361.129)" fill="#325c92"/>
          <path id="Path_96639" data-name="Path 96639" d="M340.363,393.829l56.65-30.786,26.629,15.162-56.65,31.953Z" transform="translate(-335.612 -360.356)" fill="#777f7f"/>
          <path id="Path_96640" data-name="Path 96640" d="M359.32,413.3l61.408-34.66v-4.8L359.32,408.5Z" transform="translate(-327.947 -355.992)" fill="#477bbf"/>
          <path id="Path_96641" data-name="Path 96641" d="M368.353,408.808,336.98,389.747v-4.8L368.353,404Z" transform="translate(-336.98 -351.501)" fill="#5589cb"/>
        </g>
      </g>
      <g id="Group_36456" data-name="Group 36456" transform="translate(332.336 338.27)">
        <g id="Group_36443" data-name="Group 36443" transform="translate(13.542 62.81)" style="mix-blend-mode: multiply;isolation: isolate">
          <path id="Path_96642" data-name="Path 96642" d="M377.271,396.805,352.578,383l-11.629,6.291,24.439,14.2Z" transform="translate(-340.949 -382.996)" fill="#fff"/>
          <path id="Path_96643" data-name="Path 96643" d="M377.2,396.8l-24.641-13.779-11.573,6.258,24.392,14.166Z" transform="translate(-340.933 -382.988)" fill="#fdfdfd"/>
          <path id="Path_96644" data-name="Path 96644" d="M377.136,396.786l-24.589-13.748-11.517,6.225L365.374,403.4Z" transform="translate(-340.917 -382.98)" fill="#fcfcfc"/>
          <path id="Path_96645" data-name="Path 96645" d="M377.069,396.776l-24.537-13.718-11.462,6.191,24.3,14.106Z" transform="translate(-340.901 -382.971)" fill="#fafafa"/>
          <path id="Path_96646" data-name="Path 96646" d="M377,396.766l-24.486-13.688-11.406,6.158,24.251,14.076Z" transform="translate(-340.885 -382.963)" fill="#f9f9f9"/>
          <path id="Path_96647" data-name="Path 96647" d="M376.934,396.756,352.5,383.1l-11.351,6.125,24.2,14.046Z" transform="translate(-340.869 -382.955)" fill="#f7f7f7"/>
          <path id="Path_96648" data-name="Path 96648" d="M376.867,396.746l-24.382-13.627-11.3,6.092,24.157,14.016Z" transform="translate(-340.853 -382.947)" fill="#f6f6f6"/>
          <path id="Path_96649" data-name="Path 96649" d="M376.8,396.737l-24.33-13.6-11.24,6.058,24.11,13.986Z" transform="translate(-340.836 -382.938)" fill="#f4f4f4"/>
          <path id="Path_96650" data-name="Path 96650" d="M376.732,396.727,352.453,383.16l-11.185,6.025,24.063,13.956Z" transform="translate(-340.82 -382.93)" fill="#f3f3f3"/>
          <path id="Path_96651" data-name="Path 96651" d="M376.665,396.717l-24.227-13.536-11.129,5.992L365.324,403.1Z" transform="translate(-340.804 -382.922)" fill="#f1f1f1"/>
          <path id="Path_96652" data-name="Path 96652" d="M376.6,396.707,352.422,383.2l-11.073,5.959,23.968,13.9Z" transform="translate(-340.788 -382.914)" fill="#f0f0f0"/>
          <path id="Path_96653" data-name="Path 96653" d="M376.53,396.7l-24.124-13.476-11.018,5.926,23.922,13.865Z" transform="translate(-340.772 -382.905)" fill="#eee"/>
          <path id="Path_96654" data-name="Path 96654" d="M376.463,396.687l-24.072-13.445-10.962,5.892L365.3,402.97Z" transform="translate(-340.756 -382.897)" fill="#ededed"/>
          <path id="Path_96655" data-name="Path 96655" d="M376.4,396.678l-24.02-13.415-10.907,5.859L365.3,402.927Z" transform="translate(-340.739 -382.889)" fill="#ebebeb"/>
          <path id="Path_96656" data-name="Path 96656" d="M376.328,396.668,352.36,383.283l-10.851,5.826,23.78,13.775Z" transform="translate(-340.723 -382.88)" fill="#eaeaea"/>
          <path id="Path_96657" data-name="Path 96657" d="M376.261,396.658,352.344,383.3l-10.8,5.793,23.733,13.745Z" transform="translate(-340.707 -382.872)" fill="#e8e8e8"/>
          <path id="Path_96658" data-name="Path 96658" d="M376.194,396.648l-23.865-13.324-10.74,5.759L365.274,402.8Z" transform="translate(-340.691 -382.864)" fill="#e7e7e7"/>
          <path id="Path_96659" data-name="Path 96659" d="M376.126,396.638l-23.813-13.294-10.685,5.726,23.639,13.685Z" transform="translate(-340.675 -382.855)" fill="#e5e5e5"/>
          <path id="Path_96660" data-name="Path 96660" d="M376.059,396.628,352.3,383.365l-10.629,5.693,23.592,13.655Z" transform="translate(-340.659 -382.847)" fill="#e4e4e4"/>
          <path id="Path_96661" data-name="Path 96661" d="M375.992,396.619l-23.71-13.233-10.574,5.66,23.545,13.625Z" transform="translate(-340.643 -382.839)" fill="#e2e2e2"/>
          <path id="Path_96662" data-name="Path 96662" d="M375.924,396.609l-23.658-13.2-10.518,5.627,23.5,13.6Z" transform="translate(-340.626 -382.831)" fill="#e1e1e1"/>
          <path id="Path_96663" data-name="Path 96663" d="M375.857,396.6l-23.606-13.173-10.463,5.593,23.451,13.565Z" transform="translate(-340.61 -382.822)" fill="#dfdfdf"/>
          <path id="Path_96664" data-name="Path 96664" d="M375.79,396.589l-23.555-13.142-10.407,5.56,23.4,13.535Z" transform="translate(-340.594 -382.814)" fill="#dedede"/>
          <path id="Path_96665" data-name="Path 96665" d="M375.723,396.579l-23.5-13.112-10.352,5.527L365.224,402.5Z" transform="translate(-340.578 -382.806)" fill="#dcdcdc"/>
          <path id="Path_96666" data-name="Path 96666" d="M375.655,396.57,352.2,383.488l-10.3,5.494,23.309,13.475Z" transform="translate(-340.562 -382.798)" fill="#dbdbdb"/>
          <path id="Path_96667" data-name="Path 96667" d="M375.588,396.56l-23.4-13.051-10.241,5.461,23.262,13.445Z" transform="translate(-340.546 -382.789)" fill="#d9d9d9"/>
          <path id="Path_96668" data-name="Path 96668" d="M375.521,396.55l-23.348-13.021-10.185,5.427L365.2,402.371Z" transform="translate(-340.53 -382.781)" fill="#d8d8d8"/>
          <path id="Path_96669" data-name="Path 96669" d="M375.453,396.54l-23.3-12.991-10.13,5.394L365.2,402.328Z" transform="translate(-340.513 -382.773)" fill="#d6d6d6"/>
          <path id="Path_96670" data-name="Path 96670" d="M375.386,396.53l-23.244-12.96-10.074,5.361,23.121,13.355Z" transform="translate(-340.497 -382.764)" fill="#d5d5d5"/>
          <path id="Path_96671" data-name="Path 96671" d="M375.319,396.52l-23.193-12.93-10.019,5.328,23.074,13.325Z" transform="translate(-340.481 -382.756)" fill="#d3d3d3"/>
          <path id="Path_96672" data-name="Path 96672" d="M375.251,396.51l-23.141-12.9-9.963,5.294,23.027,13.3Z" transform="translate(-340.465 -382.748)" fill="#d2d2d2"/>
          <path id="Path_96673" data-name="Path 96673" d="M375.184,396.5,352.1,383.631l-9.908,5.261,22.98,13.265Z" transform="translate(-340.449 -382.74)" fill="#d0d0d0"/>
          <path id="Path_96674" data-name="Path 96674" d="M375.117,396.491,352.08,383.652l-9.852,5.228,22.933,13.235Z" transform="translate(-340.433 -382.731)" fill="#cfcfcf"/>
          <path id="Path_96675" data-name="Path 96675" d="M375.05,396.481l-22.986-12.809-9.8,5.195,22.886,13.2Z" transform="translate(-340.417 -382.723)" fill="#cdcdcd"/>
          <path id="Path_96676" data-name="Path 96676" d="M374.982,396.471l-22.934-12.779-9.741,5.162,22.839,13.175Z" transform="translate(-340.4 -382.715)" fill="#ccc"/>
          <path id="Path_96677" data-name="Path 96677" d="M374.915,396.461l-22.882-12.748-9.686,5.128,22.792,13.145Z" transform="translate(-340.384 -382.706)" fill="#cacaca"/>
          <path id="Path_96678" data-name="Path 96678" d="M374.848,396.451l-22.83-12.718-9.63,5.095,22.744,13.115Z" transform="translate(-340.368 -382.698)" fill="#c9c9c9"/>
          <path id="Path_96679" data-name="Path 96679" d="M374.781,396.442,352,383.754l-9.575,5.062,22.7,13.085Z" transform="translate(-340.352 -382.69)" fill="#c7c7c7"/>
          <path id="Path_96680" data-name="Path 96680" d="M374.713,396.432l-22.727-12.657-9.519,5.029,22.65,13.055Z" transform="translate(-340.336 -382.682)" fill="#c6c6c6"/>
          <path id="Path_96681" data-name="Path 96681" d="M374.646,396.422,351.97,383.8l-9.464,5,22.6,13.025Z" transform="translate(-340.32 -382.673)" fill="#c4c4c4"/>
          <path id="Path_96682" data-name="Path 96682" d="M374.579,396.412l-22.624-12.6-9.408,4.962L365.1,401.773Z" transform="translate(-340.303 -382.665)" fill="#c3c3c3"/>
          <path id="Path_96683" data-name="Path 96683" d="M374.511,396.4l-22.572-12.566-9.352,4.929L365.1,401.73Z" transform="translate(-340.287 -382.657)" fill="#c1c1c1"/>
          <path id="Path_96684" data-name="Path 96684" d="M374.444,396.392l-22.52-12.536-9.3,4.9,22.462,12.935Z" transform="translate(-340.271 -382.648)" fill="silver"/>
          <path id="Path_96685" data-name="Path 96685" d="M374.377,396.383l-22.468-12.506-9.242,4.862,22.415,12.9Z" transform="translate(-340.255 -382.64)" fill="#bebebe"/>
          <path id="Path_96686" data-name="Path 96686" d="M374.309,396.373,351.893,383.9l-9.186,4.829L365.074,401.6Z" transform="translate(-340.239 -382.632)" fill="#bdbdbd"/>
          <path id="Path_96687" data-name="Path 96687" d="M374.242,396.363l-22.365-12.445-9.131,4.8,22.321,12.845Z" transform="translate(-340.223 -382.624)" fill="#bbb"/>
          <path id="Path_96688" data-name="Path 96688" d="M374.175,396.353l-22.313-12.415-9.075,4.763,22.274,12.815Z" transform="translate(-340.207 -382.615)" fill="#bababa"/>
          <path id="Path_96689" data-name="Path 96689" d="M374.107,396.343l-22.261-12.385-9.019,4.73,22.227,12.785Z" transform="translate(-340.19 -382.607)" fill="#b8b8b8"/>
          <path id="Path_96690" data-name="Path 96690" d="M374.04,396.334l-22.21-12.354-8.964,4.7,22.18,12.755Z" transform="translate(-340.174 -382.599)" fill="#b7b7b7"/>
          <path id="Path_96691" data-name="Path 96691" d="M373.973,396.324,351.815,384l-8.908,4.663,22.132,12.725Z" transform="translate(-340.158 -382.591)" fill="#b5b5b5"/>
          <path id="Path_96692" data-name="Path 96692" d="M373.906,396.314,351.8,384.02l-8.853,4.63,22.085,12.695Z" transform="translate(-340.142 -382.582)" fill="#b4b4b4"/>
          <path id="Path_96693" data-name="Path 96693" d="M373.838,396.3l-22.055-12.263-8.8,4.6L365.024,401.3Z" transform="translate(-340.126 -382.574)" fill="#b2b2b2"/>
          <path id="Path_96694" data-name="Path 96694" d="M373.771,396.294l-22-12.233-8.742,4.563,21.991,12.635Z" transform="translate(-340.11 -382.566)" fill="#b1b1b1"/>
          <path id="Path_96695" data-name="Path 96695" d="M373.7,396.284l-21.951-12.2-8.686,4.53,21.944,12.6Z" transform="translate(-340.094 -382.557)" fill="#afafaf"/>
          <path id="Path_96696" data-name="Path 96696" d="M373.636,396.274l-21.9-12.172-8.631,4.5L365,401.174Z" transform="translate(-340.077 -382.549)" fill="#aeaeae"/>
          <path id="Path_96697" data-name="Path 96697" d="M373.569,396.265l-21.848-12.142-8.575,4.464L365,401.131Z" transform="translate(-340.061 -382.541)" fill="#acacac"/>
          <path id="Path_96698" data-name="Path 96698" d="M373.5,396.255l-21.8-12.112-8.52,4.431,21.8,12.515Z" transform="translate(-340.045 -382.533)" fill="#ababab"/>
          <path id="Path_96699" data-name="Path 96699" d="M373.434,396.245,351.69,384.164l-8.464,4.4,21.756,12.484Z" transform="translate(-340.029 -382.524)" fill="#a9a9a9"/>
          <path id="Path_96700" data-name="Path 96700" d="M373.367,396.235l-21.693-12.051-8.409,4.364L364.974,401Z" transform="translate(-340.013 -382.516)" fill="#a8a8a8"/>
          <path id="Path_96701" data-name="Path 96701" d="M373.3,396.225,351.659,384.2l-8.353,4.331,21.662,12.424Z" transform="translate(-339.997 -382.508)" fill="#a6a6a6"/>
          <path id="Path_96702" data-name="Path 96702" d="M373.233,396.216l-21.589-11.99-8.3,4.3,21.614,12.394Z" transform="translate(-339.981 -382.499)" fill="#a5a5a5"/>
          <path id="Path_96703" data-name="Path 96703" d="M373.165,396.206l-21.537-11.96-8.242,4.264,21.567,12.364Z" transform="translate(-339.964 -382.491)" fill="#a3a3a3"/>
          <path id="Path_96704" data-name="Path 96704" d="M373.1,396.2l-21.486-11.93-8.187,4.231,21.52,12.334Z" transform="translate(-339.948 -382.483)" fill="#a2a2a2"/>
          <path id="Path_96705" data-name="Path 96705" d="M373.031,396.186l-21.434-11.9-8.131,4.2,21.473,12.3Z" transform="translate(-339.932 -382.475)" fill="#a0a0a0"/>
          <path id="Path_96706" data-name="Path 96706" d="M372.963,396.176l-21.382-11.869-8.076,4.165,21.426,12.274Z" transform="translate(-339.916 -382.466)" fill="#9f9f9f"/>
          <path id="Path_96707" data-name="Path 96707" d="M372.9,396.166l-21.331-11.839-8.02,4.132L364.924,400.7Z" transform="translate(-339.9 -382.458)" fill="#9d9d9d"/>
          <path id="Path_96708" data-name="Path 96708" d="M372.829,396.157,351.55,384.348l-7.965,4.1,21.332,12.214Z" transform="translate(-339.884 -382.45)" fill="#9c9c9c"/>
          <path id="Path_96709" data-name="Path 96709" d="M372.762,396.147l-21.227-11.778-7.909,4.065,21.285,12.184Z" transform="translate(-339.867 -382.441)" fill="#9a9a9a"/>
          <path id="Path_96710" data-name="Path 96710" d="M372.694,396.137l-21.175-11.748-7.854,4.032L364.9,400.575Z" transform="translate(-339.851 -382.433)" fill="#999"/>
          <path id="Path_96711" data-name="Path 96711" d="M372.627,396.127,351.5,384.409l-7.8,4L364.9,400.532Z" transform="translate(-339.835 -382.425)" fill="#979797"/>
          <path id="Path_96712" data-name="Path 96712" d="M372.56,396.117,351.488,384.43l-7.743,3.966,21.144,12.094Z" transform="translate(-339.819 -382.417)" fill="#969696"/>
          <path id="Path_96713" data-name="Path 96713" d="M372.492,396.107l-21.02-11.657-7.687,3.932,21.1,12.064Z" transform="translate(-339.803 -382.408)" fill="#949494"/>
          <path id="Path_96714" data-name="Path 96714" d="M372.425,396.1l-20.968-11.627-7.632,3.9,21.05,12.034Z" transform="translate(-339.787 -382.4)" fill="#939393"/>
          <path id="Path_96715" data-name="Path 96715" d="M372.358,396.088l-20.917-11.6-7.576,3.866,21,12Z" transform="translate(-339.771 -382.392)" fill="#919191"/>
          <path id="Path_96716" data-name="Path 96716" d="M372.29,396.078l-20.865-11.566-7.521,3.833,20.955,11.974Z" transform="translate(-339.754 -382.384)" fill="#909090"/>
          <path id="Path_96717" data-name="Path 96717" d="M372.223,396.068,351.41,384.532l-7.465,3.8,20.908,11.944Z" transform="translate(-339.738 -382.375)" fill="#8e8e8e"/>
          <path id="Path_96718" data-name="Path 96718" d="M372.156,396.058l-20.762-11.505-7.41,3.766,20.861,11.914Z" transform="translate(-339.722 -382.367)" fill="#8d8d8d"/>
          <path id="Path_96719" data-name="Path 96719" d="M372.089,396.048l-20.71-11.475-7.354,3.733,20.814,11.884Z" transform="translate(-339.706 -382.359)" fill="#8b8b8b"/>
          <path id="Path_96720" data-name="Path 96720" d="M372.021,396.039l-20.658-11.445-7.3,3.7,20.767,11.854Z" transform="translate(-339.69 -382.35)" fill="#8a8a8a"/>
          <path id="Path_96721" data-name="Path 96721" d="M371.954,396.029l-20.606-11.415-7.243,3.667,20.72,11.824Z" transform="translate(-339.674 -382.342)" fill="#888"/>
          <path id="Path_96722" data-name="Path 96722" d="M371.887,396.019l-20.555-11.384-7.188,3.633,20.673,11.794Z" transform="translate(-339.658 -382.334)" fill="#878787"/>
          <path id="Path_96723" data-name="Path 96723" d="M371.819,396.009l-20.5-11.354-7.132,3.6,20.626,11.764Z" transform="translate(-339.641 -382.326)" fill="#858585"/>
          <path id="Path_96724" data-name="Path 96724" d="M371.752,396,351.3,384.676l-7.077,3.567L364.8,399.976Z" transform="translate(-339.625 -382.317)" fill="#848484"/>
          <path id="Path_96725" data-name="Path 96725" d="M371.685,395.989l-20.4-11.293-7.021,3.534,20.532,11.7Z" transform="translate(-339.609 -382.309)" fill="#828282"/>
          <path id="Path_96726" data-name="Path 96726" d="M371.617,395.98,351.27,384.717l-6.966,3.5,20.485,11.674Z" transform="translate(-339.593 -382.301)" fill="#818181"/>
          <path id="Path_96727" data-name="Path 96727" d="M371.55,395.97l-20.3-11.233-6.91,3.467,20.438,11.644Z" transform="translate(-339.577 -382.292)" fill="#7f7f7f"/>
          <path id="Path_96728" data-name="Path 96728" d="M371.483,395.96l-20.244-11.2-6.854,3.434,20.39,11.614Z" transform="translate(-339.561 -382.284)" fill="#7e7e7e"/>
          <path id="Path_96729" data-name="Path 96729" d="M371.416,395.95l-20.193-11.172-6.8,3.4,20.343,11.584Z" transform="translate(-339.545 -382.276)" fill="#7c7c7c"/>
          <path id="Path_96730" data-name="Path 96730" d="M371.348,395.94,351.207,384.8l-6.744,3.367,20.3,11.554Z" transform="translate(-339.528 -382.268)" fill="#7b7b7b"/>
          <path id="Path_96731" data-name="Path 96731" d="M371.281,395.93l-20.089-11.112-6.688,3.334,20.249,11.524Z" transform="translate(-339.512 -382.259)" fill="#797979"/>
          <path id="Path_96732" data-name="Path 96732" d="M371.214,395.921,351.176,384.84l-6.632,3.3,20.2,11.494Z" transform="translate(-339.496 -382.251)" fill="#787878"/>
          <path id="Path_96733" data-name="Path 96733" d="M371.146,395.911,351.161,384.86l-6.577,3.268,20.155,11.464Z" transform="translate(-339.48 -382.243)" fill="#767676"/>
          <path id="Path_96734" data-name="Path 96734" d="M371.079,395.9l-19.934-11.02-6.521,3.235,20.108,11.434Z" transform="translate(-339.464 -382.234)" fill="#757575"/>
          <path id="Path_96735" data-name="Path 96735" d="M371.012,395.891,351.13,384.9l-6.466,3.2,20.061,11.4Z" transform="translate(-339.448 -382.226)" fill="#737373"/>
          <path id="Path_96736" data-name="Path 96736" d="M370.944,395.881l-19.83-10.96-6.41,3.168,20.014,11.374Z" transform="translate(-339.432 -382.218)" fill="#727272"/>
          <path id="Path_96737" data-name="Path 96737" d="M370.877,395.871,351.1,384.942l-6.355,3.135L364.71,399.42Z" transform="translate(-339.415 -382.21)" fill="#707070"/>
          <path id="Path_96738" data-name="Path 96738" d="M370.81,395.862l-19.727-10.9-6.3,3.1,19.92,11.314Z" transform="translate(-339.399 -382.201)" fill="#6f6f6f"/>
          <path id="Path_96739" data-name="Path 96739" d="M370.742,395.852l-19.675-10.869-6.244,3.068L364.7,399.335Z" transform="translate(-339.383 -382.193)" fill="#6d6d6d"/>
          <path id="Path_96740" data-name="Path 96740" d="M370.675,395.842,351.052,385l-6.188,3.035,19.826,11.254Z" transform="translate(-339.367 -382.185)" fill="#6c6c6c"/>
          <path id="Path_96741" data-name="Path 96741" d="M370.608,395.832l-19.572-10.808-6.133,3,19.779,11.224Z" transform="translate(-339.351 -382.177)" fill="#6a6a6a"/>
          <path id="Path_96742" data-name="Path 96742" d="M370.541,395.822l-19.52-10.778-6.077,2.969,19.731,11.194Z" transform="translate(-339.335 -382.168)" fill="#696969"/>
          <path id="Path_96743" data-name="Path 96743" d="M370.473,395.813,351,385.065,344.983,388l19.684,11.164Z" transform="translate(-339.319 -382.16)" fill="#676767"/>
          <path id="Path_96744" data-name="Path 96744" d="M370.406,395.8l-19.417-10.717-5.966,2.9,19.637,11.134Z" transform="translate(-339.302 -382.152)" fill="#666"/>
          <path id="Path_96745" data-name="Path 96745" d="M370.339,395.793l-19.365-10.687-5.911,2.869,19.59,11.1Z" transform="translate(-339.286 -382.143)" fill="#646464"/>
          <path id="Path_96746" data-name="Path 96746" d="M370.272,395.783l-19.313-10.657-5.855,2.836,19.543,11.073Z" transform="translate(-339.27 -382.135)" fill="#636363"/>
          <path id="Path_96747" data-name="Path 96747" d="M370.2,395.773l-19.262-10.627-5.8,2.8,19.5,11.044Z" transform="translate(-339.254 -382.127)" fill="#616161"/>
          <path id="Path_96748" data-name="Path 96748" d="M370.137,395.763l-19.21-10.6-5.744,2.769,19.449,11.013Z" transform="translate(-339.238 -382.119)" fill="#606060"/>
          <path id="Path_96749" data-name="Path 96749" d="M370.07,395.753l-19.158-10.566-5.689,2.736,19.4,10.983Z" transform="translate(-339.222 -382.11)" fill="#5e5e5e"/>
          <path id="Path_96750" data-name="Path 96750" d="M370,395.744,350.9,385.208l-5.633,2.7,19.355,10.953Z" transform="translate(-339.205 -382.102)" fill="#5d5d5d"/>
          <path id="Path_96751" data-name="Path 96751" d="M369.935,395.734,350.88,385.229,345.3,387.9l19.308,10.923Z" transform="translate(-339.189 -382.094)" fill="#5b5b5b"/>
          <path id="Path_96752" data-name="Path 96752" d="M369.868,395.724l-19-10.475-5.522,2.637L364.6,398.779Z" transform="translate(-339.173 -382.085)" fill="#5a5a5a"/>
          <path id="Path_96753" data-name="Path 96753" d="M369.8,395.714,350.849,385.27l-5.467,2.6L364.6,398.736Z" transform="translate(-339.157 -382.077)" fill="#585858"/>
          <path id="Path_96754" data-name="Path 96754" d="M369.733,395.7l-18.9-10.414-5.411,2.57,19.166,10.833Z" transform="translate(-339.141 -382.069)" fill="#575757"/>
          <path id="Path_96755" data-name="Path 96755" d="M369.666,395.695l-18.848-10.384-5.356,2.537,19.119,10.8Z" transform="translate(-339.125 -382.061)" fill="#555"/>
          <path id="Path_96756" data-name="Path 96756" d="M369.6,395.685l-18.8-10.354-5.3,2.5,19.072,10.773Z" transform="translate(-339.109 -382.052)" fill="#545454"/>
          <path id="Path_96757" data-name="Path 96757" d="M369.531,395.675l-18.744-10.323-5.245,2.47,19.025,10.743Z" transform="translate(-339.092 -382.044)" fill="#525252"/>
          <path id="Path_96758" data-name="Path 96758" d="M369.464,395.665l-18.693-10.293-5.189,2.437,18.978,10.713Z" transform="translate(-339.076 -382.036)" fill="#515151"/>
          <path id="Path_96759" data-name="Path 96759" d="M369.4,395.655l-18.641-10.263-5.134,2.4,18.931,10.683Z" transform="translate(-339.06 -382.027)" fill="#4f4f4f"/>
          <path id="Path_96760" data-name="Path 96760" d="M369.329,395.645,350.74,385.413l-5.078,2.371,18.884,10.653Z" transform="translate(-339.044 -382.019)" fill="#4e4e4e"/>
          <path id="Path_96761" data-name="Path 96761" d="M369.262,395.636l-18.537-10.2-5.023,2.338,18.837,10.623Z" transform="translate(-339.028 -382.011)" fill="#4c4c4c"/>
          <path id="Path_96762" data-name="Path 96762" d="M369.195,395.626l-18.486-10.172-4.967,2.3,18.79,10.593Z" transform="translate(-339.012 -382.003)" fill="#4b4b4b"/>
          <path id="Path_96763" data-name="Path 96763" d="M369.127,395.616l-18.434-10.142-4.912,2.271,18.743,10.563Z" transform="translate(-338.996 -381.994)" fill="#494949"/>
          <path id="Path_96764" data-name="Path 96764" d="M369.06,395.606l-18.382-10.111-4.856,2.238,18.7,10.533Z" transform="translate(-338.979 -381.986)" fill="#484848"/>
          <path id="Path_96765" data-name="Path 96765" d="M368.993,395.6l-18.331-10.081-4.8,2.2,18.649,10.5Z" transform="translate(-338.963 -381.978)" fill="#464646"/>
          <path id="Path_96766" data-name="Path 96766" d="M368.926,395.586l-18.279-10.051-4.745,2.172,18.6,10.473Z" transform="translate(-338.947 -381.97)" fill="#454545"/>
          <path id="Path_96767" data-name="Path 96767" d="M368.858,395.577l-18.227-10.02-4.69,2.138L364.5,398.138Z" transform="translate(-338.931 -381.961)" fill="#434343"/>
          <path id="Path_96768" data-name="Path 96768" d="M368.791,395.567l-18.175-9.99-4.634,2.105,18.507,10.413Z" transform="translate(-338.915 -381.953)" fill="#424242"/>
          <path id="Path_96769" data-name="Path 96769" d="M368.724,395.557,350.6,385.6l-4.578,2.072,18.46,10.383Z" transform="translate(-338.899 -381.945)" fill="#404040"/>
          <path id="Path_96770" data-name="Path 96770" d="M368.656,395.547l-18.072-9.929-4.523,2.039,18.413,10.353Z" transform="translate(-338.882 -381.936)" fill="#3f3f3f"/>
          <path id="Path_96771" data-name="Path 96771" d="M368.589,395.537l-18.02-9.9-4.467,2.005,18.366,10.323Z" transform="translate(-338.866 -381.928)" fill="#3d3d3d"/>
          <path id="Path_96772" data-name="Path 96772" d="M368.522,395.527l-17.968-9.869-4.412,1.972,18.319,10.293Z" transform="translate(-338.85 -381.92)" fill="#3c3c3c"/>
          <path id="Path_96773" data-name="Path 96773" d="M368.454,395.518l-17.917-9.839-4.356,1.939,18.272,10.263Z" transform="translate(-338.834 -381.912)" fill="#3a3a3a"/>
          <path id="Path_96774" data-name="Path 96774" d="M368.387,395.508,350.522,385.7l-4.3,1.906,18.225,10.233Z" transform="translate(-338.818 -381.903)" fill="#393939"/>
          <path id="Path_96775" data-name="Path 96775" d="M368.32,395.5l-17.813-9.778-4.246,1.872,18.178,10.2Z" transform="translate(-338.802 -381.895)" fill="#373737"/>
          <path id="Path_96776" data-name="Path 96776" d="M368.253,395.488l-17.762-9.747-4.19,1.839,18.131,10.173Z" transform="translate(-338.786 -381.887)" fill="#363636"/>
          <path id="Path_96777" data-name="Path 96777" d="M368.185,395.478l-17.71-9.717-4.134,1.806,18.084,10.143Z" transform="translate(-338.77 -381.878)" fill="#343434"/>
          <path id="Path_96778" data-name="Path 96778" d="M368.118,395.468l-17.658-9.687-4.079,1.773,18.037,10.113Z" transform="translate(-338.753 -381.87)" fill="#333"/>
          <path id="Path_96779" data-name="Path 96779" d="M368.051,395.459,350.444,385.8l-4.023,1.74,17.99,10.083Z" transform="translate(-338.737 -381.862)" fill="#313131"/>
          <path id="Path_96780" data-name="Path 96780" d="M367.983,395.449l-17.555-9.626-3.968,1.706L364.4,397.582Z" transform="translate(-338.721 -381.854)" fill="#303030"/>
          <path id="Path_96781" data-name="Path 96781" d="M367.916,395.439l-17.5-9.6-3.912,1.673,17.9,10.023Z" transform="translate(-338.705 -381.845)" fill="#2e2e2e"/>
          <path id="Path_96782" data-name="Path 96782" d="M367.849,395.429,350.4,385.863l-3.857,1.64,17.848,9.993Z" transform="translate(-338.689 -381.837)" fill="#2d2d2d"/>
          <path id="Path_96783" data-name="Path 96783" d="M367.781,395.419l-17.4-9.535-3.8,1.607,17.8,9.963Z" transform="translate(-338.673 -381.829)" fill="#2b2b2b"/>
          <path id="Path_96784" data-name="Path 96784" d="M367.714,395.409,350.366,385.9l-3.746,1.573,17.754,9.933Z" transform="translate(-338.656 -381.82)" fill="#2a2a2a"/>
          <path id="Path_96785" data-name="Path 96785" d="M367.647,395.4l-17.3-9.475-3.69,1.54,17.707,9.9Z" transform="translate(-338.64 -381.812)" fill="#282828"/>
          <path id="Path_96786" data-name="Path 96786" d="M367.58,395.39l-17.244-9.444-3.635,1.507,17.66,9.873Z" transform="translate(-338.624 -381.804)" fill="#272727"/>
          <path id="Path_96787" data-name="Path 96787" d="M367.512,395.38l-17.193-9.414-3.579,1.474,17.613,9.843Z" transform="translate(-338.608 -381.796)" fill="#252525"/>
          <path id="Path_96788" data-name="Path 96788" d="M367.445,395.37,350.3,385.986l-3.524,1.441,17.566,9.813Z" transform="translate(-338.592 -381.787)" fill="#242424"/>
          <path id="Path_96789" data-name="Path 96789" d="M367.378,395.36l-17.089-9.353-3.468,1.407,17.519,9.783Z" transform="translate(-338.576 -381.779)" fill="#222"/>
          <path id="Path_96790" data-name="Path 96790" d="M367.31,395.35l-17.037-9.323L346.86,387.4l17.472,9.753Z" transform="translate(-338.56 -381.771)" fill="#212121"/>
          <path id="Path_96791" data-name="Path 96791" d="M367.243,395.341l-16.986-9.293-3.357,1.341,17.425,9.722Z" transform="translate(-338.543 -381.763)" fill="#1f1f1f"/>
          <path id="Path_96792" data-name="Path 96792" d="M367.176,395.331l-16.934-9.263-3.3,1.308,17.378,9.693Z" transform="translate(-338.527 -381.754)" fill="#1e1e1e"/>
          <path id="Path_96793" data-name="Path 96793" d="M367.109,395.321l-16.882-9.232-3.246,1.274,17.331,9.662Z" transform="translate(-338.511 -381.746)" fill="#1c1c1c"/>
        </g>
        <g id="Group_36444" data-name="Group 36444" transform="translate(60.469 36.362)" style="mix-blend-mode: multiply;isolation: isolate">
          <path id="Path_96794" data-name="Path 96794" d="M410.687,377.972l-24.693-13.809-11.629,6.291,24.439,14.2Z" transform="translate(-374.366 -364.163)" fill="#fff"/>
          <path id="Path_96795" data-name="Path 96795" d="M410.62,377.962l-24.641-13.779-11.573,6.258L398.8,384.607Z" transform="translate(-374.35 -364.155)" fill="#fdfdfd"/>
          <path id="Path_96796" data-name="Path 96796" d="M410.553,377.952,385.963,364.2l-11.517,6.225,24.345,14.136Z" transform="translate(-374.334 -364.146)" fill="#fcfcfc"/>
          <path id="Path_96797" data-name="Path 96797" d="M410.485,377.943l-24.537-13.718-11.462,6.191,24.3,14.106Z" transform="translate(-374.318 -364.138)" fill="#fafafa"/>
          <path id="Path_96798" data-name="Path 96798" d="M410.418,377.933l-24.486-13.688L374.526,370.4l24.251,14.076Z" transform="translate(-374.302 -364.13)" fill="#f9f9f9"/>
          <path id="Path_96799" data-name="Path 96799" d="M410.351,377.923l-24.434-13.658-11.351,6.125,24.2,14.046Z" transform="translate(-374.285 -364.122)" fill="#f7f7f7"/>
          <path id="Path_96800" data-name="Path 96800" d="M410.283,377.913,385.9,364.286l-11.3,6.092,24.157,14.016Z" transform="translate(-374.269 -364.113)" fill="#f6f6f6"/>
          <path id="Path_96801" data-name="Path 96801" d="M410.216,377.9l-24.331-13.6-11.24,6.059,24.11,13.986Z" transform="translate(-374.253 -364.105)" fill="#f4f4f4"/>
          <path id="Path_96802" data-name="Path 96802" d="M410.149,377.893,385.87,364.327l-11.185,6.025,24.063,13.956Z" transform="translate(-374.237 -364.097)" fill="#f3f3f3"/>
          <path id="Path_96803" data-name="Path 96803" d="M410.081,377.884l-24.227-13.536-11.129,5.992,24.016,13.925Z" transform="translate(-374.221 -364.088)" fill="#f1f1f1"/>
          <path id="Path_96804" data-name="Path 96804" d="M410.014,377.874l-24.175-13.506-11.073,5.959,23.968,13.9Z" transform="translate(-374.205 -364.08)" fill="#f0f0f0"/>
          <path id="Path_96805" data-name="Path 96805" d="M409.947,377.864l-24.124-13.476-11.018,5.925,23.921,13.865Z" transform="translate(-374.188 -364.072)" fill="#eee"/>
          <path id="Path_96806" data-name="Path 96806" d="M409.88,377.854l-24.072-13.445L374.845,370.3l23.874,13.836Z" transform="translate(-374.172 -364.064)" fill="#ededed"/>
          <path id="Path_96807" data-name="Path 96807" d="M409.812,377.844l-24.02-13.415-10.907,5.859,23.827,13.805Z" transform="translate(-374.156 -364.055)" fill="#ebebeb"/>
          <path id="Path_96808" data-name="Path 96808" d="M409.745,377.834,385.777,364.45l-10.851,5.826,23.78,13.776Z" transform="translate(-374.14 -364.047)" fill="#eaeaea"/>
          <path id="Path_96809" data-name="Path 96809" d="M409.678,377.825,385.761,364.47l-10.8,5.793L398.7,384.008Z" transform="translate(-374.124 -364.039)" fill="#e8e8e8"/>
          <path id="Path_96810" data-name="Path 96810" d="M409.61,377.815l-23.865-13.324-10.74,5.759,23.686,13.715Z" transform="translate(-374.108 -364.03)" fill="#e7e7e7"/>
          <path id="Path_96811" data-name="Path 96811" d="M409.543,377.805,385.73,364.511l-10.685,5.726,23.639,13.685Z" transform="translate(-374.092 -364.022)" fill="#e5e5e5"/>
          <path id="Path_96812" data-name="Path 96812" d="M409.476,377.8l-23.762-13.263-10.629,5.693,23.592,13.655Z" transform="translate(-374.075 -364.014)" fill="#e4e4e4"/>
          <path id="Path_96813" data-name="Path 96813" d="M409.409,377.785,385.7,364.552l-10.574,5.66,23.545,13.625Z" transform="translate(-374.059 -364.006)" fill="#e2e2e2"/>
          <path id="Path_96814" data-name="Path 96814" d="M409.341,377.775l-23.658-13.2L375.165,370.2l23.5,13.6Z" transform="translate(-374.043 -363.997)" fill="#e1e1e1"/>
          <path id="Path_96815" data-name="Path 96815" d="M409.274,377.766l-23.606-13.172L375.2,370.186l23.451,13.565Z" transform="translate(-374.027 -363.989)" fill="#dfdfdf"/>
          <path id="Path_96816" data-name="Path 96816" d="M409.207,377.756l-23.555-13.142-10.407,5.56,23.4,13.535Z" transform="translate(-374.011 -363.981)" fill="#dedede"/>
          <path id="Path_96817" data-name="Path 96817" d="M409.139,377.746l-23.5-13.112-10.352,5.527,23.356,13.505Z" transform="translate(-373.995 -363.973)" fill="#dcdcdc"/>
          <path id="Path_96818" data-name="Path 96818" d="M409.072,377.736l-23.451-13.082-10.3,5.494,23.309,13.475Z" transform="translate(-373.979 -363.964)" fill="#dbdbdb"/>
          <path id="Path_96819" data-name="Path 96819" d="M409,377.726l-23.4-13.051-10.241,5.46,23.262,13.445Z" transform="translate(-373.962 -363.956)" fill="#d9d9d9"/>
          <path id="Path_96820" data-name="Path 96820" d="M408.937,377.716,385.59,364.7,375.4,370.123l23.215,13.415Z" transform="translate(-373.946 -363.948)" fill="#d8d8d8"/>
          <path id="Path_96821" data-name="Path 96821" d="M408.87,377.707l-23.3-12.991-10.13,5.394L398.612,383.5Z" transform="translate(-373.93 -363.939)" fill="#d6d6d6"/>
          <path id="Path_96822" data-name="Path 96822" d="M408.8,377.7l-23.244-12.96L375.484,370.1l23.121,13.355Z" transform="translate(-373.914 -363.931)" fill="#d5d5d5"/>
          <path id="Path_96823" data-name="Path 96823" d="M408.735,377.687l-23.193-12.93-10.019,5.328L398.6,383.41Z" transform="translate(-373.898 -363.923)" fill="#d3d3d3"/>
          <path id="Path_96824" data-name="Path 96824" d="M408.668,377.677l-23.141-12.9-9.963,5.294,23.027,13.3Z" transform="translate(-373.882 -363.915)" fill="#d2d2d2"/>
          <path id="Path_96825" data-name="Path 96825" d="M408.6,377.667,385.512,364.8l-9.908,5.261,22.98,13.265Z" transform="translate(-373.866 -363.906)" fill="#d0d0d0"/>
          <path id="Path_96826" data-name="Path 96826" d="M408.534,377.658,385.5,364.818l-9.852,5.228,22.933,13.235Z" transform="translate(-373.849 -363.898)" fill="#cfcfcf"/>
          <path id="Path_96827" data-name="Path 96827" d="M408.466,377.648l-22.986-12.809-9.8,5.195,22.886,13.205Z" transform="translate(-373.833 -363.89)" fill="#cdcdcd"/>
          <path id="Path_96828" data-name="Path 96828" d="M408.4,377.638l-22.934-12.779-9.741,5.161L398.562,383.2Z" transform="translate(-373.817 -363.881)" fill="#ccc"/>
          <path id="Path_96829" data-name="Path 96829" d="M408.332,377.628,385.45,364.88l-9.686,5.128,22.792,13.145Z" transform="translate(-373.801 -363.873)" fill="#cacaca"/>
          <path id="Path_96830" data-name="Path 96830" d="M408.264,377.618,385.434,364.9,375.8,370l22.744,13.115Z" transform="translate(-373.785 -363.865)" fill="#c9c9c9"/>
          <path id="Path_96831" data-name="Path 96831" d="M408.2,377.608l-22.779-12.688-9.575,5.062,22.7,13.085Z" transform="translate(-373.769 -363.857)" fill="#c7c7c7"/>
          <path id="Path_96832" data-name="Path 96832" d="M408.13,377.6,385.4,364.941l-9.519,5.029,22.65,13.055Z" transform="translate(-373.752 -363.848)" fill="#c6c6c6"/>
          <path id="Path_96833" data-name="Path 96833" d="M408.063,377.589l-22.675-12.627-9.464,5,22.6,13.025Z" transform="translate(-373.736 -363.84)" fill="#c4c4c4"/>
          <path id="Path_96834" data-name="Path 96834" d="M408,377.579l-22.624-12.6-9.408,4.962,22.556,12.995Z" transform="translate(-373.72 -363.832)" fill="#c3c3c3"/>
          <path id="Path_96835" data-name="Path 96835" d="M407.928,377.569,385.356,365,376,369.932,398.513,382.9Z" transform="translate(-373.704 -363.823)" fill="#c1c1c1"/>
          <path id="Path_96836" data-name="Path 96836" d="M407.861,377.559l-22.52-12.536-9.3,4.9,22.462,12.935Z" transform="translate(-373.688 -363.815)" fill="silver"/>
          <path id="Path_96837" data-name="Path 96837" d="M407.793,377.549l-22.468-12.506-9.241,4.862,22.415,12.9Z" transform="translate(-373.672 -363.807)" fill="#bebebe"/>
          <path id="Path_96838" data-name="Path 96838" d="M407.726,377.54l-22.417-12.476-9.186,4.829,22.368,12.875Z" transform="translate(-373.656 -363.799)" fill="#bdbdbd"/>
          <path id="Path_96839" data-name="Path 96839" d="M407.659,377.53l-22.365-12.445-9.13,4.8,22.321,12.845Z" transform="translate(-373.639 -363.79)" fill="#bbb"/>
          <path id="Path_96840" data-name="Path 96840" d="M407.591,377.52l-22.313-12.415-9.075,4.763,22.274,12.815Z" transform="translate(-373.623 -363.782)" fill="#bababa"/>
          <path id="Path_96841" data-name="Path 96841" d="M407.524,377.51l-22.261-12.385-9.02,4.73L398.47,382.64Z" transform="translate(-373.607 -363.774)" fill="#b8b8b8"/>
          <path id="Path_96842" data-name="Path 96842" d="M407.457,377.5l-22.21-12.354-8.964,4.7,22.18,12.755Z" transform="translate(-373.591 -363.766)" fill="#b7b7b7"/>
          <path id="Path_96843" data-name="Path 96843" d="M407.39,377.49l-22.158-12.324-8.909,4.663,22.132,12.725Z" transform="translate(-373.575 -363.757)" fill="#b5b5b5"/>
          <path id="Path_96844" data-name="Path 96844" d="M407.322,377.48l-22.106-12.293-8.853,4.63,22.085,12.695Z" transform="translate(-373.559 -363.749)" fill="#b4b4b4"/>
          <path id="Path_96845" data-name="Path 96845" d="M407.255,377.471,385.2,365.207l-8.8,4.6,22.038,12.665Z" transform="translate(-373.543 -363.741)" fill="#b2b2b2"/>
          <path id="Path_96846" data-name="Path 96846" d="M407.188,377.461l-22-12.233-8.742,4.563,21.991,12.635Z" transform="translate(-373.526 -363.732)" fill="#b1b1b1"/>
          <path id="Path_96847" data-name="Path 96847" d="M407.12,377.451l-21.951-12.2-8.686,4.53,21.944,12.6Z" transform="translate(-373.51 -363.724)" fill="#afafaf"/>
          <path id="Path_96848" data-name="Path 96848" d="M407.053,377.441l-21.9-12.172-8.631,4.5,21.9,12.575Z" transform="translate(-373.494 -363.716)" fill="#aeaeae"/>
          <path id="Path_96849" data-name="Path 96849" d="M406.986,377.431l-21.848-12.142-8.575,4.464,21.85,12.545Z" transform="translate(-373.478 -363.708)" fill="#acacac"/>
          <path id="Path_96850" data-name="Path 96850" d="M406.918,377.422l-21.8-12.112-8.52,4.43,21.8,12.515Z" transform="translate(-373.462 -363.699)" fill="#ababab"/>
          <path id="Path_96851" data-name="Path 96851" d="M406.851,377.412,385.107,365.33l-8.464,4.4L398.4,382.212Z" transform="translate(-373.446 -363.691)" fill="#a9a9a9"/>
          <path id="Path_96852" data-name="Path 96852" d="M406.784,377.4l-21.692-12.051-8.409,4.364,21.709,12.454Z" transform="translate(-373.43 -363.683)" fill="#a8a8a8"/>
          <path id="Path_96853" data-name="Path 96853" d="M406.717,377.392l-21.641-12.021-8.353,4.331,21.662,12.425Z" transform="translate(-373.413 -363.674)" fill="#a6a6a6"/>
          <path id="Path_96854" data-name="Path 96854" d="M406.649,377.382l-21.589-11.99-8.3,4.3,21.615,12.395Z" transform="translate(-373.397 -363.666)" fill="#a5a5a5"/>
          <path id="Path_96855" data-name="Path 96855" d="M406.582,377.372l-21.537-11.96-8.242,4.264,21.567,12.364Z" transform="translate(-373.381 -363.658)" fill="#a3a3a3"/>
          <path id="Path_96856" data-name="Path 96856" d="M406.515,377.363l-21.486-11.93-8.187,4.231L398.363,382Z" transform="translate(-373.365 -363.65)" fill="#a2a2a2"/>
          <path id="Path_96857" data-name="Path 96857" d="M406.447,377.353l-21.434-11.9-8.131,4.2,21.473,12.3Z" transform="translate(-373.349 -363.641)" fill="#a0a0a0"/>
          <path id="Path_96858" data-name="Path 96858" d="M406.38,377.343,385,365.474l-8.076,4.165,21.426,12.274Z" transform="translate(-373.333 -363.633)" fill="#9f9f9f"/>
          <path id="Path_96859" data-name="Path 96859" d="M406.313,377.333l-21.331-11.839-8.02,4.131,21.379,12.244Z" transform="translate(-373.316 -363.625)" fill="#9d9d9d"/>
          <path id="Path_96860" data-name="Path 96860" d="M406.245,377.323l-21.279-11.809-7.965,4.1,21.332,12.214Z" transform="translate(-373.3 -363.616)" fill="#9c9c9c"/>
          <path id="Path_96861" data-name="Path 96861" d="M406.178,377.313l-21.227-11.778-7.909,4.065,21.285,12.184Z" transform="translate(-373.284 -363.608)" fill="#9a9a9a"/>
          <path id="Path_96862" data-name="Path 96862" d="M406.111,377.3l-21.175-11.748-7.854,4.032,21.238,12.154Z" transform="translate(-373.268 -363.6)" fill="#999"/>
          <path id="Path_96863" data-name="Path 96863" d="M406.044,377.294,384.92,365.576l-7.8,4L398.313,381.7Z" transform="translate(-373.252 -363.592)" fill="#979797"/>
          <path id="Path_96864" data-name="Path 96864" d="M405.976,377.284,384.9,365.6l-7.743,3.966,21.144,12.094Z" transform="translate(-373.236 -363.583)" fill="#969696"/>
          <path id="Path_96865" data-name="Path 96865" d="M405.909,377.274l-21.02-11.657-7.687,3.932,21.1,12.064Z" transform="translate(-373.22 -363.575)" fill="#949494"/>
          <path id="Path_96866" data-name="Path 96866" d="M405.842,377.264l-20.968-11.627-7.632,3.9,21.05,12.034Z" transform="translate(-373.203 -363.567)" fill="#939393"/>
          <path id="Path_96867" data-name="Path 96867" d="M405.774,377.254l-20.917-11.6-7.576,3.866,21,12Z" transform="translate(-373.187 -363.559)" fill="#919191"/>
          <path id="Path_96868" data-name="Path 96868" d="M405.707,377.245l-20.865-11.566-7.521,3.833,20.955,11.974Z" transform="translate(-373.171 -363.55)" fill="#909090"/>
          <path id="Path_96869" data-name="Path 96869" d="M405.64,377.235,384.827,365.7l-7.465,3.8,20.908,11.944Z" transform="translate(-373.155 -363.542)" fill="#8e8e8e"/>
          <path id="Path_96870" data-name="Path 96870" d="M405.572,377.225,384.811,365.72l-7.41,3.766L398.263,381.4Z" transform="translate(-373.139 -363.534)" fill="#8d8d8d"/>
          <path id="Path_96871" data-name="Path 96871" d="M405.505,377.215,384.8,365.74l-7.354,3.733,20.814,11.884Z" transform="translate(-373.123 -363.525)" fill="#8b8b8b"/>
          <path id="Path_96872" data-name="Path 96872" d="M405.438,377.205,384.78,365.76l-7.3,3.7,20.767,11.854Z" transform="translate(-373.107 -363.517)" fill="#8a8a8a"/>
          <path id="Path_96873" data-name="Path 96873" d="M405.37,377.2l-20.606-11.415-7.243,3.667,20.72,11.824Z" transform="translate(-373.09 -363.509)" fill="#888"/>
          <path id="Path_96874" data-name="Path 96874" d="M405.3,377.186,384.749,365.8l-7.188,3.633,20.673,11.794Z" transform="translate(-373.074 -363.501)" fill="#878787"/>
          <path id="Path_96875" data-name="Path 96875" d="M405.236,377.176l-20.5-11.354-7.132,3.6,20.626,11.764Z" transform="translate(-373.058 -363.492)" fill="#858585"/>
          <path id="Path_96876" data-name="Path 96876" d="M405.169,377.166l-20.451-11.324-7.076,3.567,20.579,11.734Z" transform="translate(-373.042 -363.484)" fill="#848484"/>
          <path id="Path_96877" data-name="Path 96877" d="M405.1,377.156l-20.4-11.293-7.021,3.534,20.532,11.7Z" transform="translate(-373.026 -363.476)" fill="#828282"/>
          <path id="Path_96878" data-name="Path 96878" d="M405.034,377.146l-20.348-11.263-6.966,3.5,20.485,11.674Z" transform="translate(-373.01 -363.467)" fill="#818181"/>
          <path id="Path_96879" data-name="Path 96879" d="M404.967,377.136l-20.3-11.233-6.91,3.467L398.2,381.015Z" transform="translate(-372.994 -363.459)" fill="#7f7f7f"/>
          <path id="Path_96880" data-name="Path 96880" d="M404.9,377.127l-20.244-11.2-6.855,3.434,20.391,11.614Z" transform="translate(-372.977 -363.451)" fill="#7e7e7e"/>
          <path id="Path_96881" data-name="Path 96881" d="M404.832,377.117,384.64,365.945l-6.8,3.4,20.343,11.584Z" transform="translate(-372.961 -363.443)" fill="#7c7c7c"/>
          <path id="Path_96882" data-name="Path 96882" d="M404.765,377.107l-20.141-11.142-6.744,3.367,20.3,11.554Z" transform="translate(-372.945 -363.434)" fill="#7b7b7b"/>
          <path id="Path_96883" data-name="Path 96883" d="M404.7,377.1l-20.089-11.112-6.688,3.334,20.249,11.524Z" transform="translate(-372.929 -363.426)" fill="#797979"/>
          <path id="Path_96884" data-name="Path 96884" d="M404.63,377.087l-20.037-11.081-6.632,3.3,20.2,11.494Z" transform="translate(-372.913 -363.418)" fill="#787878"/>
          <path id="Path_96885" data-name="Path 96885" d="M404.563,377.078l-19.986-11.051L378,369.294l20.155,11.464Z" transform="translate(-372.897 -363.409)" fill="#767676"/>
          <path id="Path_96886" data-name="Path 96886" d="M404.5,377.068l-19.934-11.021-6.521,3.235,20.108,11.434Z" transform="translate(-372.881 -363.401)" fill="#757575"/>
          <path id="Path_96887" data-name="Path 96887" d="M404.428,377.058l-19.882-10.99-6.466,3.2,20.061,11.4Z" transform="translate(-372.864 -363.393)" fill="#737373"/>
          <path id="Path_96888" data-name="Path 96888" d="M404.361,377.048l-19.831-10.96-6.41,3.168,20.014,11.374Z" transform="translate(-372.848 -363.385)" fill="#727272"/>
          <path id="Path_96889" data-name="Path 96889" d="M404.294,377.038l-19.779-10.93-6.355,3.135,19.967,11.344Z" transform="translate(-372.832 -363.376)" fill="#707070"/>
          <path id="Path_96890" data-name="Path 96890" d="M404.227,377.028l-19.727-10.9-6.3,3.1,19.92,11.314Z" transform="translate(-372.816 -363.368)" fill="#6f6f6f"/>
          <path id="Path_96891" data-name="Path 96891" d="M404.159,377.019l-19.675-10.869-6.244,3.069L398.113,380.5Z" transform="translate(-372.8 -363.36)" fill="#6d6d6d"/>
          <path id="Path_96892" data-name="Path 96892" d="M404.092,377.009,384.468,366.17l-6.188,3.035,19.826,11.254Z" transform="translate(-372.784 -363.352)" fill="#6c6c6c"/>
          <path id="Path_96893" data-name="Path 96893" d="M404.025,377,384.453,366.19l-6.133,3L398.1,380.416Z" transform="translate(-372.767 -363.343)" fill="#6a6a6a"/>
          <path id="Path_96894" data-name="Path 96894" d="M403.957,376.989l-19.52-10.778-6.077,2.969,19.731,11.194Z" transform="translate(-372.751 -363.335)" fill="#696969"/>
          <path id="Path_96895" data-name="Path 96895" d="M403.89,376.979l-19.468-10.748-6.022,2.936,19.684,11.163Z" transform="translate(-372.735 -363.327)" fill="#676767"/>
          <path id="Path_96896" data-name="Path 96896" d="M403.823,376.969l-19.417-10.717-5.966,2.9,19.637,11.134Z" transform="translate(-372.719 -363.318)" fill="#666"/>
          <path id="Path_96897" data-name="Path 96897" d="M403.755,376.959,384.39,366.272l-5.911,2.869,19.59,11.1Z" transform="translate(-372.703 -363.31)" fill="#646464"/>
          <path id="Path_96898" data-name="Path 96898" d="M403.688,376.95l-19.313-10.657-5.855,2.836L398.063,380.2Z" transform="translate(-372.687 -363.302)" fill="#636363"/>
          <path id="Path_96899" data-name="Path 96899" d="M403.621,376.94l-19.262-10.626-5.8,2.8,19.5,11.043Z" transform="translate(-372.671 -363.294)" fill="#616161"/>
          <path id="Path_96900" data-name="Path 96900" d="M403.554,376.93l-19.21-10.6L378.6,369.1l19.449,11.013Z" transform="translate(-372.654 -363.285)" fill="#606060"/>
          <path id="Path_96901" data-name="Path 96901" d="M403.486,376.92l-19.158-10.566-5.689,2.736,19.4,10.983Z" transform="translate(-372.638 -363.277)" fill="#5e5e5e"/>
          <path id="Path_96902" data-name="Path 96902" d="M403.419,376.91l-19.106-10.536-5.633,2.7,19.355,10.953Z" transform="translate(-372.622 -363.269)" fill="#5d5d5d"/>
          <path id="Path_96903" data-name="Path 96903" d="M403.352,376.9,384.3,366.4l-5.578,2.67,19.308,10.923Z" transform="translate(-372.606 -363.26)" fill="#5b5b5b"/>
          <path id="Path_96904" data-name="Path 96904" d="M403.284,376.891l-19-10.475-5.522,2.637,19.261,10.893Z" transform="translate(-372.59 -363.252)" fill="#5a5a5a"/>
          <path id="Path_96905" data-name="Path 96905" d="M403.217,376.881l-18.951-10.445-5.467,2.6L398.013,379.9Z" transform="translate(-372.574 -363.244)" fill="#585858"/>
          <path id="Path_96906" data-name="Path 96906" d="M403.15,376.871l-18.9-10.414-5.411,2.57,19.167,10.833Z" transform="translate(-372.558 -363.236)" fill="#575757"/>
          <path id="Path_96907" data-name="Path 96907" d="M403.082,376.861l-18.848-10.384-5.356,2.537L398,379.817Z" transform="translate(-372.541 -363.227)" fill="#555"/>
          <path id="Path_96908" data-name="Path 96908" d="M403.015,376.851l-18.8-10.354-5.3,2.5,19.072,10.773Z" transform="translate(-372.525 -363.219)" fill="#545454"/>
          <path id="Path_96909" data-name="Path 96909" d="M402.948,376.842,384.2,366.518l-5.245,2.47,19.025,10.743Z" transform="translate(-372.509 -363.211)" fill="#525252"/>
          <path id="Path_96910" data-name="Path 96910" d="M402.881,376.832l-18.693-10.293L379,368.976l18.978,10.713Z" transform="translate(-372.493 -363.202)" fill="#515151"/>
          <path id="Path_96911" data-name="Path 96911" d="M402.813,376.822l-18.641-10.263-5.134,2.4,18.931,10.683Z" transform="translate(-372.477 -363.194)" fill="#4f4f4f"/>
          <path id="Path_96912" data-name="Path 96912" d="M402.746,376.812,384.157,366.58l-5.078,2.371L397.963,379.6Z" transform="translate(-372.461 -363.186)" fill="#4e4e4e"/>
          <path id="Path_96913" data-name="Path 96913" d="M402.679,376.8l-18.537-10.2-5.023,2.338,18.837,10.623Z" transform="translate(-372.445 -363.178)" fill="#4c4c4c"/>
          <path id="Path_96914" data-name="Path 96914" d="M402.611,376.792l-18.486-10.172-4.967,2.3,18.79,10.593Z" transform="translate(-372.428 -363.169)" fill="#4b4b4b"/>
          <path id="Path_96915" data-name="Path 96915" d="M402.544,376.783,384.11,366.641l-4.912,2.271,18.743,10.563Z" transform="translate(-372.412 -363.161)" fill="#494949"/>
          <path id="Path_96916" data-name="Path 96916" d="M402.477,376.773l-18.382-10.111-4.856,2.238,18.7,10.533Z" transform="translate(-372.396 -363.153)" fill="#484848"/>
          <path id="Path_96917" data-name="Path 96917" d="M402.409,376.763l-18.33-10.081-4.8,2.2,18.649,10.5Z" transform="translate(-372.38 -363.145)" fill="#464646"/>
          <path id="Path_96918" data-name="Path 96918" d="M402.342,376.753,384.063,366.7l-4.745,2.171,18.6,10.473Z" transform="translate(-372.364 -363.136)" fill="#454545"/>
          <path id="Path_96919" data-name="Path 96919" d="M402.275,376.743l-18.227-10.02-4.69,2.138L397.913,379.3Z" transform="translate(-372.348 -363.128)" fill="#434343"/>
          <path id="Path_96920" data-name="Path 96920" d="M402.208,376.733l-18.175-9.99-4.634,2.1,18.507,10.413Z" transform="translate(-372.331 -363.12)" fill="#424242"/>
          <path id="Path_96921" data-name="Path 96921" d="M402.14,376.724l-18.124-9.96-4.578,2.072,18.46,10.383Z" transform="translate(-372.315 -363.111)" fill="#404040"/>
          <path id="Path_96922" data-name="Path 96922" d="M402.073,376.714,384,366.784l-4.523,2.039,18.413,10.353Z" transform="translate(-372.299 -363.103)" fill="#3f3f3f"/>
          <path id="Path_96923" data-name="Path 96923" d="M402.006,376.7l-18.02-9.9-4.467,2.005,18.366,10.323Z" transform="translate(-372.283 -363.095)" fill="#3d3d3d"/>
          <path id="Path_96924" data-name="Path 96924" d="M401.938,376.694l-17.969-9.869-4.412,1.972,18.319,10.293Z" transform="translate(-372.267 -363.087)" fill="#3c3c3c"/>
          <path id="Path_96925" data-name="Path 96925" d="M401.871,376.684l-17.917-9.838-4.357,1.939,18.272,10.263Z" transform="translate(-372.251 -363.078)" fill="#3a3a3a"/>
          <path id="Path_96926" data-name="Path 96926" d="M401.8,376.674l-17.865-9.808-4.3,1.906L397.863,379Z" transform="translate(-372.235 -363.07)" fill="#393939"/>
          <path id="Path_96927" data-name="Path 96927" d="M401.737,376.665l-17.813-9.778-4.245,1.872,18.178,10.2Z" transform="translate(-372.219 -363.062)" fill="#373737"/>
          <path id="Path_96928" data-name="Path 96928" d="M401.669,376.655l-17.761-9.747-4.19,1.839,18.131,10.173Z" transform="translate(-372.202 -363.053)" fill="#363636"/>
          <path id="Path_96929" data-name="Path 96929" d="M401.6,376.645l-17.71-9.717-4.134,1.806,18.084,10.143Z" transform="translate(-372.186 -363.045)" fill="#343434"/>
          <path id="Path_96930" data-name="Path 96930" d="M401.535,376.635l-17.658-9.687-4.079,1.773,18.037,10.113Z" transform="translate(-372.17 -363.037)" fill="#333"/>
          <path id="Path_96931" data-name="Path 96931" d="M401.467,376.625l-17.606-9.657-4.023,1.74,17.989,10.083Z" transform="translate(-372.154 -363.029)" fill="#313131"/>
          <path id="Path_96932" data-name="Path 96932" d="M401.4,376.615l-17.555-9.626-3.968,1.706,17.943,10.053Z" transform="translate(-372.138 -363.02)" fill="#303030"/>
          <path id="Path_96933" data-name="Path 96933" d="M401.333,376.606l-17.5-9.6-3.912,1.673,17.9,10.023Z" transform="translate(-372.122 -363.012)" fill="#2e2e2e"/>
          <path id="Path_96934" data-name="Path 96934" d="M401.265,376.6l-17.451-9.566-3.857,1.64,17.848,9.993Z" transform="translate(-372.105 -363.004)" fill="#2d2d2d"/>
          <path id="Path_96935" data-name="Path 96935" d="M401.2,376.586l-17.4-9.535-3.8,1.607,17.8,9.963Z" transform="translate(-372.089 -362.995)" fill="#2b2b2b"/>
          <path id="Path_96936" data-name="Path 96936" d="M401.131,376.576l-17.348-9.505-3.746,1.574,17.754,9.933Z" transform="translate(-372.073 -362.987)" fill="#2a2a2a"/>
          <path id="Path_96937" data-name="Path 96937" d="M401.064,376.566l-17.3-9.475-3.69,1.54,17.707,9.9Z" transform="translate(-372.057 -362.979)" fill="#282828"/>
          <path id="Path_96938" data-name="Path 96938" d="M401,376.557l-17.244-9.444-3.635,1.507,17.66,9.873Z" transform="translate(-372.041 -362.971)" fill="#272727"/>
          <path id="Path_96939" data-name="Path 96939" d="M400.929,376.547l-17.193-9.414-3.579,1.474,17.613,9.843Z" transform="translate(-372.025 -362.962)" fill="#252525"/>
          <path id="Path_96940" data-name="Path 96940" d="M400.862,376.537l-17.141-9.384-3.524,1.441,17.566,9.813Z" transform="translate(-372.009 -362.954)" fill="#242424"/>
          <path id="Path_96941" data-name="Path 96941" d="M400.794,376.527l-17.089-9.354-3.468,1.407,17.519,9.783Z" transform="translate(-371.992 -362.946)" fill="#222"/>
          <path id="Path_96942" data-name="Path 96942" d="M400.727,376.517l-17.037-9.323-3.413,1.374,17.472,9.753Z" transform="translate(-371.976 -362.938)" fill="#212121"/>
          <path id="Path_96943" data-name="Path 96943" d="M400.66,376.507l-16.986-9.293-3.357,1.341,17.425,9.723Z" transform="translate(-371.96 -362.929)" fill="#1f1f1f"/>
          <path id="Path_96944" data-name="Path 96944" d="M400.592,376.5l-16.934-9.263-3.3,1.308,17.377,9.692Z" transform="translate(-371.944 -362.921)" fill="#1e1e1e"/>
          <path id="Path_96945" data-name="Path 96945" d="M400.525,376.488l-16.882-9.232L380.4,368.53l17.33,9.663Z" transform="translate(-371.928 -362.913)" fill="#1c1c1c"/>
        </g>
        <g id="Group_36450" data-name="Group 36450">
          <g id="Group_36446" data-name="Group 36446" transform="translate(17.947 52.297)">
            <path id="Path_96946" data-name="Path 96946" d="M344.086,386.489l6.546-3.47,20.926,11.836-6.546,3.684Z" transform="translate(-344.086 -372.474)" fill="#eff3f3"/>
            <path id="Path_96947" data-name="Path 96947" d="M358.987,397.067l6.546-3.684v-1.936l-6.546,3.684Z" transform="translate(-338.061 -369.067)" fill="#d35400"/>
            <path id="Path_96948" data-name="Path 96948" d="M365.012,399.475l-20.926-12.05V385.49l20.926,12.05Z" transform="translate(-344.086 -371.475)" fill="#c1382a"/>
            <g id="Group_36445" data-name="Group 36445" transform="translate(0.702)">
              <path id="Path_96949" data-name="Path 96949" d="M364.883,401.222V387.139l-20.3-11.629v14.083Z" transform="translate(-344.586 -375.51)" fill="#777f7f"/>
              <path id="Path_96950" data-name="Path 96950" d="M359.039,398.824V384.741l5.714-3.3v14.083Z" transform="translate(-338.743 -373.112)" fill="#dbdbdb"/>
            </g>
          </g>
          <g id="Group_36448" data-name="Group 36448" transform="translate(64.582 25.788)">
            <path id="Path_96951" data-name="Path 96951" d="M377.295,367.612l6.546-3.47,20.926,11.836-6.546,3.684Z" transform="translate(-377.295 -353.598)" fill="#eff3f3"/>
            <path id="Path_96952" data-name="Path 96952" d="M392.2,378.19l6.546-3.684V372.57l-6.546,3.684Z" transform="translate(-371.27 -350.19)" fill="#d35400"/>
            <path id="Path_96953" data-name="Path 96953" d="M398.221,380.6l-20.926-12.05v-1.936l20.926,12.05Z" transform="translate(-377.295 -352.599)" fill="#c1382a"/>
            <g id="Group_36447" data-name="Group 36447" transform="translate(0.702)">
              <path id="Path_96954" data-name="Path 96954" d="M398.092,382.346V368.262l-20.3-11.629v14.083Z" transform="translate(-377.795 -356.634)" fill="#777f7f"/>
              <path id="Path_96955" data-name="Path 96955" d="M392.248,379.948V365.864l5.714-3.3v14.083Z" transform="translate(-371.951 -354.236)" fill="#dbdbdb"/>
            </g>
          </g>
          <g id="Group_36449" data-name="Group 36449">
            <path id="Path_96956" data-name="Path 96956" d="M386.716,340.126c19.785-9.385,34.518,19.417,20.27,28.281C406.986,368.408,387.31,341.521,386.716,340.126Z" transform="translate(-308.904 -338.27)" fill="#f2d323"/>
            <path id="Path_96957" data-name="Path 96957" d="M417.851,341.123c-4.117-2.312-7.8-2.5-10.226-.914-1.886,1.23-69.313,39.326-71.741,40.975-1.831,1.244-2.929,3.518-2.929,6.665,0,7.315,5.93,16.574,13.247,20.68,3.938,2.21,7.474,2.477,9.9,1.112.347-.2,70-39.871,72.621-41.6,1.893-1.247,2.375-3.424,2.375-6.238C431.1,354.487,425.168,345.229,417.851,341.123Z" transform="translate(-330.64 -337.904)" fill="#aab7b7"/>
            <path id="Path_96958" data-name="Path 96958" d="M417.851,341.123c-4.117-2.312-7.8-2.5-10.226-.914-1.886,1.23-69.313,39.326-71.741,40.975-1.831,1.244-2.929,3.518-2.929,6.665,0,7.038,5.5,15.865,12.43,20.181,14.186-8.083,59.365-33.838,85.474-48.832C429.7,352.413,424.321,344.754,417.851,341.123Z" transform="translate(-330.64 -337.904)" fill="#dbdbdb"/>
            <path id="Path_96959" data-name="Path 96959" d="M360.114,390.946c.258,3.72-1.555,6.179-3.346,6.922-18.314,7.6-33.243-15.273-21-27.815,2.3-2.359,6.453-2.4,11.1.212C354.183,374.37,359.606,383.647,360.114,390.946Z" transform="translate(-331.306 -326.131)" fill="#f2d323"/>
            <path id="Path_96960" data-name="Path 96960" d="M355.665,398.067l4.088-2.328a7.7,7.7,0,0,0,1.812-5.881c-.518-7.447-6.051-16.914-13.517-21.1a13.026,13.026,0,0,0-7.8-1.962c-1.875,1.077-3.358,1.937-4.325,2.507,2.373-.857,5.606-.353,9.084,1.6,7.315,4.106,12.737,13.383,13.245,20.681C358.471,394.767,357.169,397.018,355.665,398.067Z" transform="translate(-329.441 -326.765)" fill="#d35400"/>
            <path id="Path_96961" data-name="Path 96961" d="M396.7,341.123c-4.117-2.312-7.8-2.5-10.226-.914-.124.081-.541.327-1.2.708,2.3-.572,5.225-.052,8.416,1.739,7.4,4.153,13.4,13.517,13.4,20.914,0,2.514-.385,4.521-1.792,5.825,1.24-.723,2.035-1.2,2.274-1.352,1.893-1.248,2.375-3.424,2.375-6.238C409.943,354.487,404.014,345.229,396.7,341.123Z" transform="translate(-309.486 -337.904)" fill="#d35400"/>
          </g>
        </g>
        <g id="Group_36451" data-name="Group 36451" transform="translate(24.019 20.44)">
          <path id="Path_96962" data-name="Path 96962" d="M370.651,358c-.57-3.171-5.356-.442-11.115-.442-6.04,0-10.959-3.2-11.125.19,0,.059,0,6.039,0,6.1a3.68,3.68,0,0,0,.048.543,16.6,16.6,0,0,1,4.272,1.717,23.635,23.635,0,0,1,5.113,3.946c.553.049,1.115.081,1.692.081,6.144,0,11.124-2.816,11.124-6.288C370.66,363.632,370.651,358,370.651,358Z" transform="translate(-348.41 -351.463)" fill="#aab7b7"/>
          <path id="Path_96963" data-name="Path 96963" d="M348.411,359.112c0-3.471,4.981-6.287,11.125-6.287s11.124,2.816,11.124,6.287-4.98,6.289-11.124,6.289S348.411,362.585,348.411,359.112Z" transform="translate(-348.41 -352.825)" fill="#f2d323"/>
          <path id="Path_96964" data-name="Path 96964" d="M350.641,358.4c0-2.392,3.578-4.33,7.993-4.33s7.992,1.938,7.992,4.33-3.578,4.329-7.992,4.329S350.641,360.79,350.641,358.4Z" transform="translate(-347.508 -352.322)" fill="#dbdbdb"/>
        </g>
        <g id="Group_36452" data-name="Group 36452" transform="translate(24.566 20.152)">
          <path id="Path_96965" data-name="Path 96965" d="M355.685,361.06c0-.008-.037-.809-.038-.817-.041-.448-.624-.025-1.364-.025-.706,0-1.3-.36-1.362.059l.011.784c.007.472.635.858,1.4.858S355.707,361.531,355.685,361.06Z" transform="translate(-347.133 -349.621)" fill="#aab7b7"/>
          <path id="Path_96966" data-name="Path 96966" d="M355.647,360.421c-.021-.458-.642-.826-1.389-.826s-1.345.368-1.338.826.629.843,1.39.843S355.67,360.884,355.647,360.421Z" transform="translate(-347.134 -349.8)" fill="#d35400"/>
          <path id="Path_96967" data-name="Path 96967" d="M352.015,359.277c0-.007.01-.764.01-.771-.014-.424-.605-.024-1.326-.024-.685,0-1.241-.341-1.326.055l-.034.74c-.02.445.569.81,1.314.81S352.01,359.722,352.015,359.277Z" transform="translate(-348.581 -350.319)" fill="#aab7b7"/>
          <path id="Path_96968" data-name="Path 96968" d="M352.016,358.675c.006-.434-.579-.781-1.3-.781s-1.33.347-1.348.781.565.795,1.3.795S352.01,359.112,352.016,358.675Z" transform="translate(-348.571 -350.488)" fill="#d35400"/>
          <path id="Path_96969" data-name="Path 96969" d="M351.355,356.478c0-.007.017-.7.015-.7-.008-.386-.577-.022-1.264-.022-.656,0-1.182-.31-1.268.051l-.038.674c-.022.406.536.739,1.248.739S351.345,356.884,351.355,356.478Z" transform="translate(-348.8 -351.416)" fill="#aab7b7"/>
          <path id="Path_96970" data-name="Path 96970" d="M351.359,355.93c.01-.395-.543-.712-1.237-.712s-1.272.317-1.293.712.532.725,1.237.725S351.35,356.329,351.359,355.93Z" transform="translate(-348.788 -351.57)" fill="#d35400"/>
          <path id="Path_96971" data-name="Path 96971" d="M353.123,354.71c0-.007,0-.657,0-.663-.021-.364-.563-.021-1.23-.021-.636,0-1.157-.292-1.229.048,0,0-.017.612-.017.636-.01.382.542.7,1.233.7S353.125,355.092,353.123,354.71Z" transform="translate(-348.054 -352.111)" fill="#aab7b7"/>
          <path id="Path_96972" data-name="Path 96972" d="M353.115,354.192c0-.372-.551-.671-1.223-.671s-1.226.3-1.236.671.538.684,1.222.684S353.116,354.569,353.115,354.192Z" transform="translate(-348.049 -352.256)" fill="#d35400"/>
          <path id="Path_96973" data-name="Path 96973" d="M356.05,353.767c0-.007-.035-.633-.037-.639-.036-.351-.552-.021-1.208-.021-.625,0-1.152-.282-1.2.046l.014.614c.008.368.565.67,1.243.67S356.07,354.135,356.05,353.767Z" transform="translate(-346.858 -352.48)" fill="#aab7b7"/>
          <path id="Path_96974" data-name="Path 96974" d="M356.014,353.269c-.02-.359-.572-.649-1.233-.649s-1.189.289-1.181.649.56.659,1.233.659S356.035,353.631,356.014,353.269Z" transform="translate(-346.859 -352.62)" fill="#d35400"/>
        </g>
        <g id="Group_36453" data-name="Group 36453" transform="translate(36.692 20.152)">
          <path id="Path_96975" data-name="Path 96975" d="M357.774,361.06c0-.008.037-.809.038-.817.041-.448.624-.025,1.364-.025.706,0,1.3-.36,1.362.059,0,0-.01.754-.011.784-.007.472-.635.858-1.4.858S357.752,361.531,357.774,361.06Z" transform="translate(-357.297 -349.621)" fill="#aab7b7"/>
          <path id="Path_96976" data-name="Path 96976" d="M357.8,360.421c.021-.458.643-.826,1.389-.826s1.345.368,1.338.826-.629.843-1.39.843S357.779,360.884,357.8,360.421Z" transform="translate(-357.287 -349.8)" fill="#d35400"/>
          <path id="Path_96977" data-name="Path 96977" d="M361.421,359.277c0-.007-.01-.764-.01-.771.014-.424.605-.024,1.326-.024.685,0,1.241-.341,1.326.055l.034.74c.02.445-.569.81-1.314.81S361.426,359.722,361.421,359.277Z" transform="translate(-355.827 -350.319)" fill="#aab7b7"/>
          <path id="Path_96978" data-name="Path 96978" d="M361.411,358.675c-.006-.434.579-.781,1.3-.781s1.33.347,1.348.781-.565.795-1.3.795S361.417,359.112,361.411,358.675Z" transform="translate(-355.827 -350.488)" fill="#d35400"/>
          <path id="Path_96979" data-name="Path 96979" d="M362.05,356.478c0-.007-.018-.7-.017-.7.008-.386.577-.022,1.264-.022.656,0,1.182-.31,1.268.051l.038.674c.022.406-.536.739-1.248.739S362.058,356.884,362.05,356.478Z" transform="translate(-355.575 -351.416)" fill="#aab7b7"/>
          <path id="Path_96980" data-name="Path 96980" d="M362.033,355.93c-.01-.395.544-.712,1.237-.712s1.272.317,1.293.712-.531.725-1.237.725S362.041,356.329,362.033,355.93Z" transform="translate(-355.575 -351.57)" fill="#d35400"/>
          <path id="Path_96981" data-name="Path 96981" d="M360.277,354.756c0-.006,0-.656,0-.661.02-.364.562-.021,1.229-.021.636,0,1.157-.294,1.229.048,0,0,.017.611.017.635.01.383-.541.7-1.232.7S360.276,355.139,360.277,354.756Z" transform="translate(-356.285 -352.092)" fill="#aab7b7"/>
          <path id="Path_96982" data-name="Path 96982" d="M360.28,354.24c0-.374.549-.673,1.222-.673s1.227.3,1.236.673-.536.683-1.222.683S360.277,354.615,360.28,354.24Z" transform="translate(-356.284 -352.237)" fill="#d35400"/>
          <path id="Path_96983" data-name="Path 96983" d="M357.435,353.767c0-.007.035-.633.035-.639.038-.351.553-.021,1.208-.021.625,0,1.152-.282,1.206.046l-.014.614c-.008.368-.566.67-1.244.67S357.414,354.135,357.435,353.767Z" transform="translate(-357.435 -352.48)" fill="#aab7b7"/>
          <path id="Path_96984" data-name="Path 96984" d="M357.46,353.269c.02-.359.572-.649,1.233-.649s1.191.289,1.182.649-.562.659-1.234.659S357.44,353.631,357.46,353.269Z" transform="translate(-357.424 -352.62)" fill="#d35400"/>
        </g>
        <g id="Group_36455" data-name="Group 36455" transform="translate(6.319 65.184)">
          <path id="Path_96985" data-name="Path 96985" d="M341.979,388.588A4.608,4.608,0,0,0,339.647,385a1.933,1.933,0,0,0-1.559-.235c-.122.045-1.68.844-1.8.931a1.371,1.371,0,0,0-.486,1.15,4.606,4.606,0,0,0,2.333,3.588,1.924,1.924,0,0,0,1.57.23c.118-.045,1.64-.826,1.748-.9A1.348,1.348,0,0,0,341.979,388.588Z" transform="translate(-335.806 -384.687)" fill="#777f7f"/>
          <g id="Group_36454" data-name="Group 36454" transform="translate(0.041 0.769)">
            <path id="Path_96986" data-name="Path 96986" d="M337.629,387.182v-1.845a1.247,1.247,0,0,0-1.792.882Z" transform="translate(-335.834 -385.235)" fill="#dbdbdb"/>
            <path id="Path_96987" data-name="Path 96987" d="M337.707,387.477l1.952,1.049a4.787,4.787,0,0,0-1.952-2.915Z" transform="translate(-335.078 -385.082)" fill="#dbdbdb"/>
            <path id="Path_96988" data-name="Path 96988" d="M337.63,387.492l-1.795-.963a4.778,4.778,0,0,0,1.795,2.837Z" transform="translate(-335.835 -384.711)" fill="#dbdbdb"/>
            <path id="Path_96989" data-name="Path 96989" d="M337.707,387.535v1.9c1,.39,1.784.048,1.956-.845Z" transform="translate(-335.078 -384.305)" fill="#dbdbdb"/>
          </g>
        </g>
      </g>
    </g>
  </g>
</svg>
