<svg xmlns="http://www.w3.org/2000/svg" width="212.339" height="68.277" viewBox="0 0 212.339 68.277"><g data-name="Component 9 – 1"><path data-name="Path 94589" d="M197.957 35.906H68.446a29.963 29.963 0 0 0-29.918-28.64h-.521a29.986 29.986 0 1 0 0 59.972h159.95a14.423 14.423 0 0 0 14.382-14.382v-2.567a14.423 14.423 0 0 0-14.382-14.383Z" fill="#e5a026"/><g data-name="Group 35889"><path data-name="Path 94590" d="M69.134 33.025a.95.95 0 0 0-.865 1.022c.014.145 1.1 14.5-8.527 23a.949.949 0 1 0 1.256 1.423c10.361-9.145 9.215-23.957 9.161-24.583a.946.946 0 0 0-1.025-.862Z" fill="#fff"/></g><path data-name="Path 94591" d="M22.899 2.752a37.437 37.437 0 0 0-6.911 65.182 1.9 1.9 0 0 0 2.176-3.111A33.641 33.641 0 0 1 24.373 6.25a1.9 1.9 0 1 0-1.473-3.5Z" fill="#325c92"/><path data-name="Path 94592" d="M33.725.01a36.905 36.905 0 0 0-3.838.578 1.9 1.9 0 1 0 .761 3.717 33.3 33.3 0 0 1 3.445-.519A1.9 1.9 0 1 0 33.725.01Z" fill="#325c92"/><path data-name="Path 94593" d="M49.151 43.025a2.819 2.819 0 0 0-4.218-.616c-1.127.835-2.26 1.666-3.373 2.526a.589.589 0 0 1-.837.024c-.584-.445-1.228-.817-1.789-1.286a30.817 30.817 0 0 1-6.4-7.8 17.724 17.724 0 0 1-2.025-4.625.6.6 0 0 1 .266-.753c1.123-.811 2.236-1.652 3.343-2.485a2.839 2.839 0 0 0 .62-4.327c-.65-.886-1.314-1.775-1.978-2.653-.682-.912-1.348-1.823-2.039-2.737a2.836 2.836 0 0 0-4.228-.618c-1.129.831-2.244 1.7-3.383 2.51a4.864 4.864 0 0 0-1.98 3.031 14.04 14.04 0 0 0 .2 6.07 36.709 36.709 0 0 0 4.82 11.552 39.734 39.734 0 0 0 11.582 12.14 18.917 18.917 0 0 0 6.933 3.16 5.377 5.377 0 0 0 4.812-1.067c.986-.819 2.057-1.542 3.091-2.312a2.846 2.846 0 0 0 .65-4.287c-1.359-1.829-2.715-3.634-4.067-5.447Z" fill="#fff"/></g><g data-name="Component 11 – 1"><text data-name="Call Us Now! - 24/7" fill="#fff" font-size="14" font-family="Inter-Bold, Inter" font-weight="700" text-decoration="underline" transform="translate(69.727 43.034)"><tspan x="2" y="14">Call Us Now! - 24/7</tspan></text></g></svg>