<svg id="Google_Play_Store_badge_EN" xmlns="http://www.w3.org/2000/svg" xmlns:xlink="http://www.w3.org/1999/xlink" width="331.5" height="112.047" viewBox="0 0 331.5 112.047">
  <defs>
    <linearGradient id="linear-gradient" x1="2.472" y1="1.035" x2="2.361" y2="1.005" gradientUnits="objectBoundingBox">
      <stop offset="0" stop-color="#00a0ff"/>
      <stop offset="0.007" stop-color="#00a1ff"/>
      <stop offset="0.26" stop-color="#00beff"/>
      <stop offset="0.512" stop-color="#00d2ff"/>
      <stop offset="0.76" stop-color="#00dfff"/>
      <stop offset="1" stop-color="#00e3ff"/>
    </linearGradient>
    <linearGradient id="linear-gradient-2" x1="1.95" y1="1.879" x2="1.69" y2="1.879" gradientUnits="objectBoundingBox">
      <stop offset="0" stop-color="#ffe000"/>
      <stop offset="0.409" stop-color="#ffbd00"/>
      <stop offset="0.775" stop-color="orange"/>
      <stop offset="1" stop-color="#ff9c00"/>
    </linearGradient>
    <linearGradient id="linear-gradient-3" x1="1.926" y1="0.946" x2="1.835" y2="0.793" gradientUnits="objectBoundingBox">
      <stop offset="0" stop-color="#ff3a44"/>
      <stop offset="1" stop-color="#c31162"/>
    </linearGradient>
    <linearGradient id="linear-gradient-4" x1="1.856" y1="2.093" x2="1.897" y2="2.025" gradientUnits="objectBoundingBox">
      <stop offset="0" stop-color="#32a071"/>
      <stop offset="0.068" stop-color="#2da771"/>
      <stop offset="0.476" stop-color="#15cf74"/>
      <stop offset="0.801" stop-color="#06e775"/>
      <stop offset="1" stop-color="#00f076"/>
    </linearGradient>
  </defs>
  <path id="Path_94022" data-name="Path 94022" d="M319.218,112.047H12.282C5.513,112.047,0,105.732,0,98.041V14.006C0,6.287,5.513,0,12.282,0H319.218C325.981,0,331.5,6.287,331.5,14.006V98.041C331.5,105.732,325.981,112.047,319.218,112.047Z" fill-rule="evenodd"/>
  <path id="Path_94023" data-name="Path 94023" d="M319.218,2.242c5.678,0,10.325,5.288,10.325,11.763V98.041c0,6.476-4.617,11.763-10.325,11.763H12.282c-5.678,0-10.325-5.288-10.325-11.763V14.006c0-6.476,4.617-11.763,10.325-11.763Zm0-2.242H12.282C5.513,0,0,6.315,0,14.006V98.041c0,7.719,5.513,14.006,12.282,14.006H319.218c6.763,0,12.282-6.287,12.282-14.006V14.006C331.5,6.315,325.981,0,319.218,0Z" fill="#a6a6a6" fill-rule="evenodd"/>
  <path id="Path_94024" data-name="Path 94024" d="M1728.049,287.113a7.443,7.443,0,0,1-5.556-2.3,7.83,7.83,0,0,1-2.244-5.611,7.656,7.656,0,0,1,2.244-5.6,7.42,7.42,0,0,1,5.55-2.3,7.519,7.519,0,0,1,5.556,2.3,8.12,8.12,0,0,1,0,11.209A7.38,7.38,0,0,1,1728.049,287.113Zm-65.869,0a7.717,7.717,0,0,1-5.58-2.269,7.9,7.9,0,0,1,5.58-13.539,7.777,7.777,0,0,1,3.116.646,6.3,6.3,0,0,1,2.372,1.7l.146.177-1.653,1.622-.171-.2a4.7,4.7,0,0,0-3.836-1.653,5.3,5.3,0,0,0-3.824,1.561,5.928,5.928,0,0,0,0,8.123,5.59,5.59,0,0,0,7.751,0,4.225,4.225,0,0,0,1.122-2.543h-5.3v-2.281h7.574l.031.207a8.361,8.361,0,0,1,.11,1.147,6.866,6.866,0,0,1-1.891,5.062A7.379,7.379,0,0,1,1662.179,287.113Zm87.58-.323h-2.336l-7.154-11.447.061,2.061v9.379H1738V271.629h2.665l.073.116,6.727,10.782-.061-2.055v-8.843h2.36Zm-39.262,0h-2.366V273.91h-4.1v-2.281H1714.6v2.281h-4.1v12.88Zm-8.4,0h-2.36V271.629h2.36Zm-13.264,0h-2.36V273.91h-4.1v-2.281h10.568v2.281h-4.1Zm-7.958-.024h-9.05V271.629h9.05v2.281h-6.684v4.159h6.031v2.256h-6.031v4.159h6.684Zm43.348-3.519a5.222,5.222,0,0,0,3.824,1.586,5.09,5.09,0,0,0,3.824-1.586,6.009,6.009,0,0,0,.006-8.074,5.232,5.232,0,0,0-3.824-1.586,5.067,5.067,0,0,0-3.818,1.586,6.018,6.018,0,0,0-.012,8.074Z" transform="translate(-1553.413 -248.66)" fill="#fff"/>
  <path id="Path_94025" data-name="Path 94025" d="M1712.893,694.551a10.4,10.4,0,1,0,10.435,10.4A10.241,10.241,0,0,0,1712.893,694.551Zm0,16.685a6.322,6.322,0,1,1,5.867-6.306A6.02,6.02,0,0,1,1712.893,711.236Zm-22.766-16.685a10.4,10.4,0,1,0,10.435,10.4A10.241,10.241,0,0,0,1690.127,694.551Zm0,16.685a6.322,6.322,0,1,1,5.867-6.306A6.02,6.02,0,0,1,1690.127,711.236Zm-27.089-13.508v4.4h10.569a9.28,9.28,0,0,1-2.39,5.543,10.784,10.784,0,0,1-8.154,3.232,11.741,11.741,0,0,1,0-23.479,11.282,11.282,0,0,1,7.958,3.153l3.123-3.122A15.354,15.354,0,0,0,1663.086,683a16.144,16.144,0,1,0,0,32.285,14.778,14.778,0,0,0,11.276-4.537c2.909-2.909,3.83-7.013,3.83-10.325a13.623,13.623,0,0,0-.244-2.744h-14.917C1663.038,697.673,1663.038,697.728,1663.038,697.728Zm110.8,3.427c-.872-2.336-3.507-6.629-8.91-6.629-5.354,0-9.806,4.214-9.806,10.4a10.169,10.169,0,0,0,10.325,10.4,10.327,10.327,0,0,0,8.666-4.616l-3.531-2.366a5.916,5.916,0,0,1-5.11,2.878,5.313,5.313,0,0,1-5.056-3.153l13.911-5.763C1774.329,702.32,1773.841,701.155,1773.841,701.155Zm-14.185,3.476a5.71,5.71,0,0,1,5.434-6.062,4.011,4.011,0,0,1,3.86,2.2Zm-11.3,10.081h4.568V684.146h-4.568Zm-7.5-17.85h-.165a7.206,7.206,0,0,0-5.489-2.336,10.4,10.4,0,0,0,0,20.79,7.187,7.187,0,0,0,5.489-2.366h.165v1.494c0,3.97-2.122,6.111-5.543,6.111a5.767,5.767,0,0,1-5.245-3.7l-3.97,1.659a9.93,9.93,0,0,0,9.208,6.141c5.354,0,9.892-3.153,9.892-10.843V695.148h-4.318v1.714Zm-5.245,14.374a5.965,5.965,0,0,1-5.788-6.275c0-3.671,2.635-6.33,5.788-6.33,3.122,0,5.543,2.689,5.543,6.33C1741.183,708.6,1738.738,711.236,1735.609,711.236Zm59.618-27.089h-10.922v30.565h4.568V703.137h6.361c5.056,0,10.026-3.665,10.026-9.483S1800.308,684.146,1795.228,684.146Zm.134,14.722h-6.495V688.379h6.495a5.246,5.246,0,1,1,0,10.489Zm28.205-4.373c-3.318,0-6.739,1.47-8.154,4.671l4.049,1.683a4.343,4.343,0,0,1,4.159-2.256c2.366,0,4.757,1.415,4.812,3.94v.323a10.233,10.233,0,0,0-4.757-1.171c-4.373,0-8.806,2.391-8.806,6.873,0,4.1,3.586,6.739,7.58,6.739a6.429,6.429,0,0,0,5.812-2.988h.165v2.366h4.4V702.966C1832.831,697.514,1828.781,694.5,1823.567,694.5Zm-.573,16.74c-1.494,0-3.586-.732-3.586-2.61,0-2.366,2.61-3.263,4.836-3.263a7.928,7.928,0,0,1,4.159,1.031A5.5,5.5,0,0,1,1822.994,711.236Zm25.9-16.088-5.245,13.258h-.165l-5.434-13.258h-4.915l8.154,18.533-4.647,10.3h4.757l12.544-28.834Zm-41.116,19.564h4.568V684.146h-4.568Z" transform="translate(-1546.277 -635.252)" fill="#fff" fill-rule="evenodd"/>
  <path id="Path_94026" data-name="Path 94026" d="M401.216,299.565a4.954,4.954,0,0,0-1.116,3.452v54.075a4.715,4.715,0,0,0,1.14,3.421l.189.165,30.3-30.3V329.7l-30.322-30.3Z" transform="translate(-375.7 -275.046)" fill-rule="evenodd" fill="url(#linear-gradient)"/>
  <path id="Path_94027" data-name="Path 94027" d="M928.405,651.418,918.3,641.313v-.707L928.405,630.5l.22.134,11.953,6.794c3.421,1.927,3.421,5.111,0,7.062l-11.953,6.794Z" transform="translate(-862.298 -585.954)" fill-rule="evenodd" fill="url(#linear-gradient-2)"/>
  <path id="Path_94028" data-name="Path 94028" d="M459.211,812.325,448.886,802,418.4,832.486c1.116,1.2,2.988,1.329,5.08.165l35.731-20.326" transform="translate(-392.884 -746.995)" fill-rule="evenodd" fill="url(#linear-gradient-3)"/>
  <path id="Path_94029" data-name="Path 94029" d="M459.211,307.595,423.48,287.3c-2.092-1.2-3.97-1.031-5.08.165l30.486,30.456Z" transform="translate(-392.884 -262.914)" fill-rule="evenodd" fill="url(#linear-gradient-4)"/>
  <path id="Path_94030" data-name="Path 94030" d="M459.367,967.7,423.88,987.861c-1.982,1.14-3.751,1.061-4.891.024l-.189.189.189.165c1.14,1.031,2.909,1.116,4.891-.024l35.731-20.3Z" transform="translate(-393.26 -902.59)" fill-rule="evenodd" opacity="0.2"/>
  <path id="Path_94031" data-name="Path 94031" d="M1095.7,805.177l-12.2,6.928.219.22,11.953-6.794c1.714-.976,2.555-2.256,2.555-3.531C1098.124,803.171,1097.252,804.281,1095.7,805.177Z" transform="translate(-1017.423 -746.995)" fill-rule="evenodd" opacity="0.12"/>
  <path id="Path_94032" data-name="Path 94032" d="M406.3,287.489l47.684,27.089a4.494,4.494,0,0,1,2.555,3.177c0-1.275-.842-2.555-2.555-3.531L406.3,287.135c-3.421-1.958-6.2-.323-6.2,3.586v.354C400.1,287.159,402.875,285.555,406.3,287.489Z" transform="translate(-375.7 -262.75)" fill="#fff" fill-rule="evenodd" opacity="0.25"/>
</svg>
