<svg xmlns="http://www.w3.org/2000/svg" width="56.305" height="56.307" viewBox="0 0 56.305 56.307">
  <g id="Group_37172" data-name="Group 37172" transform="translate(-1370.188 -2823)">
    <path id="Icon_awesome-tools" data-name="Icon awesome-tools" d="M55.1,43.513,42.228,30.636a8.165,8.165,0,0,0-9.391-1.529L21.115,17.385V10.557L7.04,0,0,7.038,10.559,21.113h6.829L29.109,32.835a8.183,8.183,0,0,0,1.529,9.391L43.515,55.1a4.088,4.088,0,0,0,5.8,0l5.8-5.8a4.108,4.108,0,0,0,0-5.8ZM36.477,24.742a11.57,11.57,0,0,1,8.236,3.409l2.133,2.133a15.565,15.565,0,0,0,4.816-3.244,15.814,15.814,0,0,0,4.168-15.032,1.316,1.316,0,0,0-2.21-.6l-8.181,8.181-7.467-1.243L36.73,10.875l8.181-8.181A1.328,1.328,0,0,0,44.285.473,15.841,15.841,0,0,0,29.263,4.64a15.583,15.583,0,0,0-4.531,11.392l9.028,9.028a11.979,11.979,0,0,1,2.716-.319ZM25.052,33.759l-6.235-6.235L2.058,44.294a7.037,7.037,0,0,0,9.952,9.952L25.6,40.654a11.809,11.809,0,0,1-.55-6.895ZM7.04,51.9a2.639,2.639,0,1,1,2.639-2.639A2.647,2.647,0,0,1,7.04,51.9Z" transform="translate(1370.191 2823)" fill="#4f72b2"/>
    <path id="Icon_awesome-tools-2" data-name="Icon awesome-tools" d="M55.1,43.513,42.228,30.636a8.165,8.165,0,0,0-9.391-1.529L21.115,17.385V10.557L7.04,0,0,7.038,10.559,21.113h6.829L29.109,32.835a8.183,8.183,0,0,0,1.529,9.391L43.515,55.1a4.088,4.088,0,0,0,5.8,0l5.8-5.8a4.108,4.108,0,0,0,0-5.8Z" transform="translate(1370.191 2823)" fill="#e4ae27"/>
  </g>
</svg>
