<svg xmlns="http://www.w3.org/2000/svg" width="50" height="57" viewBox="0 0 50 57">
  <g id="Group_37171" data-name="Group 37171" transform="translate(-1021 -2823)">
    <path id="Icon_awesome-building" data-name="Icon awesome-building" d="M47.949,52.788h-2.2V2.639A2.639,2.639,0,0,0,43.11,0H6.159A2.639,2.639,0,0,0,3.519,2.639V52.788H1.32A1.32,1.32,0,0,0,0,54.108v2.2H49.269v-2.2A1.32,1.32,0,0,0,47.949,52.788ZM14.077,8.358a1.32,1.32,0,0,1,1.32-1.32h4.4a1.32,1.32,0,0,1,1.32,1.32v4.4a1.32,1.32,0,0,1-1.32,1.32H15.4a1.32,1.32,0,0,1-1.32-1.32Zm0,10.558A1.32,1.32,0,0,1,15.4,17.6h4.4a1.32,1.32,0,0,1,1.32,1.32v4.4a1.32,1.32,0,0,1-1.32,1.32H15.4a1.32,1.32,0,0,1-1.32-1.32ZM19.8,35.192H15.4a1.32,1.32,0,0,1-1.32-1.32v-4.4a1.32,1.32,0,0,1,1.32-1.32h4.4a1.32,1.32,0,0,1,1.32,1.32v4.4A1.32,1.32,0,0,1,19.8,35.192Zm8.358,17.6H21.115V43.55a1.32,1.32,0,0,1,1.32-1.32h4.4a1.32,1.32,0,0,1,1.32,1.32Zm7.038-18.916a1.32,1.32,0,0,1-1.32,1.32h-4.4a1.32,1.32,0,0,1-1.32-1.32v-4.4a1.32,1.32,0,0,1,1.32-1.32h4.4a1.32,1.32,0,0,1,1.32,1.32Zm0-10.558a1.32,1.32,0,0,1-1.32,1.32h-4.4a1.32,1.32,0,0,1-1.32-1.32v-4.4a1.32,1.32,0,0,1,1.32-1.32h4.4a1.32,1.32,0,0,1,1.32,1.32Zm0-10.558a1.32,1.32,0,0,1-1.32,1.32h-4.4a1.32,1.32,0,0,1-1.32-1.32v-4.4a1.32,1.32,0,0,1,1.32-1.32h4.4a1.32,1.32,0,0,1,1.32,1.32Z" transform="translate(1021.335 2823)" fill="#4f72b2"/>
    <path id="Rectangle_8766" data-name="Rectangle 8766" d="M2,0H48a2,2,0,0,1,2,2V5a0,0,0,0,1,0,0H0A0,0,0,0,1,0,5V2A2,2,0,0,1,2,0Z" transform="translate(1021 2875)" fill="#e4ae27"/>
  </g>
</svg>
