<svg xmlns="http://www.w3.org/2000/svg" width="56.325" height="56.307" viewBox="0 0 56.325 56.307">
  <g id="Icon_ionic-ios-home" data-name="Icon ionic-ios-home" transform="translate(-3.374 -3.375)">
    <path id="Path_87715" data-name="Path 87715" d="M28.745,7.378a.531.531,0,0,0-.677,0L6.953,24.27a.569.569,0,0,0-.2.42V55.821a.272.272,0,0,0,.271.271H21.639a.272.272,0,0,0,.271-.271V36.872a.272.272,0,0,1,.271-.271H34.633a.272.272,0,0,1,.271.271v18.95a.272.272,0,0,0,.271.271H49.792a.272.272,0,0,0,.271-.271V24.69a.547.547,0,0,0-.2-.42Z" transform="translate(3.123 3.59)" fill="#4f72b2"/>
    <path id="Path_87716" data-name="Path 87716" d="M58.966,24.517,33.384,4.025a2.971,2.971,0,0,0-3.709,0L18.536,13.08V7.368a.272.272,0,0,0-.271-.271H10.144a.272.272,0,0,0-.271.271v12.48L4.094,24.6a1.894,1.894,0,0,0-.162,2.829,1.883,1.883,0,0,0,1.34.555,1.907,1.907,0,0,0,1.191-.42L31.354,7.53a.242.242,0,0,1,.176-.054.328.328,0,0,1,.176.054L56.6,27.481a1.907,1.907,0,0,0,1.191.42,1.921,1.921,0,0,0,1.908-2A1.924,1.924,0,0,0,58.966,24.517Z" transform="translate(0)" fill="#e4ae27"/>
  </g>
</svg>
