<svg xmlns="http://www.w3.org/2000/svg" width="56.431" height="56.431" viewBox="0 0 56.431 56.431">
  <g id="Group_37522" data-name="Group 37522" transform="translate(0)">
    <rect id="Rectangle_8277" data-name="Rectangle 8277" width="39.903" height="39.903" transform="translate(28.215 0) rotate(45)" fill="#4f72b2"/>
    <path id="Path_86873" data-name="Path 86873" d="M93.107,78.114a6.305,6.305,0,0,1-2.876,5.193c1.287-1.493,2.517-7.324-1.478-12.3a15.3,15.3,0,0,1-2.016,7.517c.86-4.628-3.361-9.276-1.916-12.595-6.092,2.942-4.226,9-5.851,11.946-.695-2.674-2.488-5.717-3.484-6.078.622,4.512-3.032,5.935-1.507,11.294a12.525,12.525,0,0,1-1.707-6.507c-5.429,7.127-1.071,16.392,4.154,18.469a6.518,6.518,0,0,1,.769-6.269,6.229,6.229,0,0,0,.849,3.232c-.758-2.662,1.058-3.371.749-5.611.495.179,1.387,1.691,1.732,3.019.806-1.464-.12-4.474,2.908-5.935-.72,1.648,1.378,3.958.951,6.26a7.6,7.6,0,0,0,1-3.738c1.984,2.474,1.373,5.37.733,6.112a3.128,3.128,0,0,0,1.428-2.581,7.132,7.132,0,0,1,.12,5.511C92.887,93.9,96.305,84.873,93.107,78.114Z" transform="translate(-53.845 -54.122)" fill="#e4ae27" stroke="#fff" stroke-width="1"/>
  </g>
</svg>
