<svg xmlns="http://www.w3.org/2000/svg" width="69.246" height="64.604" viewBox="0 0 69.246 64.604">
  <g id="Group_37508" data-name="Group 37508" transform="translate(-102.75 -172.25)">
    <g id="Group_37403" data-name="Group 37403" transform="translate(104 173.5)">
      <path id="Path_101149" data-name="Path 101149" d="M155.346,203.977v16.685H138.662V202.123H125.685v18.539H109V191" transform="translate(-99.731 -158.557)" fill="none" stroke="#5f82ba" stroke-linecap="round" stroke-linejoin="round" stroke-width="2.5"/>
      <path id="Path_101150" data-name="Path 101150" d="M141.077,188.331l-5.562-3.708-25.954,22.246L104,199.454,135.516,173.5l11.123,7.415" transform="translate(-104 -173.5)" fill="none" stroke="#5f82ba" stroke-linecap="round" stroke-linejoin="round" stroke-width="2.5"/>
      <path id="Path_101151" data-name="Path 101151" d="M118.269,182.562V177H109v12.977" transform="translate(-99.731 -170.511)" fill="none" stroke="#5f82ba" stroke-linejoin="round" stroke-width="2.5"/>
    </g>
    <path id="Path_101152" data-name="Path 101152" d="M152.771,197.81c.717,8.882-8.963,15.189-17.015,13.491-10.493-2.215-14.354-15.565-6.848-23.162A11.344,11.344,0,0,1,131,186.422s1.453,1.554.4,5.285c-1.561,5.515,4.023,8.444,7.31,4.863,3.016-3.285-1.1-8.454-1.14-12.219a11.378,11.378,0,0,1,4.759-9.851C143.559,183.2,152.022,188.549,152.771,197.81Z" transform="translate(17.931 0.854)" fill="none" stroke="#ffaf21" stroke-linecap="round" stroke-linejoin="round" stroke-width="2.5"/>
  </g>
</svg>
