<svg xmlns="http://www.w3.org/2000/svg" xmlns:xlink="http://www.w3.org/1999/xlink" width="501.628" height="306.179" viewBox="0 0 501.628 306.179">
  <defs>
    <linearGradient id="linear-gradient" x1="0.5" y1="1" x2="0.5" gradientUnits="objectBoundingBox">
      <stop offset="0" stop-color="#ce2028"/>
      <stop offset="1" stop-color="#ffaf21"/>
    </linearGradient>
    <filter id="Path_87717" x="0" y="0" width="501.628" height="306.179" filterUnits="userSpaceOnUse">
      <feOffset dx="36.595" dy="36.595" input="SourceAlpha"/>
      <feGaussianBlur stdDeviation="18.298" result="blur"/>
      <feFlood flood-opacity="0.302"/>
      <feComposite operator="in" in2="blur"/>
      <feComposite in="SourceGraphic"/>
    </filter>
    <linearGradient id="linear-gradient-2" x1="0.999" y1="0.5" x2="-0.003" y2="0.5" gradientUnits="objectBoundingBox">
      <stop offset="0" stop-color="#f0372c"/>
      <stop offset="0.996" stop-color="#d71c11"/>
    </linearGradient>
  </defs>
  <g id="Component_8_1" data-name="Component 8 – 1" transform="translate(0.855 6.067)">
    <path id="Rectangle_8552" data-name="Rectangle 8552" d="M0,0H0A25.493,25.493,0,0,1,25.493,25.493V73.236A25.493,25.493,0,0,1,0,98.729H0a0,0,0,0,1,0,0V0A0,0,0,0,1,0,0Z" transform="translate(393.797 61.063)" fill="#fea702"/>
    <rect id="Rectangle_8553" data-name="Rectangle 8553" width="220.635" height="309.526" rx="37" transform="matrix(0.001, 1, -1, 0.001, 309.526, 0)" fill="url(#linear-gradient)"/>
    <g transform="matrix(1, 0, 0, 1, -0.86, -6.07)" filter="url(#Path_87717)">
      <path id="Path_87717-2" data-name="Path 87717" d="M149.3,747.262a32.163,32.163,0,0,1,32.18-32.14l328.975.167a30.614,30.614,0,0,1,30.592,30.635l-.1,135a30.614,30.614,0,0,1-30.636,30.592l-330.87-.168A30.256,30.256,0,0,1,149.2,881.07Z" transform="translate(-130.9 -696.82)" fill="#fff"/>
    </g>
    <path id="Path_87719" data-name="Path 87719" d="M144.405,886.473H122.729L111.89,905.245l10.838,18.772h21.677l10.838-18.772Z" transform="translate(272.977 -794.818)" fill="#fea702"/>
    <g id="Group_37214" data-name="Group 37214" transform="translate(41.915 52.304)">
      <path id="Path_99840" data-name="Path 99840" d="M95.854,67.588c0-10.362-7.151-17.09-12.905-21.047H68.983A23.846,23.846,0,0,0,56.077,67.588c0,7.543-.2,49.722-.2,49.722h.04c-.33,3.2,1.616,6.454,5.844,8.9,7.846,4.53,20.567,4.53,28.413,0,4.23-2.442,6.175-5.7,5.845-8.9h.04S95.854,75.132,95.854,67.588Z" transform="translate(-18.983 -13.356)" fill="url(#linear-gradient-2)"/>
      <g id="Group_37208" data-name="Group 37208" transform="translate(50.009 27.916)">
        <path id="Path_99841" data-name="Path 99841" d="M78.6,46.8c-2.723-1.573-11.9-1.559-11.9-1.559v4.406a3.464,3.464,0,0,0,2.042,2.846,10.894,10.894,0,0,0,9.862,0,3.461,3.461,0,0,0,2.042-2.847V45.621S79.28,47.192,78.6,46.8Z" transform="translate(-66.698 -41.547)" fill="#d3d3d3"/>
        <path id="Path_99842" data-name="Path 99842" d="M78.6,43.372a10.9,10.9,0,0,0-9.862,0c-2.723,1.572-2.723,4.122,0,5.694a10.9,10.9,0,0,0,9.862,0C81.326,47.494,81.326,44.944,78.6,43.372Z" transform="translate(-66.698 -42.193)" fill="#e7e7e7"/>
      </g>
      <path id="Path_99843" data-name="Path 99843" d="M93.754,70.008c-.393,2.626-2.216,5.379-5.7,7.388-6.011,3.47-14.878,4.272-22.228,2.424v24.468c7.349,1.848,16.216,1.046,22.228-2.424,4.229-2.442,6.175-5.7,5.845-8.9h.04S93.806,81.779,93.754,70.008Z" transform="translate(-16.873 -8.381)" fill="#f4ca12"/>
      <g id="Group_37209" data-name="Group 37209" transform="translate(52.309 22.3)">
        <path id="Path_99844" data-name="Path 99844" d="M76.573,40.647C74.748,39.594,68.6,39.6,68.6,39.6v7.022a2.325,2.325,0,0,0,1.37,1.908,7.3,7.3,0,0,0,6.608,0,2.321,2.321,0,0,0,1.368-1.908V39.857S77.028,40.91,76.573,40.647Z" transform="translate(-68.596 -37.127)" fill="#b30d00"/>
        <path id="Path_99845" data-name="Path 99845" d="M76.573,38.35a7.3,7.3,0,0,0-6.608,0c-1.825,1.053-1.825,2.761,0,3.814a7.3,7.3,0,0,0,6.608,0C78.4,41.111,78.4,39.4,76.573,38.35Z" transform="translate(-68.596 -37.559)" fill="#e01a0e"/>
      </g>
      <g id="Group_37210" data-name="Group 37210" transform="translate(29.315 27.646)">
        <path id="Path_99846" data-name="Path 99846" d="M73.224,42.053C62.981,44.925,55.467,53.474,49.942,62.159c-1.368,2.15,2.043,4.126,3.4,1.989,4.959-7.8,11.709-15.711,20.927-18.294C76.716,45.168,75.676,41.366,73.224,42.053Z" transform="translate(-49.624 -41.971)"/>
      </g>
      <g id="Group_37211" data-name="Group 37211" transform="translate(0 45.631)">
        <path id="Path_99847" data-name="Path 99847" d="M50.093,71.092a18.945,18.945,0,0,0-3.186-3.859c-2.18-2.072-4.838-3.964-8-3.66a17.858,17.858,0,0,0-2-.044,3.419,3.419,0,0,0-.048,2.039,8.626,8.626,0,0,0-2.608-.152,22.094,22.094,0,0,0-2.451-.055,2.867,2.867,0,0,0-.2,1.366c-1.184.326-3,.844-3.474,1.06a8.972,8.972,0,0,0-.953.49c-.565,3.432-1.168,11.246,5.275,16.228,5.838,4.515,11.015,4.317,13.561,3.76a8.271,8.271,0,0,0,.708-1.154,7.89,7.89,0,0,0,.936-2.563,11.45,11.45,0,0,0,.023-2.4,14.42,14.42,0,0,0,2.6-.118,31.192,31.192,0,0,0-.9-4.431,11.432,11.432,0,0,0,2.683-.053,29.321,29.321,0,0,0-.823-4.132A14.7,14.7,0,0,0,50.093,71.092Z" transform="translate(-25.14 -55.394)" fill="#8e0d00"/>
        <path id="Path_99848" data-name="Path 99848" d="M53.841,56.942,27.985,67.655l-.827,1.714c-.015.086-.03.167-.045.259a9.091,9.091,0,0,1,2.266-.99,10.524,10.524,0,0,1,5.167-.4,12.135,12.135,0,0,1,4.579,2.134,27.21,27.21,0,0,1,4.042,3.655,19.983,19.983,0,0,1,3.351,4.907,10.874,10.874,0,0,1,.913,2.694,22.8,22.8,0,0,1,.3,2.9A8.257,8.257,0,0,1,46.3,89.285c-.082.135-.173.253-.262.376a8.111,8.111,0,0,0,1.308-.4l.171-.331.533-.4,11.263-26.29C59.594,58.584,55.6,56.212,53.841,56.942Z" transform="translate(-25.08 -56.81)" fill="#dd0d00"/>
        <path id="Path_99849" data-name="Path 99849" d="M34.419,65.657C28.058,63.843,24.191,67.587,25.8,74S33.9,87.116,40.257,88.931,50.485,87,48.876,80.585,40.781,67.471,34.419,65.657Zm5.387,21.479c-5.38-1.534-10.865-7.2-12.227-12.625s1.909-8.593,7.29-7.059S45.736,74.65,47.1,80.077,45.188,88.67,39.807,87.136Z" transform="translate(-25.436 -55.032)" fill="#e62d22"/>
      </g>
      <g id="Group_37213" data-name="Group 37213" transform="translate(50.488 0)">
        <path id="Path_99850" data-name="Path 99850" d="M96.777,19.748a6.063,6.063,0,0,0-3.5-.522S68.4,34.448,68.254,36.254c0,0,.5,4.427,4.246,2.758,8.342-4.989,25.392-17.123,25.392-17.123S98.44,20.608,96.777,19.748Z" transform="translate(-66.847 -19.16)" fill="#4f4f4f"/>
        <path id="Path_99851" data-name="Path 99851" d="M71.978,35.828c-3.724,2.15-1.823,9.266,2.87,6.557a38.115,38.115,0,0,1,14.26-5.094c.318,0,3.815-1.275,3.815-1.275s-3.235-1.99-3.821-2.305C83.331,30.62,71.978,35.828,71.978,35.828Z" transform="translate(-66.475 -16.283)"/>
        <path id="Path_99852" data-name="Path 99852" d="M72.124,38.44s-1.66,4.42,2.086,2.751C81.1,37.07,92.273,28.834,95.941,26.1c.77-.574,1.208-4.689,1.208-4.689S72.273,36.635,72.124,38.44Z" transform="translate(-66.104 -18.683)" fill="#333"/>
        <path id="Path_99853" data-name="Path 99853" d="M76.03,38.026c-3.723,2.15-5.065,6.622-.372,3.912,7.225-4.17,16.758-2.451,17.5-2.451s2.086-1.892,1.565-2.365C89.809,31.705,76.03,38.026,76.03,38.026Z" transform="translate(-65.914 -15.817)" fill="#333"/>
        <g id="Group_37212" data-name="Group 37212" transform="translate(0 12.707)">
          <path id="Path_99854" data-name="Path 99854" d="M71.9,30.3a10.616,10.616,0,0,0-4.8,8.319A3.512,3.512,0,0,0,68.309,41.6c.051.038,4.132,2.38,4.132,2.38s-1.131-1.38.212-2.156a10.615,10.615,0,0,0,4.8-8.319,1.526,1.526,0,0,1,1.4-1.476s-3.557-2.069-3.64-2.111A3.423,3.423,0,0,0,71.9,30.3Z" transform="translate(-67.093 -29.645)" fill="#6b6b6b"/>
          <path id="Path_99855" data-name="Path 99855" d="M75.008,32.094a10.612,10.612,0,0,0-4.8,8.318c0,3.064,2.15,4.3,4.8,2.774a10.62,10.62,0,0,0,4.8-8.319C79.811,31.8,77.66,30.562,75.008,32.094Z" transform="translate(-66.433 -29.265)" fill="#292929"/>
        </g>
      </g>
    </g>
  </g>
</svg>
