<svg xmlns="http://www.w3.org/2000/svg" xmlns:xlink="http://www.w3.org/1999/xlink" width="501.628" height="306.179" viewBox="0 0 501.628 306.179">
  <defs>
    <linearGradient id="linear-gradient" x1="0.5" x2="0.5" y2="1" gradientUnits="objectBoundingBox">
      <stop offset="0" stop-color="#ffaf21"/>
      <stop offset="1" stop-color="#ce2328"/>
    </linearGradient>
    <filter id="Path_87717" x="0" y="0" width="501.628" height="306.179" filterUnits="userSpaceOnUse">
      <feOffset dx="36.595" dy="36.595" input="SourceAlpha"/>
      <feGaussianBlur stdDeviation="18.298" result="blur"/>
      <feFlood flood-opacity="0.302"/>
      <feComposite operator="in" in2="blur"/>
      <feComposite in="SourceGraphic"/>
    </filter>
    <linearGradient id="linear-gradient-2" x1="0.57" y1="0.298" x2="0.425" y2="0.667" gradientUnits="objectBoundingBox">
      <stop offset="0" stop-color="#eaeaea"/>
      <stop offset="0.272" stop-color="#e4e4e4"/>
      <stop offset="0.625" stop-color="#d4d4d4"/>
      <stop offset="1" stop-color="#bbb"/>
    </linearGradient>
    <linearGradient id="linear-gradient-3" y1="0.5" x2="1" y2="0.5" gradientUnits="objectBoundingBox">
      <stop offset="0" stop-color="#c5c5c5"/>
      <stop offset="0.214" stop-color="#bfbfbf"/>
      <stop offset="0.492" stop-color="#afafaf"/>
      <stop offset="0.805" stop-color="#949494"/>
      <stop offset="0.819" stop-color="#939393"/>
    </linearGradient>
  </defs>
  <g id="Component_12_1" data-name="Component 12 – 1" transform="translate(0.856 6.068)">
    <path id="Rectangle_8552" data-name="Rectangle 8552" d="M0,0H0A25.493,25.493,0,0,1,25.493,25.493V73.236A25.493,25.493,0,0,1,0,98.729H0a0,0,0,0,1,0,0V0A0,0,0,0,1,0,0Z" transform="translate(393.796 61.062)" fill="#fea702"/>
    <rect id="Rectangle_8553" data-name="Rectangle 8553" width="220.634" height="309.526" rx="37" transform="matrix(-0.001, 1, -1, -0.001, 309.683, 0.22)" fill="url(#linear-gradient)"/>
    <g transform="matrix(1, 0, 0, 1, -0.86, -6.07)" filter="url(#Path_87717)">
      <path id="Path_87717-2" data-name="Path 87717" d="M149.3,747.262a32.163,32.163,0,0,1,32.18-32.14l328.975.167a30.614,30.614,0,0,1,30.592,30.635l-.1,135a30.614,30.614,0,0,1-30.636,30.592l-330.87-.168A30.256,30.256,0,0,1,149.2,881.07Z" transform="translate(-130.9 -696.82)" fill="#fff"/>
    </g>
    <path id="Path_87719" data-name="Path 87719" d="M144.405,886.473H122.729L111.89,905.245l10.838,18.772h21.677l10.838-18.772Z" transform="translate(272.977 -794.819)" fill="#fea702"/>
    <g id="Group_37203" data-name="Group 37203" transform="translate(35.427 68.007)">
      <path id="Path_99789" data-name="Path 99789" d="M324.282,37.462c-5.963-3.438-11.344-3.792-15.318-1.666l-.021-.041-.216.139-.15.075-8.851,5.2L332.155,94.5l7.583-4.37c.107-.065.215-.118.313-.184l.183-.1-.012-.032c3.794-2.385,6.168-7.208,6.168-14.063C346.39,61.653,336.486,44.508,324.282,37.462Z" transform="translate(-254.032 -34.473)" fill="#ff5c00"/>
      <path id="Path_99790" data-name="Path 99790" d="M317.082,41.4c-12.214-7.056-22.108-1.343-22.108,12.751s9.893,31.239,22.108,38.284c12.214,7.07,22.108,1.343,22.108-12.75S329.3,48.447,317.082,41.4Z" transform="translate(-255.039 -33.645)" fill="#e44100"/>
      <path id="Path_99791" data-name="Path 99791" d="M317.278,55.451c-2.316-1.334-4.407-1.471-5.951-.646l-.008-.017-.084.055-.058.029L283.087,71.2l12.6,20.718,27.6-16.01c.041-.025.082-.046.121-.072l.07-.038,0-.012c1.473-.926,2.395-2.8,2.395-5.462C325.865,64.849,322.018,58.189,317.278,55.451Z" transform="translate(-257.559 -30.272)" fill="#fdd19a"/>
      <g id="Group_37196" data-name="Group 37196" transform="translate(39.147 10.211)">
        <path id="Path_99792" data-name="Path 99792" d="M319.1,45.647a18.785,18.785,0,0,0-9.4-2.749c-5.921-.036-12.977,4.206-15.367,7.391l-.006.013A13.237,13.237,0,0,1,304.5,45.795a18.786,18.786,0,0,1,9.4,2.749c9.628,5.557,16.89,18.135,16.89,29.254,0,7.38-3.429,13.043-8.783,15.3l.017.007s6.485-2.241,9.887-6.278A17.716,17.716,0,0,0,335.989,74.9C335.989,63.781,328.726,51.2,319.1,45.647Z" transform="translate(-294.324 -42.898)" fill="#f8d7a0"/>
      </g>
      <path id="Path_99793" data-name="Path 99793" d="M314.609,48.037a18.786,18.786,0,0,0-9.4-2.749A13.237,13.237,0,0,0,295.029,49.8,17.74,17.74,0,0,0,291,61.667a28.746,28.746,0,0,0,.577,5.525l5.174-3.008,5.687-3.306.058-.029.084-.053.008.016a4.5,4.5,0,0,1,1.943-.461c.156-1.051.481-1.55.676-1.623a5.7,5.7,0,0,1,2.683.947,14.575,14.575,0,0,1,1.945,1.366c.082.514.223,1.04.355,1.565a19.882,19.882,0,0,1,6.741,11.543c.309.293.608.611.927.873a14.517,14.517,0,0,1,.2,2.27,5.65,5.65,0,0,1-.564,2.921,2.443,2.443,0,0,1-1.219-.17A4.591,4.591,0,0,1,314.73,81.8l0,.013-.07.038c-.039.024-.08.045-.121.07l-5.532,3.209L303.9,88.092a28.218,28.218,0,0,0,3.992,2.83,18.8,18.8,0,0,0,9.4,2.748,13.859,13.859,0,0,0,5.425-1.076c5.355-2.259,8.783-7.923,8.783-15.3C331.5,66.172,324.237,53.594,314.609,48.037Z" transform="translate(-255.882 -32.18)" fill="#f4b95a"/>
      <g id="Group_37197" data-name="Group 37197" transform="translate(31.48 14.658)">
        <path id="Path_99794" data-name="Path 99794" d="M312.773,49.316a18.805,18.805,0,0,0-9.4-2.749c-5.921-.035-12.976,4.207-15.366,7.392l-.007.013a13.237,13.237,0,0,1,10.177-4.507,18.8,18.8,0,0,1,9.4,2.748c9.628,5.558,16.89,18.136,16.89,29.255,0,7.38-3.428,13.043-8.783,15.3l.017.007s6.485-2.242,9.887-6.278a17.717,17.717,0,0,0,4.073-11.928C329.663,67.451,322.4,54.874,312.773,49.316Z" transform="translate(-287.998 -46.567)" fill="#f8d7a0"/>
      </g>
      <path id="Path_99795" data-name="Path 99795" d="M308.283,51.706a18.8,18.8,0,0,0-9.4-2.748A13.237,13.237,0,0,0,288.7,53.465a17.738,17.738,0,0,0-4.03,11.871,28.662,28.662,0,0,0,.578,5.525l5.174-3.008,5.685-3.306.058-.029.084-.055.009.016a4.509,4.509,0,0,1,1.943-.459c.158-1.051.482-1.551.676-1.624a5.706,5.706,0,0,1,2.683.948,14.493,14.493,0,0,1,1.945,1.366c.082.514.224,1.039.355,1.563A19.882,19.882,0,0,1,310.6,77.818c.309.293.608.611.927.873a14.521,14.521,0,0,1,.2,2.27,5.679,5.679,0,0,1-.562,2.921,2.448,2.448,0,0,1-1.22-.17,4.59,4.59,0,0,1-1.547,1.754l0,.013-.07.036c-.039.025-.08.046-.121.072L302.684,88.8l-5.113,2.966a28.312,28.312,0,0,0,3.992,2.83,18.8,18.8,0,0,0,9.4,2.748,13.879,13.879,0,0,0,5.424-1.076c5.356-2.259,8.783-7.923,8.783-15.3C325.173,69.842,317.911,57.264,308.283,51.706Z" transform="translate(-257.223 -31.402)" fill="#f4b95a"/>
      <path id="Path_99796" data-name="Path 99796" d="M319.032,72.727c-3.6,3.03-9.046,7.609-10.947,7.64a.905.905,0,0,1,.44.141l-5.683,9.127a9.689,9.689,0,0,0,5.218,1.539c5.744,0,11.687-5,17.894-10.221,10.149-8.538,18.494-14.786,25.906-11.275,1.008.479,1.953.932,2.854,1.367.328-1.131.652-2.263,1.044-3.374.808-2.293,1.891-4.789,3.967-6.145-1.037-.5-2.1-1.014-3.258-1.562C342.232,53.216,328.822,64.49,319.032,72.727Z" transform="translate(-253.371 -29.506)" fill="#ef9c17"/>
      <g id="Group_37198" data-name="Group 37198" transform="translate(16.282 23.476)">
        <path id="Path_99797" data-name="Path 99797" d="M308.2,90.09l-9.887,6.278S304.8,94.127,308.2,90.09Z" transform="translate(-270.612 -46.159)" fill="#454545"/>
        <path id="Path_99798" data-name="Path 99798" d="M307.085,82.638,298.3,97.94C303.658,95.683,307.085,90.018,307.085,82.638Z" transform="translate(-270.615 -47.739)" fill="#454545"/>
        <path id="Path_99799" data-name="Path 99799" d="M307.085,82.638,298.3,97.94C303.658,95.683,307.085,90.018,307.085,82.638Z" transform="translate(-270.615 -47.739)"/>
        <path id="Path_99800" data-name="Path 99800" d="M300.233,56.592a18.8,18.8,0,0,0-9.4-2.749c-5.921-.036-12.977,4.206-15.366,7.391l-.007.013a13.238,13.238,0,0,1,10.178-4.507,18.805,18.805,0,0,1,9.4,2.749c9.628,5.558,16.889,18.135,16.889,29.254,0,7.38-3.428,13.045-8.783,15.3l.017.007s6.485-2.241,9.887-6.278a17.716,17.716,0,0,0,4.074-11.928C317.123,74.727,309.862,62.15,300.233,56.592Z" transform="translate(-275.458 -53.843)" fill="#f8d7a0"/>
      </g>
      <path id="Path_99801" data-name="Path 99801" d="M295.744,58.982a18.805,18.805,0,0,0-9.4-2.749,13.238,13.238,0,0,0-10.178,4.507,17.741,17.741,0,0,0-4.03,11.873,28.652,28.652,0,0,0,.578,5.524l5.174-3.008,5.685-3.306.059-.028.084-.055.007.016a4.492,4.492,0,0,1,1.943-.459c.158-1.051.482-1.551.677-1.624a5.7,5.7,0,0,1,2.682.948,14.487,14.487,0,0,1,1.945,1.365c.082.515.224,1.04.356,1.565a19.876,19.876,0,0,1,6.74,11.544c.309.292.608.61.928.873a14.5,14.5,0,0,1,.2,2.269,5.666,5.666,0,0,1-.562,2.922,2.467,2.467,0,0,1-1.22-.17,4.6,4.6,0,0,1-1.547,1.754l0,.012-.072.038c-.039.025-.08.046-.121.072l-5.532,3.208-5.113,2.967a28.376,28.376,0,0,0,3.992,2.829,18.8,18.8,0,0,0,9.4,2.749,13.857,13.857,0,0,0,5.424-1.077c5.356-2.258,8.783-7.923,8.783-15.3C312.633,77.117,305.372,64.54,295.744,58.982Z" transform="translate(-259.881 -29.86)" fill="#f4b95a"/>
      <path id="Path_99802" data-name="Path 99802" d="M291.332,56.453c-5.963-3.438-11.344-3.791-15.32-1.665l-.021-.041-.216.138-.15.075-8.851,5.2,32.43,53.336,7.583-4.37c.107-.065.213-.119.313-.184l.182-.1-.011-.032c3.792-2.386,6.168-7.209,6.168-14.063C313.44,80.644,303.536,63.5,291.332,56.453Z" transform="translate(-261.017 -30.447)" fill="#ff5c00"/>
      <path id="Path_99803" data-name="Path 99803" d="M284.132,60.393c-12.216-7.057-22.108-1.343-22.108,12.751s9.892,31.238,22.108,38.284c12.214,7.069,22.107,1.343,22.107-12.75S296.346,67.44,284.132,60.393Z" transform="translate(-262.024 -29.619)" fill="#e44100"/>
      <g id="Group_37202" data-name="Group 37202" transform="translate(99.195 27.779)">
        <g id="Group_37200" data-name="Group 37200">
          <path id="Path_99804" data-name="Path 99804" d="M351.211,58.4a16.233,16.233,0,0,0-7.342,12.719,5.467,5.467,0,0,0,1.744,4.479c.114.09,4.413,2.585,4.413,2.585s-.867-1.64,1.185-2.825a16.228,16.228,0,0,0,7.343-12.719,2.248,2.248,0,0,1,1.9-2.414s-4.216-2.441-4.437-2.534A5.43,5.43,0,0,0,351.211,58.4Z" transform="translate(-343.869 -57.393)" fill="#e44100"/>
          <g id="Group_37199" data-name="Group 37199" transform="translate(3.928 2.268)">
            <path id="Path_99805" data-name="Path 99805" d="M354.453,60.267a16.231,16.231,0,0,0-7.344,12.719c0,4.683,3.288,6.581,7.344,4.24A16.231,16.231,0,0,0,361.8,64.507C361.8,59.824,358.509,57.926,354.453,60.267Z" transform="translate(-347.11 -59.264)" fill="#ff5c00"/>
          </g>
        </g>
        <path id="Path_99806" data-name="Path 99806" d="M357.993,62.2c-.942-.76-2.34-.8-3.926.116a11.349,11.349,0,0,0-5.135,8.894,3.536,3.536,0,0,0,1.594,3.357l-.006.01,22.493,10.377,4.978-8.66L358.01,62.172Z" transform="translate(-342.796 -56.495)" fill="url(#linear-gradient-2)"/>
        <path id="Path_99807" data-name="Path 99807" d="M371.27,74.5a6.527,6.527,0,0,0-2.951,5.115c0,1.882,1.321,2.646,2.951,1.7a6.526,6.526,0,0,0,2.954-5.113C374.224,74.32,372.9,73.558,371.27,74.5Z" transform="translate(-338.686 -53.852)" fill="url(#linear-gradient-3)"/>
        <g id="Group_37201" data-name="Group 37201" transform="translate(29.047 19.486)">
          <path id="Path_99808" data-name="Path 99808" d="M372.953,73.471a3.207,3.207,0,0,0-1.58.484,7.822,7.822,0,0,0-3.538,6.129c0,1.6.8,2.526,1.959,2.526a3.209,3.209,0,0,0,1.579-.482A7.82,7.82,0,0,0,374.912,76C374.912,74.4,374.114,73.471,372.953,73.471Zm-1.977,7.968a2.468,2.468,0,0,1-1.183.377c-1.051,0-1.165-1.212-1.165-1.732a7.06,7.06,0,0,1,3.141-5.441,2.455,2.455,0,0,1,1.183-.377c1.051,0,1.163,1.211,1.163,1.732A7.062,7.062,0,0,1,370.976,81.439Z" transform="translate(-367.835 -73.471)" fill="#efefef"/>
        </g>
      </g>
    </g>
  </g>
</svg>
