<svg xmlns="http://www.w3.org/2000/svg" xmlns:xlink="http://www.w3.org/1999/xlink" width="1042.952" height="329.515" viewBox="0 0 1042.952 329.515">
  <defs>
    <linearGradient id="linear-gradient" y1="0.5" x2="1.007" y2="0.5" gradientUnits="objectBoundingBox">
      <stop offset="0" stop-color="#ce2028"/>
      <stop offset="0.536" stop-color="#e4ae27"/>
      <stop offset="1" stop-color="#ce2028"/>
    </linearGradient>
  </defs>
  <g id="Group_37272" data-name="Group 37272" transform="translate(-8300.285 7606.187)">
    <path id="Union_5" data-name="Union 5" d="M857.824,279.676a10.971,10.971,0,1,1,4.7-5.587A156.952,156.952,0,1,0,873.855,16.538c-44,27.856-68.8,82.309-92.776,134.965-24.209,53.158-49.242,108.13-94.279,136.61a164.3,164.3,0,0,1-233.415-62.891,10.971,10.971,0,1,1,6.592-3.139A156.994,156.994,0,0,0,682.9,281.948c43.2-27.321,67.779-81.283,91.543-133.469,24.423-53.628,49.677-109.088,95.509-138.1a164.28,164.28,0,0,1,203.9,255.042,164.306,164.306,0,0,1-216.03,14.259ZM128.1,265.419A164.28,164.28,0,0,1,344.154,18.841a10.971,10.971,0,1,1-4.7,5.588,156.952,156.952,0,1,0-11.327,257.547c43.984-27.854,68.782-82.311,92.761-134.979,24.208-53.164,49.242-108.14,94.266-136.621A164.377,164.377,0,0,1,742.584,62.74a10.972,10.972,0,1,1-6.368,3.574A157.084,157.084,0,0,0,519.05,16.54c-43.184,27.319-67.76,81.287-91.524,133.481-24.425,53.636-49.679,109.1-95.5,138.116A164.381,164.381,0,0,1,128.1,265.419Z" transform="translate(8220.785 -7590.687)" stroke="rgba(0,0,0,0)" stroke-miterlimit="10" stroke-width="1" fill="url(#linear-gradient)"/>
  </g>
</svg>
