<svg xmlns="http://www.w3.org/2000/svg" width="62.889" height="68.457" viewBox="0 0 62.889 68.457">
  <g id="Group_37509" data-name="Group 37509" transform="translate(1.75 1.75)">
    <g id="Group_37306" data-name="Group 37306" transform="translate(0 9.28)">
      <path id="Path_100639" data-name="Path 100639" d="M420.686,245.5h12.435a4.269,4.269,0,0,1,4.269,4.269v37.855c0,2.361-1.913,6.13-4.274,6.13H388.384L378,301.178v-51.4a4.274,4.274,0,0,1,4.274-4.274h18" transform="translate(-378 -245.5)" fill="none" stroke="#4f72b2" stroke-linecap="round" stroke-linejoin="round" stroke-width="3.5"/>
    </g>
    <g id="Group_37307" data-name="Group 37307" transform="translate(11.136 0)">
      <rect id="Rectangle_8819" data-name="Rectangle 8819" width="7.424" height="29.695" transform="translate(0 18.559)" fill="none" stroke="#ffaf21" stroke-linecap="round" stroke-miterlimit="10" stroke-width="3.5"/>
      <path id="Path_100640" data-name="Path 100640" d="M399,250.5h11.952a2.947,2.947,0,0,1,2.9,3v1.433a2.947,2.947,0,0,1-2.9,3h-.817" transform="translate(-371.161 -231.941)" fill="none" stroke="#ffaf21" stroke-linecap="round" stroke-linejoin="round" stroke-width="3.5"/>
      <path id="Path_100641" data-name="Path 100641" d="M388,260.915c3.016-1.674,8.352-5.336,10.328-9.506.705-1.488.952-5.275.876-8.01a2.693,2.693,0,0,1,2.535-2.9h.221c3.565,0,6.455,3.207,6.455,7.164v11.4" transform="translate(-380.576 -240.5)" fill="none" stroke="#ffaf21" stroke-linecap="round" stroke-linejoin="round" stroke-width="3.5"/>
      <path id="Path_100642" data-name="Path 100642" d="M405.856,254.5h.772a2.939,2.939,0,0,1,2.94,2.94v1.544a2.949,2.949,0,0,1-2.94,2.94H404" transform="translate(-366.882 -228.517)" fill="none" stroke="#ffaf21" stroke-linecap="round" stroke-linejoin="round" stroke-width="3.5"/>
      <path id="Path_100643" data-name="Path 100643" d="M404,258.5h.772a2.939,2.939,0,0,1,2.94,2.94v1.518a2.966,2.966,0,0,1-2.966,2.966H404" transform="translate(-366.882 -225.093)" fill="none" stroke="#ffaf21" stroke-linecap="round" stroke-linejoin="round" stroke-width="3.5"/>
      <path id="Path_100644" data-name="Path 100644" d="M416.518,262.438h0a2.992,2.992,0,0,1,2.94,3.042v1.455a2.992,2.992,0,0,1-2.94,3.042h-2.348l-19.983-.013a14.7,14.7,0,0,1-6.08-1.31" transform="translate(-380.484 -221.723)" fill="none" stroke="#ffaf21" stroke-linecap="round" stroke-linejoin="round" stroke-width="3.5"/>
    </g>
  </g>
</svg>
