<svg xmlns="http://www.w3.org/2000/svg" width="70.313" height="79.593" viewBox="0 0 70.313 79.593">
  <g id="Group_37510" data-name="Group 37510" transform="translate(1.75 1.75)">
    <path id="Path_100937" data-name="Path 100937" d="M316,129.135h0a18.559,18.559,0,0,0,18.559,18.559h0a18.559,18.559,0,0,0,18.559-18.559V118c-4.926,1.47-11.429,1.856-18.559,1.856S320.926,119.47,316,118v11.135" transform="translate(-301.153 -88.305)" fill="none" stroke="#4f72b2" stroke-linecap="round" stroke-linejoin="round" stroke-width="3.5"/>
    <path id="Path_100938" data-name="Path 100938" d="M319.226,136.5l12.267,10.2,12.216-10.155" transform="translate(-298.391 -72.467)" fill="none" stroke="#4f72b2" stroke-linecap="round" stroke-linejoin="round" stroke-width="3.5"/>
    <path id="Path_100939" data-name="Path 100939" d="M338.677,127.3a11.791,11.791,0,0,1-8.623,3.758h0a11.8,11.8,0,0,1-8.955-4.128" transform="translate(-296.787 -80.665)" fill="none" stroke="#4f72b2" stroke-linecap="round" stroke-linejoin="round" stroke-width="3.5"/>
    <path id="Path_100940" data-name="Path 100940" d="M330.271,132v3.927a5.352,5.352,0,0,1-5.352,5.352h-5.783A11.135,11.135,0,0,0,308,152.415" transform="translate(-308 -76.322)" fill="none" stroke="#4f72b2" stroke-linecap="round" stroke-linejoin="round" stroke-width="3.5"/>
    <path id="Path_100941" data-name="Path 100941" d="M354.271,152.415a11.135,11.135,0,0,0-11.136-11.135h-5.783A5.352,5.352,0,0,1,332,135.927V132" transform="translate(-287.458 -76.322)" fill="none" stroke="#4f72b2" stroke-linecap="round" stroke-linejoin="round" stroke-width="3.5"/>
    <path id="Path_100942" data-name="Path 100942" d="M318.568,118h-4A1.564,1.564,0,0,0,313,119.565v9.829a3.453,3.453,0,0,0,3.454,3.454h2.114" transform="translate(-303.72 -88.305)" fill="none" stroke="#ffaf21" stroke-linecap="round" stroke-linejoin="round" stroke-width="3.5"/>
    <path id="Path_100943" data-name="Path 100943" d="M336,118h4a1.564,1.564,0,0,1,1.564,1.565v9.829a3.453,3.453,0,0,1-3.454,3.454H336" transform="translate(-284.034 -88.305)" fill="none" stroke="#ffaf21" stroke-linecap="round" stroke-linejoin="round" stroke-width="3.5"/>
    <path id="Path_100944" data-name="Path 100944" d="M358.542,126.127h0a3.711,3.711,0,0,1-3.712-3.712v-1.856A18.559,18.559,0,0,0,336.271,102h0a18.559,18.559,0,0,0-18.559,18.559v1.856A3.711,3.711,0,0,1,314,126.127h0" transform="translate(-302.864 -102)" fill="none" stroke="#4f72b2" stroke-linecap="round" stroke-linejoin="round" stroke-width="3.5"/>
    <path id="Path_100945" data-name="Path 100945" d="M316,127.712,334.229,124l18.89,3.712" transform="translate(-301.153 -83.17)" fill="none" stroke="#ffaf21" stroke-linecap="round" stroke-linejoin="round" stroke-width="3.5"/>
    <line id="Line_424" data-name="Line 424" y2="6.128" transform="translate(33.407 34.965)" fill="none" stroke="#ffaf21" stroke-linecap="round" stroke-linejoin="round" stroke-width="3.5"/>
  </g>
</svg>
