<svg xmlns="http://www.w3.org/2000/svg" width="52.524" height="74.025" viewBox="0 0 52.524 74.025">
  <g id="Group_37511" data-name="Group 37511" transform="translate(1.75 1.75)">
    <path id="Path_100725" data-name="Path 100725" d="M318,270.551v-28.47A3.08,3.08,0,0,1,321.081,239h32.813a3.08,3.08,0,0,1,3.081,3.081v55.084a3.08,3.08,0,0,1-3.081,3.081H329.135" transform="translate(-308.72 -239)" fill="none" stroke="#ffaf21" stroke-linecap="round" stroke-linejoin="round" stroke-width="3.5"/>
    <line id="Line_340" data-name="Line 340" x2="37.644" transform="translate(11.38 11.328)" fill="none" stroke="#ffaf21" stroke-linecap="round" stroke-linejoin="round" stroke-width="3.5"/>
    <line id="Line_341" data-name="Line 341" x2="34.142" transform="translate(14.882 49.847)" fill="none" stroke="#ffaf21" stroke-linecap="round" stroke-linejoin="round" stroke-width="3.5"/>
    <line id="Line_342" data-name="Line 342" x2="6.128" transform="translate(27.138 55.1)" fill="none" stroke="#ffaf21" stroke-linecap="round" stroke-linejoin="round" stroke-width="3.5"/>
    <line id="Line_343" data-name="Line 343" x2="9.63" transform="translate(23.636 6.076)" fill="none" stroke="#ffaf21" stroke-linecap="round" stroke-linejoin="round" stroke-width="3.5"/>
    <path id="Path_100727" data-name="Path 100727" d="M316,275.973v-17.75a1.708,1.708,0,0,1,1.707-1.707h0a7.573,7.573,0,0,1,7.572,7.572v12.871a5.793,5.793,0,0,0,1.206,3.537l5.011,6.49a5.793,5.793,0,0,1,1.206,3.537v4.009" transform="translate(-310.432 -224.008)" fill="none" stroke="#4f72b2" stroke-linecap="round" stroke-linejoin="round" stroke-width="3.5"/>
    <path id="Path_100728" data-name="Path 100728" d="M313,303.5V265.49a22.006,22.006,0,0,1,4.673-13.561l4.606-5.891" transform="translate(-313 -232.976)" fill="none" stroke="#4f72b2" stroke-linecap="round" stroke-linejoin="round" stroke-width="3.5"/>
    <path id="Path_100729" data-name="Path 100729" d="M324,261h18.559a3.711,3.711,0,0,1,3.712,3.712h0" transform="translate(-303.585 -220.17)" fill="none" stroke="#ffaf21" stroke-linecap="round" stroke-linejoin="round" stroke-width="3.5"/>
  </g>
</svg>
