<svg xmlns="http://www.w3.org/2000/svg" width="62.889" height="78.462" viewBox="0 0 62.889 78.462">
  <g id="Group_37513" data-name="Group 37513" transform="translate(1.75 1.75)">
    <path id="Path_100583" data-name="Path 100583" d="M324.847,303.245H313.368A3.367,3.367,0,0,1,310,299.877V245.368A3.367,3.367,0,0,1,313.368,242h9.623" transform="translate(-310 -234.576)" fill="none" stroke="#4f72b2" stroke-linecap="round" stroke-linejoin="round" stroke-width="3.5"/>
    <path id="Path_100584" data-name="Path 100584" d="M330,242h9.623a3.367,3.367,0,0,1,3.368,3.368v18.9" transform="translate(-292.882 -234.576)" fill="none" stroke="#4f72b2" stroke-linecap="round" stroke-linejoin="round" stroke-width="3.5"/>
    <path id="Path_100585" data-name="Path 100585" d="M339.271,247.28H317v-5.688A3.59,3.59,0,0,1,320.591,238H335.68a3.59,3.59,0,0,1,3.591,3.591Z" transform="translate(-304.009 -238)" fill="none" stroke="#4f72b2" stroke-linecap="round" stroke-linejoin="round" stroke-width="3.5"/>
    <line id="Line_249" data-name="Line 249" x2="20.135" transform="translate(20.8 37.976)" fill="none" stroke="#4f72b2" stroke-linecap="round" stroke-linejoin="round" stroke-width="3.5"/>
    <line id="Line_250" data-name="Line 250" x2="21.886" transform="translate(20.8 22.218)" fill="none" stroke="#4f72b2" stroke-linecap="round" stroke-linejoin="round" stroke-width="3.5"/>
    <line id="Line_251" data-name="Line 251" x2="13.131" transform="translate(20.8 44.104)" fill="none" stroke="#4f72b2" stroke-linecap="round" stroke-linejoin="round" stroke-width="3.5"/>
    <line id="Line_252" data-name="Line 252" x2="15.758" transform="translate(20.8 29.221)" fill="none" stroke="#4f72b2" stroke-linecap="round" stroke-linejoin="round" stroke-width="3.5"/>
    <path id="Path_100586" data-name="Path 100586" d="M314.008,259.821l2.577,2.847,4.927-4.927" transform="translate(-306.569 -221.104)" fill="none" stroke="#4f72b2" stroke-linecap="round" stroke-linejoin="round" stroke-width="3.5"/>
    <path id="Path_100587" data-name="Path 100587" d="M314.157,251.2l2.388,2.638,4.565-4.565" transform="translate(-306.442 -228.355)" fill="none" stroke="#4f72b2" stroke-linecap="round" stroke-linejoin="round" stroke-width="3.5"/>
    <g id="Group_37284" data-name="Group 37284" transform="translate(20.28 35.348)">
      <path id="Path_100588" data-name="Path 100588" d="M326.041,293.288l-2.231.468-1.709-1.709.468-2.231a16.222,16.222,0,0,1,4.408-8.142l23.134-23.136a5.1,5.1,0,0,1,7.208,0h0a5.1,5.1,0,0,1,0,7.208l-23.136,23.134A16.223,16.223,0,0,1,326.041,293.288Z" transform="translate(-319.922 -257.046)" fill="none" stroke="#ffaf21" stroke-linecap="round" stroke-linejoin="round" stroke-width="3.5"/>
      <line id="Line_253" data-name="Line 253" x2="7.207" y2="7.207" transform="translate(28.893 2.789)" fill="none" stroke="#ffaf21" stroke-linecap="round" stroke-linejoin="round" stroke-width="3.5"/>
      <line id="Line_254" data-name="Line 254" x2="7.207" y2="7.207" transform="translate(16.183 15.499)" fill="none" stroke="#ffaf21" stroke-linecap="round" stroke-linejoin="round" stroke-width="3.5"/>
      <path id="Path_100589" data-name="Path 100589" d="M339.954,266.533l2.973-2.975a2.605,2.605,0,0,1,3.684,0h0a2.605,2.605,0,0,1,0,3.684l-10.89,10.891" transform="translate(-308.265 -252.125)" fill="none" stroke="#ffaf21" stroke-linecap="round" stroke-linejoin="round" stroke-width="3.5"/>
      <line id="Line_255" data-name="Line 255" x1="3.034" y2="3.033" transform="translate(0 35.855)" fill="none" stroke="#ffaf21" stroke-linecap="round" stroke-linejoin="round" stroke-width="3.5"/>
    </g>
  </g>
</svg>
