<svg xmlns="http://www.w3.org/2000/svg" width="70.313" height="62.977" viewBox="0 0 70.313 62.977">
  <g id="Group_37514" data-name="Group 37514" transform="translate(1.75 1.75)">
    <rect id="Rectangle_8801" data-name="Rectangle 8801" width="8.754" height="48.149" rx="1.337" transform="translate(50.46 0)" fill="none" stroke="#4f72b2" stroke-linecap="round" stroke-linejoin="round" stroke-width="3.5"/>
    <path id="Path_100558" data-name="Path 100558" d="M272,253h3.333a4.091,4.091,0,0,1,4.09,4.09v1.1a4.091,4.091,0,0,1-4.09,4.09H272" transform="translate(-212.611 -232.497)" fill="none" stroke="#4f72b2" stroke-linecap="round" stroke-linejoin="round" stroke-width="3.5"/>
    <path id="Path_100561" data-name="Path 100561" d="M247.117,261l5.128,21.217a3.8,3.8,0,0,0,3.7,2.91h0a3.8,3.8,0,0,0,3.7-4.694L257.178,270.2c-.818-3.406,2.177-7.928,5.98-7.928" transform="translate(-233.908 -225.65)" fill="none" stroke="#ffaf21" stroke-linecap="round" stroke-linejoin="round" stroke-width="3.5"/>
    <path id="Path_100559" data-name="Path 100559" d="M283.246,285.819c-2.377-2-13.945-10.7-35.246-10.7V254.874c20.725,0,31.231-7.607,34.533-10.568" transform="translate(-233.153 -239.938)" fill="none" stroke="#4f72b2" stroke-linecap="round" stroke-linejoin="round" stroke-width="3.5"/>
    <path id="Path_100560" data-name="Path 100560" d="M254.847,250h-4.64A10.207,10.207,0,0,0,240,260.208h0a10.207,10.207,0,0,0,10.208,10.208h4.64" transform="translate(-240 -235.065)" fill="none" stroke="#4f72b2" stroke-linecap="round" stroke-linejoin="round" stroke-width="3.5"/>
  </g>
</svg>
