<svg xmlns="http://www.w3.org/2000/svg" width="70.336" height="70.337" viewBox="0 0 70.336 70.337">
  <g id="Group_37515" data-name="Group 37515" transform="translate(1.761 1.763)">
    <path id="Path_100632" data-name="Path 100632" d="M146.66,283.734l-6.527,6.527a22.521,22.521,0,0,1-25.112-25.077l6.544-6.544a4.674,4.674,0,0,0,0-6.609l-4.2-4.2a4.674,4.674,0,0,0-7.09.553A33.415,33.415,0,0,0,156.9,295.015a4.673,4.673,0,0,0,.553-7.09l-4.189-4.191A4.672,4.672,0,0,0,146.66,283.734Z" transform="translate(-104 -234.473)" fill="none" stroke="#4f72b2" stroke-linecap="round" stroke-linejoin="round" stroke-width="3.5"/>
    <line id="Line_283" data-name="Line 283" x2="9.899" y2="9.899" transform="translate(40.834 52.073)" fill="none" stroke="#4f72b2" stroke-linecap="round" stroke-linejoin="round" stroke-width="3.5"/>
    <line id="Line_284" data-name="Line 284" x2="9.899" y2="9.899" transform="translate(4.84 16.08)" fill="none" stroke="#4f72b2" stroke-linecap="round" stroke-linejoin="round" stroke-width="3.5"/>
    <path id="Path_100633" data-name="Path 100633" d="M146.776,279.308a22.552,22.552,0,0,0-30.651-30.65" transform="translate(-93.623 -234.998)" fill="none" stroke="#4f72b2" stroke-linecap="round" stroke-linejoin="round" stroke-width="3.5"/>
    <path id="Path_100634" data-name="Path 100634" d="M111.88,245.779a33.406,33.406,0,0,1,46.409,46.409" transform="translate(-97.256 -240)" fill="none" stroke="#4f72b2" stroke-linecap="round" stroke-linejoin="round" stroke-width="3.5"/>
    <g id="Group_37303" data-name="Group 37303" transform="translate(22.155 24.743)">
      <path id="Path_100635" data-name="Path 100635" d="M116.688,257.329c.585-4.191,6.726-5.51,8.641-1.5,2.2,4.61-6.9,11.037-9.391,13.524h11.251" transform="translate(-115.938 -253.262)" fill="none" stroke="#ffaf21" stroke-linecap="round" stroke-linejoin="round" stroke-width="3.5"/>
      <path id="Path_100636" data-name="Path 100636" d="M130.525,253.332q-3.755,5.262-7.513,10.519h11.113" transform="translate(-109.883 -253.332)" fill="none" stroke="#ffaf21" stroke-linecap="round" stroke-linejoin="round" stroke-width="3.5"/>
      <line id="Line_285" data-name="Line 285" y2="14.007" transform="translate(19.865 2.097)" fill="none" stroke="#ffaf21" stroke-linecap="round" stroke-linejoin="round" stroke-width="3.5"/>
    </g>
  </g>
</svg>
