<svg xmlns="http://www.w3.org/2000/svg" width="52.951" height="75.775" viewBox="0 0 52.951 75.775">
  <g id="Group_37525" data-name="Group 37525" transform="translate(1.75 1.75)">
    <path id="Path_100725" data-name="Path 100725" d="M318,271.333V242.157A3.157,3.157,0,0,1,321.157,239h33.627a3.157,3.157,0,0,1,3.157,3.157v56.45a3.157,3.157,0,0,1-3.157,3.157H329.412" transform="translate(-308.49 -239)" fill="none" stroke="#ffaf21" stroke-linecap="round" stroke-linejoin="round" stroke-width="3.5"/>
    <line id="Line_340" data-name="Line 340" x2="38" transform="translate(11.314 11)" fill="none" stroke="#ffaf21" stroke-linecap="round" stroke-linejoin="round" stroke-width="3.5"/>
    <line id="Line_341" data-name="Line 341" x2="34" transform="translate(15.314 51)" fill="none" stroke="#ffaf21" stroke-linecap="round" stroke-linejoin="round" stroke-width="3.5"/>
    <line id="Line_342" data-name="Line 342" x2="6" transform="translate(28.314 57)" fill="none" stroke="#ffaf21" stroke-linecap="round" stroke-linejoin="round" stroke-width="3.5"/>
    <line id="Line_343" data-name="Line 343" x2="10" transform="translate(24.314 6)" fill="none" stroke="#ffaf21" stroke-linecap="round" stroke-linejoin="round" stroke-width="3.5"/>
    <path id="Path_100727" data-name="Path 100727" d="M316,276.456v-18.19a1.75,1.75,0,0,1,1.75-1.75h0a7.761,7.761,0,0,1,7.76,7.76v13.19a5.937,5.937,0,0,0,1.236,3.625l5.135,6.651a5.937,5.937,0,0,1,1.236,3.625v4.108" transform="translate(-310.294 -223.201)" fill="none" stroke="#4f72b2" stroke-linecap="round" stroke-linejoin="round" stroke-width="3.5"/>
    <path id="Path_100728" data-name="Path 100728" d="M313,304.927V265.973a22.551,22.551,0,0,1,4.789-13.9l4.721-6.037" transform="translate(-313 -232.652)" fill="none" stroke="#4f72b2" stroke-linecap="round" stroke-linejoin="round" stroke-width="3.5"/>
    <path id="Path_100729" data-name="Path 100729" d="M324,261h19.02a3.8,3.8,0,0,1,3.8,3.8h0" transform="translate(-303.078 -224.863)" fill="none" stroke="#ffaf21" stroke-linecap="round" stroke-linejoin="round" stroke-width="3.5"/>
    <path id="Path_101362" data-name="Path 101362" d="M324,261h19.02a3.8,3.8,0,0,1,3.8,3.8h0" transform="translate(-303.078 -234.372)" fill="none" stroke="#ffaf21" stroke-linecap="round" stroke-linejoin="round" stroke-width="3.5"/>
  </g>
</svg>
