<svg xmlns="http://www.w3.org/2000/svg" width="88.42" height="61.252" viewBox="0 0 88.42 61.252">
  <g id="Group_37527" data-name="Group 37527" transform="translate(2.457 2.437)">
    <path id="Path_100739" data-name="Path 100739" d="M141.319,329.163a18.423,18.423,0,0,1-7.543,5.586" transform="translate(-69.535 -294.618)" fill="none" stroke="#ffaf21" stroke-linecap="round" stroke-linejoin="round" stroke-width="3.5"/>
    <path id="Path_100740" data-name="Path 100740" d="M125,318.443l-.945-.637a19.136,19.136,0,0,0-9.316-3.228" transform="translate(-86.71 -307.773)" fill="none" stroke="#4f72b2" stroke-linecap="round" stroke-linejoin="round" stroke-width="3.5"/>
    <path id="Path_100741" data-name="Path 100741" d="M135.814,339.234a3.613,3.613,0,0,0,2.682-1.582l.086-.126a3.617,3.617,0,0,0-.976-5.023l-8.005-7.53" transform="translate(-73.302 -298.397)" fill="none" stroke="#4f72b2" stroke-linecap="round" stroke-linejoin="round" stroke-width="3.5"/>
    <path id="Path_100742" data-name="Path 100742" d="M105.318,328.534a18.4,18.4,0,0,0,3.954,5.341" transform="translate(-95.203 -295.185)" fill="none" stroke="#4f72b2" stroke-linecap="round" stroke-linejoin="round" stroke-width="3.5"/>
    <path id="Path_100743" data-name="Path 100743" d="M125.724,326.807l16.357,11.035a3.618,3.618,0,0,1,.976,5.023l-.086.127a3.617,3.617,0,0,1-5.023.976l-16.467-11.109" transform="translate(-80.625 -296.743)" fill="none" stroke="#4f72b2" stroke-linecap="round" stroke-linejoin="round" stroke-width="3.5"/>
    <path id="Path_100744" data-name="Path 100744" d="M122.678,330l15.181,10.242a3.618,3.618,0,0,1,.976,5.023l-.086.127a3.617,3.617,0,0,1-5.023.976l-13.59-9.127" transform="translate(-81.837 -293.863)" fill="none" stroke="#4f72b2" stroke-linecap="round" stroke-linejoin="round" stroke-width="3.5"/>
    <path id="Path_100745" data-name="Path 100745" d="M122.2,344.076l2.815,1.9a3.62,3.62,0,0,0,5.025-.976l.086-.126a3.622,3.622,0,0,0-.976-5.025l-9.015-6.041" transform="translate(-81.837 -290.429)" fill="none" stroke="#4f72b2" stroke-linecap="round" stroke-linejoin="round" stroke-width="3.5"/>
    <path id="Path_100746" data-name="Path 100746" d="M145.752,313.542a19.211,19.211,0,0,0-9.457,1.24l-2.994,1.2-18.04,7.229h0a7.393,7.393,0,0,0,9.611,4.112l5.9-2.322,3.378,5.453A9.982,9.982,0,0,0,147.9,333.63" transform="translate(-86.234 -308.833)" fill="none" stroke="#ffaf21" stroke-linecap="round" stroke-linejoin="round" stroke-width="3.5"/>
    <path id="Path_100747" data-name="Path 100747" d="M114,339.4l5.036-6.914a3.7,3.7,0,0,0-.81-5.162h0a3.7,3.7,0,0,0-5.164.81l-5.036,6.914a3.7,3.7,0,0,0,.81,5.162h0A3.7,3.7,0,0,0,114,339.4Z" transform="translate(-93.402 -296.916)" fill="none" stroke="#ffaf21" stroke-linecap="round" stroke-linejoin="round" stroke-width="3.5"/>
    <path id="Path_100748" data-name="Path 100748" d="M117.137,343.025l7.092-9.734a3.7,3.7,0,0,0-.812-5.162h0a3.7,3.7,0,0,0-5.162.81l-7.091,9.734a3.7,3.7,0,0,0,.81,5.162h0A3.7,3.7,0,0,0,117.137,343.025Z" transform="translate(-90.569 -296.19)" fill="none" stroke="#ffaf21" stroke-linecap="round" stroke-linejoin="round" stroke-width="3.5"/>
    <path id="Path_100749" data-name="Path 100749" d="M120.279,343.976l5.036-6.914a3.7,3.7,0,0,0-.81-5.162h0a3.7,3.7,0,0,0-5.164.81l-5.036,6.914a3.694,3.694,0,0,0,.81,5.162h0A3.7,3.7,0,0,0,120.279,343.976Z" transform="translate(-87.737 -292.788)" fill="none" stroke="#ffaf21" stroke-linecap="round" stroke-linejoin="round" stroke-width="3.5"/>
    <path id="Path_100750" data-name="Path 100750" d="M123.418,344.952l3.022-4.146a3.7,3.7,0,0,0-.81-5.164h0a3.7,3.7,0,0,0-5.164.812l-3.02,4.146a3.694,3.694,0,0,0,.81,5.162h0A3.7,3.7,0,0,0,123.418,344.952Z" transform="translate(-84.904 -289.413)" fill="none" stroke="#ffaf21" stroke-linecap="round" stroke-linejoin="round" stroke-width="3.5"/>
    <path id="Path_100751" data-name="Path 100751" d="M119.02,311l9.245,6.45-18.682,27.691L100,337.628" transform="translate(-100 -311)" fill="none" stroke="#4f72b2" stroke-linecap="round" stroke-linejoin="round" stroke-width="3.5"/>
    <path id="Path_100752" data-name="Path 100752" d="M142.13,311l-10.8,4.115,12.427,31.006,11.674-4.689" transform="translate(-71.743 -311)" fill="none" stroke="#ffaf21" stroke-linecap="round" stroke-linejoin="round" stroke-width="3.5"/>
  </g>
</svg>
